%TF.GenerationSoftware,KiCad,Pcbnew,5.1.12-84ad8e8a86~92~ubuntu20.04.1*%
%TF.CreationDate,2022-04-13T08:29:14-05:00*%
%TF.ProjectId,Twister,54776973-7465-4722-9e6b-696361645f70,rev?*%
%TF.SameCoordinates,Original*%
%TF.FileFunction,Copper,L1,Top*%
%TF.FilePolarity,Positive*%
%FSLAX46Y46*%
G04 Gerber Fmt 4.6, Leading zero omitted, Abs format (unit mm)*
G04 Created by KiCad (PCBNEW 5.1.12-84ad8e8a86~92~ubuntu20.04.1) date 2022-04-13 08:29:14*
%MOMM*%
%LPD*%
G01*
G04 APERTURE LIST*
%TA.AperFunction,ComponentPad*%
%ADD10O,1.700000X1.700000*%
%TD*%
%TA.AperFunction,ComponentPad*%
%ADD11R,1.700000X1.700000*%
%TD*%
%TA.AperFunction,ViaPad*%
%ADD12C,0.800000*%
%TD*%
%TA.AperFunction,Conductor*%
%ADD13C,0.350000*%
%TD*%
%TA.AperFunction,Conductor*%
%ADD14C,0.254000*%
%TD*%
%TA.AperFunction,Conductor*%
%ADD15C,0.150000*%
%TD*%
G04 APERTURE END LIST*
D10*
%TO.P,Je,50*%
%TO.N,/P50*%
X134620000Y-99060000D03*
%TO.P,Je,49*%
%TO.N,GND*%
X132080000Y-99060000D03*
%TO.P,Je,48*%
%TO.N,/P48*%
X134620000Y-96520000D03*
%TO.P,Je,47*%
%TO.N,GND*%
X132080000Y-96520000D03*
%TO.P,Je,46*%
%TO.N,/P46*%
X134620000Y-93980000D03*
%TO.P,Je,45*%
%TO.N,GND*%
X132080000Y-93980000D03*
%TO.P,Je,44*%
%TO.N,/P44*%
X134620000Y-91440000D03*
%TO.P,Je,43*%
%TO.N,GND*%
X132080000Y-91440000D03*
%TO.P,Je,42*%
%TO.N,/P42*%
X134620000Y-88900000D03*
%TO.P,Je,41*%
%TO.N,GND*%
X132080000Y-88900000D03*
%TO.P,Je,40*%
%TO.N,/P40*%
X134620000Y-86360000D03*
%TO.P,Je,39*%
%TO.N,GND*%
X132080000Y-86360000D03*
%TO.P,Je,38*%
%TO.N,/P38*%
X134620000Y-83820000D03*
%TO.P,Je,37*%
%TO.N,GND*%
X132080000Y-83820000D03*
%TO.P,Je,36*%
%TO.N,/P36*%
X134620000Y-81280000D03*
%TO.P,Je,35*%
%TO.N,GND*%
X132080000Y-81280000D03*
%TO.P,Je,34*%
%TO.N,/P34*%
X134620000Y-78740000D03*
%TO.P,Je,33*%
%TO.N,GND*%
X132080000Y-78740000D03*
%TO.P,Je,32*%
%TO.N,/P32*%
X134620000Y-76200000D03*
%TO.P,Je,31*%
%TO.N,GND*%
X132080000Y-76200000D03*
%TO.P,Je,30*%
%TO.N,/P30*%
X134620000Y-73660000D03*
%TO.P,Je,29*%
%TO.N,GND*%
X132080000Y-73660000D03*
%TO.P,Je,28*%
%TO.N,/P28*%
X134620000Y-71120000D03*
%TO.P,Je,27*%
%TO.N,GND*%
X132080000Y-71120000D03*
%TO.P,Je,26*%
%TO.N,/P26*%
X134620000Y-68580000D03*
%TO.P,Je,25*%
%TO.N,/P25*%
X132080000Y-68580000D03*
%TO.P,Je,24*%
%TO.N,/P24*%
X134620000Y-66040000D03*
%TO.P,Je,23*%
%TO.N,GND*%
X132080000Y-66040000D03*
%TO.P,Je,22*%
%TO.N,/P22*%
X134620000Y-63500000D03*
%TO.P,Je,21*%
%TO.N,GND*%
X132080000Y-63500000D03*
%TO.P,Je,20*%
%TO.N,/P20*%
X134620000Y-60960000D03*
%TO.P,Je,19*%
%TO.N,GND*%
X132080000Y-60960000D03*
%TO.P,Je,18*%
%TO.N,/P18*%
X134620000Y-58420000D03*
%TO.P,Je,17*%
%TO.N,GND*%
X132080000Y-58420000D03*
%TO.P,Je,16*%
%TO.N,/P16*%
X134620000Y-55880000D03*
%TO.P,Je,15*%
%TO.N,GND*%
X132080000Y-55880000D03*
%TO.P,Je,14*%
%TO.N,/P14*%
X134620000Y-53340000D03*
%TO.P,Je,13*%
%TO.N,GND*%
X132080000Y-53340000D03*
%TO.P,Je,12*%
%TO.N,/P12*%
X134620000Y-50800000D03*
%TO.P,Je,11*%
%TO.N,GND*%
X132080000Y-50800000D03*
%TO.P,Je,10*%
%TO.N,/P10*%
X134620000Y-48260000D03*
%TO.P,Je,9*%
%TO.N,GND*%
X132080000Y-48260000D03*
%TO.P,Je,8*%
%TO.N,/P8*%
X134620000Y-45720000D03*
%TO.P,Je,7*%
%TO.N,GND*%
X132080000Y-45720000D03*
%TO.P,Je,6*%
%TO.N,/P6*%
X134620000Y-43180000D03*
%TO.P,Je,5*%
%TO.N,GND*%
X132080000Y-43180000D03*
%TO.P,Je,4*%
%TO.N,/P4*%
X134620000Y-40640000D03*
%TO.P,Je,3*%
%TO.N,GND*%
X132080000Y-40640000D03*
%TO.P,Je,2*%
%TO.N,/P2*%
X134620000Y-38100000D03*
D11*
%TO.P,Je,1*%
%TO.N,GND*%
X132080000Y-38100000D03*
%TD*%
%TO.P,J1,1*%
%TO.N,GND*%
X106680000Y-99060000D03*
D10*
%TO.P,J1,2*%
%TO.N,/P2*%
X109220000Y-99060000D03*
%TO.P,J1,3*%
%TO.N,GND*%
X106680000Y-96520000D03*
%TO.P,J1,4*%
%TO.N,/P4*%
X109220000Y-96520000D03*
%TO.P,J1,5*%
%TO.N,GND*%
X106680000Y-93980000D03*
%TO.P,J1,6*%
%TO.N,/P6*%
X109220000Y-93980000D03*
%TO.P,J1,7*%
%TO.N,GND*%
X106680000Y-91440000D03*
%TO.P,J1,8*%
%TO.N,/P8*%
X109220000Y-91440000D03*
%TO.P,J1,9*%
%TO.N,GND*%
X106680000Y-88900000D03*
%TO.P,J1,10*%
%TO.N,/P10*%
X109220000Y-88900000D03*
%TO.P,J1,11*%
%TO.N,GND*%
X106680000Y-86360000D03*
%TO.P,J1,12*%
%TO.N,/P12*%
X109220000Y-86360000D03*
%TO.P,J1,13*%
%TO.N,GND*%
X106680000Y-83820000D03*
%TO.P,J1,14*%
%TO.N,/P14*%
X109220000Y-83820000D03*
%TO.P,J1,15*%
%TO.N,GND*%
X106680000Y-81280000D03*
%TO.P,J1,16*%
%TO.N,/P16*%
X109220000Y-81280000D03*
%TO.P,J1,17*%
%TO.N,GND*%
X106680000Y-78740000D03*
%TO.P,J1,18*%
%TO.N,/P18*%
X109220000Y-78740000D03*
%TO.P,J1,19*%
%TO.N,GND*%
X106680000Y-76200000D03*
%TO.P,J1,20*%
%TO.N,/P20*%
X109220000Y-76200000D03*
%TO.P,J1,21*%
%TO.N,GND*%
X106680000Y-73660000D03*
%TO.P,J1,22*%
%TO.N,/P22*%
X109220000Y-73660000D03*
%TO.P,J1,23*%
%TO.N,GND*%
X106680000Y-71120000D03*
%TO.P,J1,24*%
%TO.N,/P24*%
X109220000Y-71120000D03*
%TO.P,J1,25*%
%TO.N,/P25*%
X106680000Y-68580000D03*
%TO.P,J1,26*%
%TO.N,/P26*%
X109220000Y-68580000D03*
%TO.P,J1,27*%
%TO.N,GND*%
X106680000Y-66040000D03*
%TO.P,J1,28*%
%TO.N,/P28*%
X109220000Y-66040000D03*
%TO.P,J1,29*%
%TO.N,GND*%
X106680000Y-63500000D03*
%TO.P,J1,30*%
%TO.N,/P30*%
X109220000Y-63500000D03*
%TO.P,J1,31*%
%TO.N,GND*%
X106680000Y-60960000D03*
%TO.P,J1,32*%
%TO.N,/P32*%
X109220000Y-60960000D03*
%TO.P,J1,33*%
%TO.N,GND*%
X106680000Y-58420000D03*
%TO.P,J1,34*%
%TO.N,/P34*%
X109220000Y-58420000D03*
%TO.P,J1,35*%
%TO.N,GND*%
X106680000Y-55880000D03*
%TO.P,J1,36*%
%TO.N,/P36*%
X109220000Y-55880000D03*
%TO.P,J1,37*%
%TO.N,GND*%
X106680000Y-53340000D03*
%TO.P,J1,38*%
%TO.N,/P38*%
X109220000Y-53340000D03*
%TO.P,J1,39*%
%TO.N,GND*%
X106680000Y-50800000D03*
%TO.P,J1,40*%
%TO.N,/P40*%
X109220000Y-50800000D03*
%TO.P,J1,41*%
%TO.N,GND*%
X106680000Y-48260000D03*
%TO.P,J1,42*%
%TO.N,/P42*%
X109220000Y-48260000D03*
%TO.P,J1,43*%
%TO.N,GND*%
X106680000Y-45720000D03*
%TO.P,J1,44*%
%TO.N,/P44*%
X109220000Y-45720000D03*
%TO.P,J1,45*%
%TO.N,GND*%
X106680000Y-43180000D03*
%TO.P,J1,46*%
%TO.N,/P46*%
X109220000Y-43180000D03*
%TO.P,J1,47*%
%TO.N,GND*%
X106680000Y-40640000D03*
%TO.P,J1,48*%
%TO.N,/P48*%
X109220000Y-40640000D03*
%TO.P,J1,49*%
%TO.N,GND*%
X106680000Y-38100000D03*
%TO.P,J1,50*%
%TO.N,/P50*%
X109220000Y-38100000D03*
%TD*%
D12*
%TO.N,/P2*%
X129794000Y-36957000D03*
%TO.N,/P4*%
X129540000Y-39496994D03*
%TO.N,/P6*%
X129159000Y-41910000D03*
%TO.N,/P8*%
X128397000Y-44450000D03*
%TO.N,/P10*%
X127560780Y-46989999D03*
%TO.N,/P12*%
X126737222Y-49538778D03*
%TO.N,/P14*%
X125913677Y-52070000D03*
%TO.N,/P16*%
X125090119Y-54610000D03*
%TO.N,/P18*%
X124266565Y-57374999D03*
%TO.N,/P20*%
X123443011Y-60423001D03*
%TO.N,/P22*%
X122619455Y-63344013D03*
%TO.N,/P24*%
X121579369Y-65395285D03*
%TO.N,/P25*%
X120904000Y-68961000D03*
%TO.N,/P26*%
X120523000Y-67804990D03*
%TO.N,/P28*%
X120142004Y-66039996D03*
%TO.N,/P30*%
X119379998Y-63500000D03*
%TO.N,/P32*%
X118364008Y-60960000D03*
%TO.N,/P34*%
X117729000Y-58420000D03*
%TO.N,/P36*%
X117093997Y-55880001D03*
%TO.N,/P38*%
X116459004Y-53340000D03*
%TO.N,/P40*%
X115570000Y-50800000D03*
%TO.N,/P42*%
X114935002Y-48259998D03*
%TO.N,/P44*%
X114173004Y-45720000D03*
%TO.N,/P46*%
X113537996Y-43180000D03*
%TO.N,/P48*%
X112649000Y-40640000D03*
%TO.N,/P50*%
X111632998Y-38100000D03*
%TO.N,GND*%
X121539000Y-61849000D03*
X119507000Y-58928000D03*
X122301000Y-58928000D03*
X118999000Y-55880000D03*
X122809000Y-55880000D03*
X118491000Y-53213000D03*
X123063000Y-53213000D03*
X117475000Y-50673000D03*
X120840500Y-50673000D03*
X124206000Y-50673000D03*
X116967000Y-48260000D03*
X120967500Y-48260000D03*
X124968000Y-48260000D03*
X118164426Y-101962000D03*
X109492142Y-101962000D03*
X131172852Y-101962000D03*
X126836710Y-101962000D03*
X105156000Y-101962000D03*
X113828284Y-101962000D03*
X135509000Y-101962000D03*
X122500568Y-101962000D03*
X128016000Y-96520000D03*
X127381000Y-93980000D03*
X126746000Y-91440000D03*
X126238000Y-88646000D03*
X125603000Y-86360000D03*
X124968000Y-83820000D03*
X123444000Y-81280000D03*
X124968000Y-78740000D03*
X121666000Y-78740000D03*
X123952000Y-76200000D03*
X123380500Y-73660000D03*
X121094500Y-75946000D03*
X119507000Y-77216000D03*
X117348000Y-77470000D03*
X117348000Y-80010000D03*
X116840000Y-82550000D03*
X116459000Y-85090000D03*
X119380000Y-85090000D03*
X115951000Y-87630000D03*
X113284000Y-87757000D03*
X113919000Y-85090000D03*
X115443000Y-90170000D03*
X118618000Y-90170000D03*
X114300000Y-92710000D03*
X117856000Y-92710000D03*
X116840000Y-95250000D03*
X110998000Y-95250000D03*
X112966500Y-95250000D03*
X111760000Y-97790000D03*
X114681000Y-97790000D03*
X117602000Y-75057000D03*
X120777000Y-64008000D03*
X119888000Y-61849000D03*
X116459000Y-45593000D03*
X121094500Y-45593000D03*
X125730000Y-45593000D03*
X115697000Y-43053000D03*
X121031000Y-43053000D03*
X126365000Y-43053000D03*
X114681000Y-40640000D03*
X121031000Y-40640000D03*
X127381000Y-40640000D03*
X114300000Y-38100000D03*
X120904000Y-38100000D03*
X127508000Y-38100000D03*
X117910426Y-35036000D03*
X122246568Y-35036000D03*
X126582710Y-35036000D03*
X130918852Y-35036000D03*
X135255000Y-35036000D03*
X104902000Y-35036000D03*
X109238142Y-35036000D03*
X113574284Y-35036000D03*
X129857500Y-93980000D03*
X112522000Y-90170000D03*
X121158000Y-73533000D03*
X121348500Y-71056500D03*
X119253000Y-72390000D03*
%TD*%
D13*
%TO.N,/P2*%
X130701999Y-37864999D02*
X129794000Y-36957000D01*
X109220000Y-99060000D02*
X127254000Y-99060000D01*
X127254000Y-99060000D02*
X130701999Y-95612001D01*
X130701999Y-95612001D02*
X130701999Y-37864999D01*
%TO.N,/P4*%
X130031441Y-39988435D02*
X129540000Y-39496994D01*
X130031441Y-92599559D02*
X130031441Y-39988435D01*
X126111000Y-96520000D02*
X130031441Y-92599559D01*
X109220000Y-96520000D02*
X126111000Y-96520000D01*
%TO.N,/P6*%
X129207887Y-41958887D02*
X129159000Y-41910000D01*
X129207887Y-90883113D02*
X129207887Y-41958887D01*
X126111000Y-93980000D02*
X129207887Y-90883113D01*
X109220000Y-93980000D02*
X126111000Y-93980000D01*
%TO.N,/P8*%
X128384333Y-44462667D02*
X128397000Y-44450000D01*
X128384333Y-88023667D02*
X128384333Y-44462667D01*
X124968000Y-91440000D02*
X128384333Y-88023667D01*
X109220000Y-91440000D02*
X124968000Y-91440000D01*
%TO.N,/P10*%
X127560779Y-85799221D02*
X127560779Y-85428022D01*
X124460000Y-88900000D02*
X127560779Y-85799221D01*
X127560779Y-85428022D02*
X127560779Y-46990000D01*
X109220000Y-88900000D02*
X124460000Y-88900000D01*
%TO.N,/P12*%
X126737225Y-83828775D02*
X126737225Y-83430225D01*
X124206000Y-86360000D02*
X126737225Y-83828775D01*
X109220000Y-86360000D02*
X124206000Y-86360000D01*
X126737225Y-49538775D02*
X126746000Y-49530000D01*
X126737225Y-83438033D02*
X126737225Y-49538775D01*
%TO.N,/P14*%
X125913671Y-80813044D02*
X125913671Y-52070000D01*
X125913671Y-80842329D02*
X125913671Y-80813044D01*
X122936000Y-83820000D02*
X125913671Y-80842329D01*
X109220000Y-83820000D02*
X122936000Y-83820000D01*
%TO.N,/P16*%
X125090117Y-54610002D02*
X125090119Y-54610000D01*
X125090117Y-77220883D02*
X125090117Y-54610002D01*
X121031000Y-81280000D02*
X125090117Y-77220883D01*
X109220000Y-81280000D02*
X121031000Y-81280000D01*
%TO.N,/P18*%
X124266563Y-73980437D02*
X124266563Y-73658066D01*
X124266563Y-73658066D02*
X124266563Y-57374999D01*
X119507000Y-78740000D02*
X124266563Y-73980437D01*
X109220000Y-78740000D02*
X119507000Y-78740000D01*
%TO.N,/P20*%
X123443009Y-72049077D02*
X123443009Y-60422999D01*
X123443009Y-72390991D02*
X123443009Y-72049077D01*
X119634000Y-76200000D02*
X123443009Y-72390991D01*
X109220000Y-76200000D02*
X119634000Y-76200000D01*
%TO.N,/P22*%
X122619455Y-70440088D02*
X122619455Y-63343999D01*
X122619455Y-70928545D02*
X122619455Y-70440088D01*
X119888000Y-73660000D02*
X122619455Y-70928545D01*
X109220000Y-73660000D02*
X119888000Y-73660000D01*
%TO.N,/P24*%
X121793000Y-69469000D02*
X121793000Y-65608916D01*
X121793000Y-65608916D02*
X121579369Y-65395285D01*
X120142000Y-71120000D02*
X121793000Y-69469000D01*
X109220000Y-71120000D02*
X120142000Y-71120000D01*
%TO.N,/P25*%
X120059999Y-69805001D02*
X120904000Y-68961000D01*
X107905001Y-69805001D02*
X120059999Y-69805001D01*
X106680000Y-68580000D02*
X107905001Y-69805001D01*
%TO.N,/P26*%
X109220000Y-68580000D02*
X109995010Y-67804990D01*
X109995010Y-67804990D02*
X120523000Y-67804990D01*
%TO.N,/P28*%
X120142000Y-66040000D02*
X120142004Y-66039996D01*
X109220000Y-66040000D02*
X120142000Y-66040000D01*
%TO.N,/P30*%
X109220000Y-63500000D02*
X110422081Y-63500000D01*
X110422081Y-63500000D02*
X119379998Y-63500000D01*
%TO.N,/P32*%
X109220000Y-60960000D02*
X118364008Y-60960000D01*
%TO.N,/P34*%
X109220000Y-58420000D02*
X117729000Y-58420000D01*
%TO.N,/P36*%
X109220000Y-55880000D02*
X110422082Y-55880001D01*
X110422082Y-55880001D02*
X117093997Y-55880001D01*
%TO.N,/P38*%
X109220000Y-53340000D02*
X116459004Y-53340000D01*
%TO.N,/P40*%
X109220000Y-50800000D02*
X115570000Y-50800000D01*
%TO.N,/P42*%
X109220000Y-48260000D02*
X114935000Y-48260000D01*
X114935000Y-48260000D02*
X114935002Y-48259998D01*
%TO.N,/P44*%
X109220000Y-45720000D02*
X110422081Y-45720000D01*
X110422081Y-45720000D02*
X114173004Y-45720000D01*
%TO.N,/P46*%
X109220000Y-43180000D02*
X113537996Y-43180000D01*
%TO.N,/P48*%
X109220000Y-40640000D02*
X112649000Y-40640000D01*
%TO.N,/P50*%
X109220000Y-38100000D02*
X111632998Y-38100000D01*
%TD*%
D14*
%TO.N,GND*%
X137828115Y-34028551D02*
X138226462Y-34148819D01*
X138593864Y-34344170D01*
X138916317Y-34607157D01*
X139181553Y-34927773D01*
X139379460Y-35293795D01*
X139502506Y-35691291D01*
X139548000Y-36124137D01*
X139548001Y-101020136D01*
X139505449Y-101454115D01*
X139385181Y-101852464D01*
X139189831Y-102219862D01*
X138926845Y-102542315D01*
X138606226Y-102807554D01*
X138240204Y-103005461D01*
X137842708Y-103128506D01*
X137409863Y-103174000D01*
X104159854Y-103174000D01*
X103725885Y-103131449D01*
X103327536Y-103011181D01*
X102960138Y-102815831D01*
X102637685Y-102552845D01*
X102372446Y-102232226D01*
X102174539Y-101866204D01*
X102051494Y-101468708D01*
X102006000Y-101035863D01*
X102006000Y-68458757D01*
X105449000Y-68458757D01*
X105449000Y-68701243D01*
X105496307Y-68939069D01*
X105589102Y-69163097D01*
X105723820Y-69364717D01*
X105895283Y-69536180D01*
X106096903Y-69670898D01*
X106320931Y-69763693D01*
X106558757Y-69811000D01*
X106801243Y-69811000D01*
X107039069Y-69763693D01*
X107066167Y-69752469D01*
X107492536Y-70178838D01*
X107509948Y-70200054D01*
X107594609Y-70269535D01*
X107691200Y-70321163D01*
X107796006Y-70352956D01*
X107877689Y-70361001D01*
X107877696Y-70361001D01*
X107905000Y-70363690D01*
X107932305Y-70361001D01*
X108246636Y-70361001D01*
X108129102Y-70536903D01*
X108036307Y-70760931D01*
X107989000Y-70998757D01*
X107989000Y-71241243D01*
X108036307Y-71479069D01*
X108129102Y-71703097D01*
X108263820Y-71904717D01*
X108435283Y-72076180D01*
X108636903Y-72210898D01*
X108860931Y-72303693D01*
X109098757Y-72351000D01*
X109341243Y-72351000D01*
X109579069Y-72303693D01*
X109803097Y-72210898D01*
X110004717Y-72076180D01*
X110176180Y-71904717D01*
X110310898Y-71703097D01*
X110322122Y-71676000D01*
X120114696Y-71676000D01*
X120142000Y-71678689D01*
X120169304Y-71676000D01*
X120169312Y-71676000D01*
X120250995Y-71667955D01*
X120355801Y-71636162D01*
X120452392Y-71584534D01*
X120537053Y-71515053D01*
X120554469Y-71493832D01*
X122063455Y-69984848D01*
X122063455Y-70698242D01*
X119657699Y-73104000D01*
X110322122Y-73104000D01*
X110310898Y-73076903D01*
X110176180Y-72875283D01*
X110004717Y-72703820D01*
X109803097Y-72569102D01*
X109579069Y-72476307D01*
X109341243Y-72429000D01*
X109098757Y-72429000D01*
X108860931Y-72476307D01*
X108636903Y-72569102D01*
X108435283Y-72703820D01*
X108263820Y-72875283D01*
X108129102Y-73076903D01*
X108036307Y-73300931D01*
X107989000Y-73538757D01*
X107989000Y-73781243D01*
X108036307Y-74019069D01*
X108129102Y-74243097D01*
X108263820Y-74444717D01*
X108435283Y-74616180D01*
X108636903Y-74750898D01*
X108860931Y-74843693D01*
X109098757Y-74891000D01*
X109341243Y-74891000D01*
X109579069Y-74843693D01*
X109803097Y-74750898D01*
X110004717Y-74616180D01*
X110176180Y-74444717D01*
X110310898Y-74243097D01*
X110322122Y-74216000D01*
X119860696Y-74216000D01*
X119888000Y-74218689D01*
X119915304Y-74216000D01*
X119915312Y-74216000D01*
X119996995Y-74207955D01*
X120101801Y-74176162D01*
X120198392Y-74124534D01*
X120283053Y-74055053D01*
X120300469Y-74033832D01*
X122887009Y-71447294D01*
X122887009Y-72160688D01*
X119403699Y-75644000D01*
X110322122Y-75644000D01*
X110310898Y-75616903D01*
X110176180Y-75415283D01*
X110004717Y-75243820D01*
X109803097Y-75109102D01*
X109579069Y-75016307D01*
X109341243Y-74969000D01*
X109098757Y-74969000D01*
X108860931Y-75016307D01*
X108636903Y-75109102D01*
X108435283Y-75243820D01*
X108263820Y-75415283D01*
X108129102Y-75616903D01*
X108036307Y-75840931D01*
X107989000Y-76078757D01*
X107989000Y-76321243D01*
X108036307Y-76559069D01*
X108129102Y-76783097D01*
X108263820Y-76984717D01*
X108435283Y-77156180D01*
X108636903Y-77290898D01*
X108860931Y-77383693D01*
X109098757Y-77431000D01*
X109341243Y-77431000D01*
X109579069Y-77383693D01*
X109803097Y-77290898D01*
X110004717Y-77156180D01*
X110176180Y-76984717D01*
X110310898Y-76783097D01*
X110322122Y-76756000D01*
X119606696Y-76756000D01*
X119634000Y-76758689D01*
X119661304Y-76756000D01*
X119661312Y-76756000D01*
X119742995Y-76747955D01*
X119847801Y-76716162D01*
X119944392Y-76664534D01*
X120029053Y-76595053D01*
X120046469Y-76573832D01*
X123710563Y-72909740D01*
X123710563Y-73750134D01*
X119276699Y-78184000D01*
X110322122Y-78184000D01*
X110310898Y-78156903D01*
X110176180Y-77955283D01*
X110004717Y-77783820D01*
X109803097Y-77649102D01*
X109579069Y-77556307D01*
X109341243Y-77509000D01*
X109098757Y-77509000D01*
X108860931Y-77556307D01*
X108636903Y-77649102D01*
X108435283Y-77783820D01*
X108263820Y-77955283D01*
X108129102Y-78156903D01*
X108036307Y-78380931D01*
X107989000Y-78618757D01*
X107989000Y-78861243D01*
X108036307Y-79099069D01*
X108129102Y-79323097D01*
X108263820Y-79524717D01*
X108435283Y-79696180D01*
X108636903Y-79830898D01*
X108860931Y-79923693D01*
X109098757Y-79971000D01*
X109341243Y-79971000D01*
X109579069Y-79923693D01*
X109803097Y-79830898D01*
X110004717Y-79696180D01*
X110176180Y-79524717D01*
X110310898Y-79323097D01*
X110322122Y-79296000D01*
X119479696Y-79296000D01*
X119507000Y-79298689D01*
X119534304Y-79296000D01*
X119534312Y-79296000D01*
X119615995Y-79287955D01*
X119720801Y-79256162D01*
X119817392Y-79204534D01*
X119902053Y-79135053D01*
X119919469Y-79113832D01*
X124534117Y-74499186D01*
X124534117Y-76990580D01*
X120800699Y-80724000D01*
X110322122Y-80724000D01*
X110310898Y-80696903D01*
X110176180Y-80495283D01*
X110004717Y-80323820D01*
X109803097Y-80189102D01*
X109579069Y-80096307D01*
X109341243Y-80049000D01*
X109098757Y-80049000D01*
X108860931Y-80096307D01*
X108636903Y-80189102D01*
X108435283Y-80323820D01*
X108263820Y-80495283D01*
X108129102Y-80696903D01*
X108036307Y-80920931D01*
X107989000Y-81158757D01*
X107989000Y-81401243D01*
X108036307Y-81639069D01*
X108129102Y-81863097D01*
X108263820Y-82064717D01*
X108435283Y-82236180D01*
X108636903Y-82370898D01*
X108860931Y-82463693D01*
X109098757Y-82511000D01*
X109341243Y-82511000D01*
X109579069Y-82463693D01*
X109803097Y-82370898D01*
X110004717Y-82236180D01*
X110176180Y-82064717D01*
X110310898Y-81863097D01*
X110322122Y-81836000D01*
X121003696Y-81836000D01*
X121031000Y-81838689D01*
X121058304Y-81836000D01*
X121058312Y-81836000D01*
X121139995Y-81827955D01*
X121244801Y-81796162D01*
X121341392Y-81744534D01*
X121426053Y-81675053D01*
X121443469Y-81653832D01*
X125357671Y-77739632D01*
X125357671Y-80612026D01*
X122705699Y-83264000D01*
X110322122Y-83264000D01*
X110310898Y-83236903D01*
X110176180Y-83035283D01*
X110004717Y-82863820D01*
X109803097Y-82729102D01*
X109579069Y-82636307D01*
X109341243Y-82589000D01*
X109098757Y-82589000D01*
X108860931Y-82636307D01*
X108636903Y-82729102D01*
X108435283Y-82863820D01*
X108263820Y-83035283D01*
X108129102Y-83236903D01*
X108036307Y-83460931D01*
X107989000Y-83698757D01*
X107989000Y-83941243D01*
X108036307Y-84179069D01*
X108129102Y-84403097D01*
X108263820Y-84604717D01*
X108435283Y-84776180D01*
X108636903Y-84910898D01*
X108860931Y-85003693D01*
X109098757Y-85051000D01*
X109341243Y-85051000D01*
X109579069Y-85003693D01*
X109803097Y-84910898D01*
X110004717Y-84776180D01*
X110176180Y-84604717D01*
X110310898Y-84403097D01*
X110322122Y-84376000D01*
X122908696Y-84376000D01*
X122936000Y-84378689D01*
X122963304Y-84376000D01*
X122963312Y-84376000D01*
X123044995Y-84367955D01*
X123149801Y-84336162D01*
X123246392Y-84284534D01*
X123331053Y-84215053D01*
X123348469Y-84193832D01*
X126181225Y-81361078D01*
X126181225Y-83598472D01*
X123975699Y-85804000D01*
X110322122Y-85804000D01*
X110310898Y-85776903D01*
X110176180Y-85575283D01*
X110004717Y-85403820D01*
X109803097Y-85269102D01*
X109579069Y-85176307D01*
X109341243Y-85129000D01*
X109098757Y-85129000D01*
X108860931Y-85176307D01*
X108636903Y-85269102D01*
X108435283Y-85403820D01*
X108263820Y-85575283D01*
X108129102Y-85776903D01*
X108036307Y-86000931D01*
X107989000Y-86238757D01*
X107989000Y-86481243D01*
X108036307Y-86719069D01*
X108129102Y-86943097D01*
X108263820Y-87144717D01*
X108435283Y-87316180D01*
X108636903Y-87450898D01*
X108860931Y-87543693D01*
X109098757Y-87591000D01*
X109341243Y-87591000D01*
X109579069Y-87543693D01*
X109803097Y-87450898D01*
X110004717Y-87316180D01*
X110176180Y-87144717D01*
X110310898Y-86943097D01*
X110322122Y-86916000D01*
X124178696Y-86916000D01*
X124206000Y-86918689D01*
X124233304Y-86916000D01*
X124233312Y-86916000D01*
X124314995Y-86907955D01*
X124419801Y-86876162D01*
X124516392Y-86824534D01*
X124601053Y-86755053D01*
X124618469Y-86733832D01*
X127004779Y-84347524D01*
X127004779Y-85568918D01*
X124229699Y-88344000D01*
X110322122Y-88344000D01*
X110310898Y-88316903D01*
X110176180Y-88115283D01*
X110004717Y-87943820D01*
X109803097Y-87809102D01*
X109579069Y-87716307D01*
X109341243Y-87669000D01*
X109098757Y-87669000D01*
X108860931Y-87716307D01*
X108636903Y-87809102D01*
X108435283Y-87943820D01*
X108263820Y-88115283D01*
X108129102Y-88316903D01*
X108036307Y-88540931D01*
X107989000Y-88778757D01*
X107989000Y-89021243D01*
X108036307Y-89259069D01*
X108129102Y-89483097D01*
X108263820Y-89684717D01*
X108435283Y-89856180D01*
X108636903Y-89990898D01*
X108860931Y-90083693D01*
X109098757Y-90131000D01*
X109341243Y-90131000D01*
X109579069Y-90083693D01*
X109803097Y-89990898D01*
X110004717Y-89856180D01*
X110176180Y-89684717D01*
X110310898Y-89483097D01*
X110322122Y-89456000D01*
X124432696Y-89456000D01*
X124460000Y-89458689D01*
X124487304Y-89456000D01*
X124487312Y-89456000D01*
X124568995Y-89447955D01*
X124673801Y-89416162D01*
X124770392Y-89364534D01*
X124855053Y-89295053D01*
X124872469Y-89273832D01*
X127828333Y-86317970D01*
X127828333Y-87793364D01*
X124737699Y-90884000D01*
X110322122Y-90884000D01*
X110310898Y-90856903D01*
X110176180Y-90655283D01*
X110004717Y-90483820D01*
X109803097Y-90349102D01*
X109579069Y-90256307D01*
X109341243Y-90209000D01*
X109098757Y-90209000D01*
X108860931Y-90256307D01*
X108636903Y-90349102D01*
X108435283Y-90483820D01*
X108263820Y-90655283D01*
X108129102Y-90856903D01*
X108036307Y-91080931D01*
X107989000Y-91318757D01*
X107989000Y-91561243D01*
X108036307Y-91799069D01*
X108129102Y-92023097D01*
X108263820Y-92224717D01*
X108435283Y-92396180D01*
X108636903Y-92530898D01*
X108860931Y-92623693D01*
X109098757Y-92671000D01*
X109341243Y-92671000D01*
X109579069Y-92623693D01*
X109803097Y-92530898D01*
X110004717Y-92396180D01*
X110176180Y-92224717D01*
X110310898Y-92023097D01*
X110322122Y-91996000D01*
X124940696Y-91996000D01*
X124968000Y-91998689D01*
X124995304Y-91996000D01*
X124995312Y-91996000D01*
X125076995Y-91987955D01*
X125181801Y-91956162D01*
X125278392Y-91904534D01*
X125363053Y-91835053D01*
X125380469Y-91813832D01*
X128651887Y-88542416D01*
X128651887Y-90652810D01*
X125880699Y-93424000D01*
X110322122Y-93424000D01*
X110310898Y-93396903D01*
X110176180Y-93195283D01*
X110004717Y-93023820D01*
X109803097Y-92889102D01*
X109579069Y-92796307D01*
X109341243Y-92749000D01*
X109098757Y-92749000D01*
X108860931Y-92796307D01*
X108636903Y-92889102D01*
X108435283Y-93023820D01*
X108263820Y-93195283D01*
X108129102Y-93396903D01*
X108036307Y-93620931D01*
X107989000Y-93858757D01*
X107989000Y-94101243D01*
X108036307Y-94339069D01*
X108129102Y-94563097D01*
X108263820Y-94764717D01*
X108435283Y-94936180D01*
X108636903Y-95070898D01*
X108860931Y-95163693D01*
X109098757Y-95211000D01*
X109341243Y-95211000D01*
X109579069Y-95163693D01*
X109803097Y-95070898D01*
X110004717Y-94936180D01*
X110176180Y-94764717D01*
X110310898Y-94563097D01*
X110322122Y-94536000D01*
X126083696Y-94536000D01*
X126111000Y-94538689D01*
X126138304Y-94536000D01*
X126138312Y-94536000D01*
X126219995Y-94527955D01*
X126324801Y-94496162D01*
X126421392Y-94444534D01*
X126506053Y-94375053D01*
X126523469Y-94353832D01*
X129475441Y-91401862D01*
X129475441Y-92369257D01*
X125880699Y-95964000D01*
X110322122Y-95964000D01*
X110310898Y-95936903D01*
X110176180Y-95735283D01*
X110004717Y-95563820D01*
X109803097Y-95429102D01*
X109579069Y-95336307D01*
X109341243Y-95289000D01*
X109098757Y-95289000D01*
X108860931Y-95336307D01*
X108636903Y-95429102D01*
X108435283Y-95563820D01*
X108263820Y-95735283D01*
X108129102Y-95936903D01*
X108036307Y-96160931D01*
X107989000Y-96398757D01*
X107989000Y-96641243D01*
X108036307Y-96879069D01*
X108129102Y-97103097D01*
X108263820Y-97304717D01*
X108435283Y-97476180D01*
X108636903Y-97610898D01*
X108860931Y-97703693D01*
X109098757Y-97751000D01*
X109341243Y-97751000D01*
X109579069Y-97703693D01*
X109803097Y-97610898D01*
X110004717Y-97476180D01*
X110176180Y-97304717D01*
X110310898Y-97103097D01*
X110322122Y-97076000D01*
X126083696Y-97076000D01*
X126111000Y-97078689D01*
X126138304Y-97076000D01*
X126138312Y-97076000D01*
X126219995Y-97067955D01*
X126324801Y-97036162D01*
X126421392Y-96984534D01*
X126506053Y-96915053D01*
X126523469Y-96893832D01*
X130145999Y-93271303D01*
X130145999Y-95381699D01*
X127023699Y-98504000D01*
X110322122Y-98504000D01*
X110310898Y-98476903D01*
X110176180Y-98275283D01*
X110004717Y-98103820D01*
X109803097Y-97969102D01*
X109579069Y-97876307D01*
X109341243Y-97829000D01*
X109098757Y-97829000D01*
X108860931Y-97876307D01*
X108636903Y-97969102D01*
X108435283Y-98103820D01*
X108263820Y-98275283D01*
X108129102Y-98476903D01*
X108036307Y-98700931D01*
X107989000Y-98938757D01*
X107989000Y-99181243D01*
X108036307Y-99419069D01*
X108129102Y-99643097D01*
X108263820Y-99844717D01*
X108435283Y-100016180D01*
X108636903Y-100150898D01*
X108860931Y-100243693D01*
X109098757Y-100291000D01*
X109341243Y-100291000D01*
X109579069Y-100243693D01*
X109803097Y-100150898D01*
X110004717Y-100016180D01*
X110176180Y-99844717D01*
X110310898Y-99643097D01*
X110322122Y-99616000D01*
X127226696Y-99616000D01*
X127254000Y-99618689D01*
X127281304Y-99616000D01*
X127281312Y-99616000D01*
X127362995Y-99607955D01*
X127467801Y-99576162D01*
X127564392Y-99524534D01*
X127649053Y-99455053D01*
X127666469Y-99433832D01*
X128161544Y-98938757D01*
X133389000Y-98938757D01*
X133389000Y-99181243D01*
X133436307Y-99419069D01*
X133529102Y-99643097D01*
X133663820Y-99844717D01*
X133835283Y-100016180D01*
X134036903Y-100150898D01*
X134260931Y-100243693D01*
X134498757Y-100291000D01*
X134741243Y-100291000D01*
X134979069Y-100243693D01*
X135203097Y-100150898D01*
X135404717Y-100016180D01*
X135576180Y-99844717D01*
X135710898Y-99643097D01*
X135803693Y-99419069D01*
X135851000Y-99181243D01*
X135851000Y-98938757D01*
X135803693Y-98700931D01*
X135710898Y-98476903D01*
X135576180Y-98275283D01*
X135404717Y-98103820D01*
X135203097Y-97969102D01*
X134979069Y-97876307D01*
X134741243Y-97829000D01*
X134498757Y-97829000D01*
X134260931Y-97876307D01*
X134036903Y-97969102D01*
X133835283Y-98103820D01*
X133663820Y-98275283D01*
X133529102Y-98476903D01*
X133436307Y-98700931D01*
X133389000Y-98938757D01*
X128161544Y-98938757D01*
X130701544Y-96398757D01*
X133389000Y-96398757D01*
X133389000Y-96641243D01*
X133436307Y-96879069D01*
X133529102Y-97103097D01*
X133663820Y-97304717D01*
X133835283Y-97476180D01*
X134036903Y-97610898D01*
X134260931Y-97703693D01*
X134498757Y-97751000D01*
X134741243Y-97751000D01*
X134979069Y-97703693D01*
X135203097Y-97610898D01*
X135404717Y-97476180D01*
X135576180Y-97304717D01*
X135710898Y-97103097D01*
X135803693Y-96879069D01*
X135851000Y-96641243D01*
X135851000Y-96398757D01*
X135803693Y-96160931D01*
X135710898Y-95936903D01*
X135576180Y-95735283D01*
X135404717Y-95563820D01*
X135203097Y-95429102D01*
X134979069Y-95336307D01*
X134741243Y-95289000D01*
X134498757Y-95289000D01*
X134260931Y-95336307D01*
X134036903Y-95429102D01*
X133835283Y-95563820D01*
X133663820Y-95735283D01*
X133529102Y-95936903D01*
X133436307Y-96160931D01*
X133389000Y-96398757D01*
X130701544Y-96398757D01*
X131075836Y-96024465D01*
X131097052Y-96007054D01*
X131166533Y-95922393D01*
X131218161Y-95825802D01*
X131249954Y-95720996D01*
X131257999Y-95639313D01*
X131257999Y-95639306D01*
X131260688Y-95612001D01*
X131257999Y-95584697D01*
X131257999Y-93858757D01*
X133389000Y-93858757D01*
X133389000Y-94101243D01*
X133436307Y-94339069D01*
X133529102Y-94563097D01*
X133663820Y-94764717D01*
X133835283Y-94936180D01*
X134036903Y-95070898D01*
X134260931Y-95163693D01*
X134498757Y-95211000D01*
X134741243Y-95211000D01*
X134979069Y-95163693D01*
X135203097Y-95070898D01*
X135404717Y-94936180D01*
X135576180Y-94764717D01*
X135710898Y-94563097D01*
X135803693Y-94339069D01*
X135851000Y-94101243D01*
X135851000Y-93858757D01*
X135803693Y-93620931D01*
X135710898Y-93396903D01*
X135576180Y-93195283D01*
X135404717Y-93023820D01*
X135203097Y-92889102D01*
X134979069Y-92796307D01*
X134741243Y-92749000D01*
X134498757Y-92749000D01*
X134260931Y-92796307D01*
X134036903Y-92889102D01*
X133835283Y-93023820D01*
X133663820Y-93195283D01*
X133529102Y-93396903D01*
X133436307Y-93620931D01*
X133389000Y-93858757D01*
X131257999Y-93858757D01*
X131257999Y-91318757D01*
X133389000Y-91318757D01*
X133389000Y-91561243D01*
X133436307Y-91799069D01*
X133529102Y-92023097D01*
X133663820Y-92224717D01*
X133835283Y-92396180D01*
X134036903Y-92530898D01*
X134260931Y-92623693D01*
X134498757Y-92671000D01*
X134741243Y-92671000D01*
X134979069Y-92623693D01*
X135203097Y-92530898D01*
X135404717Y-92396180D01*
X135576180Y-92224717D01*
X135710898Y-92023097D01*
X135803693Y-91799069D01*
X135851000Y-91561243D01*
X135851000Y-91318757D01*
X135803693Y-91080931D01*
X135710898Y-90856903D01*
X135576180Y-90655283D01*
X135404717Y-90483820D01*
X135203097Y-90349102D01*
X134979069Y-90256307D01*
X134741243Y-90209000D01*
X134498757Y-90209000D01*
X134260931Y-90256307D01*
X134036903Y-90349102D01*
X133835283Y-90483820D01*
X133663820Y-90655283D01*
X133529102Y-90856903D01*
X133436307Y-91080931D01*
X133389000Y-91318757D01*
X131257999Y-91318757D01*
X131257999Y-88778757D01*
X133389000Y-88778757D01*
X133389000Y-89021243D01*
X133436307Y-89259069D01*
X133529102Y-89483097D01*
X133663820Y-89684717D01*
X133835283Y-89856180D01*
X134036903Y-89990898D01*
X134260931Y-90083693D01*
X134498757Y-90131000D01*
X134741243Y-90131000D01*
X134979069Y-90083693D01*
X135203097Y-89990898D01*
X135404717Y-89856180D01*
X135576180Y-89684717D01*
X135710898Y-89483097D01*
X135803693Y-89259069D01*
X135851000Y-89021243D01*
X135851000Y-88778757D01*
X135803693Y-88540931D01*
X135710898Y-88316903D01*
X135576180Y-88115283D01*
X135404717Y-87943820D01*
X135203097Y-87809102D01*
X134979069Y-87716307D01*
X134741243Y-87669000D01*
X134498757Y-87669000D01*
X134260931Y-87716307D01*
X134036903Y-87809102D01*
X133835283Y-87943820D01*
X133663820Y-88115283D01*
X133529102Y-88316903D01*
X133436307Y-88540931D01*
X133389000Y-88778757D01*
X131257999Y-88778757D01*
X131257999Y-86238757D01*
X133389000Y-86238757D01*
X133389000Y-86481243D01*
X133436307Y-86719069D01*
X133529102Y-86943097D01*
X133663820Y-87144717D01*
X133835283Y-87316180D01*
X134036903Y-87450898D01*
X134260931Y-87543693D01*
X134498757Y-87591000D01*
X134741243Y-87591000D01*
X134979069Y-87543693D01*
X135203097Y-87450898D01*
X135404717Y-87316180D01*
X135576180Y-87144717D01*
X135710898Y-86943097D01*
X135803693Y-86719069D01*
X135851000Y-86481243D01*
X135851000Y-86238757D01*
X135803693Y-86000931D01*
X135710898Y-85776903D01*
X135576180Y-85575283D01*
X135404717Y-85403820D01*
X135203097Y-85269102D01*
X134979069Y-85176307D01*
X134741243Y-85129000D01*
X134498757Y-85129000D01*
X134260931Y-85176307D01*
X134036903Y-85269102D01*
X133835283Y-85403820D01*
X133663820Y-85575283D01*
X133529102Y-85776903D01*
X133436307Y-86000931D01*
X133389000Y-86238757D01*
X131257999Y-86238757D01*
X131257999Y-83698757D01*
X133389000Y-83698757D01*
X133389000Y-83941243D01*
X133436307Y-84179069D01*
X133529102Y-84403097D01*
X133663820Y-84604717D01*
X133835283Y-84776180D01*
X134036903Y-84910898D01*
X134260931Y-85003693D01*
X134498757Y-85051000D01*
X134741243Y-85051000D01*
X134979069Y-85003693D01*
X135203097Y-84910898D01*
X135404717Y-84776180D01*
X135576180Y-84604717D01*
X135710898Y-84403097D01*
X135803693Y-84179069D01*
X135851000Y-83941243D01*
X135851000Y-83698757D01*
X135803693Y-83460931D01*
X135710898Y-83236903D01*
X135576180Y-83035283D01*
X135404717Y-82863820D01*
X135203097Y-82729102D01*
X134979069Y-82636307D01*
X134741243Y-82589000D01*
X134498757Y-82589000D01*
X134260931Y-82636307D01*
X134036903Y-82729102D01*
X133835283Y-82863820D01*
X133663820Y-83035283D01*
X133529102Y-83236903D01*
X133436307Y-83460931D01*
X133389000Y-83698757D01*
X131257999Y-83698757D01*
X131257999Y-81158757D01*
X133389000Y-81158757D01*
X133389000Y-81401243D01*
X133436307Y-81639069D01*
X133529102Y-81863097D01*
X133663820Y-82064717D01*
X133835283Y-82236180D01*
X134036903Y-82370898D01*
X134260931Y-82463693D01*
X134498757Y-82511000D01*
X134741243Y-82511000D01*
X134979069Y-82463693D01*
X135203097Y-82370898D01*
X135404717Y-82236180D01*
X135576180Y-82064717D01*
X135710898Y-81863097D01*
X135803693Y-81639069D01*
X135851000Y-81401243D01*
X135851000Y-81158757D01*
X135803693Y-80920931D01*
X135710898Y-80696903D01*
X135576180Y-80495283D01*
X135404717Y-80323820D01*
X135203097Y-80189102D01*
X134979069Y-80096307D01*
X134741243Y-80049000D01*
X134498757Y-80049000D01*
X134260931Y-80096307D01*
X134036903Y-80189102D01*
X133835283Y-80323820D01*
X133663820Y-80495283D01*
X133529102Y-80696903D01*
X133436307Y-80920931D01*
X133389000Y-81158757D01*
X131257999Y-81158757D01*
X131257999Y-78618757D01*
X133389000Y-78618757D01*
X133389000Y-78861243D01*
X133436307Y-79099069D01*
X133529102Y-79323097D01*
X133663820Y-79524717D01*
X133835283Y-79696180D01*
X134036903Y-79830898D01*
X134260931Y-79923693D01*
X134498757Y-79971000D01*
X134741243Y-79971000D01*
X134979069Y-79923693D01*
X135203097Y-79830898D01*
X135404717Y-79696180D01*
X135576180Y-79524717D01*
X135710898Y-79323097D01*
X135803693Y-79099069D01*
X135851000Y-78861243D01*
X135851000Y-78618757D01*
X135803693Y-78380931D01*
X135710898Y-78156903D01*
X135576180Y-77955283D01*
X135404717Y-77783820D01*
X135203097Y-77649102D01*
X134979069Y-77556307D01*
X134741243Y-77509000D01*
X134498757Y-77509000D01*
X134260931Y-77556307D01*
X134036903Y-77649102D01*
X133835283Y-77783820D01*
X133663820Y-77955283D01*
X133529102Y-78156903D01*
X133436307Y-78380931D01*
X133389000Y-78618757D01*
X131257999Y-78618757D01*
X131257999Y-76078757D01*
X133389000Y-76078757D01*
X133389000Y-76321243D01*
X133436307Y-76559069D01*
X133529102Y-76783097D01*
X133663820Y-76984717D01*
X133835283Y-77156180D01*
X134036903Y-77290898D01*
X134260931Y-77383693D01*
X134498757Y-77431000D01*
X134741243Y-77431000D01*
X134979069Y-77383693D01*
X135203097Y-77290898D01*
X135404717Y-77156180D01*
X135576180Y-76984717D01*
X135710898Y-76783097D01*
X135803693Y-76559069D01*
X135851000Y-76321243D01*
X135851000Y-76078757D01*
X135803693Y-75840931D01*
X135710898Y-75616903D01*
X135576180Y-75415283D01*
X135404717Y-75243820D01*
X135203097Y-75109102D01*
X134979069Y-75016307D01*
X134741243Y-74969000D01*
X134498757Y-74969000D01*
X134260931Y-75016307D01*
X134036903Y-75109102D01*
X133835283Y-75243820D01*
X133663820Y-75415283D01*
X133529102Y-75616903D01*
X133436307Y-75840931D01*
X133389000Y-76078757D01*
X131257999Y-76078757D01*
X131257999Y-73538757D01*
X133389000Y-73538757D01*
X133389000Y-73781243D01*
X133436307Y-74019069D01*
X133529102Y-74243097D01*
X133663820Y-74444717D01*
X133835283Y-74616180D01*
X134036903Y-74750898D01*
X134260931Y-74843693D01*
X134498757Y-74891000D01*
X134741243Y-74891000D01*
X134979069Y-74843693D01*
X135203097Y-74750898D01*
X135404717Y-74616180D01*
X135576180Y-74444717D01*
X135710898Y-74243097D01*
X135803693Y-74019069D01*
X135851000Y-73781243D01*
X135851000Y-73538757D01*
X135803693Y-73300931D01*
X135710898Y-73076903D01*
X135576180Y-72875283D01*
X135404717Y-72703820D01*
X135203097Y-72569102D01*
X134979069Y-72476307D01*
X134741243Y-72429000D01*
X134498757Y-72429000D01*
X134260931Y-72476307D01*
X134036903Y-72569102D01*
X133835283Y-72703820D01*
X133663820Y-72875283D01*
X133529102Y-73076903D01*
X133436307Y-73300931D01*
X133389000Y-73538757D01*
X131257999Y-73538757D01*
X131257999Y-70998757D01*
X133389000Y-70998757D01*
X133389000Y-71241243D01*
X133436307Y-71479069D01*
X133529102Y-71703097D01*
X133663820Y-71904717D01*
X133835283Y-72076180D01*
X134036903Y-72210898D01*
X134260931Y-72303693D01*
X134498757Y-72351000D01*
X134741243Y-72351000D01*
X134979069Y-72303693D01*
X135203097Y-72210898D01*
X135404717Y-72076180D01*
X135576180Y-71904717D01*
X135710898Y-71703097D01*
X135803693Y-71479069D01*
X135851000Y-71241243D01*
X135851000Y-70998757D01*
X135803693Y-70760931D01*
X135710898Y-70536903D01*
X135576180Y-70335283D01*
X135404717Y-70163820D01*
X135203097Y-70029102D01*
X134979069Y-69936307D01*
X134741243Y-69889000D01*
X134498757Y-69889000D01*
X134260931Y-69936307D01*
X134036903Y-70029102D01*
X133835283Y-70163820D01*
X133663820Y-70335283D01*
X133529102Y-70536903D01*
X133436307Y-70760931D01*
X133389000Y-70998757D01*
X131257999Y-70998757D01*
X131257999Y-69498896D01*
X131295283Y-69536180D01*
X131496903Y-69670898D01*
X131720931Y-69763693D01*
X131958757Y-69811000D01*
X132201243Y-69811000D01*
X132439069Y-69763693D01*
X132663097Y-69670898D01*
X132864717Y-69536180D01*
X133036180Y-69364717D01*
X133170898Y-69163097D01*
X133263693Y-68939069D01*
X133311000Y-68701243D01*
X133311000Y-68458757D01*
X133389000Y-68458757D01*
X133389000Y-68701243D01*
X133436307Y-68939069D01*
X133529102Y-69163097D01*
X133663820Y-69364717D01*
X133835283Y-69536180D01*
X134036903Y-69670898D01*
X134260931Y-69763693D01*
X134498757Y-69811000D01*
X134741243Y-69811000D01*
X134979069Y-69763693D01*
X135203097Y-69670898D01*
X135404717Y-69536180D01*
X135576180Y-69364717D01*
X135710898Y-69163097D01*
X135803693Y-68939069D01*
X135851000Y-68701243D01*
X135851000Y-68458757D01*
X135803693Y-68220931D01*
X135710898Y-67996903D01*
X135576180Y-67795283D01*
X135404717Y-67623820D01*
X135203097Y-67489102D01*
X134979069Y-67396307D01*
X134741243Y-67349000D01*
X134498757Y-67349000D01*
X134260931Y-67396307D01*
X134036903Y-67489102D01*
X133835283Y-67623820D01*
X133663820Y-67795283D01*
X133529102Y-67996903D01*
X133436307Y-68220931D01*
X133389000Y-68458757D01*
X133311000Y-68458757D01*
X133263693Y-68220931D01*
X133170898Y-67996903D01*
X133036180Y-67795283D01*
X132864717Y-67623820D01*
X132663097Y-67489102D01*
X132439069Y-67396307D01*
X132201243Y-67349000D01*
X131958757Y-67349000D01*
X131720931Y-67396307D01*
X131496903Y-67489102D01*
X131295283Y-67623820D01*
X131257999Y-67661104D01*
X131257999Y-65918757D01*
X133389000Y-65918757D01*
X133389000Y-66161243D01*
X133436307Y-66399069D01*
X133529102Y-66623097D01*
X133663820Y-66824717D01*
X133835283Y-66996180D01*
X134036903Y-67130898D01*
X134260931Y-67223693D01*
X134498757Y-67271000D01*
X134741243Y-67271000D01*
X134979069Y-67223693D01*
X135203097Y-67130898D01*
X135404717Y-66996180D01*
X135576180Y-66824717D01*
X135710898Y-66623097D01*
X135803693Y-66399069D01*
X135851000Y-66161243D01*
X135851000Y-65918757D01*
X135803693Y-65680931D01*
X135710898Y-65456903D01*
X135576180Y-65255283D01*
X135404717Y-65083820D01*
X135203097Y-64949102D01*
X134979069Y-64856307D01*
X134741243Y-64809000D01*
X134498757Y-64809000D01*
X134260931Y-64856307D01*
X134036903Y-64949102D01*
X133835283Y-65083820D01*
X133663820Y-65255283D01*
X133529102Y-65456903D01*
X133436307Y-65680931D01*
X133389000Y-65918757D01*
X131257999Y-65918757D01*
X131257999Y-63378757D01*
X133389000Y-63378757D01*
X133389000Y-63621243D01*
X133436307Y-63859069D01*
X133529102Y-64083097D01*
X133663820Y-64284717D01*
X133835283Y-64456180D01*
X134036903Y-64590898D01*
X134260931Y-64683693D01*
X134498757Y-64731000D01*
X134741243Y-64731000D01*
X134979069Y-64683693D01*
X135203097Y-64590898D01*
X135404717Y-64456180D01*
X135576180Y-64284717D01*
X135710898Y-64083097D01*
X135803693Y-63859069D01*
X135851000Y-63621243D01*
X135851000Y-63378757D01*
X135803693Y-63140931D01*
X135710898Y-62916903D01*
X135576180Y-62715283D01*
X135404717Y-62543820D01*
X135203097Y-62409102D01*
X134979069Y-62316307D01*
X134741243Y-62269000D01*
X134498757Y-62269000D01*
X134260931Y-62316307D01*
X134036903Y-62409102D01*
X133835283Y-62543820D01*
X133663820Y-62715283D01*
X133529102Y-62916903D01*
X133436307Y-63140931D01*
X133389000Y-63378757D01*
X131257999Y-63378757D01*
X131257999Y-60838757D01*
X133389000Y-60838757D01*
X133389000Y-61081243D01*
X133436307Y-61319069D01*
X133529102Y-61543097D01*
X133663820Y-61744717D01*
X133835283Y-61916180D01*
X134036903Y-62050898D01*
X134260931Y-62143693D01*
X134498757Y-62191000D01*
X134741243Y-62191000D01*
X134979069Y-62143693D01*
X135203097Y-62050898D01*
X135404717Y-61916180D01*
X135576180Y-61744717D01*
X135710898Y-61543097D01*
X135803693Y-61319069D01*
X135851000Y-61081243D01*
X135851000Y-60838757D01*
X135803693Y-60600931D01*
X135710898Y-60376903D01*
X135576180Y-60175283D01*
X135404717Y-60003820D01*
X135203097Y-59869102D01*
X134979069Y-59776307D01*
X134741243Y-59729000D01*
X134498757Y-59729000D01*
X134260931Y-59776307D01*
X134036903Y-59869102D01*
X133835283Y-60003820D01*
X133663820Y-60175283D01*
X133529102Y-60376903D01*
X133436307Y-60600931D01*
X133389000Y-60838757D01*
X131257999Y-60838757D01*
X131257999Y-58298757D01*
X133389000Y-58298757D01*
X133389000Y-58541243D01*
X133436307Y-58779069D01*
X133529102Y-59003097D01*
X133663820Y-59204717D01*
X133835283Y-59376180D01*
X134036903Y-59510898D01*
X134260931Y-59603693D01*
X134498757Y-59651000D01*
X134741243Y-59651000D01*
X134979069Y-59603693D01*
X135203097Y-59510898D01*
X135404717Y-59376180D01*
X135576180Y-59204717D01*
X135710898Y-59003097D01*
X135803693Y-58779069D01*
X135851000Y-58541243D01*
X135851000Y-58298757D01*
X135803693Y-58060931D01*
X135710898Y-57836903D01*
X135576180Y-57635283D01*
X135404717Y-57463820D01*
X135203097Y-57329102D01*
X134979069Y-57236307D01*
X134741243Y-57189000D01*
X134498757Y-57189000D01*
X134260931Y-57236307D01*
X134036903Y-57329102D01*
X133835283Y-57463820D01*
X133663820Y-57635283D01*
X133529102Y-57836903D01*
X133436307Y-58060931D01*
X133389000Y-58298757D01*
X131257999Y-58298757D01*
X131257999Y-55758757D01*
X133389000Y-55758757D01*
X133389000Y-56001243D01*
X133436307Y-56239069D01*
X133529102Y-56463097D01*
X133663820Y-56664717D01*
X133835283Y-56836180D01*
X134036903Y-56970898D01*
X134260931Y-57063693D01*
X134498757Y-57111000D01*
X134741243Y-57111000D01*
X134979069Y-57063693D01*
X135203097Y-56970898D01*
X135404717Y-56836180D01*
X135576180Y-56664717D01*
X135710898Y-56463097D01*
X135803693Y-56239069D01*
X135851000Y-56001243D01*
X135851000Y-55758757D01*
X135803693Y-55520931D01*
X135710898Y-55296903D01*
X135576180Y-55095283D01*
X135404717Y-54923820D01*
X135203097Y-54789102D01*
X134979069Y-54696307D01*
X134741243Y-54649000D01*
X134498757Y-54649000D01*
X134260931Y-54696307D01*
X134036903Y-54789102D01*
X133835283Y-54923820D01*
X133663820Y-55095283D01*
X133529102Y-55296903D01*
X133436307Y-55520931D01*
X133389000Y-55758757D01*
X131257999Y-55758757D01*
X131257999Y-53218757D01*
X133389000Y-53218757D01*
X133389000Y-53461243D01*
X133436307Y-53699069D01*
X133529102Y-53923097D01*
X133663820Y-54124717D01*
X133835283Y-54296180D01*
X134036903Y-54430898D01*
X134260931Y-54523693D01*
X134498757Y-54571000D01*
X134741243Y-54571000D01*
X134979069Y-54523693D01*
X135203097Y-54430898D01*
X135404717Y-54296180D01*
X135576180Y-54124717D01*
X135710898Y-53923097D01*
X135803693Y-53699069D01*
X135851000Y-53461243D01*
X135851000Y-53218757D01*
X135803693Y-52980931D01*
X135710898Y-52756903D01*
X135576180Y-52555283D01*
X135404717Y-52383820D01*
X135203097Y-52249102D01*
X134979069Y-52156307D01*
X134741243Y-52109000D01*
X134498757Y-52109000D01*
X134260931Y-52156307D01*
X134036903Y-52249102D01*
X133835283Y-52383820D01*
X133663820Y-52555283D01*
X133529102Y-52756903D01*
X133436307Y-52980931D01*
X133389000Y-53218757D01*
X131257999Y-53218757D01*
X131257999Y-50678757D01*
X133389000Y-50678757D01*
X133389000Y-50921243D01*
X133436307Y-51159069D01*
X133529102Y-51383097D01*
X133663820Y-51584717D01*
X133835283Y-51756180D01*
X134036903Y-51890898D01*
X134260931Y-51983693D01*
X134498757Y-52031000D01*
X134741243Y-52031000D01*
X134979069Y-51983693D01*
X135203097Y-51890898D01*
X135404717Y-51756180D01*
X135576180Y-51584717D01*
X135710898Y-51383097D01*
X135803693Y-51159069D01*
X135851000Y-50921243D01*
X135851000Y-50678757D01*
X135803693Y-50440931D01*
X135710898Y-50216903D01*
X135576180Y-50015283D01*
X135404717Y-49843820D01*
X135203097Y-49709102D01*
X134979069Y-49616307D01*
X134741243Y-49569000D01*
X134498757Y-49569000D01*
X134260931Y-49616307D01*
X134036903Y-49709102D01*
X133835283Y-49843820D01*
X133663820Y-50015283D01*
X133529102Y-50216903D01*
X133436307Y-50440931D01*
X133389000Y-50678757D01*
X131257999Y-50678757D01*
X131257999Y-48138757D01*
X133389000Y-48138757D01*
X133389000Y-48381243D01*
X133436307Y-48619069D01*
X133529102Y-48843097D01*
X133663820Y-49044717D01*
X133835283Y-49216180D01*
X134036903Y-49350898D01*
X134260931Y-49443693D01*
X134498757Y-49491000D01*
X134741243Y-49491000D01*
X134979069Y-49443693D01*
X135203097Y-49350898D01*
X135404717Y-49216180D01*
X135576180Y-49044717D01*
X135710898Y-48843097D01*
X135803693Y-48619069D01*
X135851000Y-48381243D01*
X135851000Y-48138757D01*
X135803693Y-47900931D01*
X135710898Y-47676903D01*
X135576180Y-47475283D01*
X135404717Y-47303820D01*
X135203097Y-47169102D01*
X134979069Y-47076307D01*
X134741243Y-47029000D01*
X134498757Y-47029000D01*
X134260931Y-47076307D01*
X134036903Y-47169102D01*
X133835283Y-47303820D01*
X133663820Y-47475283D01*
X133529102Y-47676903D01*
X133436307Y-47900931D01*
X133389000Y-48138757D01*
X131257999Y-48138757D01*
X131257999Y-45598757D01*
X133389000Y-45598757D01*
X133389000Y-45841243D01*
X133436307Y-46079069D01*
X133529102Y-46303097D01*
X133663820Y-46504717D01*
X133835283Y-46676180D01*
X134036903Y-46810898D01*
X134260931Y-46903693D01*
X134498757Y-46951000D01*
X134741243Y-46951000D01*
X134979069Y-46903693D01*
X135203097Y-46810898D01*
X135404717Y-46676180D01*
X135576180Y-46504717D01*
X135710898Y-46303097D01*
X135803693Y-46079069D01*
X135851000Y-45841243D01*
X135851000Y-45598757D01*
X135803693Y-45360931D01*
X135710898Y-45136903D01*
X135576180Y-44935283D01*
X135404717Y-44763820D01*
X135203097Y-44629102D01*
X134979069Y-44536307D01*
X134741243Y-44489000D01*
X134498757Y-44489000D01*
X134260931Y-44536307D01*
X134036903Y-44629102D01*
X133835283Y-44763820D01*
X133663820Y-44935283D01*
X133529102Y-45136903D01*
X133436307Y-45360931D01*
X133389000Y-45598757D01*
X131257999Y-45598757D01*
X131257999Y-43058757D01*
X133389000Y-43058757D01*
X133389000Y-43301243D01*
X133436307Y-43539069D01*
X133529102Y-43763097D01*
X133663820Y-43964717D01*
X133835283Y-44136180D01*
X134036903Y-44270898D01*
X134260931Y-44363693D01*
X134498757Y-44411000D01*
X134741243Y-44411000D01*
X134979069Y-44363693D01*
X135203097Y-44270898D01*
X135404717Y-44136180D01*
X135576180Y-43964717D01*
X135710898Y-43763097D01*
X135803693Y-43539069D01*
X135851000Y-43301243D01*
X135851000Y-43058757D01*
X135803693Y-42820931D01*
X135710898Y-42596903D01*
X135576180Y-42395283D01*
X135404717Y-42223820D01*
X135203097Y-42089102D01*
X134979069Y-41996307D01*
X134741243Y-41949000D01*
X134498757Y-41949000D01*
X134260931Y-41996307D01*
X134036903Y-42089102D01*
X133835283Y-42223820D01*
X133663820Y-42395283D01*
X133529102Y-42596903D01*
X133436307Y-42820931D01*
X133389000Y-43058757D01*
X131257999Y-43058757D01*
X131257999Y-40518757D01*
X133389000Y-40518757D01*
X133389000Y-40761243D01*
X133436307Y-40999069D01*
X133529102Y-41223097D01*
X133663820Y-41424717D01*
X133835283Y-41596180D01*
X134036903Y-41730898D01*
X134260931Y-41823693D01*
X134498757Y-41871000D01*
X134741243Y-41871000D01*
X134979069Y-41823693D01*
X135203097Y-41730898D01*
X135404717Y-41596180D01*
X135576180Y-41424717D01*
X135710898Y-41223097D01*
X135803693Y-40999069D01*
X135851000Y-40761243D01*
X135851000Y-40518757D01*
X135803693Y-40280931D01*
X135710898Y-40056903D01*
X135576180Y-39855283D01*
X135404717Y-39683820D01*
X135203097Y-39549102D01*
X134979069Y-39456307D01*
X134741243Y-39409000D01*
X134498757Y-39409000D01*
X134260931Y-39456307D01*
X134036903Y-39549102D01*
X133835283Y-39683820D01*
X133663820Y-39855283D01*
X133529102Y-40056903D01*
X133436307Y-40280931D01*
X133389000Y-40518757D01*
X131257999Y-40518757D01*
X131257999Y-37978757D01*
X133389000Y-37978757D01*
X133389000Y-38221243D01*
X133436307Y-38459069D01*
X133529102Y-38683097D01*
X133663820Y-38884717D01*
X133835283Y-39056180D01*
X134036903Y-39190898D01*
X134260931Y-39283693D01*
X134498757Y-39331000D01*
X134741243Y-39331000D01*
X134979069Y-39283693D01*
X135203097Y-39190898D01*
X135404717Y-39056180D01*
X135576180Y-38884717D01*
X135710898Y-38683097D01*
X135803693Y-38459069D01*
X135851000Y-38221243D01*
X135851000Y-37978757D01*
X135803693Y-37740931D01*
X135710898Y-37516903D01*
X135576180Y-37315283D01*
X135404717Y-37143820D01*
X135203097Y-37009102D01*
X134979069Y-36916307D01*
X134741243Y-36869000D01*
X134498757Y-36869000D01*
X134260931Y-36916307D01*
X134036903Y-37009102D01*
X133835283Y-37143820D01*
X133663820Y-37315283D01*
X133529102Y-37516903D01*
X133436307Y-37740931D01*
X133389000Y-37978757D01*
X131257999Y-37978757D01*
X131257999Y-37892304D01*
X131260688Y-37864999D01*
X131257999Y-37837694D01*
X131257999Y-37837687D01*
X131249954Y-37756004D01*
X131245382Y-37740931D01*
X131218161Y-37651197D01*
X131166533Y-37554607D01*
X131114463Y-37491160D01*
X131114459Y-37491156D01*
X131097052Y-37469946D01*
X131075842Y-37452539D01*
X130575000Y-36951698D01*
X130575000Y-36880078D01*
X130544987Y-36729191D01*
X130486113Y-36587058D01*
X130400642Y-36459141D01*
X130291859Y-36350358D01*
X130163942Y-36264887D01*
X130021809Y-36206013D01*
X129870922Y-36176000D01*
X129717078Y-36176000D01*
X129566191Y-36206013D01*
X129424058Y-36264887D01*
X129296141Y-36350358D01*
X129187358Y-36459141D01*
X129101887Y-36587058D01*
X129043013Y-36729191D01*
X129013000Y-36880078D01*
X129013000Y-37033922D01*
X129043013Y-37184809D01*
X129101887Y-37326942D01*
X129187358Y-37454859D01*
X129296141Y-37563642D01*
X129424058Y-37649113D01*
X129566191Y-37707987D01*
X129717078Y-37738000D01*
X129788698Y-37738000D01*
X130146000Y-38095303D01*
X130146000Y-38998493D01*
X130037859Y-38890352D01*
X129909942Y-38804881D01*
X129767809Y-38746007D01*
X129616922Y-38715994D01*
X129463078Y-38715994D01*
X129312191Y-38746007D01*
X129170058Y-38804881D01*
X129042141Y-38890352D01*
X128933358Y-38999135D01*
X128847887Y-39127052D01*
X128789013Y-39269185D01*
X128759000Y-39420072D01*
X128759000Y-39573916D01*
X128789013Y-39724803D01*
X128847887Y-39866936D01*
X128933358Y-39994853D01*
X129042141Y-40103636D01*
X129170058Y-40189107D01*
X129312191Y-40247981D01*
X129463078Y-40277994D01*
X129475442Y-40277994D01*
X129475442Y-41195726D01*
X129386809Y-41159013D01*
X129235922Y-41129000D01*
X129082078Y-41129000D01*
X128931191Y-41159013D01*
X128789058Y-41217887D01*
X128661141Y-41303358D01*
X128552358Y-41412141D01*
X128466887Y-41540058D01*
X128408013Y-41682191D01*
X128378000Y-41833078D01*
X128378000Y-41986922D01*
X128408013Y-42137809D01*
X128466887Y-42279942D01*
X128552358Y-42407859D01*
X128651888Y-42507389D01*
X128651888Y-43710230D01*
X128624809Y-43699013D01*
X128473922Y-43669000D01*
X128320078Y-43669000D01*
X128169191Y-43699013D01*
X128027058Y-43757887D01*
X127899141Y-43843358D01*
X127790358Y-43952141D01*
X127704887Y-44080058D01*
X127646013Y-44222191D01*
X127616000Y-44373078D01*
X127616000Y-44526922D01*
X127646013Y-44677809D01*
X127704887Y-44819942D01*
X127790358Y-44947859D01*
X127828334Y-44985835D01*
X127828334Y-46255475D01*
X127788589Y-46239012D01*
X127637702Y-46208999D01*
X127483858Y-46208999D01*
X127332971Y-46239012D01*
X127190838Y-46297886D01*
X127062921Y-46383357D01*
X126954138Y-46492140D01*
X126868667Y-46620057D01*
X126809793Y-46762190D01*
X126779780Y-46913077D01*
X126779780Y-47066921D01*
X126809793Y-47217808D01*
X126868667Y-47359941D01*
X126954138Y-47487858D01*
X127004780Y-47538500D01*
X127004780Y-48804256D01*
X126965031Y-48787791D01*
X126814144Y-48757778D01*
X126660300Y-48757778D01*
X126509413Y-48787791D01*
X126367280Y-48846665D01*
X126239363Y-48932136D01*
X126130580Y-49040919D01*
X126045109Y-49168836D01*
X125986235Y-49310969D01*
X125956222Y-49461856D01*
X125956222Y-49615700D01*
X125986235Y-49766587D01*
X126045109Y-49908720D01*
X126130580Y-50036637D01*
X126181226Y-50087283D01*
X126181226Y-51335474D01*
X126141486Y-51319013D01*
X125990599Y-51289000D01*
X125836755Y-51289000D01*
X125685868Y-51319013D01*
X125543735Y-51377887D01*
X125415818Y-51463358D01*
X125307035Y-51572141D01*
X125221564Y-51700058D01*
X125162690Y-51842191D01*
X125132677Y-51993078D01*
X125132677Y-52146922D01*
X125162690Y-52297809D01*
X125221564Y-52439942D01*
X125307035Y-52567859D01*
X125357672Y-52618496D01*
X125357672Y-53875476D01*
X125317928Y-53859013D01*
X125167041Y-53829000D01*
X125013197Y-53829000D01*
X124862310Y-53859013D01*
X124720177Y-53917887D01*
X124592260Y-54003358D01*
X124483477Y-54112141D01*
X124398006Y-54240058D01*
X124339132Y-54382191D01*
X124309119Y-54533078D01*
X124309119Y-54686922D01*
X124339132Y-54837809D01*
X124398006Y-54979942D01*
X124483477Y-55107859D01*
X124534118Y-55158500D01*
X124534118Y-56640475D01*
X124494374Y-56624012D01*
X124343487Y-56593999D01*
X124189643Y-56593999D01*
X124038756Y-56624012D01*
X123896623Y-56682886D01*
X123768706Y-56768357D01*
X123659923Y-56877140D01*
X123574452Y-57005057D01*
X123515578Y-57147190D01*
X123485565Y-57298077D01*
X123485565Y-57451921D01*
X123515578Y-57602808D01*
X123574452Y-57744941D01*
X123659923Y-57872858D01*
X123710564Y-57923499D01*
X123710564Y-59688477D01*
X123670820Y-59672014D01*
X123519933Y-59642001D01*
X123366089Y-59642001D01*
X123215202Y-59672014D01*
X123073069Y-59730888D01*
X122945152Y-59816359D01*
X122836369Y-59925142D01*
X122750898Y-60053059D01*
X122692024Y-60195192D01*
X122662011Y-60346079D01*
X122662011Y-60499923D01*
X122692024Y-60650810D01*
X122750898Y-60792943D01*
X122836369Y-60920860D01*
X122887010Y-60971501D01*
X122887010Y-62609489D01*
X122847264Y-62593026D01*
X122696377Y-62563013D01*
X122542533Y-62563013D01*
X122391646Y-62593026D01*
X122249513Y-62651900D01*
X122121596Y-62737371D01*
X122012813Y-62846154D01*
X121927342Y-62974071D01*
X121868468Y-63116204D01*
X121838455Y-63267091D01*
X121838455Y-63420935D01*
X121868468Y-63571822D01*
X121927342Y-63713955D01*
X122012813Y-63841872D01*
X122063456Y-63892515D01*
X122063456Y-64779441D01*
X121949311Y-64703172D01*
X121807178Y-64644298D01*
X121656291Y-64614285D01*
X121502447Y-64614285D01*
X121351560Y-64644298D01*
X121209427Y-64703172D01*
X121081510Y-64788643D01*
X120972727Y-64897426D01*
X120887256Y-65025343D01*
X120828382Y-65167476D01*
X120798369Y-65318363D01*
X120798369Y-65472207D01*
X120828382Y-65623094D01*
X120887256Y-65765227D01*
X120972727Y-65893144D01*
X121081510Y-66001927D01*
X121209427Y-66087398D01*
X121237001Y-66098820D01*
X121237001Y-67487889D01*
X121215113Y-67435048D01*
X121129642Y-67307131D01*
X121020859Y-67198348D01*
X120892942Y-67112877D01*
X120750809Y-67054003D01*
X120599922Y-67023990D01*
X120446078Y-67023990D01*
X120295191Y-67054003D01*
X120153058Y-67112877D01*
X120025141Y-67198348D01*
X119974499Y-67248990D01*
X110022315Y-67248990D01*
X109995010Y-67246301D01*
X109967705Y-67248990D01*
X109967698Y-67248990D01*
X109886015Y-67257035D01*
X109781208Y-67288828D01*
X109684618Y-67340456D01*
X109621171Y-67392526D01*
X109621167Y-67392530D01*
X109603988Y-67406629D01*
X109579069Y-67396307D01*
X109341243Y-67349000D01*
X109098757Y-67349000D01*
X108860931Y-67396307D01*
X108636903Y-67489102D01*
X108435283Y-67623820D01*
X108263820Y-67795283D01*
X108129102Y-67996903D01*
X108036307Y-68220931D01*
X107989000Y-68458757D01*
X107989000Y-68701243D01*
X108036307Y-68939069D01*
X108129102Y-69163097D01*
X108186501Y-69249001D01*
X108135303Y-69249001D01*
X107852469Y-68966167D01*
X107863693Y-68939069D01*
X107911000Y-68701243D01*
X107911000Y-68458757D01*
X107863693Y-68220931D01*
X107770898Y-67996903D01*
X107636180Y-67795283D01*
X107464717Y-67623820D01*
X107263097Y-67489102D01*
X107039069Y-67396307D01*
X106801243Y-67349000D01*
X106558757Y-67349000D01*
X106320931Y-67396307D01*
X106096903Y-67489102D01*
X105895283Y-67623820D01*
X105723820Y-67795283D01*
X105589102Y-67996903D01*
X105496307Y-68220931D01*
X105449000Y-68458757D01*
X102006000Y-68458757D01*
X102006000Y-65918757D01*
X107989000Y-65918757D01*
X107989000Y-66161243D01*
X108036307Y-66399069D01*
X108129102Y-66623097D01*
X108263820Y-66824717D01*
X108435283Y-66996180D01*
X108636903Y-67130898D01*
X108860931Y-67223693D01*
X109098757Y-67271000D01*
X109341243Y-67271000D01*
X109579069Y-67223693D01*
X109803097Y-67130898D01*
X110004717Y-66996180D01*
X110176180Y-66824717D01*
X110310898Y-66623097D01*
X110322122Y-66596000D01*
X119593507Y-66596000D01*
X119644145Y-66646638D01*
X119772062Y-66732109D01*
X119914195Y-66790983D01*
X120065082Y-66820996D01*
X120218926Y-66820996D01*
X120369813Y-66790983D01*
X120511946Y-66732109D01*
X120639863Y-66646638D01*
X120748646Y-66537855D01*
X120834117Y-66409938D01*
X120892991Y-66267805D01*
X120923004Y-66116918D01*
X120923004Y-65963074D01*
X120892991Y-65812187D01*
X120834117Y-65670054D01*
X120748646Y-65542137D01*
X120639863Y-65433354D01*
X120511946Y-65347883D01*
X120369813Y-65289009D01*
X120218926Y-65258996D01*
X120065082Y-65258996D01*
X119914195Y-65289009D01*
X119772062Y-65347883D01*
X119644145Y-65433354D01*
X119593499Y-65484000D01*
X110322122Y-65484000D01*
X110310898Y-65456903D01*
X110176180Y-65255283D01*
X110004717Y-65083820D01*
X109803097Y-64949102D01*
X109579069Y-64856307D01*
X109341243Y-64809000D01*
X109098757Y-64809000D01*
X108860931Y-64856307D01*
X108636903Y-64949102D01*
X108435283Y-65083820D01*
X108263820Y-65255283D01*
X108129102Y-65456903D01*
X108036307Y-65680931D01*
X107989000Y-65918757D01*
X102006000Y-65918757D01*
X102006000Y-63378757D01*
X107989000Y-63378757D01*
X107989000Y-63621243D01*
X108036307Y-63859069D01*
X108129102Y-64083097D01*
X108263820Y-64284717D01*
X108435283Y-64456180D01*
X108636903Y-64590898D01*
X108860931Y-64683693D01*
X109098757Y-64731000D01*
X109341243Y-64731000D01*
X109579069Y-64683693D01*
X109803097Y-64590898D01*
X110004717Y-64456180D01*
X110176180Y-64284717D01*
X110310898Y-64083097D01*
X110322122Y-64056000D01*
X118831497Y-64056000D01*
X118882139Y-64106642D01*
X119010056Y-64192113D01*
X119152189Y-64250987D01*
X119303076Y-64281000D01*
X119456920Y-64281000D01*
X119607807Y-64250987D01*
X119749940Y-64192113D01*
X119877857Y-64106642D01*
X119986640Y-63997859D01*
X120072111Y-63869942D01*
X120130985Y-63727809D01*
X120160998Y-63576922D01*
X120160998Y-63423078D01*
X120130985Y-63272191D01*
X120072111Y-63130058D01*
X119986640Y-63002141D01*
X119877857Y-62893358D01*
X119749940Y-62807887D01*
X119607807Y-62749013D01*
X119456920Y-62719000D01*
X119303076Y-62719000D01*
X119152189Y-62749013D01*
X119010056Y-62807887D01*
X118882139Y-62893358D01*
X118831497Y-62944000D01*
X110322122Y-62944000D01*
X110310898Y-62916903D01*
X110176180Y-62715283D01*
X110004717Y-62543820D01*
X109803097Y-62409102D01*
X109579069Y-62316307D01*
X109341243Y-62269000D01*
X109098757Y-62269000D01*
X108860931Y-62316307D01*
X108636903Y-62409102D01*
X108435283Y-62543820D01*
X108263820Y-62715283D01*
X108129102Y-62916903D01*
X108036307Y-63140931D01*
X107989000Y-63378757D01*
X102006000Y-63378757D01*
X102006000Y-60838757D01*
X107989000Y-60838757D01*
X107989000Y-61081243D01*
X108036307Y-61319069D01*
X108129102Y-61543097D01*
X108263820Y-61744717D01*
X108435283Y-61916180D01*
X108636903Y-62050898D01*
X108860931Y-62143693D01*
X109098757Y-62191000D01*
X109341243Y-62191000D01*
X109579069Y-62143693D01*
X109803097Y-62050898D01*
X110004717Y-61916180D01*
X110176180Y-61744717D01*
X110310898Y-61543097D01*
X110322122Y-61516000D01*
X117815507Y-61516000D01*
X117866149Y-61566642D01*
X117994066Y-61652113D01*
X118136199Y-61710987D01*
X118287086Y-61741000D01*
X118440930Y-61741000D01*
X118591817Y-61710987D01*
X118733950Y-61652113D01*
X118861867Y-61566642D01*
X118970650Y-61457859D01*
X119056121Y-61329942D01*
X119114995Y-61187809D01*
X119145008Y-61036922D01*
X119145008Y-60883078D01*
X119114995Y-60732191D01*
X119056121Y-60590058D01*
X118970650Y-60462141D01*
X118861867Y-60353358D01*
X118733950Y-60267887D01*
X118591817Y-60209013D01*
X118440930Y-60179000D01*
X118287086Y-60179000D01*
X118136199Y-60209013D01*
X117994066Y-60267887D01*
X117866149Y-60353358D01*
X117815507Y-60404000D01*
X110322122Y-60404000D01*
X110310898Y-60376903D01*
X110176180Y-60175283D01*
X110004717Y-60003820D01*
X109803097Y-59869102D01*
X109579069Y-59776307D01*
X109341243Y-59729000D01*
X109098757Y-59729000D01*
X108860931Y-59776307D01*
X108636903Y-59869102D01*
X108435283Y-60003820D01*
X108263820Y-60175283D01*
X108129102Y-60376903D01*
X108036307Y-60600931D01*
X107989000Y-60838757D01*
X102006000Y-60838757D01*
X102006000Y-58298757D01*
X107989000Y-58298757D01*
X107989000Y-58541243D01*
X108036307Y-58779069D01*
X108129102Y-59003097D01*
X108263820Y-59204717D01*
X108435283Y-59376180D01*
X108636903Y-59510898D01*
X108860931Y-59603693D01*
X109098757Y-59651000D01*
X109341243Y-59651000D01*
X109579069Y-59603693D01*
X109803097Y-59510898D01*
X110004717Y-59376180D01*
X110176180Y-59204717D01*
X110310898Y-59003097D01*
X110322122Y-58976000D01*
X117180499Y-58976000D01*
X117231141Y-59026642D01*
X117359058Y-59112113D01*
X117501191Y-59170987D01*
X117652078Y-59201000D01*
X117805922Y-59201000D01*
X117956809Y-59170987D01*
X118098942Y-59112113D01*
X118226859Y-59026642D01*
X118335642Y-58917859D01*
X118421113Y-58789942D01*
X118479987Y-58647809D01*
X118510000Y-58496922D01*
X118510000Y-58343078D01*
X118479987Y-58192191D01*
X118421113Y-58050058D01*
X118335642Y-57922141D01*
X118226859Y-57813358D01*
X118098942Y-57727887D01*
X117956809Y-57669013D01*
X117805922Y-57639000D01*
X117652078Y-57639000D01*
X117501191Y-57669013D01*
X117359058Y-57727887D01*
X117231141Y-57813358D01*
X117180499Y-57864000D01*
X110322122Y-57864000D01*
X110310898Y-57836903D01*
X110176180Y-57635283D01*
X110004717Y-57463820D01*
X109803097Y-57329102D01*
X109579069Y-57236307D01*
X109341243Y-57189000D01*
X109098757Y-57189000D01*
X108860931Y-57236307D01*
X108636903Y-57329102D01*
X108435283Y-57463820D01*
X108263820Y-57635283D01*
X108129102Y-57836903D01*
X108036307Y-58060931D01*
X107989000Y-58298757D01*
X102006000Y-58298757D01*
X102006000Y-55758757D01*
X107989000Y-55758757D01*
X107989000Y-56001243D01*
X108036307Y-56239069D01*
X108129102Y-56463097D01*
X108263820Y-56664717D01*
X108435283Y-56836180D01*
X108636903Y-56970898D01*
X108860931Y-57063693D01*
X109098757Y-57111000D01*
X109341243Y-57111000D01*
X109579069Y-57063693D01*
X109803097Y-56970898D01*
X110004717Y-56836180D01*
X110176180Y-56664717D01*
X110310898Y-56463097D01*
X110322122Y-56436001D01*
X116545496Y-56436001D01*
X116596138Y-56486643D01*
X116724055Y-56572114D01*
X116866188Y-56630988D01*
X117017075Y-56661001D01*
X117170919Y-56661001D01*
X117321806Y-56630988D01*
X117463939Y-56572114D01*
X117591856Y-56486643D01*
X117700639Y-56377860D01*
X117786110Y-56249943D01*
X117844984Y-56107810D01*
X117874997Y-55956923D01*
X117874997Y-55803079D01*
X117844984Y-55652192D01*
X117786110Y-55510059D01*
X117700639Y-55382142D01*
X117591856Y-55273359D01*
X117463939Y-55187888D01*
X117321806Y-55129014D01*
X117170919Y-55099001D01*
X117017075Y-55099001D01*
X116866188Y-55129014D01*
X116724055Y-55187888D01*
X116596138Y-55273359D01*
X116545496Y-55324001D01*
X110394770Y-55324001D01*
X110394761Y-55324002D01*
X110322123Y-55324002D01*
X110310898Y-55296903D01*
X110176180Y-55095283D01*
X110004717Y-54923820D01*
X109803097Y-54789102D01*
X109579069Y-54696307D01*
X109341243Y-54649000D01*
X109098757Y-54649000D01*
X108860931Y-54696307D01*
X108636903Y-54789102D01*
X108435283Y-54923820D01*
X108263820Y-55095283D01*
X108129102Y-55296903D01*
X108036307Y-55520931D01*
X107989000Y-55758757D01*
X102006000Y-55758757D01*
X102006000Y-53218757D01*
X107989000Y-53218757D01*
X107989000Y-53461243D01*
X108036307Y-53699069D01*
X108129102Y-53923097D01*
X108263820Y-54124717D01*
X108435283Y-54296180D01*
X108636903Y-54430898D01*
X108860931Y-54523693D01*
X109098757Y-54571000D01*
X109341243Y-54571000D01*
X109579069Y-54523693D01*
X109803097Y-54430898D01*
X110004717Y-54296180D01*
X110176180Y-54124717D01*
X110310898Y-53923097D01*
X110322122Y-53896000D01*
X115910503Y-53896000D01*
X115961145Y-53946642D01*
X116089062Y-54032113D01*
X116231195Y-54090987D01*
X116382082Y-54121000D01*
X116535926Y-54121000D01*
X116686813Y-54090987D01*
X116828946Y-54032113D01*
X116956863Y-53946642D01*
X117065646Y-53837859D01*
X117151117Y-53709942D01*
X117209991Y-53567809D01*
X117240004Y-53416922D01*
X117240004Y-53263078D01*
X117209991Y-53112191D01*
X117151117Y-52970058D01*
X117065646Y-52842141D01*
X116956863Y-52733358D01*
X116828946Y-52647887D01*
X116686813Y-52589013D01*
X116535926Y-52559000D01*
X116382082Y-52559000D01*
X116231195Y-52589013D01*
X116089062Y-52647887D01*
X115961145Y-52733358D01*
X115910503Y-52784000D01*
X110322122Y-52784000D01*
X110310898Y-52756903D01*
X110176180Y-52555283D01*
X110004717Y-52383820D01*
X109803097Y-52249102D01*
X109579069Y-52156307D01*
X109341243Y-52109000D01*
X109098757Y-52109000D01*
X108860931Y-52156307D01*
X108636903Y-52249102D01*
X108435283Y-52383820D01*
X108263820Y-52555283D01*
X108129102Y-52756903D01*
X108036307Y-52980931D01*
X107989000Y-53218757D01*
X102006000Y-53218757D01*
X102006000Y-50678757D01*
X107989000Y-50678757D01*
X107989000Y-50921243D01*
X108036307Y-51159069D01*
X108129102Y-51383097D01*
X108263820Y-51584717D01*
X108435283Y-51756180D01*
X108636903Y-51890898D01*
X108860931Y-51983693D01*
X109098757Y-52031000D01*
X109341243Y-52031000D01*
X109579069Y-51983693D01*
X109803097Y-51890898D01*
X110004717Y-51756180D01*
X110176180Y-51584717D01*
X110310898Y-51383097D01*
X110322122Y-51356000D01*
X115021499Y-51356000D01*
X115072141Y-51406642D01*
X115200058Y-51492113D01*
X115342191Y-51550987D01*
X115493078Y-51581000D01*
X115646922Y-51581000D01*
X115797809Y-51550987D01*
X115939942Y-51492113D01*
X116067859Y-51406642D01*
X116176642Y-51297859D01*
X116262113Y-51169942D01*
X116320987Y-51027809D01*
X116351000Y-50876922D01*
X116351000Y-50723078D01*
X116320987Y-50572191D01*
X116262113Y-50430058D01*
X116176642Y-50302141D01*
X116067859Y-50193358D01*
X115939942Y-50107887D01*
X115797809Y-50049013D01*
X115646922Y-50019000D01*
X115493078Y-50019000D01*
X115342191Y-50049013D01*
X115200058Y-50107887D01*
X115072141Y-50193358D01*
X115021499Y-50244000D01*
X110322122Y-50244000D01*
X110310898Y-50216903D01*
X110176180Y-50015283D01*
X110004717Y-49843820D01*
X109803097Y-49709102D01*
X109579069Y-49616307D01*
X109341243Y-49569000D01*
X109098757Y-49569000D01*
X108860931Y-49616307D01*
X108636903Y-49709102D01*
X108435283Y-49843820D01*
X108263820Y-50015283D01*
X108129102Y-50216903D01*
X108036307Y-50440931D01*
X107989000Y-50678757D01*
X102006000Y-50678757D01*
X102006000Y-48138757D01*
X107989000Y-48138757D01*
X107989000Y-48381243D01*
X108036307Y-48619069D01*
X108129102Y-48843097D01*
X108263820Y-49044717D01*
X108435283Y-49216180D01*
X108636903Y-49350898D01*
X108860931Y-49443693D01*
X109098757Y-49491000D01*
X109341243Y-49491000D01*
X109579069Y-49443693D01*
X109803097Y-49350898D01*
X110004717Y-49216180D01*
X110176180Y-49044717D01*
X110310898Y-48843097D01*
X110322122Y-48816000D01*
X114386503Y-48816000D01*
X114437143Y-48866640D01*
X114565060Y-48952111D01*
X114707193Y-49010985D01*
X114858080Y-49040998D01*
X115011924Y-49040998D01*
X115162811Y-49010985D01*
X115304944Y-48952111D01*
X115432861Y-48866640D01*
X115541644Y-48757857D01*
X115627115Y-48629940D01*
X115685989Y-48487807D01*
X115716002Y-48336920D01*
X115716002Y-48183076D01*
X115685989Y-48032189D01*
X115627115Y-47890056D01*
X115541644Y-47762139D01*
X115432861Y-47653356D01*
X115304944Y-47567885D01*
X115162811Y-47509011D01*
X115011924Y-47478998D01*
X114858080Y-47478998D01*
X114707193Y-47509011D01*
X114565060Y-47567885D01*
X114437143Y-47653356D01*
X114386499Y-47704000D01*
X110322122Y-47704000D01*
X110310898Y-47676903D01*
X110176180Y-47475283D01*
X110004717Y-47303820D01*
X109803097Y-47169102D01*
X109579069Y-47076307D01*
X109341243Y-47029000D01*
X109098757Y-47029000D01*
X108860931Y-47076307D01*
X108636903Y-47169102D01*
X108435283Y-47303820D01*
X108263820Y-47475283D01*
X108129102Y-47676903D01*
X108036307Y-47900931D01*
X107989000Y-48138757D01*
X102006000Y-48138757D01*
X102006000Y-45598757D01*
X107989000Y-45598757D01*
X107989000Y-45841243D01*
X108036307Y-46079069D01*
X108129102Y-46303097D01*
X108263820Y-46504717D01*
X108435283Y-46676180D01*
X108636903Y-46810898D01*
X108860931Y-46903693D01*
X109098757Y-46951000D01*
X109341243Y-46951000D01*
X109579069Y-46903693D01*
X109803097Y-46810898D01*
X110004717Y-46676180D01*
X110176180Y-46504717D01*
X110310898Y-46303097D01*
X110322122Y-46276000D01*
X113624503Y-46276000D01*
X113675145Y-46326642D01*
X113803062Y-46412113D01*
X113945195Y-46470987D01*
X114096082Y-46501000D01*
X114249926Y-46501000D01*
X114400813Y-46470987D01*
X114542946Y-46412113D01*
X114670863Y-46326642D01*
X114779646Y-46217859D01*
X114865117Y-46089942D01*
X114923991Y-45947809D01*
X114954004Y-45796922D01*
X114954004Y-45643078D01*
X114923991Y-45492191D01*
X114865117Y-45350058D01*
X114779646Y-45222141D01*
X114670863Y-45113358D01*
X114542946Y-45027887D01*
X114400813Y-44969013D01*
X114249926Y-44939000D01*
X114096082Y-44939000D01*
X113945195Y-44969013D01*
X113803062Y-45027887D01*
X113675145Y-45113358D01*
X113624503Y-45164000D01*
X110322122Y-45164000D01*
X110310898Y-45136903D01*
X110176180Y-44935283D01*
X110004717Y-44763820D01*
X109803097Y-44629102D01*
X109579069Y-44536307D01*
X109341243Y-44489000D01*
X109098757Y-44489000D01*
X108860931Y-44536307D01*
X108636903Y-44629102D01*
X108435283Y-44763820D01*
X108263820Y-44935283D01*
X108129102Y-45136903D01*
X108036307Y-45360931D01*
X107989000Y-45598757D01*
X102006000Y-45598757D01*
X102006000Y-43058757D01*
X107989000Y-43058757D01*
X107989000Y-43301243D01*
X108036307Y-43539069D01*
X108129102Y-43763097D01*
X108263820Y-43964717D01*
X108435283Y-44136180D01*
X108636903Y-44270898D01*
X108860931Y-44363693D01*
X109098757Y-44411000D01*
X109341243Y-44411000D01*
X109579069Y-44363693D01*
X109803097Y-44270898D01*
X110004717Y-44136180D01*
X110176180Y-43964717D01*
X110310898Y-43763097D01*
X110322122Y-43736000D01*
X112989495Y-43736000D01*
X113040137Y-43786642D01*
X113168054Y-43872113D01*
X113310187Y-43930987D01*
X113461074Y-43961000D01*
X113614918Y-43961000D01*
X113765805Y-43930987D01*
X113907938Y-43872113D01*
X114035855Y-43786642D01*
X114144638Y-43677859D01*
X114230109Y-43549942D01*
X114288983Y-43407809D01*
X114318996Y-43256922D01*
X114318996Y-43103078D01*
X114288983Y-42952191D01*
X114230109Y-42810058D01*
X114144638Y-42682141D01*
X114035855Y-42573358D01*
X113907938Y-42487887D01*
X113765805Y-42429013D01*
X113614918Y-42399000D01*
X113461074Y-42399000D01*
X113310187Y-42429013D01*
X113168054Y-42487887D01*
X113040137Y-42573358D01*
X112989495Y-42624000D01*
X110322122Y-42624000D01*
X110310898Y-42596903D01*
X110176180Y-42395283D01*
X110004717Y-42223820D01*
X109803097Y-42089102D01*
X109579069Y-41996307D01*
X109341243Y-41949000D01*
X109098757Y-41949000D01*
X108860931Y-41996307D01*
X108636903Y-42089102D01*
X108435283Y-42223820D01*
X108263820Y-42395283D01*
X108129102Y-42596903D01*
X108036307Y-42820931D01*
X107989000Y-43058757D01*
X102006000Y-43058757D01*
X102006000Y-40518757D01*
X107989000Y-40518757D01*
X107989000Y-40761243D01*
X108036307Y-40999069D01*
X108129102Y-41223097D01*
X108263820Y-41424717D01*
X108435283Y-41596180D01*
X108636903Y-41730898D01*
X108860931Y-41823693D01*
X109098757Y-41871000D01*
X109341243Y-41871000D01*
X109579069Y-41823693D01*
X109803097Y-41730898D01*
X110004717Y-41596180D01*
X110176180Y-41424717D01*
X110310898Y-41223097D01*
X110322122Y-41196000D01*
X112100499Y-41196000D01*
X112151141Y-41246642D01*
X112279058Y-41332113D01*
X112421191Y-41390987D01*
X112572078Y-41421000D01*
X112725922Y-41421000D01*
X112876809Y-41390987D01*
X113018942Y-41332113D01*
X113146859Y-41246642D01*
X113255642Y-41137859D01*
X113341113Y-41009942D01*
X113399987Y-40867809D01*
X113430000Y-40716922D01*
X113430000Y-40563078D01*
X113399987Y-40412191D01*
X113341113Y-40270058D01*
X113255642Y-40142141D01*
X113146859Y-40033358D01*
X113018942Y-39947887D01*
X112876809Y-39889013D01*
X112725922Y-39859000D01*
X112572078Y-39859000D01*
X112421191Y-39889013D01*
X112279058Y-39947887D01*
X112151141Y-40033358D01*
X112100499Y-40084000D01*
X110322122Y-40084000D01*
X110310898Y-40056903D01*
X110176180Y-39855283D01*
X110004717Y-39683820D01*
X109803097Y-39549102D01*
X109579069Y-39456307D01*
X109341243Y-39409000D01*
X109098757Y-39409000D01*
X108860931Y-39456307D01*
X108636903Y-39549102D01*
X108435283Y-39683820D01*
X108263820Y-39855283D01*
X108129102Y-40056903D01*
X108036307Y-40280931D01*
X107989000Y-40518757D01*
X102006000Y-40518757D01*
X102006000Y-37978757D01*
X107989000Y-37978757D01*
X107989000Y-38221243D01*
X108036307Y-38459069D01*
X108129102Y-38683097D01*
X108263820Y-38884717D01*
X108435283Y-39056180D01*
X108636903Y-39190898D01*
X108860931Y-39283693D01*
X109098757Y-39331000D01*
X109341243Y-39331000D01*
X109579069Y-39283693D01*
X109803097Y-39190898D01*
X110004717Y-39056180D01*
X110176180Y-38884717D01*
X110310898Y-38683097D01*
X110322122Y-38656000D01*
X111084497Y-38656000D01*
X111135139Y-38706642D01*
X111263056Y-38792113D01*
X111405189Y-38850987D01*
X111556076Y-38881000D01*
X111709920Y-38881000D01*
X111860807Y-38850987D01*
X112002940Y-38792113D01*
X112130857Y-38706642D01*
X112239640Y-38597859D01*
X112325111Y-38469942D01*
X112383985Y-38327809D01*
X112413998Y-38176922D01*
X112413998Y-38023078D01*
X112383985Y-37872191D01*
X112325111Y-37730058D01*
X112239640Y-37602141D01*
X112130857Y-37493358D01*
X112002940Y-37407887D01*
X111860807Y-37349013D01*
X111709920Y-37319000D01*
X111556076Y-37319000D01*
X111405189Y-37349013D01*
X111263056Y-37407887D01*
X111135139Y-37493358D01*
X111084497Y-37544000D01*
X110322122Y-37544000D01*
X110310898Y-37516903D01*
X110176180Y-37315283D01*
X110004717Y-37143820D01*
X109803097Y-37009102D01*
X109579069Y-36916307D01*
X109341243Y-36869000D01*
X109098757Y-36869000D01*
X108860931Y-36916307D01*
X108636903Y-37009102D01*
X108435283Y-37143820D01*
X108263820Y-37315283D01*
X108129102Y-37516903D01*
X108036307Y-37740931D01*
X107989000Y-37978757D01*
X102006000Y-37978757D01*
X102006000Y-36139854D01*
X102048551Y-35705885D01*
X102168819Y-35307538D01*
X102364170Y-34940136D01*
X102627157Y-34617683D01*
X102947773Y-34352447D01*
X103313795Y-34154540D01*
X103711291Y-34031494D01*
X104144137Y-33986000D01*
X137394146Y-33986000D01*
X137828115Y-34028551D01*
%TA.AperFunction,Conductor*%
D15*
G36*
X137828115Y-34028551D02*
G01*
X138226462Y-34148819D01*
X138593864Y-34344170D01*
X138916317Y-34607157D01*
X139181553Y-34927773D01*
X139379460Y-35293795D01*
X139502506Y-35691291D01*
X139548000Y-36124137D01*
X139548001Y-101020136D01*
X139505449Y-101454115D01*
X139385181Y-101852464D01*
X139189831Y-102219862D01*
X138926845Y-102542315D01*
X138606226Y-102807554D01*
X138240204Y-103005461D01*
X137842708Y-103128506D01*
X137409863Y-103174000D01*
X104159854Y-103174000D01*
X103725885Y-103131449D01*
X103327536Y-103011181D01*
X102960138Y-102815831D01*
X102637685Y-102552845D01*
X102372446Y-102232226D01*
X102174539Y-101866204D01*
X102051494Y-101468708D01*
X102006000Y-101035863D01*
X102006000Y-68458757D01*
X105449000Y-68458757D01*
X105449000Y-68701243D01*
X105496307Y-68939069D01*
X105589102Y-69163097D01*
X105723820Y-69364717D01*
X105895283Y-69536180D01*
X106096903Y-69670898D01*
X106320931Y-69763693D01*
X106558757Y-69811000D01*
X106801243Y-69811000D01*
X107039069Y-69763693D01*
X107066167Y-69752469D01*
X107492536Y-70178838D01*
X107509948Y-70200054D01*
X107594609Y-70269535D01*
X107691200Y-70321163D01*
X107796006Y-70352956D01*
X107877689Y-70361001D01*
X107877696Y-70361001D01*
X107905000Y-70363690D01*
X107932305Y-70361001D01*
X108246636Y-70361001D01*
X108129102Y-70536903D01*
X108036307Y-70760931D01*
X107989000Y-70998757D01*
X107989000Y-71241243D01*
X108036307Y-71479069D01*
X108129102Y-71703097D01*
X108263820Y-71904717D01*
X108435283Y-72076180D01*
X108636903Y-72210898D01*
X108860931Y-72303693D01*
X109098757Y-72351000D01*
X109341243Y-72351000D01*
X109579069Y-72303693D01*
X109803097Y-72210898D01*
X110004717Y-72076180D01*
X110176180Y-71904717D01*
X110310898Y-71703097D01*
X110322122Y-71676000D01*
X120114696Y-71676000D01*
X120142000Y-71678689D01*
X120169304Y-71676000D01*
X120169312Y-71676000D01*
X120250995Y-71667955D01*
X120355801Y-71636162D01*
X120452392Y-71584534D01*
X120537053Y-71515053D01*
X120554469Y-71493832D01*
X122063455Y-69984848D01*
X122063455Y-70698242D01*
X119657699Y-73104000D01*
X110322122Y-73104000D01*
X110310898Y-73076903D01*
X110176180Y-72875283D01*
X110004717Y-72703820D01*
X109803097Y-72569102D01*
X109579069Y-72476307D01*
X109341243Y-72429000D01*
X109098757Y-72429000D01*
X108860931Y-72476307D01*
X108636903Y-72569102D01*
X108435283Y-72703820D01*
X108263820Y-72875283D01*
X108129102Y-73076903D01*
X108036307Y-73300931D01*
X107989000Y-73538757D01*
X107989000Y-73781243D01*
X108036307Y-74019069D01*
X108129102Y-74243097D01*
X108263820Y-74444717D01*
X108435283Y-74616180D01*
X108636903Y-74750898D01*
X108860931Y-74843693D01*
X109098757Y-74891000D01*
X109341243Y-74891000D01*
X109579069Y-74843693D01*
X109803097Y-74750898D01*
X110004717Y-74616180D01*
X110176180Y-74444717D01*
X110310898Y-74243097D01*
X110322122Y-74216000D01*
X119860696Y-74216000D01*
X119888000Y-74218689D01*
X119915304Y-74216000D01*
X119915312Y-74216000D01*
X119996995Y-74207955D01*
X120101801Y-74176162D01*
X120198392Y-74124534D01*
X120283053Y-74055053D01*
X120300469Y-74033832D01*
X122887009Y-71447294D01*
X122887009Y-72160688D01*
X119403699Y-75644000D01*
X110322122Y-75644000D01*
X110310898Y-75616903D01*
X110176180Y-75415283D01*
X110004717Y-75243820D01*
X109803097Y-75109102D01*
X109579069Y-75016307D01*
X109341243Y-74969000D01*
X109098757Y-74969000D01*
X108860931Y-75016307D01*
X108636903Y-75109102D01*
X108435283Y-75243820D01*
X108263820Y-75415283D01*
X108129102Y-75616903D01*
X108036307Y-75840931D01*
X107989000Y-76078757D01*
X107989000Y-76321243D01*
X108036307Y-76559069D01*
X108129102Y-76783097D01*
X108263820Y-76984717D01*
X108435283Y-77156180D01*
X108636903Y-77290898D01*
X108860931Y-77383693D01*
X109098757Y-77431000D01*
X109341243Y-77431000D01*
X109579069Y-77383693D01*
X109803097Y-77290898D01*
X110004717Y-77156180D01*
X110176180Y-76984717D01*
X110310898Y-76783097D01*
X110322122Y-76756000D01*
X119606696Y-76756000D01*
X119634000Y-76758689D01*
X119661304Y-76756000D01*
X119661312Y-76756000D01*
X119742995Y-76747955D01*
X119847801Y-76716162D01*
X119944392Y-76664534D01*
X120029053Y-76595053D01*
X120046469Y-76573832D01*
X123710563Y-72909740D01*
X123710563Y-73750134D01*
X119276699Y-78184000D01*
X110322122Y-78184000D01*
X110310898Y-78156903D01*
X110176180Y-77955283D01*
X110004717Y-77783820D01*
X109803097Y-77649102D01*
X109579069Y-77556307D01*
X109341243Y-77509000D01*
X109098757Y-77509000D01*
X108860931Y-77556307D01*
X108636903Y-77649102D01*
X108435283Y-77783820D01*
X108263820Y-77955283D01*
X108129102Y-78156903D01*
X108036307Y-78380931D01*
X107989000Y-78618757D01*
X107989000Y-78861243D01*
X108036307Y-79099069D01*
X108129102Y-79323097D01*
X108263820Y-79524717D01*
X108435283Y-79696180D01*
X108636903Y-79830898D01*
X108860931Y-79923693D01*
X109098757Y-79971000D01*
X109341243Y-79971000D01*
X109579069Y-79923693D01*
X109803097Y-79830898D01*
X110004717Y-79696180D01*
X110176180Y-79524717D01*
X110310898Y-79323097D01*
X110322122Y-79296000D01*
X119479696Y-79296000D01*
X119507000Y-79298689D01*
X119534304Y-79296000D01*
X119534312Y-79296000D01*
X119615995Y-79287955D01*
X119720801Y-79256162D01*
X119817392Y-79204534D01*
X119902053Y-79135053D01*
X119919469Y-79113832D01*
X124534117Y-74499186D01*
X124534117Y-76990580D01*
X120800699Y-80724000D01*
X110322122Y-80724000D01*
X110310898Y-80696903D01*
X110176180Y-80495283D01*
X110004717Y-80323820D01*
X109803097Y-80189102D01*
X109579069Y-80096307D01*
X109341243Y-80049000D01*
X109098757Y-80049000D01*
X108860931Y-80096307D01*
X108636903Y-80189102D01*
X108435283Y-80323820D01*
X108263820Y-80495283D01*
X108129102Y-80696903D01*
X108036307Y-80920931D01*
X107989000Y-81158757D01*
X107989000Y-81401243D01*
X108036307Y-81639069D01*
X108129102Y-81863097D01*
X108263820Y-82064717D01*
X108435283Y-82236180D01*
X108636903Y-82370898D01*
X108860931Y-82463693D01*
X109098757Y-82511000D01*
X109341243Y-82511000D01*
X109579069Y-82463693D01*
X109803097Y-82370898D01*
X110004717Y-82236180D01*
X110176180Y-82064717D01*
X110310898Y-81863097D01*
X110322122Y-81836000D01*
X121003696Y-81836000D01*
X121031000Y-81838689D01*
X121058304Y-81836000D01*
X121058312Y-81836000D01*
X121139995Y-81827955D01*
X121244801Y-81796162D01*
X121341392Y-81744534D01*
X121426053Y-81675053D01*
X121443469Y-81653832D01*
X125357671Y-77739632D01*
X125357671Y-80612026D01*
X122705699Y-83264000D01*
X110322122Y-83264000D01*
X110310898Y-83236903D01*
X110176180Y-83035283D01*
X110004717Y-82863820D01*
X109803097Y-82729102D01*
X109579069Y-82636307D01*
X109341243Y-82589000D01*
X109098757Y-82589000D01*
X108860931Y-82636307D01*
X108636903Y-82729102D01*
X108435283Y-82863820D01*
X108263820Y-83035283D01*
X108129102Y-83236903D01*
X108036307Y-83460931D01*
X107989000Y-83698757D01*
X107989000Y-83941243D01*
X108036307Y-84179069D01*
X108129102Y-84403097D01*
X108263820Y-84604717D01*
X108435283Y-84776180D01*
X108636903Y-84910898D01*
X108860931Y-85003693D01*
X109098757Y-85051000D01*
X109341243Y-85051000D01*
X109579069Y-85003693D01*
X109803097Y-84910898D01*
X110004717Y-84776180D01*
X110176180Y-84604717D01*
X110310898Y-84403097D01*
X110322122Y-84376000D01*
X122908696Y-84376000D01*
X122936000Y-84378689D01*
X122963304Y-84376000D01*
X122963312Y-84376000D01*
X123044995Y-84367955D01*
X123149801Y-84336162D01*
X123246392Y-84284534D01*
X123331053Y-84215053D01*
X123348469Y-84193832D01*
X126181225Y-81361078D01*
X126181225Y-83598472D01*
X123975699Y-85804000D01*
X110322122Y-85804000D01*
X110310898Y-85776903D01*
X110176180Y-85575283D01*
X110004717Y-85403820D01*
X109803097Y-85269102D01*
X109579069Y-85176307D01*
X109341243Y-85129000D01*
X109098757Y-85129000D01*
X108860931Y-85176307D01*
X108636903Y-85269102D01*
X108435283Y-85403820D01*
X108263820Y-85575283D01*
X108129102Y-85776903D01*
X108036307Y-86000931D01*
X107989000Y-86238757D01*
X107989000Y-86481243D01*
X108036307Y-86719069D01*
X108129102Y-86943097D01*
X108263820Y-87144717D01*
X108435283Y-87316180D01*
X108636903Y-87450898D01*
X108860931Y-87543693D01*
X109098757Y-87591000D01*
X109341243Y-87591000D01*
X109579069Y-87543693D01*
X109803097Y-87450898D01*
X110004717Y-87316180D01*
X110176180Y-87144717D01*
X110310898Y-86943097D01*
X110322122Y-86916000D01*
X124178696Y-86916000D01*
X124206000Y-86918689D01*
X124233304Y-86916000D01*
X124233312Y-86916000D01*
X124314995Y-86907955D01*
X124419801Y-86876162D01*
X124516392Y-86824534D01*
X124601053Y-86755053D01*
X124618469Y-86733832D01*
X127004779Y-84347524D01*
X127004779Y-85568918D01*
X124229699Y-88344000D01*
X110322122Y-88344000D01*
X110310898Y-88316903D01*
X110176180Y-88115283D01*
X110004717Y-87943820D01*
X109803097Y-87809102D01*
X109579069Y-87716307D01*
X109341243Y-87669000D01*
X109098757Y-87669000D01*
X108860931Y-87716307D01*
X108636903Y-87809102D01*
X108435283Y-87943820D01*
X108263820Y-88115283D01*
X108129102Y-88316903D01*
X108036307Y-88540931D01*
X107989000Y-88778757D01*
X107989000Y-89021243D01*
X108036307Y-89259069D01*
X108129102Y-89483097D01*
X108263820Y-89684717D01*
X108435283Y-89856180D01*
X108636903Y-89990898D01*
X108860931Y-90083693D01*
X109098757Y-90131000D01*
X109341243Y-90131000D01*
X109579069Y-90083693D01*
X109803097Y-89990898D01*
X110004717Y-89856180D01*
X110176180Y-89684717D01*
X110310898Y-89483097D01*
X110322122Y-89456000D01*
X124432696Y-89456000D01*
X124460000Y-89458689D01*
X124487304Y-89456000D01*
X124487312Y-89456000D01*
X124568995Y-89447955D01*
X124673801Y-89416162D01*
X124770392Y-89364534D01*
X124855053Y-89295053D01*
X124872469Y-89273832D01*
X127828333Y-86317970D01*
X127828333Y-87793364D01*
X124737699Y-90884000D01*
X110322122Y-90884000D01*
X110310898Y-90856903D01*
X110176180Y-90655283D01*
X110004717Y-90483820D01*
X109803097Y-90349102D01*
X109579069Y-90256307D01*
X109341243Y-90209000D01*
X109098757Y-90209000D01*
X108860931Y-90256307D01*
X108636903Y-90349102D01*
X108435283Y-90483820D01*
X108263820Y-90655283D01*
X108129102Y-90856903D01*
X108036307Y-91080931D01*
X107989000Y-91318757D01*
X107989000Y-91561243D01*
X108036307Y-91799069D01*
X108129102Y-92023097D01*
X108263820Y-92224717D01*
X108435283Y-92396180D01*
X108636903Y-92530898D01*
X108860931Y-92623693D01*
X109098757Y-92671000D01*
X109341243Y-92671000D01*
X109579069Y-92623693D01*
X109803097Y-92530898D01*
X110004717Y-92396180D01*
X110176180Y-92224717D01*
X110310898Y-92023097D01*
X110322122Y-91996000D01*
X124940696Y-91996000D01*
X124968000Y-91998689D01*
X124995304Y-91996000D01*
X124995312Y-91996000D01*
X125076995Y-91987955D01*
X125181801Y-91956162D01*
X125278392Y-91904534D01*
X125363053Y-91835053D01*
X125380469Y-91813832D01*
X128651887Y-88542416D01*
X128651887Y-90652810D01*
X125880699Y-93424000D01*
X110322122Y-93424000D01*
X110310898Y-93396903D01*
X110176180Y-93195283D01*
X110004717Y-93023820D01*
X109803097Y-92889102D01*
X109579069Y-92796307D01*
X109341243Y-92749000D01*
X109098757Y-92749000D01*
X108860931Y-92796307D01*
X108636903Y-92889102D01*
X108435283Y-93023820D01*
X108263820Y-93195283D01*
X108129102Y-93396903D01*
X108036307Y-93620931D01*
X107989000Y-93858757D01*
X107989000Y-94101243D01*
X108036307Y-94339069D01*
X108129102Y-94563097D01*
X108263820Y-94764717D01*
X108435283Y-94936180D01*
X108636903Y-95070898D01*
X108860931Y-95163693D01*
X109098757Y-95211000D01*
X109341243Y-95211000D01*
X109579069Y-95163693D01*
X109803097Y-95070898D01*
X110004717Y-94936180D01*
X110176180Y-94764717D01*
X110310898Y-94563097D01*
X110322122Y-94536000D01*
X126083696Y-94536000D01*
X126111000Y-94538689D01*
X126138304Y-94536000D01*
X126138312Y-94536000D01*
X126219995Y-94527955D01*
X126324801Y-94496162D01*
X126421392Y-94444534D01*
X126506053Y-94375053D01*
X126523469Y-94353832D01*
X129475441Y-91401862D01*
X129475441Y-92369257D01*
X125880699Y-95964000D01*
X110322122Y-95964000D01*
X110310898Y-95936903D01*
X110176180Y-95735283D01*
X110004717Y-95563820D01*
X109803097Y-95429102D01*
X109579069Y-95336307D01*
X109341243Y-95289000D01*
X109098757Y-95289000D01*
X108860931Y-95336307D01*
X108636903Y-95429102D01*
X108435283Y-95563820D01*
X108263820Y-95735283D01*
X108129102Y-95936903D01*
X108036307Y-96160931D01*
X107989000Y-96398757D01*
X107989000Y-96641243D01*
X108036307Y-96879069D01*
X108129102Y-97103097D01*
X108263820Y-97304717D01*
X108435283Y-97476180D01*
X108636903Y-97610898D01*
X108860931Y-97703693D01*
X109098757Y-97751000D01*
X109341243Y-97751000D01*
X109579069Y-97703693D01*
X109803097Y-97610898D01*
X110004717Y-97476180D01*
X110176180Y-97304717D01*
X110310898Y-97103097D01*
X110322122Y-97076000D01*
X126083696Y-97076000D01*
X126111000Y-97078689D01*
X126138304Y-97076000D01*
X126138312Y-97076000D01*
X126219995Y-97067955D01*
X126324801Y-97036162D01*
X126421392Y-96984534D01*
X126506053Y-96915053D01*
X126523469Y-96893832D01*
X130145999Y-93271303D01*
X130145999Y-95381699D01*
X127023699Y-98504000D01*
X110322122Y-98504000D01*
X110310898Y-98476903D01*
X110176180Y-98275283D01*
X110004717Y-98103820D01*
X109803097Y-97969102D01*
X109579069Y-97876307D01*
X109341243Y-97829000D01*
X109098757Y-97829000D01*
X108860931Y-97876307D01*
X108636903Y-97969102D01*
X108435283Y-98103820D01*
X108263820Y-98275283D01*
X108129102Y-98476903D01*
X108036307Y-98700931D01*
X107989000Y-98938757D01*
X107989000Y-99181243D01*
X108036307Y-99419069D01*
X108129102Y-99643097D01*
X108263820Y-99844717D01*
X108435283Y-100016180D01*
X108636903Y-100150898D01*
X108860931Y-100243693D01*
X109098757Y-100291000D01*
X109341243Y-100291000D01*
X109579069Y-100243693D01*
X109803097Y-100150898D01*
X110004717Y-100016180D01*
X110176180Y-99844717D01*
X110310898Y-99643097D01*
X110322122Y-99616000D01*
X127226696Y-99616000D01*
X127254000Y-99618689D01*
X127281304Y-99616000D01*
X127281312Y-99616000D01*
X127362995Y-99607955D01*
X127467801Y-99576162D01*
X127564392Y-99524534D01*
X127649053Y-99455053D01*
X127666469Y-99433832D01*
X128161544Y-98938757D01*
X133389000Y-98938757D01*
X133389000Y-99181243D01*
X133436307Y-99419069D01*
X133529102Y-99643097D01*
X133663820Y-99844717D01*
X133835283Y-100016180D01*
X134036903Y-100150898D01*
X134260931Y-100243693D01*
X134498757Y-100291000D01*
X134741243Y-100291000D01*
X134979069Y-100243693D01*
X135203097Y-100150898D01*
X135404717Y-100016180D01*
X135576180Y-99844717D01*
X135710898Y-99643097D01*
X135803693Y-99419069D01*
X135851000Y-99181243D01*
X135851000Y-98938757D01*
X135803693Y-98700931D01*
X135710898Y-98476903D01*
X135576180Y-98275283D01*
X135404717Y-98103820D01*
X135203097Y-97969102D01*
X134979069Y-97876307D01*
X134741243Y-97829000D01*
X134498757Y-97829000D01*
X134260931Y-97876307D01*
X134036903Y-97969102D01*
X133835283Y-98103820D01*
X133663820Y-98275283D01*
X133529102Y-98476903D01*
X133436307Y-98700931D01*
X133389000Y-98938757D01*
X128161544Y-98938757D01*
X130701544Y-96398757D01*
X133389000Y-96398757D01*
X133389000Y-96641243D01*
X133436307Y-96879069D01*
X133529102Y-97103097D01*
X133663820Y-97304717D01*
X133835283Y-97476180D01*
X134036903Y-97610898D01*
X134260931Y-97703693D01*
X134498757Y-97751000D01*
X134741243Y-97751000D01*
X134979069Y-97703693D01*
X135203097Y-97610898D01*
X135404717Y-97476180D01*
X135576180Y-97304717D01*
X135710898Y-97103097D01*
X135803693Y-96879069D01*
X135851000Y-96641243D01*
X135851000Y-96398757D01*
X135803693Y-96160931D01*
X135710898Y-95936903D01*
X135576180Y-95735283D01*
X135404717Y-95563820D01*
X135203097Y-95429102D01*
X134979069Y-95336307D01*
X134741243Y-95289000D01*
X134498757Y-95289000D01*
X134260931Y-95336307D01*
X134036903Y-95429102D01*
X133835283Y-95563820D01*
X133663820Y-95735283D01*
X133529102Y-95936903D01*
X133436307Y-96160931D01*
X133389000Y-96398757D01*
X130701544Y-96398757D01*
X131075836Y-96024465D01*
X131097052Y-96007054D01*
X131166533Y-95922393D01*
X131218161Y-95825802D01*
X131249954Y-95720996D01*
X131257999Y-95639313D01*
X131257999Y-95639306D01*
X131260688Y-95612001D01*
X131257999Y-95584697D01*
X131257999Y-93858757D01*
X133389000Y-93858757D01*
X133389000Y-94101243D01*
X133436307Y-94339069D01*
X133529102Y-94563097D01*
X133663820Y-94764717D01*
X133835283Y-94936180D01*
X134036903Y-95070898D01*
X134260931Y-95163693D01*
X134498757Y-95211000D01*
X134741243Y-95211000D01*
X134979069Y-95163693D01*
X135203097Y-95070898D01*
X135404717Y-94936180D01*
X135576180Y-94764717D01*
X135710898Y-94563097D01*
X135803693Y-94339069D01*
X135851000Y-94101243D01*
X135851000Y-93858757D01*
X135803693Y-93620931D01*
X135710898Y-93396903D01*
X135576180Y-93195283D01*
X135404717Y-93023820D01*
X135203097Y-92889102D01*
X134979069Y-92796307D01*
X134741243Y-92749000D01*
X134498757Y-92749000D01*
X134260931Y-92796307D01*
X134036903Y-92889102D01*
X133835283Y-93023820D01*
X133663820Y-93195283D01*
X133529102Y-93396903D01*
X133436307Y-93620931D01*
X133389000Y-93858757D01*
X131257999Y-93858757D01*
X131257999Y-91318757D01*
X133389000Y-91318757D01*
X133389000Y-91561243D01*
X133436307Y-91799069D01*
X133529102Y-92023097D01*
X133663820Y-92224717D01*
X133835283Y-92396180D01*
X134036903Y-92530898D01*
X134260931Y-92623693D01*
X134498757Y-92671000D01*
X134741243Y-92671000D01*
X134979069Y-92623693D01*
X135203097Y-92530898D01*
X135404717Y-92396180D01*
X135576180Y-92224717D01*
X135710898Y-92023097D01*
X135803693Y-91799069D01*
X135851000Y-91561243D01*
X135851000Y-91318757D01*
X135803693Y-91080931D01*
X135710898Y-90856903D01*
X135576180Y-90655283D01*
X135404717Y-90483820D01*
X135203097Y-90349102D01*
X134979069Y-90256307D01*
X134741243Y-90209000D01*
X134498757Y-90209000D01*
X134260931Y-90256307D01*
X134036903Y-90349102D01*
X133835283Y-90483820D01*
X133663820Y-90655283D01*
X133529102Y-90856903D01*
X133436307Y-91080931D01*
X133389000Y-91318757D01*
X131257999Y-91318757D01*
X131257999Y-88778757D01*
X133389000Y-88778757D01*
X133389000Y-89021243D01*
X133436307Y-89259069D01*
X133529102Y-89483097D01*
X133663820Y-89684717D01*
X133835283Y-89856180D01*
X134036903Y-89990898D01*
X134260931Y-90083693D01*
X134498757Y-90131000D01*
X134741243Y-90131000D01*
X134979069Y-90083693D01*
X135203097Y-89990898D01*
X135404717Y-89856180D01*
X135576180Y-89684717D01*
X135710898Y-89483097D01*
X135803693Y-89259069D01*
X135851000Y-89021243D01*
X135851000Y-88778757D01*
X135803693Y-88540931D01*
X135710898Y-88316903D01*
X135576180Y-88115283D01*
X135404717Y-87943820D01*
X135203097Y-87809102D01*
X134979069Y-87716307D01*
X134741243Y-87669000D01*
X134498757Y-87669000D01*
X134260931Y-87716307D01*
X134036903Y-87809102D01*
X133835283Y-87943820D01*
X133663820Y-88115283D01*
X133529102Y-88316903D01*
X133436307Y-88540931D01*
X133389000Y-88778757D01*
X131257999Y-88778757D01*
X131257999Y-86238757D01*
X133389000Y-86238757D01*
X133389000Y-86481243D01*
X133436307Y-86719069D01*
X133529102Y-86943097D01*
X133663820Y-87144717D01*
X133835283Y-87316180D01*
X134036903Y-87450898D01*
X134260931Y-87543693D01*
X134498757Y-87591000D01*
X134741243Y-87591000D01*
X134979069Y-87543693D01*
X135203097Y-87450898D01*
X135404717Y-87316180D01*
X135576180Y-87144717D01*
X135710898Y-86943097D01*
X135803693Y-86719069D01*
X135851000Y-86481243D01*
X135851000Y-86238757D01*
X135803693Y-86000931D01*
X135710898Y-85776903D01*
X135576180Y-85575283D01*
X135404717Y-85403820D01*
X135203097Y-85269102D01*
X134979069Y-85176307D01*
X134741243Y-85129000D01*
X134498757Y-85129000D01*
X134260931Y-85176307D01*
X134036903Y-85269102D01*
X133835283Y-85403820D01*
X133663820Y-85575283D01*
X133529102Y-85776903D01*
X133436307Y-86000931D01*
X133389000Y-86238757D01*
X131257999Y-86238757D01*
X131257999Y-83698757D01*
X133389000Y-83698757D01*
X133389000Y-83941243D01*
X133436307Y-84179069D01*
X133529102Y-84403097D01*
X133663820Y-84604717D01*
X133835283Y-84776180D01*
X134036903Y-84910898D01*
X134260931Y-85003693D01*
X134498757Y-85051000D01*
X134741243Y-85051000D01*
X134979069Y-85003693D01*
X135203097Y-84910898D01*
X135404717Y-84776180D01*
X135576180Y-84604717D01*
X135710898Y-84403097D01*
X135803693Y-84179069D01*
X135851000Y-83941243D01*
X135851000Y-83698757D01*
X135803693Y-83460931D01*
X135710898Y-83236903D01*
X135576180Y-83035283D01*
X135404717Y-82863820D01*
X135203097Y-82729102D01*
X134979069Y-82636307D01*
X134741243Y-82589000D01*
X134498757Y-82589000D01*
X134260931Y-82636307D01*
X134036903Y-82729102D01*
X133835283Y-82863820D01*
X133663820Y-83035283D01*
X133529102Y-83236903D01*
X133436307Y-83460931D01*
X133389000Y-83698757D01*
X131257999Y-83698757D01*
X131257999Y-81158757D01*
X133389000Y-81158757D01*
X133389000Y-81401243D01*
X133436307Y-81639069D01*
X133529102Y-81863097D01*
X133663820Y-82064717D01*
X133835283Y-82236180D01*
X134036903Y-82370898D01*
X134260931Y-82463693D01*
X134498757Y-82511000D01*
X134741243Y-82511000D01*
X134979069Y-82463693D01*
X135203097Y-82370898D01*
X135404717Y-82236180D01*
X135576180Y-82064717D01*
X135710898Y-81863097D01*
X135803693Y-81639069D01*
X135851000Y-81401243D01*
X135851000Y-81158757D01*
X135803693Y-80920931D01*
X135710898Y-80696903D01*
X135576180Y-80495283D01*
X135404717Y-80323820D01*
X135203097Y-80189102D01*
X134979069Y-80096307D01*
X134741243Y-80049000D01*
X134498757Y-80049000D01*
X134260931Y-80096307D01*
X134036903Y-80189102D01*
X133835283Y-80323820D01*
X133663820Y-80495283D01*
X133529102Y-80696903D01*
X133436307Y-80920931D01*
X133389000Y-81158757D01*
X131257999Y-81158757D01*
X131257999Y-78618757D01*
X133389000Y-78618757D01*
X133389000Y-78861243D01*
X133436307Y-79099069D01*
X133529102Y-79323097D01*
X133663820Y-79524717D01*
X133835283Y-79696180D01*
X134036903Y-79830898D01*
X134260931Y-79923693D01*
X134498757Y-79971000D01*
X134741243Y-79971000D01*
X134979069Y-79923693D01*
X135203097Y-79830898D01*
X135404717Y-79696180D01*
X135576180Y-79524717D01*
X135710898Y-79323097D01*
X135803693Y-79099069D01*
X135851000Y-78861243D01*
X135851000Y-78618757D01*
X135803693Y-78380931D01*
X135710898Y-78156903D01*
X135576180Y-77955283D01*
X135404717Y-77783820D01*
X135203097Y-77649102D01*
X134979069Y-77556307D01*
X134741243Y-77509000D01*
X134498757Y-77509000D01*
X134260931Y-77556307D01*
X134036903Y-77649102D01*
X133835283Y-77783820D01*
X133663820Y-77955283D01*
X133529102Y-78156903D01*
X133436307Y-78380931D01*
X133389000Y-78618757D01*
X131257999Y-78618757D01*
X131257999Y-76078757D01*
X133389000Y-76078757D01*
X133389000Y-76321243D01*
X133436307Y-76559069D01*
X133529102Y-76783097D01*
X133663820Y-76984717D01*
X133835283Y-77156180D01*
X134036903Y-77290898D01*
X134260931Y-77383693D01*
X134498757Y-77431000D01*
X134741243Y-77431000D01*
X134979069Y-77383693D01*
X135203097Y-77290898D01*
X135404717Y-77156180D01*
X135576180Y-76984717D01*
X135710898Y-76783097D01*
X135803693Y-76559069D01*
X135851000Y-76321243D01*
X135851000Y-76078757D01*
X135803693Y-75840931D01*
X135710898Y-75616903D01*
X135576180Y-75415283D01*
X135404717Y-75243820D01*
X135203097Y-75109102D01*
X134979069Y-75016307D01*
X134741243Y-74969000D01*
X134498757Y-74969000D01*
X134260931Y-75016307D01*
X134036903Y-75109102D01*
X133835283Y-75243820D01*
X133663820Y-75415283D01*
X133529102Y-75616903D01*
X133436307Y-75840931D01*
X133389000Y-76078757D01*
X131257999Y-76078757D01*
X131257999Y-73538757D01*
X133389000Y-73538757D01*
X133389000Y-73781243D01*
X133436307Y-74019069D01*
X133529102Y-74243097D01*
X133663820Y-74444717D01*
X133835283Y-74616180D01*
X134036903Y-74750898D01*
X134260931Y-74843693D01*
X134498757Y-74891000D01*
X134741243Y-74891000D01*
X134979069Y-74843693D01*
X135203097Y-74750898D01*
X135404717Y-74616180D01*
X135576180Y-74444717D01*
X135710898Y-74243097D01*
X135803693Y-74019069D01*
X135851000Y-73781243D01*
X135851000Y-73538757D01*
X135803693Y-73300931D01*
X135710898Y-73076903D01*
X135576180Y-72875283D01*
X135404717Y-72703820D01*
X135203097Y-72569102D01*
X134979069Y-72476307D01*
X134741243Y-72429000D01*
X134498757Y-72429000D01*
X134260931Y-72476307D01*
X134036903Y-72569102D01*
X133835283Y-72703820D01*
X133663820Y-72875283D01*
X133529102Y-73076903D01*
X133436307Y-73300931D01*
X133389000Y-73538757D01*
X131257999Y-73538757D01*
X131257999Y-70998757D01*
X133389000Y-70998757D01*
X133389000Y-71241243D01*
X133436307Y-71479069D01*
X133529102Y-71703097D01*
X133663820Y-71904717D01*
X133835283Y-72076180D01*
X134036903Y-72210898D01*
X134260931Y-72303693D01*
X134498757Y-72351000D01*
X134741243Y-72351000D01*
X134979069Y-72303693D01*
X135203097Y-72210898D01*
X135404717Y-72076180D01*
X135576180Y-71904717D01*
X135710898Y-71703097D01*
X135803693Y-71479069D01*
X135851000Y-71241243D01*
X135851000Y-70998757D01*
X135803693Y-70760931D01*
X135710898Y-70536903D01*
X135576180Y-70335283D01*
X135404717Y-70163820D01*
X135203097Y-70029102D01*
X134979069Y-69936307D01*
X134741243Y-69889000D01*
X134498757Y-69889000D01*
X134260931Y-69936307D01*
X134036903Y-70029102D01*
X133835283Y-70163820D01*
X133663820Y-70335283D01*
X133529102Y-70536903D01*
X133436307Y-70760931D01*
X133389000Y-70998757D01*
X131257999Y-70998757D01*
X131257999Y-69498896D01*
X131295283Y-69536180D01*
X131496903Y-69670898D01*
X131720931Y-69763693D01*
X131958757Y-69811000D01*
X132201243Y-69811000D01*
X132439069Y-69763693D01*
X132663097Y-69670898D01*
X132864717Y-69536180D01*
X133036180Y-69364717D01*
X133170898Y-69163097D01*
X133263693Y-68939069D01*
X133311000Y-68701243D01*
X133311000Y-68458757D01*
X133389000Y-68458757D01*
X133389000Y-68701243D01*
X133436307Y-68939069D01*
X133529102Y-69163097D01*
X133663820Y-69364717D01*
X133835283Y-69536180D01*
X134036903Y-69670898D01*
X134260931Y-69763693D01*
X134498757Y-69811000D01*
X134741243Y-69811000D01*
X134979069Y-69763693D01*
X135203097Y-69670898D01*
X135404717Y-69536180D01*
X135576180Y-69364717D01*
X135710898Y-69163097D01*
X135803693Y-68939069D01*
X135851000Y-68701243D01*
X135851000Y-68458757D01*
X135803693Y-68220931D01*
X135710898Y-67996903D01*
X135576180Y-67795283D01*
X135404717Y-67623820D01*
X135203097Y-67489102D01*
X134979069Y-67396307D01*
X134741243Y-67349000D01*
X134498757Y-67349000D01*
X134260931Y-67396307D01*
X134036903Y-67489102D01*
X133835283Y-67623820D01*
X133663820Y-67795283D01*
X133529102Y-67996903D01*
X133436307Y-68220931D01*
X133389000Y-68458757D01*
X133311000Y-68458757D01*
X133263693Y-68220931D01*
X133170898Y-67996903D01*
X133036180Y-67795283D01*
X132864717Y-67623820D01*
X132663097Y-67489102D01*
X132439069Y-67396307D01*
X132201243Y-67349000D01*
X131958757Y-67349000D01*
X131720931Y-67396307D01*
X131496903Y-67489102D01*
X131295283Y-67623820D01*
X131257999Y-67661104D01*
X131257999Y-65918757D01*
X133389000Y-65918757D01*
X133389000Y-66161243D01*
X133436307Y-66399069D01*
X133529102Y-66623097D01*
X133663820Y-66824717D01*
X133835283Y-66996180D01*
X134036903Y-67130898D01*
X134260931Y-67223693D01*
X134498757Y-67271000D01*
X134741243Y-67271000D01*
X134979069Y-67223693D01*
X135203097Y-67130898D01*
X135404717Y-66996180D01*
X135576180Y-66824717D01*
X135710898Y-66623097D01*
X135803693Y-66399069D01*
X135851000Y-66161243D01*
X135851000Y-65918757D01*
X135803693Y-65680931D01*
X135710898Y-65456903D01*
X135576180Y-65255283D01*
X135404717Y-65083820D01*
X135203097Y-64949102D01*
X134979069Y-64856307D01*
X134741243Y-64809000D01*
X134498757Y-64809000D01*
X134260931Y-64856307D01*
X134036903Y-64949102D01*
X133835283Y-65083820D01*
X133663820Y-65255283D01*
X133529102Y-65456903D01*
X133436307Y-65680931D01*
X133389000Y-65918757D01*
X131257999Y-65918757D01*
X131257999Y-63378757D01*
X133389000Y-63378757D01*
X133389000Y-63621243D01*
X133436307Y-63859069D01*
X133529102Y-64083097D01*
X133663820Y-64284717D01*
X133835283Y-64456180D01*
X134036903Y-64590898D01*
X134260931Y-64683693D01*
X134498757Y-64731000D01*
X134741243Y-64731000D01*
X134979069Y-64683693D01*
X135203097Y-64590898D01*
X135404717Y-64456180D01*
X135576180Y-64284717D01*
X135710898Y-64083097D01*
X135803693Y-63859069D01*
X135851000Y-63621243D01*
X135851000Y-63378757D01*
X135803693Y-63140931D01*
X135710898Y-62916903D01*
X135576180Y-62715283D01*
X135404717Y-62543820D01*
X135203097Y-62409102D01*
X134979069Y-62316307D01*
X134741243Y-62269000D01*
X134498757Y-62269000D01*
X134260931Y-62316307D01*
X134036903Y-62409102D01*
X133835283Y-62543820D01*
X133663820Y-62715283D01*
X133529102Y-62916903D01*
X133436307Y-63140931D01*
X133389000Y-63378757D01*
X131257999Y-63378757D01*
X131257999Y-60838757D01*
X133389000Y-60838757D01*
X133389000Y-61081243D01*
X133436307Y-61319069D01*
X133529102Y-61543097D01*
X133663820Y-61744717D01*
X133835283Y-61916180D01*
X134036903Y-62050898D01*
X134260931Y-62143693D01*
X134498757Y-62191000D01*
X134741243Y-62191000D01*
X134979069Y-62143693D01*
X135203097Y-62050898D01*
X135404717Y-61916180D01*
X135576180Y-61744717D01*
X135710898Y-61543097D01*
X135803693Y-61319069D01*
X135851000Y-61081243D01*
X135851000Y-60838757D01*
X135803693Y-60600931D01*
X135710898Y-60376903D01*
X135576180Y-60175283D01*
X135404717Y-60003820D01*
X135203097Y-59869102D01*
X134979069Y-59776307D01*
X134741243Y-59729000D01*
X134498757Y-59729000D01*
X134260931Y-59776307D01*
X134036903Y-59869102D01*
X133835283Y-60003820D01*
X133663820Y-60175283D01*
X133529102Y-60376903D01*
X133436307Y-60600931D01*
X133389000Y-60838757D01*
X131257999Y-60838757D01*
X131257999Y-58298757D01*
X133389000Y-58298757D01*
X133389000Y-58541243D01*
X133436307Y-58779069D01*
X133529102Y-59003097D01*
X133663820Y-59204717D01*
X133835283Y-59376180D01*
X134036903Y-59510898D01*
X134260931Y-59603693D01*
X134498757Y-59651000D01*
X134741243Y-59651000D01*
X134979069Y-59603693D01*
X135203097Y-59510898D01*
X135404717Y-59376180D01*
X135576180Y-59204717D01*
X135710898Y-59003097D01*
X135803693Y-58779069D01*
X135851000Y-58541243D01*
X135851000Y-58298757D01*
X135803693Y-58060931D01*
X135710898Y-57836903D01*
X135576180Y-57635283D01*
X135404717Y-57463820D01*
X135203097Y-57329102D01*
X134979069Y-57236307D01*
X134741243Y-57189000D01*
X134498757Y-57189000D01*
X134260931Y-57236307D01*
X134036903Y-57329102D01*
X133835283Y-57463820D01*
X133663820Y-57635283D01*
X133529102Y-57836903D01*
X133436307Y-58060931D01*
X133389000Y-58298757D01*
X131257999Y-58298757D01*
X131257999Y-55758757D01*
X133389000Y-55758757D01*
X133389000Y-56001243D01*
X133436307Y-56239069D01*
X133529102Y-56463097D01*
X133663820Y-56664717D01*
X133835283Y-56836180D01*
X134036903Y-56970898D01*
X134260931Y-57063693D01*
X134498757Y-57111000D01*
X134741243Y-57111000D01*
X134979069Y-57063693D01*
X135203097Y-56970898D01*
X135404717Y-56836180D01*
X135576180Y-56664717D01*
X135710898Y-56463097D01*
X135803693Y-56239069D01*
X135851000Y-56001243D01*
X135851000Y-55758757D01*
X135803693Y-55520931D01*
X135710898Y-55296903D01*
X135576180Y-55095283D01*
X135404717Y-54923820D01*
X135203097Y-54789102D01*
X134979069Y-54696307D01*
X134741243Y-54649000D01*
X134498757Y-54649000D01*
X134260931Y-54696307D01*
X134036903Y-54789102D01*
X133835283Y-54923820D01*
X133663820Y-55095283D01*
X133529102Y-55296903D01*
X133436307Y-55520931D01*
X133389000Y-55758757D01*
X131257999Y-55758757D01*
X131257999Y-53218757D01*
X133389000Y-53218757D01*
X133389000Y-53461243D01*
X133436307Y-53699069D01*
X133529102Y-53923097D01*
X133663820Y-54124717D01*
X133835283Y-54296180D01*
X134036903Y-54430898D01*
X134260931Y-54523693D01*
X134498757Y-54571000D01*
X134741243Y-54571000D01*
X134979069Y-54523693D01*
X135203097Y-54430898D01*
X135404717Y-54296180D01*
X135576180Y-54124717D01*
X135710898Y-53923097D01*
X135803693Y-53699069D01*
X135851000Y-53461243D01*
X135851000Y-53218757D01*
X135803693Y-52980931D01*
X135710898Y-52756903D01*
X135576180Y-52555283D01*
X135404717Y-52383820D01*
X135203097Y-52249102D01*
X134979069Y-52156307D01*
X134741243Y-52109000D01*
X134498757Y-52109000D01*
X134260931Y-52156307D01*
X134036903Y-52249102D01*
X133835283Y-52383820D01*
X133663820Y-52555283D01*
X133529102Y-52756903D01*
X133436307Y-52980931D01*
X133389000Y-53218757D01*
X131257999Y-53218757D01*
X131257999Y-50678757D01*
X133389000Y-50678757D01*
X133389000Y-50921243D01*
X133436307Y-51159069D01*
X133529102Y-51383097D01*
X133663820Y-51584717D01*
X133835283Y-51756180D01*
X134036903Y-51890898D01*
X134260931Y-51983693D01*
X134498757Y-52031000D01*
X134741243Y-52031000D01*
X134979069Y-51983693D01*
X135203097Y-51890898D01*
X135404717Y-51756180D01*
X135576180Y-51584717D01*
X135710898Y-51383097D01*
X135803693Y-51159069D01*
X135851000Y-50921243D01*
X135851000Y-50678757D01*
X135803693Y-50440931D01*
X135710898Y-50216903D01*
X135576180Y-50015283D01*
X135404717Y-49843820D01*
X135203097Y-49709102D01*
X134979069Y-49616307D01*
X134741243Y-49569000D01*
X134498757Y-49569000D01*
X134260931Y-49616307D01*
X134036903Y-49709102D01*
X133835283Y-49843820D01*
X133663820Y-50015283D01*
X133529102Y-50216903D01*
X133436307Y-50440931D01*
X133389000Y-50678757D01*
X131257999Y-50678757D01*
X131257999Y-48138757D01*
X133389000Y-48138757D01*
X133389000Y-48381243D01*
X133436307Y-48619069D01*
X133529102Y-48843097D01*
X133663820Y-49044717D01*
X133835283Y-49216180D01*
X134036903Y-49350898D01*
X134260931Y-49443693D01*
X134498757Y-49491000D01*
X134741243Y-49491000D01*
X134979069Y-49443693D01*
X135203097Y-49350898D01*
X135404717Y-49216180D01*
X135576180Y-49044717D01*
X135710898Y-48843097D01*
X135803693Y-48619069D01*
X135851000Y-48381243D01*
X135851000Y-48138757D01*
X135803693Y-47900931D01*
X135710898Y-47676903D01*
X135576180Y-47475283D01*
X135404717Y-47303820D01*
X135203097Y-47169102D01*
X134979069Y-47076307D01*
X134741243Y-47029000D01*
X134498757Y-47029000D01*
X134260931Y-47076307D01*
X134036903Y-47169102D01*
X133835283Y-47303820D01*
X133663820Y-47475283D01*
X133529102Y-47676903D01*
X133436307Y-47900931D01*
X133389000Y-48138757D01*
X131257999Y-48138757D01*
X131257999Y-45598757D01*
X133389000Y-45598757D01*
X133389000Y-45841243D01*
X133436307Y-46079069D01*
X133529102Y-46303097D01*
X133663820Y-46504717D01*
X133835283Y-46676180D01*
X134036903Y-46810898D01*
X134260931Y-46903693D01*
X134498757Y-46951000D01*
X134741243Y-46951000D01*
X134979069Y-46903693D01*
X135203097Y-46810898D01*
X135404717Y-46676180D01*
X135576180Y-46504717D01*
X135710898Y-46303097D01*
X135803693Y-46079069D01*
X135851000Y-45841243D01*
X135851000Y-45598757D01*
X135803693Y-45360931D01*
X135710898Y-45136903D01*
X135576180Y-44935283D01*
X135404717Y-44763820D01*
X135203097Y-44629102D01*
X134979069Y-44536307D01*
X134741243Y-44489000D01*
X134498757Y-44489000D01*
X134260931Y-44536307D01*
X134036903Y-44629102D01*
X133835283Y-44763820D01*
X133663820Y-44935283D01*
X133529102Y-45136903D01*
X133436307Y-45360931D01*
X133389000Y-45598757D01*
X131257999Y-45598757D01*
X131257999Y-43058757D01*
X133389000Y-43058757D01*
X133389000Y-43301243D01*
X133436307Y-43539069D01*
X133529102Y-43763097D01*
X133663820Y-43964717D01*
X133835283Y-44136180D01*
X134036903Y-44270898D01*
X134260931Y-44363693D01*
X134498757Y-44411000D01*
X134741243Y-44411000D01*
X134979069Y-44363693D01*
X135203097Y-44270898D01*
X135404717Y-44136180D01*
X135576180Y-43964717D01*
X135710898Y-43763097D01*
X135803693Y-43539069D01*
X135851000Y-43301243D01*
X135851000Y-43058757D01*
X135803693Y-42820931D01*
X135710898Y-42596903D01*
X135576180Y-42395283D01*
X135404717Y-42223820D01*
X135203097Y-42089102D01*
X134979069Y-41996307D01*
X134741243Y-41949000D01*
X134498757Y-41949000D01*
X134260931Y-41996307D01*
X134036903Y-42089102D01*
X133835283Y-42223820D01*
X133663820Y-42395283D01*
X133529102Y-42596903D01*
X133436307Y-42820931D01*
X133389000Y-43058757D01*
X131257999Y-43058757D01*
X131257999Y-40518757D01*
X133389000Y-40518757D01*
X133389000Y-40761243D01*
X133436307Y-40999069D01*
X133529102Y-41223097D01*
X133663820Y-41424717D01*
X133835283Y-41596180D01*
X134036903Y-41730898D01*
X134260931Y-41823693D01*
X134498757Y-41871000D01*
X134741243Y-41871000D01*
X134979069Y-41823693D01*
X135203097Y-41730898D01*
X135404717Y-41596180D01*
X135576180Y-41424717D01*
X135710898Y-41223097D01*
X135803693Y-40999069D01*
X135851000Y-40761243D01*
X135851000Y-40518757D01*
X135803693Y-40280931D01*
X135710898Y-40056903D01*
X135576180Y-39855283D01*
X135404717Y-39683820D01*
X135203097Y-39549102D01*
X134979069Y-39456307D01*
X134741243Y-39409000D01*
X134498757Y-39409000D01*
X134260931Y-39456307D01*
X134036903Y-39549102D01*
X133835283Y-39683820D01*
X133663820Y-39855283D01*
X133529102Y-40056903D01*
X133436307Y-40280931D01*
X133389000Y-40518757D01*
X131257999Y-40518757D01*
X131257999Y-37978757D01*
X133389000Y-37978757D01*
X133389000Y-38221243D01*
X133436307Y-38459069D01*
X133529102Y-38683097D01*
X133663820Y-38884717D01*
X133835283Y-39056180D01*
X134036903Y-39190898D01*
X134260931Y-39283693D01*
X134498757Y-39331000D01*
X134741243Y-39331000D01*
X134979069Y-39283693D01*
X135203097Y-39190898D01*
X135404717Y-39056180D01*
X135576180Y-38884717D01*
X135710898Y-38683097D01*
X135803693Y-38459069D01*
X135851000Y-38221243D01*
X135851000Y-37978757D01*
X135803693Y-37740931D01*
X135710898Y-37516903D01*
X135576180Y-37315283D01*
X135404717Y-37143820D01*
X135203097Y-37009102D01*
X134979069Y-36916307D01*
X134741243Y-36869000D01*
X134498757Y-36869000D01*
X134260931Y-36916307D01*
X134036903Y-37009102D01*
X133835283Y-37143820D01*
X133663820Y-37315283D01*
X133529102Y-37516903D01*
X133436307Y-37740931D01*
X133389000Y-37978757D01*
X131257999Y-37978757D01*
X131257999Y-37892304D01*
X131260688Y-37864999D01*
X131257999Y-37837694D01*
X131257999Y-37837687D01*
X131249954Y-37756004D01*
X131245382Y-37740931D01*
X131218161Y-37651197D01*
X131166533Y-37554607D01*
X131114463Y-37491160D01*
X131114459Y-37491156D01*
X131097052Y-37469946D01*
X131075842Y-37452539D01*
X130575000Y-36951698D01*
X130575000Y-36880078D01*
X130544987Y-36729191D01*
X130486113Y-36587058D01*
X130400642Y-36459141D01*
X130291859Y-36350358D01*
X130163942Y-36264887D01*
X130021809Y-36206013D01*
X129870922Y-36176000D01*
X129717078Y-36176000D01*
X129566191Y-36206013D01*
X129424058Y-36264887D01*
X129296141Y-36350358D01*
X129187358Y-36459141D01*
X129101887Y-36587058D01*
X129043013Y-36729191D01*
X129013000Y-36880078D01*
X129013000Y-37033922D01*
X129043013Y-37184809D01*
X129101887Y-37326942D01*
X129187358Y-37454859D01*
X129296141Y-37563642D01*
X129424058Y-37649113D01*
X129566191Y-37707987D01*
X129717078Y-37738000D01*
X129788698Y-37738000D01*
X130146000Y-38095303D01*
X130146000Y-38998493D01*
X130037859Y-38890352D01*
X129909942Y-38804881D01*
X129767809Y-38746007D01*
X129616922Y-38715994D01*
X129463078Y-38715994D01*
X129312191Y-38746007D01*
X129170058Y-38804881D01*
X129042141Y-38890352D01*
X128933358Y-38999135D01*
X128847887Y-39127052D01*
X128789013Y-39269185D01*
X128759000Y-39420072D01*
X128759000Y-39573916D01*
X128789013Y-39724803D01*
X128847887Y-39866936D01*
X128933358Y-39994853D01*
X129042141Y-40103636D01*
X129170058Y-40189107D01*
X129312191Y-40247981D01*
X129463078Y-40277994D01*
X129475442Y-40277994D01*
X129475442Y-41195726D01*
X129386809Y-41159013D01*
X129235922Y-41129000D01*
X129082078Y-41129000D01*
X128931191Y-41159013D01*
X128789058Y-41217887D01*
X128661141Y-41303358D01*
X128552358Y-41412141D01*
X128466887Y-41540058D01*
X128408013Y-41682191D01*
X128378000Y-41833078D01*
X128378000Y-41986922D01*
X128408013Y-42137809D01*
X128466887Y-42279942D01*
X128552358Y-42407859D01*
X128651888Y-42507389D01*
X128651888Y-43710230D01*
X128624809Y-43699013D01*
X128473922Y-43669000D01*
X128320078Y-43669000D01*
X128169191Y-43699013D01*
X128027058Y-43757887D01*
X127899141Y-43843358D01*
X127790358Y-43952141D01*
X127704887Y-44080058D01*
X127646013Y-44222191D01*
X127616000Y-44373078D01*
X127616000Y-44526922D01*
X127646013Y-44677809D01*
X127704887Y-44819942D01*
X127790358Y-44947859D01*
X127828334Y-44985835D01*
X127828334Y-46255475D01*
X127788589Y-46239012D01*
X127637702Y-46208999D01*
X127483858Y-46208999D01*
X127332971Y-46239012D01*
X127190838Y-46297886D01*
X127062921Y-46383357D01*
X126954138Y-46492140D01*
X126868667Y-46620057D01*
X126809793Y-46762190D01*
X126779780Y-46913077D01*
X126779780Y-47066921D01*
X126809793Y-47217808D01*
X126868667Y-47359941D01*
X126954138Y-47487858D01*
X127004780Y-47538500D01*
X127004780Y-48804256D01*
X126965031Y-48787791D01*
X126814144Y-48757778D01*
X126660300Y-48757778D01*
X126509413Y-48787791D01*
X126367280Y-48846665D01*
X126239363Y-48932136D01*
X126130580Y-49040919D01*
X126045109Y-49168836D01*
X125986235Y-49310969D01*
X125956222Y-49461856D01*
X125956222Y-49615700D01*
X125986235Y-49766587D01*
X126045109Y-49908720D01*
X126130580Y-50036637D01*
X126181226Y-50087283D01*
X126181226Y-51335474D01*
X126141486Y-51319013D01*
X125990599Y-51289000D01*
X125836755Y-51289000D01*
X125685868Y-51319013D01*
X125543735Y-51377887D01*
X125415818Y-51463358D01*
X125307035Y-51572141D01*
X125221564Y-51700058D01*
X125162690Y-51842191D01*
X125132677Y-51993078D01*
X125132677Y-52146922D01*
X125162690Y-52297809D01*
X125221564Y-52439942D01*
X125307035Y-52567859D01*
X125357672Y-52618496D01*
X125357672Y-53875476D01*
X125317928Y-53859013D01*
X125167041Y-53829000D01*
X125013197Y-53829000D01*
X124862310Y-53859013D01*
X124720177Y-53917887D01*
X124592260Y-54003358D01*
X124483477Y-54112141D01*
X124398006Y-54240058D01*
X124339132Y-54382191D01*
X124309119Y-54533078D01*
X124309119Y-54686922D01*
X124339132Y-54837809D01*
X124398006Y-54979942D01*
X124483477Y-55107859D01*
X124534118Y-55158500D01*
X124534118Y-56640475D01*
X124494374Y-56624012D01*
X124343487Y-56593999D01*
X124189643Y-56593999D01*
X124038756Y-56624012D01*
X123896623Y-56682886D01*
X123768706Y-56768357D01*
X123659923Y-56877140D01*
X123574452Y-57005057D01*
X123515578Y-57147190D01*
X123485565Y-57298077D01*
X123485565Y-57451921D01*
X123515578Y-57602808D01*
X123574452Y-57744941D01*
X123659923Y-57872858D01*
X123710564Y-57923499D01*
X123710564Y-59688477D01*
X123670820Y-59672014D01*
X123519933Y-59642001D01*
X123366089Y-59642001D01*
X123215202Y-59672014D01*
X123073069Y-59730888D01*
X122945152Y-59816359D01*
X122836369Y-59925142D01*
X122750898Y-60053059D01*
X122692024Y-60195192D01*
X122662011Y-60346079D01*
X122662011Y-60499923D01*
X122692024Y-60650810D01*
X122750898Y-60792943D01*
X122836369Y-60920860D01*
X122887010Y-60971501D01*
X122887010Y-62609489D01*
X122847264Y-62593026D01*
X122696377Y-62563013D01*
X122542533Y-62563013D01*
X122391646Y-62593026D01*
X122249513Y-62651900D01*
X122121596Y-62737371D01*
X122012813Y-62846154D01*
X121927342Y-62974071D01*
X121868468Y-63116204D01*
X121838455Y-63267091D01*
X121838455Y-63420935D01*
X121868468Y-63571822D01*
X121927342Y-63713955D01*
X122012813Y-63841872D01*
X122063456Y-63892515D01*
X122063456Y-64779441D01*
X121949311Y-64703172D01*
X121807178Y-64644298D01*
X121656291Y-64614285D01*
X121502447Y-64614285D01*
X121351560Y-64644298D01*
X121209427Y-64703172D01*
X121081510Y-64788643D01*
X120972727Y-64897426D01*
X120887256Y-65025343D01*
X120828382Y-65167476D01*
X120798369Y-65318363D01*
X120798369Y-65472207D01*
X120828382Y-65623094D01*
X120887256Y-65765227D01*
X120972727Y-65893144D01*
X121081510Y-66001927D01*
X121209427Y-66087398D01*
X121237001Y-66098820D01*
X121237001Y-67487889D01*
X121215113Y-67435048D01*
X121129642Y-67307131D01*
X121020859Y-67198348D01*
X120892942Y-67112877D01*
X120750809Y-67054003D01*
X120599922Y-67023990D01*
X120446078Y-67023990D01*
X120295191Y-67054003D01*
X120153058Y-67112877D01*
X120025141Y-67198348D01*
X119974499Y-67248990D01*
X110022315Y-67248990D01*
X109995010Y-67246301D01*
X109967705Y-67248990D01*
X109967698Y-67248990D01*
X109886015Y-67257035D01*
X109781208Y-67288828D01*
X109684618Y-67340456D01*
X109621171Y-67392526D01*
X109621167Y-67392530D01*
X109603988Y-67406629D01*
X109579069Y-67396307D01*
X109341243Y-67349000D01*
X109098757Y-67349000D01*
X108860931Y-67396307D01*
X108636903Y-67489102D01*
X108435283Y-67623820D01*
X108263820Y-67795283D01*
X108129102Y-67996903D01*
X108036307Y-68220931D01*
X107989000Y-68458757D01*
X107989000Y-68701243D01*
X108036307Y-68939069D01*
X108129102Y-69163097D01*
X108186501Y-69249001D01*
X108135303Y-69249001D01*
X107852469Y-68966167D01*
X107863693Y-68939069D01*
X107911000Y-68701243D01*
X107911000Y-68458757D01*
X107863693Y-68220931D01*
X107770898Y-67996903D01*
X107636180Y-67795283D01*
X107464717Y-67623820D01*
X107263097Y-67489102D01*
X107039069Y-67396307D01*
X106801243Y-67349000D01*
X106558757Y-67349000D01*
X106320931Y-67396307D01*
X106096903Y-67489102D01*
X105895283Y-67623820D01*
X105723820Y-67795283D01*
X105589102Y-67996903D01*
X105496307Y-68220931D01*
X105449000Y-68458757D01*
X102006000Y-68458757D01*
X102006000Y-65918757D01*
X107989000Y-65918757D01*
X107989000Y-66161243D01*
X108036307Y-66399069D01*
X108129102Y-66623097D01*
X108263820Y-66824717D01*
X108435283Y-66996180D01*
X108636903Y-67130898D01*
X108860931Y-67223693D01*
X109098757Y-67271000D01*
X109341243Y-67271000D01*
X109579069Y-67223693D01*
X109803097Y-67130898D01*
X110004717Y-66996180D01*
X110176180Y-66824717D01*
X110310898Y-66623097D01*
X110322122Y-66596000D01*
X119593507Y-66596000D01*
X119644145Y-66646638D01*
X119772062Y-66732109D01*
X119914195Y-66790983D01*
X120065082Y-66820996D01*
X120218926Y-66820996D01*
X120369813Y-66790983D01*
X120511946Y-66732109D01*
X120639863Y-66646638D01*
X120748646Y-66537855D01*
X120834117Y-66409938D01*
X120892991Y-66267805D01*
X120923004Y-66116918D01*
X120923004Y-65963074D01*
X120892991Y-65812187D01*
X120834117Y-65670054D01*
X120748646Y-65542137D01*
X120639863Y-65433354D01*
X120511946Y-65347883D01*
X120369813Y-65289009D01*
X120218926Y-65258996D01*
X120065082Y-65258996D01*
X119914195Y-65289009D01*
X119772062Y-65347883D01*
X119644145Y-65433354D01*
X119593499Y-65484000D01*
X110322122Y-65484000D01*
X110310898Y-65456903D01*
X110176180Y-65255283D01*
X110004717Y-65083820D01*
X109803097Y-64949102D01*
X109579069Y-64856307D01*
X109341243Y-64809000D01*
X109098757Y-64809000D01*
X108860931Y-64856307D01*
X108636903Y-64949102D01*
X108435283Y-65083820D01*
X108263820Y-65255283D01*
X108129102Y-65456903D01*
X108036307Y-65680931D01*
X107989000Y-65918757D01*
X102006000Y-65918757D01*
X102006000Y-63378757D01*
X107989000Y-63378757D01*
X107989000Y-63621243D01*
X108036307Y-63859069D01*
X108129102Y-64083097D01*
X108263820Y-64284717D01*
X108435283Y-64456180D01*
X108636903Y-64590898D01*
X108860931Y-64683693D01*
X109098757Y-64731000D01*
X109341243Y-64731000D01*
X109579069Y-64683693D01*
X109803097Y-64590898D01*
X110004717Y-64456180D01*
X110176180Y-64284717D01*
X110310898Y-64083097D01*
X110322122Y-64056000D01*
X118831497Y-64056000D01*
X118882139Y-64106642D01*
X119010056Y-64192113D01*
X119152189Y-64250987D01*
X119303076Y-64281000D01*
X119456920Y-64281000D01*
X119607807Y-64250987D01*
X119749940Y-64192113D01*
X119877857Y-64106642D01*
X119986640Y-63997859D01*
X120072111Y-63869942D01*
X120130985Y-63727809D01*
X120160998Y-63576922D01*
X120160998Y-63423078D01*
X120130985Y-63272191D01*
X120072111Y-63130058D01*
X119986640Y-63002141D01*
X119877857Y-62893358D01*
X119749940Y-62807887D01*
X119607807Y-62749013D01*
X119456920Y-62719000D01*
X119303076Y-62719000D01*
X119152189Y-62749013D01*
X119010056Y-62807887D01*
X118882139Y-62893358D01*
X118831497Y-62944000D01*
X110322122Y-62944000D01*
X110310898Y-62916903D01*
X110176180Y-62715283D01*
X110004717Y-62543820D01*
X109803097Y-62409102D01*
X109579069Y-62316307D01*
X109341243Y-62269000D01*
X109098757Y-62269000D01*
X108860931Y-62316307D01*
X108636903Y-62409102D01*
X108435283Y-62543820D01*
X108263820Y-62715283D01*
X108129102Y-62916903D01*
X108036307Y-63140931D01*
X107989000Y-63378757D01*
X102006000Y-63378757D01*
X102006000Y-60838757D01*
X107989000Y-60838757D01*
X107989000Y-61081243D01*
X108036307Y-61319069D01*
X108129102Y-61543097D01*
X108263820Y-61744717D01*
X108435283Y-61916180D01*
X108636903Y-62050898D01*
X108860931Y-62143693D01*
X109098757Y-62191000D01*
X109341243Y-62191000D01*
X109579069Y-62143693D01*
X109803097Y-62050898D01*
X110004717Y-61916180D01*
X110176180Y-61744717D01*
X110310898Y-61543097D01*
X110322122Y-61516000D01*
X117815507Y-61516000D01*
X117866149Y-61566642D01*
X117994066Y-61652113D01*
X118136199Y-61710987D01*
X118287086Y-61741000D01*
X118440930Y-61741000D01*
X118591817Y-61710987D01*
X118733950Y-61652113D01*
X118861867Y-61566642D01*
X118970650Y-61457859D01*
X119056121Y-61329942D01*
X119114995Y-61187809D01*
X119145008Y-61036922D01*
X119145008Y-60883078D01*
X119114995Y-60732191D01*
X119056121Y-60590058D01*
X118970650Y-60462141D01*
X118861867Y-60353358D01*
X118733950Y-60267887D01*
X118591817Y-60209013D01*
X118440930Y-60179000D01*
X118287086Y-60179000D01*
X118136199Y-60209013D01*
X117994066Y-60267887D01*
X117866149Y-60353358D01*
X117815507Y-60404000D01*
X110322122Y-60404000D01*
X110310898Y-60376903D01*
X110176180Y-60175283D01*
X110004717Y-60003820D01*
X109803097Y-59869102D01*
X109579069Y-59776307D01*
X109341243Y-59729000D01*
X109098757Y-59729000D01*
X108860931Y-59776307D01*
X108636903Y-59869102D01*
X108435283Y-60003820D01*
X108263820Y-60175283D01*
X108129102Y-60376903D01*
X108036307Y-60600931D01*
X107989000Y-60838757D01*
X102006000Y-60838757D01*
X102006000Y-58298757D01*
X107989000Y-58298757D01*
X107989000Y-58541243D01*
X108036307Y-58779069D01*
X108129102Y-59003097D01*
X108263820Y-59204717D01*
X108435283Y-59376180D01*
X108636903Y-59510898D01*
X108860931Y-59603693D01*
X109098757Y-59651000D01*
X109341243Y-59651000D01*
X109579069Y-59603693D01*
X109803097Y-59510898D01*
X110004717Y-59376180D01*
X110176180Y-59204717D01*
X110310898Y-59003097D01*
X110322122Y-58976000D01*
X117180499Y-58976000D01*
X117231141Y-59026642D01*
X117359058Y-59112113D01*
X117501191Y-59170987D01*
X117652078Y-59201000D01*
X117805922Y-59201000D01*
X117956809Y-59170987D01*
X118098942Y-59112113D01*
X118226859Y-59026642D01*
X118335642Y-58917859D01*
X118421113Y-58789942D01*
X118479987Y-58647809D01*
X118510000Y-58496922D01*
X118510000Y-58343078D01*
X118479987Y-58192191D01*
X118421113Y-58050058D01*
X118335642Y-57922141D01*
X118226859Y-57813358D01*
X118098942Y-57727887D01*
X117956809Y-57669013D01*
X117805922Y-57639000D01*
X117652078Y-57639000D01*
X117501191Y-57669013D01*
X117359058Y-57727887D01*
X117231141Y-57813358D01*
X117180499Y-57864000D01*
X110322122Y-57864000D01*
X110310898Y-57836903D01*
X110176180Y-57635283D01*
X110004717Y-57463820D01*
X109803097Y-57329102D01*
X109579069Y-57236307D01*
X109341243Y-57189000D01*
X109098757Y-57189000D01*
X108860931Y-57236307D01*
X108636903Y-57329102D01*
X108435283Y-57463820D01*
X108263820Y-57635283D01*
X108129102Y-57836903D01*
X108036307Y-58060931D01*
X107989000Y-58298757D01*
X102006000Y-58298757D01*
X102006000Y-55758757D01*
X107989000Y-55758757D01*
X107989000Y-56001243D01*
X108036307Y-56239069D01*
X108129102Y-56463097D01*
X108263820Y-56664717D01*
X108435283Y-56836180D01*
X108636903Y-56970898D01*
X108860931Y-57063693D01*
X109098757Y-57111000D01*
X109341243Y-57111000D01*
X109579069Y-57063693D01*
X109803097Y-56970898D01*
X110004717Y-56836180D01*
X110176180Y-56664717D01*
X110310898Y-56463097D01*
X110322122Y-56436001D01*
X116545496Y-56436001D01*
X116596138Y-56486643D01*
X116724055Y-56572114D01*
X116866188Y-56630988D01*
X117017075Y-56661001D01*
X117170919Y-56661001D01*
X117321806Y-56630988D01*
X117463939Y-56572114D01*
X117591856Y-56486643D01*
X117700639Y-56377860D01*
X117786110Y-56249943D01*
X117844984Y-56107810D01*
X117874997Y-55956923D01*
X117874997Y-55803079D01*
X117844984Y-55652192D01*
X117786110Y-55510059D01*
X117700639Y-55382142D01*
X117591856Y-55273359D01*
X117463939Y-55187888D01*
X117321806Y-55129014D01*
X117170919Y-55099001D01*
X117017075Y-55099001D01*
X116866188Y-55129014D01*
X116724055Y-55187888D01*
X116596138Y-55273359D01*
X116545496Y-55324001D01*
X110394770Y-55324001D01*
X110394761Y-55324002D01*
X110322123Y-55324002D01*
X110310898Y-55296903D01*
X110176180Y-55095283D01*
X110004717Y-54923820D01*
X109803097Y-54789102D01*
X109579069Y-54696307D01*
X109341243Y-54649000D01*
X109098757Y-54649000D01*
X108860931Y-54696307D01*
X108636903Y-54789102D01*
X108435283Y-54923820D01*
X108263820Y-55095283D01*
X108129102Y-55296903D01*
X108036307Y-55520931D01*
X107989000Y-55758757D01*
X102006000Y-55758757D01*
X102006000Y-53218757D01*
X107989000Y-53218757D01*
X107989000Y-53461243D01*
X108036307Y-53699069D01*
X108129102Y-53923097D01*
X108263820Y-54124717D01*
X108435283Y-54296180D01*
X108636903Y-54430898D01*
X108860931Y-54523693D01*
X109098757Y-54571000D01*
X109341243Y-54571000D01*
X109579069Y-54523693D01*
X109803097Y-54430898D01*
X110004717Y-54296180D01*
X110176180Y-54124717D01*
X110310898Y-53923097D01*
X110322122Y-53896000D01*
X115910503Y-53896000D01*
X115961145Y-53946642D01*
X116089062Y-54032113D01*
X116231195Y-54090987D01*
X116382082Y-54121000D01*
X116535926Y-54121000D01*
X116686813Y-54090987D01*
X116828946Y-54032113D01*
X116956863Y-53946642D01*
X117065646Y-53837859D01*
X117151117Y-53709942D01*
X117209991Y-53567809D01*
X117240004Y-53416922D01*
X117240004Y-53263078D01*
X117209991Y-53112191D01*
X117151117Y-52970058D01*
X117065646Y-52842141D01*
X116956863Y-52733358D01*
X116828946Y-52647887D01*
X116686813Y-52589013D01*
X116535926Y-52559000D01*
X116382082Y-52559000D01*
X116231195Y-52589013D01*
X116089062Y-52647887D01*
X115961145Y-52733358D01*
X115910503Y-52784000D01*
X110322122Y-52784000D01*
X110310898Y-52756903D01*
X110176180Y-52555283D01*
X110004717Y-52383820D01*
X109803097Y-52249102D01*
X109579069Y-52156307D01*
X109341243Y-52109000D01*
X109098757Y-52109000D01*
X108860931Y-52156307D01*
X108636903Y-52249102D01*
X108435283Y-52383820D01*
X108263820Y-52555283D01*
X108129102Y-52756903D01*
X108036307Y-52980931D01*
X107989000Y-53218757D01*
X102006000Y-53218757D01*
X102006000Y-50678757D01*
X107989000Y-50678757D01*
X107989000Y-50921243D01*
X108036307Y-51159069D01*
X108129102Y-51383097D01*
X108263820Y-51584717D01*
X108435283Y-51756180D01*
X108636903Y-51890898D01*
X108860931Y-51983693D01*
X109098757Y-52031000D01*
X109341243Y-52031000D01*
X109579069Y-51983693D01*
X109803097Y-51890898D01*
X110004717Y-51756180D01*
X110176180Y-51584717D01*
X110310898Y-51383097D01*
X110322122Y-51356000D01*
X115021499Y-51356000D01*
X115072141Y-51406642D01*
X115200058Y-51492113D01*
X115342191Y-51550987D01*
X115493078Y-51581000D01*
X115646922Y-51581000D01*
X115797809Y-51550987D01*
X115939942Y-51492113D01*
X116067859Y-51406642D01*
X116176642Y-51297859D01*
X116262113Y-51169942D01*
X116320987Y-51027809D01*
X116351000Y-50876922D01*
X116351000Y-50723078D01*
X116320987Y-50572191D01*
X116262113Y-50430058D01*
X116176642Y-50302141D01*
X116067859Y-50193358D01*
X115939942Y-50107887D01*
X115797809Y-50049013D01*
X115646922Y-50019000D01*
X115493078Y-50019000D01*
X115342191Y-50049013D01*
X115200058Y-50107887D01*
X115072141Y-50193358D01*
X115021499Y-50244000D01*
X110322122Y-50244000D01*
X110310898Y-50216903D01*
X110176180Y-50015283D01*
X110004717Y-49843820D01*
X109803097Y-49709102D01*
X109579069Y-49616307D01*
X109341243Y-49569000D01*
X109098757Y-49569000D01*
X108860931Y-49616307D01*
X108636903Y-49709102D01*
X108435283Y-49843820D01*
X108263820Y-50015283D01*
X108129102Y-50216903D01*
X108036307Y-50440931D01*
X107989000Y-50678757D01*
X102006000Y-50678757D01*
X102006000Y-48138757D01*
X107989000Y-48138757D01*
X107989000Y-48381243D01*
X108036307Y-48619069D01*
X108129102Y-48843097D01*
X108263820Y-49044717D01*
X108435283Y-49216180D01*
X108636903Y-49350898D01*
X108860931Y-49443693D01*
X109098757Y-49491000D01*
X109341243Y-49491000D01*
X109579069Y-49443693D01*
X109803097Y-49350898D01*
X110004717Y-49216180D01*
X110176180Y-49044717D01*
X110310898Y-48843097D01*
X110322122Y-48816000D01*
X114386503Y-48816000D01*
X114437143Y-48866640D01*
X114565060Y-48952111D01*
X114707193Y-49010985D01*
X114858080Y-49040998D01*
X115011924Y-49040998D01*
X115162811Y-49010985D01*
X115304944Y-48952111D01*
X115432861Y-48866640D01*
X115541644Y-48757857D01*
X115627115Y-48629940D01*
X115685989Y-48487807D01*
X115716002Y-48336920D01*
X115716002Y-48183076D01*
X115685989Y-48032189D01*
X115627115Y-47890056D01*
X115541644Y-47762139D01*
X115432861Y-47653356D01*
X115304944Y-47567885D01*
X115162811Y-47509011D01*
X115011924Y-47478998D01*
X114858080Y-47478998D01*
X114707193Y-47509011D01*
X114565060Y-47567885D01*
X114437143Y-47653356D01*
X114386499Y-47704000D01*
X110322122Y-47704000D01*
X110310898Y-47676903D01*
X110176180Y-47475283D01*
X110004717Y-47303820D01*
X109803097Y-47169102D01*
X109579069Y-47076307D01*
X109341243Y-47029000D01*
X109098757Y-47029000D01*
X108860931Y-47076307D01*
X108636903Y-47169102D01*
X108435283Y-47303820D01*
X108263820Y-47475283D01*
X108129102Y-47676903D01*
X108036307Y-47900931D01*
X107989000Y-48138757D01*
X102006000Y-48138757D01*
X102006000Y-45598757D01*
X107989000Y-45598757D01*
X107989000Y-45841243D01*
X108036307Y-46079069D01*
X108129102Y-46303097D01*
X108263820Y-46504717D01*
X108435283Y-46676180D01*
X108636903Y-46810898D01*
X108860931Y-46903693D01*
X109098757Y-46951000D01*
X109341243Y-46951000D01*
X109579069Y-46903693D01*
X109803097Y-46810898D01*
X110004717Y-46676180D01*
X110176180Y-46504717D01*
X110310898Y-46303097D01*
X110322122Y-46276000D01*
X113624503Y-46276000D01*
X113675145Y-46326642D01*
X113803062Y-46412113D01*
X113945195Y-46470987D01*
X114096082Y-46501000D01*
X114249926Y-46501000D01*
X114400813Y-46470987D01*
X114542946Y-46412113D01*
X114670863Y-46326642D01*
X114779646Y-46217859D01*
X114865117Y-46089942D01*
X114923991Y-45947809D01*
X114954004Y-45796922D01*
X114954004Y-45643078D01*
X114923991Y-45492191D01*
X114865117Y-45350058D01*
X114779646Y-45222141D01*
X114670863Y-45113358D01*
X114542946Y-45027887D01*
X114400813Y-44969013D01*
X114249926Y-44939000D01*
X114096082Y-44939000D01*
X113945195Y-44969013D01*
X113803062Y-45027887D01*
X113675145Y-45113358D01*
X113624503Y-45164000D01*
X110322122Y-45164000D01*
X110310898Y-45136903D01*
X110176180Y-44935283D01*
X110004717Y-44763820D01*
X109803097Y-44629102D01*
X109579069Y-44536307D01*
X109341243Y-44489000D01*
X109098757Y-44489000D01*
X108860931Y-44536307D01*
X108636903Y-44629102D01*
X108435283Y-44763820D01*
X108263820Y-44935283D01*
X108129102Y-45136903D01*
X108036307Y-45360931D01*
X107989000Y-45598757D01*
X102006000Y-45598757D01*
X102006000Y-43058757D01*
X107989000Y-43058757D01*
X107989000Y-43301243D01*
X108036307Y-43539069D01*
X108129102Y-43763097D01*
X108263820Y-43964717D01*
X108435283Y-44136180D01*
X108636903Y-44270898D01*
X108860931Y-44363693D01*
X109098757Y-44411000D01*
X109341243Y-44411000D01*
X109579069Y-44363693D01*
X109803097Y-44270898D01*
X110004717Y-44136180D01*
X110176180Y-43964717D01*
X110310898Y-43763097D01*
X110322122Y-43736000D01*
X112989495Y-43736000D01*
X113040137Y-43786642D01*
X113168054Y-43872113D01*
X113310187Y-43930987D01*
X113461074Y-43961000D01*
X113614918Y-43961000D01*
X113765805Y-43930987D01*
X113907938Y-43872113D01*
X114035855Y-43786642D01*
X114144638Y-43677859D01*
X114230109Y-43549942D01*
X114288983Y-43407809D01*
X114318996Y-43256922D01*
X114318996Y-43103078D01*
X114288983Y-42952191D01*
X114230109Y-42810058D01*
X114144638Y-42682141D01*
X114035855Y-42573358D01*
X113907938Y-42487887D01*
X113765805Y-42429013D01*
X113614918Y-42399000D01*
X113461074Y-42399000D01*
X113310187Y-42429013D01*
X113168054Y-42487887D01*
X113040137Y-42573358D01*
X112989495Y-42624000D01*
X110322122Y-42624000D01*
X110310898Y-42596903D01*
X110176180Y-42395283D01*
X110004717Y-42223820D01*
X109803097Y-42089102D01*
X109579069Y-41996307D01*
X109341243Y-41949000D01*
X109098757Y-41949000D01*
X108860931Y-41996307D01*
X108636903Y-42089102D01*
X108435283Y-42223820D01*
X108263820Y-42395283D01*
X108129102Y-42596903D01*
X108036307Y-42820931D01*
X107989000Y-43058757D01*
X102006000Y-43058757D01*
X102006000Y-40518757D01*
X107989000Y-40518757D01*
X107989000Y-40761243D01*
X108036307Y-40999069D01*
X108129102Y-41223097D01*
X108263820Y-41424717D01*
X108435283Y-41596180D01*
X108636903Y-41730898D01*
X108860931Y-41823693D01*
X109098757Y-41871000D01*
X109341243Y-41871000D01*
X109579069Y-41823693D01*
X109803097Y-41730898D01*
X110004717Y-41596180D01*
X110176180Y-41424717D01*
X110310898Y-41223097D01*
X110322122Y-41196000D01*
X112100499Y-41196000D01*
X112151141Y-41246642D01*
X112279058Y-41332113D01*
X112421191Y-41390987D01*
X112572078Y-41421000D01*
X112725922Y-41421000D01*
X112876809Y-41390987D01*
X113018942Y-41332113D01*
X113146859Y-41246642D01*
X113255642Y-41137859D01*
X113341113Y-41009942D01*
X113399987Y-40867809D01*
X113430000Y-40716922D01*
X113430000Y-40563078D01*
X113399987Y-40412191D01*
X113341113Y-40270058D01*
X113255642Y-40142141D01*
X113146859Y-40033358D01*
X113018942Y-39947887D01*
X112876809Y-39889013D01*
X112725922Y-39859000D01*
X112572078Y-39859000D01*
X112421191Y-39889013D01*
X112279058Y-39947887D01*
X112151141Y-40033358D01*
X112100499Y-40084000D01*
X110322122Y-40084000D01*
X110310898Y-40056903D01*
X110176180Y-39855283D01*
X110004717Y-39683820D01*
X109803097Y-39549102D01*
X109579069Y-39456307D01*
X109341243Y-39409000D01*
X109098757Y-39409000D01*
X108860931Y-39456307D01*
X108636903Y-39549102D01*
X108435283Y-39683820D01*
X108263820Y-39855283D01*
X108129102Y-40056903D01*
X108036307Y-40280931D01*
X107989000Y-40518757D01*
X102006000Y-40518757D01*
X102006000Y-37978757D01*
X107989000Y-37978757D01*
X107989000Y-38221243D01*
X108036307Y-38459069D01*
X108129102Y-38683097D01*
X108263820Y-38884717D01*
X108435283Y-39056180D01*
X108636903Y-39190898D01*
X108860931Y-39283693D01*
X109098757Y-39331000D01*
X109341243Y-39331000D01*
X109579069Y-39283693D01*
X109803097Y-39190898D01*
X110004717Y-39056180D01*
X110176180Y-38884717D01*
X110310898Y-38683097D01*
X110322122Y-38656000D01*
X111084497Y-38656000D01*
X111135139Y-38706642D01*
X111263056Y-38792113D01*
X111405189Y-38850987D01*
X111556076Y-38881000D01*
X111709920Y-38881000D01*
X111860807Y-38850987D01*
X112002940Y-38792113D01*
X112130857Y-38706642D01*
X112239640Y-38597859D01*
X112325111Y-38469942D01*
X112383985Y-38327809D01*
X112413998Y-38176922D01*
X112413998Y-38023078D01*
X112383985Y-37872191D01*
X112325111Y-37730058D01*
X112239640Y-37602141D01*
X112130857Y-37493358D01*
X112002940Y-37407887D01*
X111860807Y-37349013D01*
X111709920Y-37319000D01*
X111556076Y-37319000D01*
X111405189Y-37349013D01*
X111263056Y-37407887D01*
X111135139Y-37493358D01*
X111084497Y-37544000D01*
X110322122Y-37544000D01*
X110310898Y-37516903D01*
X110176180Y-37315283D01*
X110004717Y-37143820D01*
X109803097Y-37009102D01*
X109579069Y-36916307D01*
X109341243Y-36869000D01*
X109098757Y-36869000D01*
X108860931Y-36916307D01*
X108636903Y-37009102D01*
X108435283Y-37143820D01*
X108263820Y-37315283D01*
X108129102Y-37516903D01*
X108036307Y-37740931D01*
X107989000Y-37978757D01*
X102006000Y-37978757D01*
X102006000Y-36139854D01*
X102048551Y-35705885D01*
X102168819Y-35307538D01*
X102364170Y-34940136D01*
X102627157Y-34617683D01*
X102947773Y-34352447D01*
X103313795Y-34154540D01*
X103711291Y-34031494D01*
X104144137Y-33986000D01*
X137394146Y-33986000D01*
X137828115Y-34028551D01*
G37*
%TD.AperFunction*%
%TD*%
M02*
