%TF.GenerationSoftware,KiCad,Pcbnew,5.1.12-84ad8e8a86~92~ubuntu20.04.1*%
%TF.CreationDate,2022-04-13T08:29:14-05:00*%
%TF.ProjectId,Twister,54776973-7465-4722-9e6b-696361645f70,rev?*%
%TF.SameCoordinates,Original*%
%TF.FileFunction,Legend,Bot*%
%TF.FilePolarity,Positive*%
%FSLAX46Y46*%
G04 Gerber Fmt 4.6, Leading zero omitted, Abs format (unit mm)*
G04 Created by KiCad (PCBNEW 5.1.12-84ad8e8a86~92~ubuntu20.04.1) date 2022-04-13 08:29:14*
%MOMM*%
%LPD*%
G01*
G04 APERTURE LIST*
%ADD10C,0.150000*%
%ADD11C,0.120000*%
G04 APERTURE END LIST*
D10*
%TO.C,kibuzzard-622EC2D7*%
G36*
X127774039Y-37773769D02*
G01*
X128405731Y-37945219D01*
X128348581Y-38029356D01*
X128286669Y-38097619D01*
X128286669Y-38230969D01*
X129107406Y-38230969D01*
X129107406Y-38426231D01*
X129269331Y-38426231D01*
X129269331Y-37829331D01*
X129107406Y-37829331D01*
X129107406Y-38035706D01*
X128558131Y-38035706D01*
X128614487Y-37934106D01*
X128653381Y-37837269D01*
X128491456Y-37773769D01*
X128454944Y-37856319D01*
X128405731Y-37945219D01*
X127774039Y-37773769D01*
X127774039Y-37575331D01*
X127778873Y-37476926D01*
X127793329Y-37379468D01*
X127817269Y-37283897D01*
X127850461Y-37191132D01*
X127892585Y-37102067D01*
X127943237Y-37017560D01*
X128001927Y-36938425D01*
X128068092Y-36865423D01*
X128141094Y-36799259D01*
X128220229Y-36740568D01*
X128304736Y-36689916D01*
X128393801Y-36647792D01*
X128486565Y-36614600D01*
X128582137Y-36590661D01*
X128679595Y-36576204D01*
X128778000Y-36571370D01*
X128876405Y-36576204D01*
X128973863Y-36590661D01*
X129069435Y-36614600D01*
X129162199Y-36647792D01*
X129251264Y-36689916D01*
X129335771Y-36740568D01*
X129414906Y-36799259D01*
X129487908Y-36865423D01*
X129554073Y-36938425D01*
X129612763Y-37017560D01*
X129663415Y-37102067D01*
X129705539Y-37191132D01*
X129738731Y-37283897D01*
X129762671Y-37379468D01*
X129777127Y-37476926D01*
X129781961Y-37575331D01*
X129781961Y-37773769D01*
X129781961Y-38426231D01*
X129781961Y-38624669D01*
X129777127Y-38723074D01*
X129762671Y-38820532D01*
X129738731Y-38916103D01*
X129705539Y-39008868D01*
X129663415Y-39097933D01*
X129612763Y-39182440D01*
X129554073Y-39261575D01*
X129487908Y-39334577D01*
X129414906Y-39400741D01*
X129335771Y-39459432D01*
X129251264Y-39510084D01*
X129162199Y-39552208D01*
X129069435Y-39585400D01*
X128973863Y-39609339D01*
X128876405Y-39623796D01*
X128778000Y-39628630D01*
X128679595Y-39623796D01*
X128582137Y-39609339D01*
X128486565Y-39585400D01*
X128393801Y-39552208D01*
X128304736Y-39510084D01*
X128220229Y-39459432D01*
X128141094Y-39400741D01*
X128068092Y-39334577D01*
X128001927Y-39261575D01*
X127943237Y-39182440D01*
X127892585Y-39097933D01*
X127850461Y-39008868D01*
X127817269Y-38916103D01*
X127793329Y-38820532D01*
X127778873Y-38723074D01*
X127774039Y-38624669D01*
X127774039Y-38426231D01*
X127774039Y-37773769D01*
G37*
G36*
X102120039Y-98733769D02*
G01*
X102751731Y-98905219D01*
X102694581Y-98989356D01*
X102632669Y-99057619D01*
X102632669Y-99190969D01*
X103453406Y-99190969D01*
X103453406Y-99386231D01*
X103615331Y-99386231D01*
X103615331Y-98789331D01*
X103453406Y-98789331D01*
X103453406Y-98995706D01*
X102904131Y-98995706D01*
X102960487Y-98894106D01*
X102999381Y-98797269D01*
X102837456Y-98733769D01*
X102800944Y-98816319D01*
X102751731Y-98905219D01*
X102120039Y-98733769D01*
X102120039Y-98535331D01*
X102124873Y-98436926D01*
X102139329Y-98339468D01*
X102163269Y-98243897D01*
X102196461Y-98151132D01*
X102238585Y-98062067D01*
X102289237Y-97977560D01*
X102347927Y-97898425D01*
X102414092Y-97825423D01*
X102487094Y-97759259D01*
X102566229Y-97700568D01*
X102650736Y-97649916D01*
X102739801Y-97607792D01*
X102832565Y-97574600D01*
X102928137Y-97550661D01*
X103025595Y-97536204D01*
X103124000Y-97531370D01*
X103222405Y-97536204D01*
X103319863Y-97550661D01*
X103415435Y-97574600D01*
X103508199Y-97607792D01*
X103597264Y-97649916D01*
X103681771Y-97700568D01*
X103760906Y-97759259D01*
X103833908Y-97825423D01*
X103900073Y-97898425D01*
X103958763Y-97977560D01*
X104009415Y-98062067D01*
X104051539Y-98151132D01*
X104084731Y-98243897D01*
X104108671Y-98339468D01*
X104123127Y-98436926D01*
X104127961Y-98535331D01*
X104127961Y-98733769D01*
X104127961Y-99386231D01*
X104127961Y-99584669D01*
X104123127Y-99683074D01*
X104108671Y-99780532D01*
X104084731Y-99876103D01*
X104051539Y-99968868D01*
X104009415Y-100057933D01*
X103958763Y-100142440D01*
X103900073Y-100221575D01*
X103833908Y-100294577D01*
X103760906Y-100360741D01*
X103681771Y-100419432D01*
X103597264Y-100470084D01*
X103508199Y-100512208D01*
X103415435Y-100545400D01*
X103319863Y-100569339D01*
X103222405Y-100583796D01*
X103124000Y-100588630D01*
X103025595Y-100583796D01*
X102928137Y-100569339D01*
X102832565Y-100545400D01*
X102739801Y-100512208D01*
X102650736Y-100470084D01*
X102566229Y-100419432D01*
X102487094Y-100360741D01*
X102414092Y-100294577D01*
X102347927Y-100221575D01*
X102289237Y-100142440D01*
X102238585Y-100057933D01*
X102196461Y-99968868D01*
X102163269Y-99876103D01*
X102139329Y-99780532D01*
X102124873Y-99683074D01*
X102120039Y-99584669D01*
X102120039Y-99386231D01*
X102120039Y-98733769D01*
G37*
D11*
%TO.C,Je*%
X132080000Y-36770000D02*
X130750000Y-36770000D01*
X130750000Y-36770000D02*
X130750000Y-38100000D01*
X133350000Y-36770000D02*
X133350000Y-39370000D01*
X133350000Y-39370000D02*
X130750000Y-39370000D01*
X130750000Y-39370000D02*
X130750000Y-100390000D01*
X135950000Y-100390000D02*
X130750000Y-100390000D01*
X135950000Y-36770000D02*
X135950000Y-100390000D01*
X135950000Y-36770000D02*
X133350000Y-36770000D01*
%TO.C,J1*%
X105350000Y-36770000D02*
X110550000Y-36770000D01*
X105350000Y-97790000D02*
X105350000Y-36770000D01*
X110550000Y-100390000D02*
X110550000Y-36770000D01*
X105350000Y-97790000D02*
X107950000Y-97790000D01*
X107950000Y-97790000D02*
X107950000Y-100390000D01*
X107950000Y-100390000D02*
X110550000Y-100390000D01*
X105350000Y-99060000D02*
X105350000Y-100390000D01*
X105350000Y-100390000D02*
X106680000Y-100390000D01*
X102950000Y-70060000D02*
X102950000Y-104140000D01*
X102950000Y-104140000D02*
X112950000Y-104140000D01*
X112950000Y-104140000D02*
X112950000Y-33020000D01*
X112950000Y-33020000D02*
X102950000Y-33020000D01*
X102950000Y-33020000D02*
X102950000Y-67060000D01*
%TO.C,Je*%
D10*
X126452380Y-68294285D02*
X127166666Y-68294285D01*
X127309523Y-68246666D01*
X127404761Y-68151428D01*
X127452380Y-68008571D01*
X127452380Y-67913333D01*
X127404761Y-69151428D02*
X127452380Y-69056190D01*
X127452380Y-68865714D01*
X127404761Y-68770476D01*
X127309523Y-68722857D01*
X126928571Y-68722857D01*
X126833333Y-68770476D01*
X126785714Y-68865714D01*
X126785714Y-69056190D01*
X126833333Y-69151428D01*
X126928571Y-69199047D01*
X127023809Y-69199047D01*
X127119047Y-68722857D01*
%TO.C,J1*%
X113752380Y-68246666D02*
X114466666Y-68246666D01*
X114609523Y-68199047D01*
X114704761Y-68103809D01*
X114752380Y-67960952D01*
X114752380Y-67865714D01*
X114752380Y-69246666D02*
X114752380Y-68675238D01*
X114752380Y-68960952D02*
X113752380Y-68960952D01*
X113895238Y-68865714D01*
X113990476Y-68770476D01*
X114038095Y-68675238D01*
%TD*%
M02*
