M48
; DRILL file {KiCad 5.1.12-84ad8e8a86~92~ubuntu20.04.1} date Wed 13 Apr 2022 08:29:16 AM CDT
; FORMAT={-:-/ absolute / metric / decimal}
; #@! TF.CreationDate,2022-04-13T08:29:16-05:00
; #@! TF.GenerationSoftware,Kicad,Pcbnew,5.1.12-84ad8e8a86~92~ubuntu20.04.1
FMAT,2
METRIC
T1C0.400
T2C1.000
%
G90
G05
T1
X104.902Y-35.036
X105.156Y-101.962
X109.238Y-35.036
X109.492Y-101.962
X110.998Y-95.25
X111.633Y-38.1
X111.76Y-97.79
X112.522Y-90.17
X112.649Y-40.64
X112.966Y-95.25
X113.284Y-87.757
X113.538Y-43.18
X113.574Y-35.036
X113.828Y-101.962
X113.919Y-85.09
X114.173Y-45.72
X114.3Y-38.1
X114.3Y-92.71
X114.681Y-40.64
X114.681Y-97.79
X114.935Y-48.26
X115.443Y-90.17
X115.57Y-50.8
X115.697Y-43.053
X115.951Y-87.63
X116.459Y-45.593
X116.459Y-85.09
X116.459Y-53.34
X116.84Y-82.55
X116.84Y-95.25
X116.967Y-48.26
X117.094Y-55.88
X117.348Y-77.47
X117.348Y-80.01
X117.475Y-50.673
X117.602Y-75.057
X117.729Y-58.42
X117.856Y-92.71
X117.91Y-35.036
X118.164Y-101.962
X118.364Y-60.96
X118.491Y-53.213
X118.618Y-90.17
X118.999Y-55.88
X119.253Y-72.39
X119.38Y-63.5
X119.38Y-85.09
X119.507Y-58.928
X119.507Y-77.216
X119.888Y-61.849
X120.142Y-66.04
X120.523Y-67.805
X120.777Y-64.008
X120.84Y-50.673
X120.904Y-38.1
X120.904Y-68.961
X120.968Y-48.26
X121.031Y-40.64
X121.031Y-43.053
X121.094Y-45.593
X121.094Y-75.946
X121.158Y-73.533
X121.349Y-71.056
X121.539Y-61.849
X121.579Y-65.395
X121.666Y-78.74
X122.247Y-35.036
X122.301Y-58.928
X122.501Y-101.962
X122.619Y-63.344
X122.809Y-55.88
X123.063Y-53.213
X123.38Y-73.66
X123.443Y-60.423
X123.444Y-81.28
X123.952Y-76.2
X124.206Y-50.673
X124.267Y-57.375
X124.968Y-48.26
X124.968Y-78.74
X124.968Y-83.82
X125.09Y-54.61
X125.603Y-86.36
X125.73Y-45.593
X125.914Y-52.07
X126.238Y-88.646
X126.365Y-43.053
X126.583Y-35.036
X126.737Y-49.539
X126.746Y-91.44
X126.837Y-101.962
X127.381Y-40.64
X127.381Y-93.98
X127.508Y-38.1
X127.561Y-46.99
X128.016Y-96.52
X128.397Y-44.45
X129.159Y-41.91
X129.54Y-39.497
X129.794Y-36.957
X129.857Y-93.98
X130.919Y-35.036
X131.173Y-101.962
X135.255Y-35.036
X135.509Y-101.962
T2
X106.68Y-38.1
X106.68Y-40.64
X106.68Y-43.18
X106.68Y-45.72
X106.68Y-48.26
X106.68Y-50.8
X106.68Y-53.34
X106.68Y-55.88
X106.68Y-58.42
X106.68Y-60.96
X106.68Y-63.5
X106.68Y-66.04
X106.68Y-68.58
X106.68Y-71.12
X106.68Y-73.66
X106.68Y-76.2
X106.68Y-78.74
X106.68Y-81.28
X106.68Y-83.82
X106.68Y-86.36
X106.68Y-88.9
X106.68Y-91.44
X106.68Y-93.98
X106.68Y-96.52
X106.68Y-99.06
X109.22Y-38.1
X109.22Y-40.64
X109.22Y-43.18
X109.22Y-45.72
X109.22Y-48.26
X109.22Y-50.8
X109.22Y-53.34
X109.22Y-55.88
X109.22Y-58.42
X109.22Y-60.96
X109.22Y-63.5
X109.22Y-66.04
X109.22Y-68.58
X109.22Y-71.12
X109.22Y-73.66
X109.22Y-76.2
X109.22Y-78.74
X109.22Y-81.28
X109.22Y-83.82
X109.22Y-86.36
X109.22Y-88.9
X109.22Y-91.44
X109.22Y-93.98
X109.22Y-96.52
X109.22Y-99.06
X132.08Y-38.1
X132.08Y-40.64
X132.08Y-43.18
X132.08Y-45.72
X132.08Y-48.26
X132.08Y-50.8
X132.08Y-53.34
X132.08Y-55.88
X132.08Y-58.42
X132.08Y-60.96
X132.08Y-63.5
X132.08Y-66.04
X132.08Y-68.58
X132.08Y-71.12
X132.08Y-73.66
X132.08Y-76.2
X132.08Y-78.74
X132.08Y-81.28
X132.08Y-83.82
X132.08Y-86.36
X132.08Y-88.9
X132.08Y-91.44
X132.08Y-93.98
X132.08Y-96.52
X132.08Y-99.06
X134.62Y-38.1
X134.62Y-40.64
X134.62Y-43.18
X134.62Y-45.72
X134.62Y-48.26
X134.62Y-50.8
X134.62Y-53.34
X134.62Y-55.88
X134.62Y-58.42
X134.62Y-60.96
X134.62Y-63.5
X134.62Y-66.04
X134.62Y-68.58
X134.62Y-71.12
X134.62Y-73.66
X134.62Y-76.2
X134.62Y-78.74
X134.62Y-81.28
X134.62Y-83.82
X134.62Y-86.36
X134.62Y-88.9
X134.62Y-91.44
X134.62Y-93.98
X134.62Y-96.52
X134.62Y-99.06
T0
M30
