<?xml version="1.0" encoding="UTF-8" standalone="no"?>
<!-- Generator: Adobe Illustrator 10.0, SVG Export Plug-In . SVG Version: 3.0.0 Build 77)  -->

<svg
   xmlns:i="http://ns.adobe.com/AdobeIllustrator/10.0/"
   xmlns:dc="http://purl.org/dc/elements/1.1/"
   xmlns:cc="http://creativecommons.org/ns#"
   xmlns:rdf="http://www.w3.org/1999/02/22-rdf-syntax-ns#"
   xmlns:svg="http://www.w3.org/2000/svg"
   xmlns="http://www.w3.org/2000/svg"
   xmlns:sodipodi="http://sodipodi.sourceforge.net/DTD/sodipodi-0.dtd"
   xmlns:inkscape="http://www.inkscape.org/namespaces/inkscape"
   i:rulerOrigin="0 0"
   i:viewOrigin="251 490"
   space="preserve"
   i:pageBounds="0 792 612 0"
   viewBox="0 0 109.26 189.854"
   enable-background="new 0 0 109.26 189.854"
   overflow="visible"
   version="1.1"
   id="svg33"
   sodipodi:docname="Gerald-G-Fast-Food-Drinks-FF-Menu-11.svg"
   inkscape:version="0.92.5 (2060ec1f9f, 2020-04-08)">
  <defs
     id="defs37" />
  <sodipodi:namedview
     pagecolor="#ffffff"
     bordercolor="#666666"
     borderopacity="1"
     objecttolerance="10"
     gridtolerance="10"
     guidetolerance="10"
     inkscape:pageopacity="0"
     inkscape:pageshadow="2"
     inkscape:window-width="2560"
     inkscape:window-height="1027"
     id="namedview35"
     showgrid="false"
     inkscape:zoom="3.5159058"
     inkscape:cx="106.58588"
     inkscape:cy="100.12257"
     inkscape:window-x="1920"
     inkscape:window-y="0"
     inkscape:window-maximized="1"
     inkscape:current-layer="g28"
     inkscape:snap-nodes="false" />
  <g
     id="Layer_1"
     i:layer="yes"
     i:rgbTrio="#4F008000FFFF"
     i:dimmedPercent="50">
    <g
       stroke-miterlimit="10"
       stroke="#000000"
       stroke-width=".036"
       clip-rule="evenodd"
       fill-rule="evenodd"
       id="g28">
      <path
         d="m6.138 19.206c-2.232 2.88-3.852 6.372-4.86 10.62-1.08 4.248-1.224 2.916-1.26 14.76-0.108 11.916 0.648 39.564 0.9 55.584 0.072 15.732 0.036 27.145 0.324 38.809 0.252 11.663-1.296 23.292 1.584 30.852 2.988 7.38 8.352 10.152 15.66 13.464 7.128 3.276 16.848 5.04 26.784 5.977 9.828 0.792 22.104 1.079 31.824-1.08 9.648-2.341 20.017-8.856 25.416-12.349 5.148-3.563 4.824-3.815 5.977-8.676 0.972-4.968 0.756-7.56 0.756-20.844-0.145-13.572-0.324-42.732-0.685-59.148-0.396-16.452-0.72-29.016-1.116-38.232-0.432-9.144-0.107-11.16-1.367-16.2-1.44-5.148-3.528-9.756-6.696-14.22 0.144-1.008 0.324-2.016 0.54-3.456 0.107-1.44 0.252-3.024 0.432-4.896-3.492-3.384-8.855-5.796-16.235-7.524-7.597-1.762-17.317-2.914-28.045-2.626-10.836 0.216-27.36 1.548-35.82 3.996-8.424 2.34-13.176 5.688-14.4 10.188 0.072 1.656 0.18 3.312 0.288 5.004z"
         i:knockout="Off"
         id="path2"
         inkscape:export-xdpi="2000"
         inkscape:export-ydpi="2000" />
      <path
         d="m50.202 10.098c-3.06-2.16-6.048-3.672-8.82-4.968-2.916-1.332-5.868-2.124-8.028-2.52-2.232-0.36-3.816-0.072-5.04 0.324-1.152 0.288-1.62 0.612-2.088 1.26-0.576 0.504-1.476 1.152-1.188 2.232 0.144 1.08 0.432 2.628 2.232 4.068 1.692 1.296 4.284 2.952 8.064 3.996 3.78 0.972 8.46 1.476 14.328 1.656-1.224-1.296-1.764-2.376-1.62-3.384 0.036-1.008 0.756-1.944 2.16-2.664z"
         i:knockout="Off"
         fill="#FFFFFF"
         id="path4"
         inkscape:export-xdpi="2000"
         inkscape:export-ydpi="2000" />
      <path
         d="m46.854 9.558c-6.768-3.168-11.376-5.004-14.364-5.112-2.988-0.216-3.6 2.628-3.204 3.96 0.324 1.296 2.268 2.7 5.292 3.816 2.988 0.972 6.948 1.944 12.312 2.52-1.656-1.476-2.484-2.52-2.484-3.42-0.072-0.828 0.792-1.512 2.448-1.764z"
         i:knockout="Off"
         id="path6"
         inkscape:export-xdpi="2000"
         inkscape:export-ydpi="2000" />
      <path
         d="m53.37 9.882c-0.9 0.324-2.232 1.044-2.484 2.16-0.324 1.188-0.936 3.564 0.396 4.788 1.26 1.008 5.041 2.34 6.876 1.656 1.691-0.828 3.42-4.428 3.239-5.94-0.359-1.512-3.815-2.664-5.111-3.06-1.332-0.54-2.124-0.036-2.916 0.396z"
         i:knockout="Off"
         fill="#FFFFFF"
         id="path8"
         inkscape:export-xdpi="2000"
         inkscape:export-ydpi="2000" />
      <path
         d="m54.594 12.222c-0.756 0.252-1.044 2.052-0.576 2.772 0.36 0.648 2.124 1.404 2.952 1.152 0.792-0.36 1.692-2.304 1.44-2.916-0.432-0.72-3.096-1.332-3.816-1.008z"
         i:knockout="Off"
         id="path10"
         inkscape:export-xdpi="2000"
         inkscape:export-ydpi="2000" />
      <path
         d="m76.698 19.818c2.195-0.108 3.708-0.72 4.68-1.692 0.9-1.116 1.692-3.384 0.864-4.464s-2.916-1.908-6.12-2.088c-3.42-0.216-8.064-0.18-14.076 0.504-0.036-0.972-0.396-1.62-1.368-2.34-1.044-0.756-2.952-1.692-4.32-1.692-1.439-0.108-2.7 0.36-3.923 1.404l-2.772-1.44c1.224-0.864 3.924-1.44 8.1-1.584 4.14-0.288 11.412-0.36 16.813 0.468 5.363 0.72 11.951 2.952 15.048 4.356 2.88 1.26 4.644 2.592 2.52 3.996-2.27 1.44-7.238 2.916-15.446 4.572z"
         i:knockout="Off"
         fill="#FFFFFF"
         id="path12"
         inkscape:export-xdpi="2000"
         inkscape:export-ydpi="2000" />
      <path
         d="m48.69 16.866c-0.36 0 0.036 0.288 1.044 0.72 1.044 0.468 3.132 1.584 5.148 1.836 1.98 0.072 3.996-0.216 6.444-1.008 0.144 0.324 0.756 0.756 1.979 1.152 1.225 0.396 2.772 0.756 5.076 1.224-2.268 0.216-5.292 0.36-9.216 0.576-4.032 0.144-8.928 0.54-14.112 0.504-5.256-0.072-11.376-0.432-16.848-1.08-5.58-0.864-10.728-1.944-15.984-3.636-0.252-1.188 0.792-2.376 2.844-3.708 2.052-1.368 5.22-2.628 9.648-4.068 1.98 2.016 4.068 3.564 6.696 4.788 2.484 1.116 5.544 1.836 8.496 2.304 2.917 0.504 5.797 0.504 8.785 0.396z"
         i:knockout="Off"
         id="path14"
         fill="#FFFFFF"
         inkscape:export-xdpi="2000"
         inkscape:export-ydpi="2000" />
      <path
         d="m 39.87,2.9182315 c 4.598199,-0.7646065 8.768659,-1.0922949 12.939118,-1.3835736 4.063525,-0.3640983 7.056711,-0.2912786 11.477675,-0.07282 4.276404,0.2548688 10.479616,0.9830654 14.470861,1.6020325 3.920945,0.5461474 6.309157,0.8010162 9.090453,1.7476718 2.743671,0.8738359 5.489323,2.2574094 7.128001,3.3132945 1.498078,0.9102457 2.068397,1.6020325 1.997107,2.6215083 -0.178225,0.910246 -0.998058,1.966131 -2.744661,3.167655 -0.35546,-1.310754 -1.674323,-2.585098 -4.09917,-3.823032 C 87.705527,8.7073944 84.319257,7.3238208 79.685413,6.3771653 74.873344,5.3212802 67.316614,4.8115426 61.827291,4.7023131 56.302323,4.6294935 51.31203,5.1756409 46.713831,6.1951161 Z"
         i:knockout="Off"
         id="path16"
         inkscape:connector-curvature="0"
         style="fill:#ffffff;stroke-width:0.03602536"
         inkscape:export-xdpi="2000"
         inkscape:export-ydpi="2000" />
      <path
         d="M 23.282946,4.2606326 C 21.854335,4.4663832 20.10104,5.0836349 18.02306,5.9752206 15.782739,6.93539 12.146275,8.3070604 10.620259,9.6787309 9.0293053,10.947526 8.8020263,12.079155 8.9319,13.210783 c 0.1298737,0.960169 1.0065213,1.783171 2.629942,2.469007 -0.454557,-0.823004 0.194812,-1.748881 2.207854,-2.914801 1.980574,-1.200212 5.097544,-2.400422 9.480782,-3.8749687 -0.422091,-0.6172516 -0.616901,-1.3716704 -0.584432,-2.1260891 -0.06494,-0.7887106 0.259747,-1.577421 0.6169,-2.5032986 z"
         i:knockout="Off"
         id="path18"
         inkscape:connector-curvature="0"
         style="fill:#ffffff;stroke-width:0.03336764"
         inkscape:export-xdpi="2000"
         inkscape:export-ydpi="2000" />
      <path
         d="m 7.6019872,14.738092 c -0.3200267,0.09885 -0.3200267,0.560133 -0.3911438,1.383858 0.035558,0.790776 0,1.943991 0.2844682,3.459644 2.1690699,1.383858 4.8004004,2.372328 8.0362264,3.360797 3.200267,0.790776 6.400534,1.416807 11.094259,2.009889 4.551491,0.626031 11.165376,1.252062 16.392479,1.614501 5.04931,0.230642 8.249577,0.263591 14.401202,-0.03295 6.152612,-0.263592 15.290164,-0.593082 22.188518,-1.614501 6.757107,-1.219113 12.69538,-2.833613 18.099288,-5.205941 l 1.137873,-6.787492 c -1.315666,2.009888 -3.662528,3.558491 -7.040588,5.008247 -3.520294,1.28501 -8.535033,2.339378 -13.405563,3.163103 -4.942635,0.724878 -10.631998,1.285011 -15.539075,1.680398 -4.871517,0.32949 -8.534045,0.494235 -13.47668,0.494235 C 44.298383,23.173034 37.720056,22.909442 32.955214,22.612901 28.190372,22.250463 24.456727,21.756228 20.936433,21.130197 17.273905,20.37237 13.860287,19.350951 11.655659,18.329532 9.4154719,17.209267 8.064248,16.056052 7.6019872,14.738092 Z"
         i:knockout="Off"
         id="path20"
         inkscape:connector-curvature="0"
         style="fill:#ffffff;stroke-width:0.0342289"
         inkscape:export-xdpi="2000"
         inkscape:export-ydpi="2000" />
      <path
         d="m 7.9683701,22.417952 c -1.2599654,2.484931 -2.205471,4.89906 -2.9754499,7.243996 -0.7699789,2.309936 -1.2602084,3.46501 -1.6101988,6.719921 C 2.8227369,39.531782 2.43875,43.522326 2.3687519,48.912178 2.3337529,54.267031 2.5427901,60.740926 3.1377737,68.475714 L 3.734003,110.33519 c 0.069998,11.02469 0.3507196,20.92802 0.4557167,29.99375 0.2099942,9.06475 0.244902,16.87066 0.4898953,23.97449 5.0048625,5.10986 11.54953,9.02998 19.774304,11.8999 8.294772,2.83492 20.36941,4.54892 29.329164,5.1439 8.854757,0.45499 14.806888,0.24571 23.520676,-2.37922 8.608791,-2.76492 17.638057,-7.31394 27.646811,-13.92973 0.66595,-11.0247 0.94665,-20.75349 1.22664,-29.85324 0.10694,-9.09003 0.20385,-17.03325 -0.0684,-24.20805 v -0.0133 l -0.4595,-32.302709 c -0.105,-5.144858 -0.24558,-10.394988 -0.42155,-16.029833 -0.20999,-5.774842 -0.45485,-12.844905 -0.73484,-17.569775 -0.34902,-4.72487 -0.2092,-6.543985 -1.32917,-10.323881 -1.22496,-3.814895 -3.14939,-7.910482 -5.77431,-12.285362 -3.569902,2.064944 -7.980769,3.744503 -13.650613,5.039467 -5.704843,1.259965 -12.563637,2.065824 -20.053431,2.555811 -7.699788,0.384989 -17.043984,0.700498 -24.813771,0.140513 C 31.03187,29.557938 23.017213,27.701774 17.802355,26.511807 12.553471,25.181843 9.4033307,23.817913 7.9683701,22.417952 Z"
         id="path22"
         style="fill:#ffffff;stroke-width:0.03499904"
         inkscape:connector-curvature="0"
         inkscape:export-xdpi="2000"
         inkscape:export-ydpi="2000" />
      <g
         id="g857"
         transform="matrix(1.6360471,0,0,1.6360471,3.5389885,52.86465)"
         style="stroke:#000000"
         inkscape:export-xdpi="2000"
         inkscape:export-ydpi="2000">
        <path
           sodipodi:stroke-cmyk="(0 0 0 0.8)"
           transform="matrix(0.68018,0.68018,-0.68018,0.68018,31.677,-13.052)"
           sodipodi:nodetypes="ccccc"
           d="M 50.177,24.067 50.133,50.584 H 12.215 V 12.921 l 27.386,-0.106"
           style="fill:none;stroke:#000000;stroke-width:5.19799995;stroke-linecap:round;stroke-linejoin:round"
           id="path885"
           inkscape:connector-curvature="0" />
        <path
           sodipodi:stroke-cmyk="(0 0 0 0.8)"
           transform="matrix(0.96192,0,0,0.96192,-1.0115,6.5168)"
           sodipodi:nodetypes="cc"
           d="M 44.534,24.627 H 60.312"
           style="fill:none;stroke:#000000;stroke-width:5.19789982;stroke-linecap:round;stroke-linejoin:round"
           id="path886"
           inkscape:connector-curvature="0" />
      </g>
    </g>
  </g>
  <metadata
     id="metadata31">
    <rdf:RDF>
      <cc:Work>
        <dc:format>image/svg+xml</dc:format>
        <dc:type
           rdf:resource="http://purl.org/dc/dcmitype/StillImage" />
        <cc:license
           rdf:resource="http://creativecommons.org/publicdomain/zero/1.0/" />
        <dc:publisher>
          <cc:Agent
             rdf:about="http://openclipart.org/">
            <dc:title>Openclipart</dc:title>
          </cc:Agent>
        </dc:publisher>
        <dc:title></dc:title>
        <dc:date>2007-11-26T20:55:09</dc:date>
        <dc:description>This Clip Art is part of a fast food menu set. Search for &quot;fastfood&quot; to find all.</dc:description>
        <dc:source>https://openclipart.org/detail/9157/fast-food-drinks-soda-can-by-gerald_g-9157</dc:source>
        <dc:creator>
          <cc:Agent>
            <dc:title>Gerald_G</dc:title>
          </cc:Agent>
        </dc:creator>
        <dc:subject>
          <rdf:Bag>
            <rdf:li>can</rdf:li>
            <rdf:li>colouring book</rdf:li>
            <rdf:li>dinner</rdf:li>
            <rdf:li>drink</rdf:li>
            <rdf:li>fastfood</rdf:li>
            <rdf:li>food</rdf:li>
            <rdf:li>lunch</rdf:li>
            <rdf:li>menu</rdf:li>
            <rdf:li>soda</rdf:li>
          </rdf:Bag>
        </dc:subject>
      </cc:Work>
      <cc:License
         rdf:about="http://creativecommons.org/licenses/publicdomain/">
        <cc:permits
           rdf:resource="http://creativecommons.org/ns#Reproduction" />
        <cc:permits
           rdf:resource="http://creativecommons.org/ns#Distribution" />
        <cc:permits
           rdf:resource="http://creativecommons.org/ns#DerivativeWorks" />
      </cc:License>
    </rdf:RDF>
  </metadata>
</svg>
