<?xml version="1.0" encoding="UTF-8" standalone="no"?>
<!-- Created with Inkscape (http://www.inkscape.org/) -->

<svg
   xmlns:dc="http://purl.org/dc/elements/1.1/"
   xmlns:cc="http://creativecommons.org/ns#"
   xmlns:rdf="http://www.w3.org/1999/02/22-rdf-syntax-ns#"
   xmlns:svg="http://www.w3.org/2000/svg"
   xmlns="http://www.w3.org/2000/svg"
   xmlns:sodipodi="http://sodipodi.sourceforge.net/DTD/sodipodi-0.dtd"
   xmlns:inkscape="http://www.inkscape.org/namespaces/inkscape"
   id="svg2461"
   viewBox="0 0 30.557 55.102"
   version="1.0"
   sodipodi:docname="Twister.svg"
   inkscape:export-filename="twister.png"
   inkscape:export-xdpi="3142.25"
   inkscape:export-ydpi="3142.25"
   inkscape:version="0.92.5 (2060ec1f9f, 2020-04-08)">
  <defs
     id="defs13" />
  <sodipodi:namedview
     pagecolor="#ffffff"
     bordercolor="#666666"
     borderopacity="1"
     objecttolerance="10"
     gridtolerance="10"
     guidetolerance="10"
     inkscape:pageopacity="0"
     inkscape:pageshadow="2"
     inkscape:window-width="1920"
     inkscape:window-height="1027"
     id="namedview11"
     showgrid="false"
     inkscape:zoom="17.131864"
     inkscape:cx="-1.2809506"
     inkscape:cy="36.480641"
     inkscape:window-x="0"
     inkscape:window-y="0"
     inkscape:window-maximized="1"
     inkscape:current-layer="svg2461" />
  <g
     id="layer2"
     transform="translate(-121.03 -150.9)">
    <g
       id="g3692"
       transform="matrix(.12936 .0078716 -.0078716 .12936 200.96 149.37)">
      <path
         id="path3680"
         style="stroke-linejoin:round;stroke:#000000;stroke-linecap:round;stroke-width:15.432;fill:none"
         d="m-489.71 458.38l10.718 0.82443s60.738-64.05 38.748-110.47c-7.6245-16.097-33.369-38.489-36.275-56.061-7.2445-43.802 28.475-60.685 41.221-89.038 29.175-64.895-21.399-96.176 7.4198-145.1-15.649-16.418-147.75-7.5144-164.06 8.2443 23.827 79.282 34.613 47.841 55.237 105.53 9.98 38.437-20.952 75.831-7.4199 129.44 3.9215 15.534 42.851 47.443 54.412 58.534 20.478 19.646 0.00001 98.107 0.00001 98.107z" />
      <path
         id="path3682"
         style="stroke-linejoin:round;stroke:#000000;stroke-linecap:round;stroke-width:7.7159px;fill:none"
         d="m-568.97 287.7s-30.887 6.6249-15.609 24.789c15.316 18.209 150.3-6.1067 159.08-26.377 8.8787-20.514-27.803-17.637-27.803-17.637" />
      <path
         id="path3684"
         style="stroke-linejoin:round;stroke:#000000;stroke-linecap:round;stroke-width:7.7159px;fill:none"
         d="m-570.61 169.96s-46.188 2.7426-28.032 22.364c18.156 19.622 201.85 13.932 219.76-1.4738 17.708-15.229-23.567-27.034-23.567-27.034" />
      <path
         id="path3688"
         style="stroke-linejoin:round;stroke:#000000;stroke-linecap:round;stroke-width:7.7159px;fill:none"
         d="m-505.03 374.59s-27.799 3.4032-12.798 23.533c14.776 19.827 107.46 13.02 115.01-2.8339 7.689-16.141-14.382-23.101-14.382-23.101" />
    </g>
  </g>
  <metadata
     id="metadata8">
    <rdf:RDF>
      <cc:Work>
        <dc:format>image/svg+xml</dc:format>
        <dc:type
           rdf:resource="http://purl.org/dc/dcmitype/StillImage" />
        <cc:license
           rdf:resource="http://creativecommons.org/publicdomain/zero/1.0/" />
        <dc:publisher>
          <cc:Agent
             rdf:about="http://openclipart.org/">
            <dc:title>Openclipart</dc:title>
          </cc:Agent>
        </dc:publisher>
        <dc:title />
        <dc:date>2009-03-06T16:33:56</dc:date>
        <dc:description>Simple line art tornado</dc:description>
        <dc:source>https://openclipart.org/detail/21947/tornado-by-kelan</dc:source>
        <dc:creator>
          <cc:Agent>
            <dc:title>kelan</dc:title>
          </cc:Agent>
        </dc:creator>
        <dc:subject>
          <rdf:Bag>
            <rdf:li>line art</rdf:li>
            <rdf:li>outline</rdf:li>
            <rdf:li>storm</rdf:li>
            <rdf:li>symbol</rdf:li>
            <rdf:li>tornado</rdf:li>
            <rdf:li>wind</rdf:li>
          </rdf:Bag>
        </dc:subject>
      </cc:Work>
      <cc:License
         rdf:about="http://creativecommons.org/publicdomain/zero/1.0/">
        <cc:permits
           rdf:resource="http://creativecommons.org/ns#Reproduction" />
        <cc:permits
           rdf:resource="http://creativecommons.org/ns#Distribution" />
        <cc:permits
           rdf:resource="http://creativecommons.org/ns#DerivativeWorks" />
      </cc:License>
    </rdf:RDF>
  </metadata>
  <g
     id="g857"
     transform="matrix(0.1752817,0,0,0.1752817,9.2722389,4.5565762)"
     style="stroke:#000000"
     inkscape:export-xdpi="2000"
     inkscape:export-ydpi="2000">
    <path
       sodipodi:stroke-cmyk="(0 0 0 0.8)"
       transform="matrix(0.68018,0.68018,-0.68018,0.68018,31.677,-13.052)"
       sodipodi:nodetypes="ccccc"
       d="M 50.177,24.067 50.133,50.584 H 12.215 V 12.921 l 27.386,-0.106"
       style="fill:none;stroke:#000000;stroke-width:5.19799995;stroke-linecap:round;stroke-linejoin:round"
       id="path885"
       inkscape:connector-curvature="0" />
    <path
       sodipodi:stroke-cmyk="(0 0 0 0.8)"
       transform="matrix(0.96192,0,0,0.96192,-1.0115,6.5168)"
       sodipodi:nodetypes="cc"
       d="M 44.534,24.627 H 60.312"
       style="fill:none;stroke:#000000;stroke-width:5.19789982;stroke-linecap:round;stroke-linejoin:round"
       id="path886"
       inkscape:connector-curvature="0" />
  </g>
</svg>
