%TF.GenerationSoftware,KiCad,Pcbnew,5.1.12-84ad8e8a86~92~ubuntu20.04.1*%
%TF.CreationDate,2022-03-02T23:51:17-06:00*%
%TF.ProjectId,dietSCSI,64696574-5343-4534-992e-6b696361645f,rev?*%
%TF.SameCoordinates,Original*%
%TF.FileFunction,Legend,Top*%
%TF.FilePolarity,Positive*%
%FSLAX46Y46*%
G04 Gerber Fmt 4.6, Leading zero omitted, Abs format (unit mm)*
G04 Created by KiCad (PCBNEW 5.1.12-84ad8e8a86~92~ubuntu20.04.1) date 2022-03-02 23:51:17*
%MOMM*%
%LPD*%
G01*
G04 APERTURE LIST*
%ADD10C,0.150000*%
%ADD11C,0.120000*%
%ADD12C,0.100000*%
G04 APERTURE END LIST*
D10*
X122540967Y-20391500D02*
X122451681Y-20343880D01*
X122308824Y-20343880D01*
X122160014Y-20391500D01*
X122052872Y-20486738D01*
X121993348Y-20581976D01*
X121921919Y-20772452D01*
X121904062Y-20915309D01*
X121927872Y-21105785D01*
X121963586Y-21201023D01*
X122046919Y-21296261D01*
X122183824Y-21343880D01*
X122279062Y-21343880D01*
X122427872Y-21296261D01*
X122481443Y-21248642D01*
X122523110Y-20915309D01*
X122332633Y-20915309D01*
X124539300Y-31900880D02*
X125110729Y-31900880D01*
X124700014Y-32900880D02*
X124825014Y-31900880D01*
X122469538Y-32900880D02*
X122195729Y-32424690D01*
X121898110Y-32900880D02*
X122023110Y-31900880D01*
X122404062Y-31900880D01*
X122493348Y-31948500D01*
X122535014Y-31996119D01*
X122570729Y-32091357D01*
X122552872Y-32234214D01*
X122493348Y-32329452D01*
X122439776Y-32377071D01*
X122338586Y-32424690D01*
X121957633Y-32424690D01*
X142984261Y-74763380D02*
X143603309Y-74763380D01*
X143269976Y-75144333D01*
X143412833Y-75144333D01*
X143508071Y-75191952D01*
X143555690Y-75239571D01*
X143603309Y-75334809D01*
X143603309Y-75572904D01*
X143555690Y-75668142D01*
X143508071Y-75715761D01*
X143412833Y-75763380D01*
X143127119Y-75763380D01*
X143031880Y-75715761D01*
X142984261Y-75668142D01*
X144031880Y-75668142D02*
X144079500Y-75715761D01*
X144031880Y-75763380D01*
X143984261Y-75715761D01*
X144031880Y-75668142D01*
X144031880Y-75763380D01*
X144412833Y-74763380D02*
X145031880Y-74763380D01*
X144698547Y-75144333D01*
X144841404Y-75144333D01*
X144936642Y-75191952D01*
X144984261Y-75239571D01*
X145031880Y-75334809D01*
X145031880Y-75572904D01*
X144984261Y-75668142D01*
X144936642Y-75715761D01*
X144841404Y-75763380D01*
X144555690Y-75763380D01*
X144460452Y-75715761D01*
X144412833Y-75668142D01*
X145317595Y-74763380D02*
X145650928Y-75763380D01*
X145984261Y-74763380D01*
X143460452Y-80097380D02*
X144031880Y-80097380D01*
X143746166Y-81097380D02*
X143746166Y-80097380D01*
X144269976Y-80097380D02*
X144936642Y-81097380D01*
X144936642Y-80097380D02*
X144269976Y-81097380D01*
X145317595Y-81097380D02*
X145317595Y-80097380D01*
X145555690Y-80097380D01*
X145698547Y-80145000D01*
X145793785Y-80240238D01*
X145841404Y-80335476D01*
X145889023Y-80525952D01*
X145889023Y-80668809D01*
X145841404Y-80859285D01*
X145793785Y-80954523D01*
X145698547Y-81049761D01*
X145555690Y-81097380D01*
X145317595Y-81097380D01*
X143936642Y-78557380D02*
X143603309Y-78081190D01*
X143365214Y-78557380D02*
X143365214Y-77557380D01*
X143746166Y-77557380D01*
X143841404Y-77605000D01*
X143889023Y-77652619D01*
X143936642Y-77747857D01*
X143936642Y-77890714D01*
X143889023Y-77985952D01*
X143841404Y-78033571D01*
X143746166Y-78081190D01*
X143365214Y-78081190D01*
X144269976Y-77557380D02*
X144936642Y-78557380D01*
X144936642Y-77557380D02*
X144269976Y-78557380D01*
X145317595Y-78557380D02*
X145317595Y-77557380D01*
X145555690Y-77557380D01*
X145698547Y-77605000D01*
X145793785Y-77700238D01*
X145841404Y-77795476D01*
X145889023Y-77985952D01*
X145889023Y-78128809D01*
X145841404Y-78319285D01*
X145793785Y-78414523D01*
X145698547Y-78509761D01*
X145555690Y-78557380D01*
X145317595Y-78557380D01*
X143793785Y-69731000D02*
X143698547Y-69683380D01*
X143555690Y-69683380D01*
X143412833Y-69731000D01*
X143317595Y-69826238D01*
X143269976Y-69921476D01*
X143222357Y-70111952D01*
X143222357Y-70254809D01*
X143269976Y-70445285D01*
X143317595Y-70540523D01*
X143412833Y-70635761D01*
X143555690Y-70683380D01*
X143650928Y-70683380D01*
X143793785Y-70635761D01*
X143841404Y-70588142D01*
X143841404Y-70254809D01*
X143650928Y-70254809D01*
X144269976Y-70683380D02*
X144269976Y-69683380D01*
X144841404Y-70683380D01*
X144841404Y-69683380D01*
X145317595Y-70683380D02*
X145317595Y-69683380D01*
X145555690Y-69683380D01*
X145698547Y-69731000D01*
X145793785Y-69826238D01*
X145841404Y-69921476D01*
X145889023Y-70111952D01*
X145889023Y-70254809D01*
X145841404Y-70445285D01*
X145793785Y-70540523D01*
X145698547Y-70635761D01*
X145555690Y-70683380D01*
X145317595Y-70683380D01*
X161813975Y-55971131D02*
X161946278Y-55220801D01*
X162255291Y-55662118D02*
X161504962Y-55529814D01*
X161402787Y-54738140D02*
X161510283Y-54128497D01*
X161827565Y-54522918D01*
X161852372Y-54382231D01*
X161915806Y-54296709D01*
X161970970Y-54258082D01*
X162073031Y-54227724D01*
X162307509Y-54269069D01*
X162393031Y-54332503D01*
X162431658Y-54387667D01*
X162462015Y-54489727D01*
X162412401Y-54771101D01*
X162348968Y-54856623D01*
X162293803Y-54895250D01*
X162475721Y-53863547D02*
X162530885Y-53824920D01*
X162569512Y-53880084D01*
X162514347Y-53918711D01*
X162475721Y-53863547D01*
X162569512Y-53880084D01*
X161650856Y-53331271D02*
X161758352Y-52721629D01*
X162075634Y-53116050D01*
X162100441Y-52975363D01*
X162163875Y-52889840D01*
X162219039Y-52851214D01*
X162321099Y-52820856D01*
X162555578Y-52862201D01*
X162641100Y-52925634D01*
X162679726Y-52980799D01*
X162710084Y-53082859D01*
X162660470Y-53364233D01*
X162597037Y-53449755D01*
X162541872Y-53488382D01*
X161807966Y-52440255D02*
X162850656Y-52285634D01*
X161923731Y-51783716D01*
X156258222Y-57237906D02*
X156390640Y-57309609D01*
X156625118Y-57350953D01*
X156727178Y-57320596D01*
X156782342Y-57281969D01*
X156845776Y-57196447D01*
X156862314Y-57102656D01*
X156831956Y-57000595D01*
X156793329Y-56945431D01*
X156707807Y-56881997D01*
X156528494Y-56802026D01*
X156442971Y-56738592D01*
X156404345Y-56683428D01*
X156373987Y-56581368D01*
X156390525Y-56487576D01*
X156453959Y-56402054D01*
X156509123Y-56363428D01*
X156611183Y-56333070D01*
X156845661Y-56374415D01*
X156978079Y-56446117D01*
X157314617Y-56457104D02*
X157375447Y-57483257D01*
X157687064Y-56812899D01*
X157750612Y-57549409D01*
X158158738Y-56605946D01*
X158360255Y-57656905D02*
X158533903Y-56672097D01*
X158768381Y-56713442D01*
X158900799Y-56785145D01*
X158978052Y-56895474D01*
X159008410Y-56997534D01*
X159022230Y-57193385D01*
X158997423Y-57334072D01*
X158917452Y-57513386D01*
X158854018Y-57598908D01*
X158743689Y-57676161D01*
X158594733Y-57698250D01*
X158360255Y-57656905D01*
X159924348Y-57835990D02*
X159869183Y-57874616D01*
X159720228Y-57896705D01*
X159626436Y-57880167D01*
X159494019Y-57808464D01*
X159416765Y-57698135D01*
X159386408Y-57596075D01*
X159372588Y-57400224D01*
X159397395Y-57259537D01*
X159477366Y-57080223D01*
X159540800Y-56994701D01*
X159651129Y-56917448D01*
X159800085Y-56895359D01*
X159893876Y-56911897D01*
X160026294Y-56983600D01*
X160064920Y-57038764D01*
X160798827Y-58086891D02*
X160329871Y-58004201D01*
X160503519Y-57019394D01*
X161127096Y-58144774D02*
X161300744Y-57159966D01*
X161689843Y-58244001D02*
X161367010Y-57606833D01*
X161863491Y-57259193D02*
X161201517Y-57722713D01*
X159283816Y-59037755D02*
X159198293Y-58974321D01*
X159057607Y-58949514D01*
X158908651Y-58971603D01*
X158798322Y-59048856D01*
X158734888Y-59134379D01*
X158654917Y-59313692D01*
X158630110Y-59454379D01*
X158643930Y-59650230D01*
X158674287Y-59752291D01*
X158751541Y-59862620D01*
X158883958Y-59934322D01*
X158977750Y-59950860D01*
X159126705Y-59928771D01*
X159181870Y-59890145D01*
X159239753Y-59561875D01*
X159052170Y-59528800D01*
X159587393Y-60058357D02*
X159761041Y-59073549D01*
X160150140Y-60157584D01*
X160323788Y-59172776D01*
X160619096Y-60240274D02*
X160792744Y-59255466D01*
X161027222Y-59296811D01*
X161159640Y-59368513D01*
X161236893Y-59478842D01*
X161267251Y-59580903D01*
X161281071Y-59776754D01*
X161256264Y-59917441D01*
X161176292Y-60096754D01*
X161112859Y-60182276D01*
X161002530Y-60259530D01*
X160853574Y-60281619D01*
X160619096Y-60240274D01*
X156508403Y-62096668D02*
X156640821Y-62168371D01*
X156875299Y-62209715D01*
X156977359Y-62179358D01*
X157032524Y-62140731D01*
X157095957Y-62055209D01*
X157112495Y-61961418D01*
X157082138Y-61859357D01*
X157043511Y-61804193D01*
X156957989Y-61740759D01*
X156778675Y-61660788D01*
X156693153Y-61597354D01*
X156654526Y-61542190D01*
X156624169Y-61440130D01*
X156640706Y-61346338D01*
X156704140Y-61260816D01*
X156759305Y-61222189D01*
X156861365Y-61191832D01*
X157095843Y-61233177D01*
X157228261Y-61304879D01*
X157564799Y-61315866D02*
X157625629Y-62342019D01*
X157937246Y-61671661D01*
X158000794Y-62408170D01*
X158408920Y-61464708D01*
X158610436Y-62515667D02*
X158784085Y-61530859D01*
X159018563Y-61572204D01*
X159150981Y-61643906D01*
X159228234Y-61754236D01*
X159258592Y-61856296D01*
X159272411Y-62052147D01*
X159247604Y-62192834D01*
X159167633Y-62372147D01*
X159104199Y-62457670D01*
X158993870Y-62534923D01*
X158844915Y-62557012D01*
X158610436Y-62515667D01*
X159595244Y-62689315D02*
X159768892Y-61704507D01*
X160425431Y-61820273D02*
X160613013Y-61853349D01*
X160698536Y-61916782D01*
X160775789Y-62027111D01*
X160789609Y-62222963D01*
X160731726Y-62551232D01*
X160651754Y-62730545D01*
X160541425Y-62807799D01*
X160439365Y-62838156D01*
X160251783Y-62805081D01*
X160166260Y-62741647D01*
X160089007Y-62631318D01*
X160075187Y-62435467D01*
X160133070Y-62107197D01*
X160213042Y-61927884D01*
X160323371Y-61850631D01*
X160425431Y-61820273D01*
X157663819Y-63634639D02*
X158648627Y-63808287D01*
X158223601Y-65121819D02*
X157978022Y-64594980D01*
X157660854Y-65022591D02*
X157834502Y-64037783D01*
X158209667Y-64103935D01*
X158295189Y-64167369D01*
X158333816Y-64222533D01*
X158364174Y-64324593D01*
X158339367Y-64465280D01*
X158275933Y-64550802D01*
X158220769Y-64589429D01*
X158118709Y-64619787D01*
X157743544Y-64553635D01*
X158648627Y-63808287D02*
X159586539Y-63973666D01*
X158607035Y-65141075D02*
X158739453Y-65212777D01*
X158973931Y-65254122D01*
X159075991Y-65223764D01*
X159131156Y-65185138D01*
X159194589Y-65099615D01*
X159211127Y-65005824D01*
X159180770Y-64903764D01*
X159142143Y-64848599D01*
X159056621Y-64785166D01*
X158877307Y-64705194D01*
X158791785Y-64641761D01*
X158753158Y-64586596D01*
X158722801Y-64484536D01*
X158739339Y-64390745D01*
X158802772Y-64305223D01*
X158857937Y-64266596D01*
X158959997Y-64236238D01*
X159194475Y-64277583D01*
X159326893Y-64349286D01*
X159586539Y-63973666D02*
X160336869Y-64105970D01*
X159616535Y-64352004D02*
X160179283Y-64451231D01*
X159724261Y-65386425D02*
X159897909Y-64401618D01*
X168577768Y-49987471D02*
X168016289Y-50137835D01*
X168382328Y-50524438D02*
X167442636Y-50182418D01*
X167572929Y-49824440D01*
X167650250Y-49751232D01*
X167711283Y-49722771D01*
X167817065Y-49710597D01*
X167951306Y-49759457D01*
X168024514Y-49836778D01*
X168052975Y-49897812D01*
X168065149Y-50003593D01*
X167934855Y-50361571D01*
X167947522Y-48795253D02*
X167784656Y-49242725D01*
X168215842Y-49450339D01*
X168187381Y-49389305D01*
X168175207Y-49283524D01*
X168256641Y-49059788D01*
X168333961Y-48986580D01*
X168394995Y-48958119D01*
X168500776Y-48945945D01*
X168724513Y-49027379D01*
X168797720Y-49104699D01*
X168826181Y-49165733D01*
X168838355Y-49271515D01*
X168756922Y-49495251D01*
X168679601Y-49568459D01*
X168618567Y-49596919D01*
X168561975Y-48360118D02*
X168484654Y-48433326D01*
X168423620Y-48461787D01*
X168317839Y-48473961D01*
X168273092Y-48457674D01*
X168199884Y-48380353D01*
X168171423Y-48319319D01*
X168159249Y-48213538D01*
X168224396Y-48034549D01*
X168301716Y-47961341D01*
X168362750Y-47932881D01*
X168468532Y-47920707D01*
X168513279Y-47936993D01*
X168586487Y-48014314D01*
X168614947Y-48075348D01*
X168627121Y-48181129D01*
X168561975Y-48360118D01*
X168574148Y-48465899D01*
X168602609Y-48526933D01*
X168675817Y-48604254D01*
X168854806Y-48669401D01*
X168960587Y-48657227D01*
X169021621Y-48628766D01*
X169098942Y-48555558D01*
X169164088Y-48376569D01*
X169151915Y-48270788D01*
X169123454Y-48209754D01*
X169050246Y-48132433D01*
X168871257Y-48067287D01*
X168765476Y-48079461D01*
X168704442Y-48107921D01*
X168627121Y-48181129D01*
X169017837Y-47664561D02*
X169278424Y-46948605D01*
X169022443Y-45841933D02*
X168859576Y-46289406D01*
X169290762Y-46497020D01*
X169262302Y-46435986D01*
X169250128Y-46330204D01*
X169331561Y-46106468D01*
X169408882Y-46033260D01*
X169469916Y-46004800D01*
X169575697Y-45992626D01*
X169799433Y-46074059D01*
X169872641Y-46151380D01*
X169901102Y-46212414D01*
X169913275Y-46318195D01*
X169831842Y-46541931D01*
X169754521Y-46615139D01*
X169693488Y-46643600D01*
X169250456Y-45215471D02*
X169283030Y-45125977D01*
X169360350Y-45052769D01*
X169421384Y-45024308D01*
X169527165Y-45012134D01*
X169722441Y-45032534D01*
X169946177Y-45113967D01*
X170108880Y-45223861D01*
X170182088Y-45301182D01*
X170210548Y-45362216D01*
X170222722Y-45467997D01*
X170190149Y-45557491D01*
X170112828Y-45630699D01*
X170051794Y-45659160D01*
X169946013Y-45671334D01*
X169750737Y-45650934D01*
X169527001Y-45569501D01*
X169364299Y-45459607D01*
X169291091Y-45382286D01*
X169262630Y-45321252D01*
X169250456Y-45215471D01*
X169442145Y-43541618D02*
X168869725Y-43440602D01*
X169038084Y-43945679D02*
X168330977Y-43238572D01*
X168600351Y-42969198D01*
X168701366Y-42935526D01*
X168768710Y-42935526D01*
X168869725Y-42969198D01*
X168970740Y-43070213D01*
X169004412Y-43171228D01*
X169004412Y-43238572D01*
X168970740Y-43339587D01*
X168701366Y-43608961D01*
X168970740Y-42598809D02*
X169442145Y-42127404D01*
X169846206Y-43137557D01*
X170014564Y-41554984D02*
X169879877Y-41689671D01*
X169846206Y-41790687D01*
X169846206Y-41858030D01*
X169879877Y-42026389D01*
X169980893Y-42194748D01*
X170250267Y-42464122D01*
X170351282Y-42497793D01*
X170418625Y-42497793D01*
X170519641Y-42464122D01*
X170654328Y-42329435D01*
X170688000Y-42228419D01*
X170688000Y-42161076D01*
X170654328Y-42060061D01*
X170485969Y-41891702D01*
X170384954Y-41858030D01*
X170317610Y-41858030D01*
X170216595Y-41891702D01*
X170081908Y-42026389D01*
X170048236Y-42127404D01*
X170048236Y-42194748D01*
X170081908Y-42295763D01*
X170822687Y-41622328D02*
X171361435Y-41083580D01*
X171563465Y-40006084D02*
X171428778Y-40140771D01*
X171395106Y-40241786D01*
X171395106Y-40309129D01*
X171428778Y-40477488D01*
X171529793Y-40645847D01*
X171799167Y-40915221D01*
X171900183Y-40948893D01*
X171967526Y-40948893D01*
X172068541Y-40915221D01*
X172203228Y-40780534D01*
X172236900Y-40679519D01*
X172236900Y-40612175D01*
X172203228Y-40511160D01*
X172034870Y-40342801D01*
X171933854Y-40309129D01*
X171866511Y-40309129D01*
X171765496Y-40342801D01*
X171630809Y-40477488D01*
X171597137Y-40578503D01*
X171597137Y-40645847D01*
X171630809Y-40746862D01*
X172337915Y-39837725D02*
X172236900Y-39871397D01*
X172169557Y-39871397D01*
X172068541Y-39837725D01*
X172034870Y-39804053D01*
X172001198Y-39703038D01*
X172001198Y-39635694D01*
X172034870Y-39534679D01*
X172169557Y-39399992D01*
X172270572Y-39366320D01*
X172337915Y-39366320D01*
X172438931Y-39399992D01*
X172472602Y-39433664D01*
X172506274Y-39534679D01*
X172506274Y-39602023D01*
X172472602Y-39703038D01*
X172337915Y-39837725D01*
X172304244Y-39938740D01*
X172304244Y-40006084D01*
X172337915Y-40107099D01*
X172472602Y-40241786D01*
X172573618Y-40275458D01*
X172640961Y-40275458D01*
X172741976Y-40241786D01*
X172876663Y-40107099D01*
X172910335Y-40006084D01*
X172910335Y-39938740D01*
X172876663Y-39837725D01*
X172741976Y-39703038D01*
X172640961Y-39669366D01*
X172573618Y-39669366D01*
X172472602Y-39703038D01*
X170712145Y-38906118D02*
X170139725Y-38805102D01*
X170308084Y-39310179D02*
X169600977Y-38603072D01*
X169870351Y-38333698D01*
X169971366Y-38300026D01*
X170038710Y-38300026D01*
X170139725Y-38333698D01*
X170240740Y-38434713D01*
X170274412Y-38535728D01*
X170274412Y-38603072D01*
X170240740Y-38704087D01*
X169971366Y-38973461D01*
X171385580Y-38232683D02*
X170981519Y-38636744D01*
X171183549Y-38434713D02*
X170476442Y-37727606D01*
X170510114Y-37895965D01*
X170510114Y-38030652D01*
X170476442Y-38131667D01*
X171722297Y-37895965D02*
X171856984Y-37761278D01*
X171890656Y-37660263D01*
X171890656Y-37592919D01*
X171856984Y-37424561D01*
X171755969Y-37256202D01*
X171486595Y-36986828D01*
X171385580Y-36953156D01*
X171318236Y-36953156D01*
X171217221Y-36986828D01*
X171082534Y-37121515D01*
X171048862Y-37222530D01*
X171048862Y-37289874D01*
X171082534Y-37390889D01*
X171250893Y-37559248D01*
X171351908Y-37592919D01*
X171419251Y-37592919D01*
X171520267Y-37559248D01*
X171654954Y-37424561D01*
X171688625Y-37323545D01*
X171688625Y-37256202D01*
X171654954Y-37155187D01*
X172092687Y-36986828D02*
X172631435Y-36448080D01*
X173607915Y-36010347D02*
X173203854Y-36414408D01*
X173405885Y-36212377D02*
X172698778Y-35505271D01*
X172732450Y-35673629D01*
X172732450Y-35808316D01*
X172698778Y-35909332D01*
X174281350Y-35336912D02*
X173877289Y-35740973D01*
X174079320Y-35538942D02*
X173372213Y-34831836D01*
X173405885Y-35000194D01*
X173405885Y-35134881D01*
X173372213Y-35235897D01*
X170432745Y-36086718D02*
X169860325Y-35985702D01*
X170028684Y-36490779D02*
X169321577Y-35783672D01*
X169590951Y-35514298D01*
X169691966Y-35480626D01*
X169759310Y-35480626D01*
X169860325Y-35514298D01*
X169961340Y-35615313D01*
X169995012Y-35716328D01*
X169995012Y-35783672D01*
X169961340Y-35884687D01*
X169691966Y-36154061D01*
X169961340Y-35143909D02*
X170399073Y-34706176D01*
X170432745Y-35211252D01*
X170533760Y-35110237D01*
X170634775Y-35076565D01*
X170702119Y-35076565D01*
X170803134Y-35110237D01*
X170971493Y-35278596D01*
X171005164Y-35379611D01*
X171005164Y-35446954D01*
X170971493Y-35547970D01*
X170769462Y-35750000D01*
X170668447Y-35783672D01*
X170601103Y-35783672D01*
X171106180Y-34605161D02*
X171005164Y-34638832D01*
X170937821Y-34638832D01*
X170836806Y-34605161D01*
X170803134Y-34571489D01*
X170769462Y-34470474D01*
X170769462Y-34403130D01*
X170803134Y-34302115D01*
X170937821Y-34167428D01*
X171038836Y-34133756D01*
X171106180Y-34133756D01*
X171207195Y-34167428D01*
X171240867Y-34201100D01*
X171274538Y-34302115D01*
X171274538Y-34369458D01*
X171240867Y-34470474D01*
X171106180Y-34605161D01*
X171072508Y-34706176D01*
X171072508Y-34773519D01*
X171106180Y-34874535D01*
X171240867Y-35009222D01*
X171341882Y-35042893D01*
X171409225Y-35042893D01*
X171510241Y-35009222D01*
X171644928Y-34874535D01*
X171678600Y-34773519D01*
X171678600Y-34706176D01*
X171644928Y-34605161D01*
X171510241Y-34470474D01*
X171409225Y-34436802D01*
X171341882Y-34436802D01*
X171240867Y-34470474D01*
X171813287Y-34167428D02*
X172352035Y-33628680D01*
X172183676Y-32921573D02*
X172621409Y-32483840D01*
X172655080Y-32988916D01*
X172756096Y-32887901D01*
X172857111Y-32854229D01*
X172924454Y-32854229D01*
X173025470Y-32887901D01*
X173193828Y-33056260D01*
X173227500Y-33157275D01*
X173227500Y-33224619D01*
X173193828Y-33325634D01*
X172991798Y-33527664D01*
X172890783Y-33561336D01*
X172823439Y-33561336D01*
X173059141Y-32046107D02*
X173126485Y-31978764D01*
X173227500Y-31945092D01*
X173294844Y-31945092D01*
X173395859Y-31978764D01*
X173564218Y-32079779D01*
X173732576Y-32248138D01*
X173833592Y-32416497D01*
X173867263Y-32517512D01*
X173867263Y-32584855D01*
X173833592Y-32685871D01*
X173766248Y-32753214D01*
X173665233Y-32786886D01*
X173597889Y-32786886D01*
X173496874Y-32753214D01*
X173328515Y-32652199D01*
X173160157Y-32483840D01*
X173059141Y-32315481D01*
X173025470Y-32214466D01*
X173025470Y-32147123D01*
X173059141Y-32046107D01*
X104481570Y-45317975D02*
X104815036Y-44841877D01*
X104286130Y-44781008D02*
X105225823Y-44438988D01*
X105356116Y-44796966D01*
X105343942Y-44902747D01*
X105315482Y-44963781D01*
X105242274Y-45041102D01*
X105108032Y-45089962D01*
X105002251Y-45077788D01*
X104941217Y-45049327D01*
X104863896Y-44976119D01*
X104733603Y-44618141D01*
X105714423Y-45781406D02*
X105649276Y-45602417D01*
X105571956Y-45529209D01*
X105510922Y-45500748D01*
X105344106Y-45460114D01*
X105148831Y-45480513D01*
X104790853Y-45610806D01*
X104717645Y-45688127D01*
X104689184Y-45749161D01*
X104677010Y-45854942D01*
X104742157Y-46033931D01*
X104819478Y-46107139D01*
X104880511Y-46135600D01*
X104986293Y-46147774D01*
X105210029Y-46066340D01*
X105283237Y-45989020D01*
X105311697Y-45927986D01*
X105323871Y-45822204D01*
X105258725Y-45643215D01*
X105181404Y-45570008D01*
X105120370Y-45541547D01*
X105014589Y-45529373D01*
X105861003Y-46184131D02*
X106089016Y-46810593D01*
X105002744Y-46749888D01*
X105637595Y-47380298D02*
X105898182Y-48096254D01*
X106805630Y-48779473D02*
X106642763Y-48332000D01*
X106179004Y-48450119D01*
X106240038Y-48478580D01*
X106317358Y-48551788D01*
X106398792Y-48775524D01*
X106386618Y-48881305D01*
X106358157Y-48942339D01*
X106284949Y-49019660D01*
X106061213Y-49101093D01*
X105955432Y-49088919D01*
X105894398Y-49060459D01*
X105817077Y-48987251D01*
X105735644Y-48763515D01*
X105747818Y-48657733D01*
X105776279Y-48596699D01*
X106045091Y-49613713D02*
X106110237Y-49792702D01*
X106187558Y-49865910D01*
X106248592Y-49894370D01*
X106415407Y-49935005D01*
X106610683Y-49914605D01*
X106968661Y-49784312D01*
X107041869Y-49706991D01*
X107070330Y-49645957D01*
X107082503Y-49540176D01*
X107017357Y-49361187D01*
X106940036Y-49287979D01*
X106879002Y-49259519D01*
X106773221Y-49247345D01*
X106549485Y-49328778D01*
X106476277Y-49406099D01*
X106447816Y-49467133D01*
X106435642Y-49572914D01*
X106500789Y-49751903D01*
X106578110Y-49825111D01*
X106639144Y-49853571D01*
X106744925Y-49865745D01*
X102508381Y-40638745D02*
X102609397Y-40066325D01*
X102104320Y-40234684D02*
X102811427Y-39527577D01*
X103080801Y-39796951D01*
X103114473Y-39897966D01*
X103114473Y-39965310D01*
X103080801Y-40066325D01*
X102979786Y-40167340D01*
X102878771Y-40201012D01*
X102811427Y-40201012D01*
X102710412Y-40167340D01*
X102441038Y-39897966D01*
X103316503Y-40638745D02*
X103282832Y-40537729D01*
X103282832Y-40470386D01*
X103316503Y-40369371D01*
X103350175Y-40335699D01*
X103451190Y-40302027D01*
X103518534Y-40302027D01*
X103619549Y-40335699D01*
X103754236Y-40470386D01*
X103787908Y-40571401D01*
X103787908Y-40638745D01*
X103754236Y-40739760D01*
X103720564Y-40773432D01*
X103619549Y-40807103D01*
X103552206Y-40807103D01*
X103451190Y-40773432D01*
X103316503Y-40638745D01*
X103215488Y-40605073D01*
X103148145Y-40605073D01*
X103047129Y-40638745D01*
X102912442Y-40773432D01*
X102878771Y-40874447D01*
X102878771Y-40941790D01*
X102912442Y-41042806D01*
X103047129Y-41177493D01*
X103148145Y-41211164D01*
X103215488Y-41211164D01*
X103316503Y-41177493D01*
X103451190Y-41042806D01*
X103484862Y-40941790D01*
X103484862Y-40874447D01*
X103451190Y-40773432D01*
X104528687Y-41244836D02*
X104191969Y-40908119D01*
X103821580Y-41211164D01*
X103888923Y-41211164D01*
X103989938Y-41244836D01*
X104158297Y-41413195D01*
X104191969Y-41514210D01*
X104191969Y-41581554D01*
X104158297Y-41682569D01*
X103989938Y-41850928D01*
X103888923Y-41884600D01*
X103821580Y-41884599D01*
X103720564Y-41850928D01*
X103552206Y-41682569D01*
X103518534Y-41581554D01*
X103518534Y-41514210D01*
X104427671Y-42019287D02*
X104966419Y-42558035D01*
X105673526Y-42389676D02*
X106144931Y-42861080D01*
X105134778Y-43265141D01*
X106346961Y-43063111D02*
X106818366Y-43534515D01*
X105808213Y-43938576D01*
X101314581Y-36384245D02*
X101415597Y-35811825D01*
X100910520Y-35980184D02*
X101617627Y-35273077D01*
X101887001Y-35542451D01*
X101920673Y-35643466D01*
X101920673Y-35710810D01*
X101887001Y-35811825D01*
X101785986Y-35912840D01*
X101684971Y-35946512D01*
X101617627Y-35946512D01*
X101516612Y-35912840D01*
X101247238Y-35643466D01*
X102223719Y-36013855D02*
X102291062Y-36013855D01*
X102392077Y-36047527D01*
X102560436Y-36215886D01*
X102594108Y-36316901D01*
X102594108Y-36384245D01*
X102560436Y-36485260D01*
X102493093Y-36552603D01*
X102358406Y-36619947D01*
X101550284Y-36619947D01*
X101988016Y-37057680D01*
X102796138Y-37057680D02*
X102762467Y-36956664D01*
X102762467Y-36889321D01*
X102796138Y-36788306D01*
X102829810Y-36754634D01*
X102930825Y-36720962D01*
X102998169Y-36720962D01*
X103099184Y-36754634D01*
X103233871Y-36889321D01*
X103267543Y-36990336D01*
X103267543Y-37057680D01*
X103233871Y-37158695D01*
X103200200Y-37192367D01*
X103099184Y-37226038D01*
X103031841Y-37226038D01*
X102930825Y-37192367D01*
X102796138Y-37057680D01*
X102695123Y-37024008D01*
X102627780Y-37024008D01*
X102526764Y-37057680D01*
X102392077Y-37192367D01*
X102358406Y-37293382D01*
X102358406Y-37360725D01*
X102392077Y-37461741D01*
X102526764Y-37596428D01*
X102627780Y-37630099D01*
X102695123Y-37630100D01*
X102796138Y-37596428D01*
X102930825Y-37461741D01*
X102964497Y-37360725D01*
X102964497Y-37293382D01*
X102930825Y-37192367D01*
X103233871Y-37764787D02*
X103772619Y-38303535D01*
X104446054Y-38236191D02*
X104513398Y-38236191D01*
X104614413Y-38269863D01*
X104782772Y-38438222D01*
X104816444Y-38539237D01*
X104816444Y-38606580D01*
X104782772Y-38707596D01*
X104715428Y-38774939D01*
X104580741Y-38842283D01*
X103772619Y-38842283D01*
X104210352Y-39280015D01*
X104883787Y-39953450D02*
X104479726Y-39549389D01*
X104681757Y-39751420D02*
X105388863Y-39044313D01*
X105220505Y-39077985D01*
X105085818Y-39077985D01*
X104984802Y-39044313D01*
X101390781Y-33107645D02*
X101491797Y-32535225D01*
X100986720Y-32703584D02*
X101693827Y-31996477D01*
X101963201Y-32265851D01*
X101996873Y-32366866D01*
X101996873Y-32434210D01*
X101963201Y-32535225D01*
X101862186Y-32636240D01*
X101761171Y-32669912D01*
X101693827Y-32669912D01*
X101592812Y-32636240D01*
X101323438Y-32366866D01*
X102468277Y-33242332D02*
X101996873Y-33713736D01*
X102569293Y-32804599D02*
X101895858Y-33141316D01*
X102333590Y-33579049D01*
X103007025Y-33309675D02*
X103478430Y-33781080D01*
X102468277Y-34185141D01*
X103310071Y-34488187D02*
X103848819Y-35026935D01*
X104690613Y-35464667D02*
X104219209Y-35936072D01*
X104791628Y-35026935D02*
X104118193Y-35363652D01*
X104555926Y-35801385D01*
X105431392Y-35734041D02*
X105498735Y-35801385D01*
X105532407Y-35902400D01*
X105532407Y-35969744D01*
X105498735Y-36070759D01*
X105397720Y-36239118D01*
X105229361Y-36407476D01*
X105061002Y-36508492D01*
X104959987Y-36542163D01*
X104892644Y-36542163D01*
X104791628Y-36508492D01*
X104724285Y-36441148D01*
X104690613Y-36340133D01*
X104690613Y-36272789D01*
X104724285Y-36171774D01*
X104825300Y-36003415D01*
X104993659Y-35835057D01*
X105162018Y-35734041D01*
X105263033Y-35700370D01*
X105330376Y-35700370D01*
X105431392Y-35734041D01*
D11*
%TO.C,J2*%
X110252475Y-71752551D02*
X109294994Y-62642730D01*
X109294994Y-62642730D02*
X110990654Y-62464509D01*
X111948135Y-71574329D02*
X110252475Y-71752551D01*
X113947124Y-71364227D02*
X115856606Y-71163533D01*
X114899125Y-62053712D02*
X112989643Y-62254407D01*
%TO.C,J13*%
X110042000Y-73764000D02*
X110042000Y-85564000D01*
X106992000Y-73764000D02*
X106992000Y-85564000D01*
D12*
X126992000Y-86364000D02*
X126992000Y-83364000D01*
X118292000Y-87864000D02*
X125492000Y-87864000D01*
X112496600Y-87863680D02*
X115224560Y-87863680D01*
X112492000Y-73114000D02*
X112492000Y-87864000D01*
X115270280Y-73111360D02*
X112486440Y-73111360D01*
X125492000Y-73114000D02*
X118292000Y-73114000D01*
D11*
X128846000Y-82703840D02*
X129546000Y-82303840D01*
X129546000Y-82303840D02*
X129546000Y-83103840D01*
X129546000Y-83103840D02*
X128846000Y-82703840D01*
X110542000Y-86064000D02*
G75*
G02*
X110042000Y-85564000I0J500000D01*
G01*
X107492000Y-86064000D02*
G75*
G02*
X106992000Y-85564000I0J500000D01*
G01*
X106992000Y-73764000D02*
G75*
G02*
X107492000Y-73264000I500000J0D01*
G01*
X110042000Y-73764000D02*
G75*
G02*
X110542000Y-73264000I500000J0D01*
G01*
%TO.C,J12*%
X105690000Y-24006500D02*
X105690000Y-29206500D01*
X166710000Y-24006500D02*
X105690000Y-24006500D01*
X169310000Y-29206500D02*
X105690000Y-29206500D01*
X166710000Y-24006500D02*
X166710000Y-26606500D01*
X166710000Y-26606500D02*
X169310000Y-26606500D01*
X169310000Y-26606500D02*
X169310000Y-29206500D01*
X167980000Y-24006500D02*
X169310000Y-24006500D01*
X169310000Y-24006500D02*
X169310000Y-25336500D01*
X138980000Y-21606500D02*
X173060000Y-21606500D01*
X173060000Y-21606500D02*
X173060000Y-31606500D01*
X173060000Y-31606500D02*
X101940000Y-31606500D01*
X101940000Y-31606500D02*
X101940000Y-21606500D01*
X101940000Y-21606500D02*
X135980000Y-21606500D01*
D10*
%TO.C,kibuzzard-61E5068C*%
G36*
X146936619Y-54186931D02*
G01*
X147049331Y-54154387D01*
X147087431Y-54064694D01*
X147076319Y-54008337D01*
X147046156Y-53975000D01*
X147001706Y-53959125D01*
X146949319Y-53955156D01*
X146903281Y-53956744D01*
X146860419Y-53961506D01*
X146860419Y-54186931D01*
X146936619Y-54186931D01*
G37*
G36*
X146860419Y-54348856D02*
G01*
X146860419Y-54615556D01*
X146905663Y-54620319D01*
X146954081Y-54621906D01*
X147019169Y-54616350D01*
X147075525Y-54595713D01*
X147116006Y-54552850D01*
X147131881Y-54482206D01*
X147086638Y-54379813D01*
X146965194Y-54348856D01*
X146860419Y-54348856D01*
G37*
G36*
X147617656Y-54406006D02*
G01*
X147626586Y-54496494D01*
X147653375Y-54567931D01*
X147700008Y-54614366D01*
X147768469Y-54629844D01*
X147835342Y-54614366D01*
X147883563Y-54567931D01*
X147912733Y-54496494D01*
X147922456Y-54406006D01*
X147913527Y-54315717D01*
X147886738Y-54244875D01*
X147840105Y-54199036D01*
X147771644Y-54183756D01*
X147704770Y-54199036D01*
X147656550Y-54244875D01*
X147627380Y-54315717D01*
X147617656Y-54406006D01*
G37*
G36*
X148411406Y-54406006D02*
G01*
X148420336Y-54496494D01*
X148447125Y-54567931D01*
X148493758Y-54614366D01*
X148562219Y-54629844D01*
X148629092Y-54614366D01*
X148677313Y-54567931D01*
X148706483Y-54496494D01*
X148716206Y-54406006D01*
X148707277Y-54315717D01*
X148680488Y-54244875D01*
X148633855Y-54199036D01*
X148565394Y-54183756D01*
X148498520Y-54199036D01*
X148450300Y-54244875D01*
X148421130Y-54315717D01*
X148411406Y-54406006D01*
G37*
G36*
X146665156Y-53272664D02*
G01*
X146919156Y-53785294D01*
X147019963Y-53791048D01*
X147100131Y-53808312D01*
X147209669Y-53868637D01*
X147263644Y-53951981D01*
X147518438Y-54121050D01*
X147569833Y-54075409D01*
X147630356Y-54041675D01*
X147698222Y-54020839D01*
X147771644Y-54013894D01*
X147846058Y-54020839D01*
X147913725Y-54041675D01*
X147973653Y-54075409D01*
X148024850Y-54121050D01*
X148239163Y-54244875D01*
X148270516Y-54177803D01*
X148312188Y-54121050D01*
X148363583Y-54075409D01*
X148424106Y-54041675D01*
X148491972Y-54020839D01*
X148565394Y-54013894D01*
X148639808Y-54020839D01*
X148707475Y-54041675D01*
X148767403Y-54075409D01*
X148818600Y-54121050D01*
X149017831Y-54194869D01*
X149017831Y-54032944D01*
X149187694Y-54032944D01*
X149187694Y-53845619D01*
X149382956Y-53813869D01*
X149382956Y-54032944D01*
X149695694Y-54032944D01*
X149695694Y-54194869D01*
X149382956Y-54194869D01*
X150886319Y-54617144D01*
X150886319Y-54067869D01*
X150784719Y-54124225D01*
X150687881Y-54163119D01*
X150624381Y-54001194D01*
X150706931Y-53964681D01*
X150795831Y-53915469D01*
X150879969Y-53858319D01*
X150948231Y-53796406D01*
X151081581Y-53796406D01*
X151081581Y-54617144D01*
X151276844Y-54617144D01*
X151276844Y-54779069D01*
X150679944Y-54779069D01*
X150679944Y-54617144D01*
X150886319Y-54617144D01*
X149382956Y-54194869D01*
X149382956Y-54496494D01*
X149390894Y-54563169D01*
X149413119Y-54602856D01*
X149448044Y-54621906D01*
X149494081Y-54626669D01*
X149544088Y-54625081D01*
X149588538Y-54619525D01*
X149632988Y-54607619D01*
X149682994Y-54586981D01*
X149709981Y-54755256D01*
X149593300Y-54787006D01*
X149471856Y-54796531D01*
X149351206Y-54785419D01*
X149262306Y-54742556D01*
X149206744Y-54652863D01*
X149192456Y-54585989D01*
X149187694Y-54501256D01*
X149187694Y-54194869D01*
X149017831Y-54194869D01*
X148818600Y-54121050D01*
X148860073Y-54177803D01*
X148890831Y-54244875D01*
X148909881Y-54320877D01*
X148916231Y-54404419D01*
X148909881Y-54489152D01*
X148890831Y-54565550D01*
X148860272Y-54632820D01*
X148819394Y-54690169D01*
X148768792Y-54736603D01*
X148709063Y-54771131D01*
X148640998Y-54792562D01*
X148565394Y-54799706D01*
X148489789Y-54792562D01*
X148421725Y-54771131D01*
X148361797Y-54736603D01*
X148310600Y-54690169D01*
X148269127Y-54632820D01*
X148238369Y-54565550D01*
X148219319Y-54489152D01*
X148212969Y-54404419D01*
X148219517Y-54320877D01*
X148239163Y-54244875D01*
X148024850Y-54121050D01*
X148066323Y-54177803D01*
X148097081Y-54244875D01*
X148116131Y-54320877D01*
X148122481Y-54404419D01*
X148116131Y-54489152D01*
X148097081Y-54565550D01*
X148066522Y-54632820D01*
X148025644Y-54690169D01*
X147975042Y-54736603D01*
X147915313Y-54771131D01*
X147847248Y-54792562D01*
X147771644Y-54799706D01*
X147696039Y-54792562D01*
X147627975Y-54771131D01*
X147568047Y-54736603D01*
X147516850Y-54690169D01*
X147475377Y-54632820D01*
X147444619Y-54565550D01*
X147425569Y-54489152D01*
X147419219Y-54404419D01*
X147425767Y-54320877D01*
X147445413Y-54244875D01*
X147476766Y-54177803D01*
X147518438Y-54121050D01*
X147263644Y-53951981D01*
X147277931Y-54044056D01*
X147269398Y-54109937D01*
X147243800Y-54167881D01*
X147152519Y-54253606D01*
X147236458Y-54296469D01*
X147288250Y-54352031D01*
X147315039Y-54415531D01*
X147323969Y-54482206D01*
X147316428Y-54563764D01*
X147293806Y-54630638D01*
X147212050Y-54725888D01*
X147155694Y-54756447D01*
X147089813Y-54776688D01*
X147016589Y-54787998D01*
X146938206Y-54791769D01*
X146871928Y-54789983D01*
X146803269Y-54784625D01*
X146733816Y-54775695D01*
X146665156Y-54763194D01*
X146665156Y-53809106D01*
X146787394Y-53792438D01*
X146919156Y-53785294D01*
X146665156Y-53272664D01*
X146466719Y-53272664D01*
X146366757Y-53277574D01*
X146267759Y-53292259D01*
X146170676Y-53316577D01*
X146076444Y-53350294D01*
X145985971Y-53393085D01*
X145900128Y-53444537D01*
X145819741Y-53504156D01*
X145745586Y-53571367D01*
X145678375Y-53645523D01*
X145618756Y-53725909D01*
X145567303Y-53811752D01*
X145524513Y-53902225D01*
X145490796Y-53996457D01*
X145466478Y-54093540D01*
X145451793Y-54192539D01*
X145446882Y-54292500D01*
X145451793Y-54392461D01*
X145466478Y-54491460D01*
X145490796Y-54588543D01*
X145524513Y-54682775D01*
X145567303Y-54773248D01*
X145618756Y-54859091D01*
X145678375Y-54939477D01*
X145745586Y-55013633D01*
X145819741Y-55080844D01*
X145900128Y-55140463D01*
X145985971Y-55191915D01*
X146076444Y-55234706D01*
X146170676Y-55268423D01*
X146267759Y-55292741D01*
X146366757Y-55307426D01*
X146466719Y-55312336D01*
X146665156Y-55312336D01*
X151276844Y-55312336D01*
X151475281Y-55312336D01*
X151575243Y-55307426D01*
X151674241Y-55292741D01*
X151771324Y-55268423D01*
X151865556Y-55234706D01*
X151956029Y-55191915D01*
X152041872Y-55140463D01*
X152122259Y-55080844D01*
X152196415Y-55013633D01*
X152263625Y-54939477D01*
X152323244Y-54859091D01*
X152374697Y-54773248D01*
X152417487Y-54682775D01*
X152451204Y-54588543D01*
X152475522Y-54491460D01*
X152490207Y-54392461D01*
X152495118Y-54292500D01*
X152490207Y-54192539D01*
X152475522Y-54093540D01*
X152451204Y-53996457D01*
X152417487Y-53902225D01*
X152374697Y-53811752D01*
X152323244Y-53725909D01*
X152263625Y-53645523D01*
X152196415Y-53571367D01*
X152122259Y-53504156D01*
X152041872Y-53444537D01*
X151956029Y-53393085D01*
X151865556Y-53350294D01*
X151771324Y-53316577D01*
X151674241Y-53292259D01*
X151575243Y-53277574D01*
X151475281Y-53272664D01*
X151276844Y-53272664D01*
X146665156Y-53272664D01*
G37*
%TO.C,kibuzzard-61E5067C*%
G36*
X146931856Y-56986487D02*
G01*
X147044569Y-56953944D01*
X147082669Y-56864250D01*
X147071556Y-56807894D01*
X147041394Y-56774556D01*
X146996944Y-56758681D01*
X146944556Y-56754712D01*
X146898519Y-56756300D01*
X146855656Y-56761062D01*
X146855656Y-56986487D01*
X146931856Y-56986487D01*
G37*
G36*
X146855656Y-57148413D02*
G01*
X146855656Y-57415113D01*
X146900900Y-57419875D01*
X146949319Y-57421463D01*
X147014406Y-57415906D01*
X147070762Y-57395269D01*
X147111244Y-57352406D01*
X147127119Y-57281763D01*
X147081875Y-57179369D01*
X146960431Y-57148413D01*
X146855656Y-57148413D01*
G37*
G36*
X147612894Y-57205563D02*
G01*
X147621823Y-57296050D01*
X147648612Y-57367488D01*
X147695245Y-57413922D01*
X147763706Y-57429400D01*
X147830580Y-57413922D01*
X147878800Y-57367488D01*
X147907970Y-57296050D01*
X147917694Y-57205563D01*
X147908764Y-57115273D01*
X147881975Y-57044431D01*
X147835342Y-56998592D01*
X147766881Y-56983312D01*
X147700008Y-56998592D01*
X147651787Y-57044431D01*
X147622617Y-57115273D01*
X147612894Y-57205563D01*
G37*
G36*
X148406644Y-57205563D02*
G01*
X148415573Y-57296050D01*
X148442362Y-57367488D01*
X148488995Y-57413922D01*
X148557456Y-57429400D01*
X148624330Y-57413922D01*
X148672550Y-57367488D01*
X148701720Y-57296050D01*
X148711444Y-57205563D01*
X148702514Y-57115273D01*
X148675725Y-57044431D01*
X148629092Y-56998592D01*
X148560631Y-56983312D01*
X148493758Y-56998592D01*
X148445537Y-57044431D01*
X148416367Y-57115273D01*
X148406644Y-57205563D01*
G37*
G36*
X151105394Y-57084912D02*
G01*
X151029194Y-57069037D01*
X151004587Y-57142856D01*
X150941881Y-57173813D01*
X150876794Y-57142856D01*
X150852981Y-57069037D01*
X150876794Y-56994425D01*
X150941881Y-56962675D01*
X151004587Y-56994425D01*
X151029194Y-57069037D01*
X151105394Y-57084912D01*
X151100719Y-56981637D01*
X151086697Y-56896176D01*
X151063325Y-56828531D01*
X151011533Y-56762452D01*
X150940294Y-56740425D01*
X150870047Y-56762452D01*
X150818056Y-56828531D01*
X150794244Y-56896176D01*
X150779956Y-56981637D01*
X150775194Y-57084912D01*
X150779956Y-57189070D01*
X150794244Y-57275060D01*
X150818056Y-57342881D01*
X150870047Y-57408961D01*
X150940294Y-57430988D01*
X151011533Y-57408961D01*
X151063325Y-57342881D01*
X151086697Y-57275060D01*
X151100719Y-57189070D01*
X151105394Y-57084912D01*
G37*
G36*
X146660394Y-56061107D02*
G01*
X146914394Y-56584850D01*
X147015200Y-56590605D01*
X147095369Y-56607869D01*
X147204906Y-56668194D01*
X147258881Y-56751537D01*
X147513675Y-56920606D01*
X147565070Y-56874966D01*
X147625594Y-56841231D01*
X147693459Y-56820395D01*
X147766881Y-56813450D01*
X147841295Y-56820395D01*
X147908962Y-56841231D01*
X147968891Y-56874966D01*
X148020087Y-56920606D01*
X148234400Y-57044431D01*
X148265753Y-56977359D01*
X148307425Y-56920606D01*
X148358820Y-56874966D01*
X148419344Y-56841231D01*
X148487209Y-56820395D01*
X148560631Y-56813450D01*
X148635045Y-56820395D01*
X148702712Y-56841231D01*
X148762641Y-56874966D01*
X148813837Y-56920606D01*
X149013069Y-56994425D01*
X149013069Y-56832500D01*
X149182931Y-56832500D01*
X149182931Y-56645175D01*
X149378194Y-56613425D01*
X149378194Y-56832500D01*
X149690931Y-56832500D01*
X149690931Y-56994425D01*
X149378194Y-56994425D01*
X150598981Y-57084912D01*
X150604538Y-56964461D01*
X150621206Y-56860281D01*
X150648988Y-56772373D01*
X150687881Y-56700737D01*
X150755438Y-56630182D01*
X150839576Y-56587849D01*
X150940294Y-56573737D01*
X151042599Y-56587760D01*
X151127266Y-56629829D01*
X151194294Y-56699944D01*
X151232493Y-56771332D01*
X151259778Y-56859289D01*
X151276149Y-56963816D01*
X151281606Y-57084912D01*
X151276149Y-57206753D01*
X151259778Y-57311925D01*
X151232493Y-57400428D01*
X151194294Y-57472263D01*
X151127266Y-57542818D01*
X151042599Y-57585151D01*
X150940294Y-57599263D01*
X150837988Y-57585151D01*
X150753322Y-57542818D01*
X150686294Y-57472263D01*
X150648095Y-57400428D01*
X150620809Y-57311925D01*
X150604438Y-57206753D01*
X150598981Y-57084912D01*
X149378194Y-56994425D01*
X149378194Y-57296050D01*
X149386131Y-57362725D01*
X149408356Y-57402413D01*
X149443281Y-57421463D01*
X149489319Y-57426225D01*
X149539325Y-57424638D01*
X149583775Y-57419081D01*
X149628225Y-57407175D01*
X149678231Y-57386538D01*
X149705219Y-57554813D01*
X149588538Y-57586562D01*
X149467094Y-57596088D01*
X149346444Y-57584975D01*
X149257544Y-57542113D01*
X149201981Y-57452419D01*
X149187694Y-57385545D01*
X149182931Y-57300813D01*
X149182931Y-56994425D01*
X149013069Y-56994425D01*
X148813837Y-56920606D01*
X148855311Y-56977359D01*
X148886069Y-57044431D01*
X148905119Y-57120433D01*
X148911469Y-57203975D01*
X148905119Y-57288708D01*
X148886069Y-57365106D01*
X148855509Y-57432377D01*
X148814631Y-57489725D01*
X148764030Y-57536159D01*
X148704300Y-57570688D01*
X148636236Y-57592119D01*
X148560631Y-57599263D01*
X148485027Y-57592119D01*
X148416962Y-57570688D01*
X148357034Y-57536159D01*
X148305837Y-57489725D01*
X148264364Y-57432377D01*
X148233606Y-57365106D01*
X148214556Y-57288708D01*
X148208206Y-57203975D01*
X148214755Y-57120433D01*
X148234400Y-57044431D01*
X148020087Y-56920606D01*
X148061561Y-56977359D01*
X148092319Y-57044431D01*
X148111369Y-57120433D01*
X148117719Y-57203975D01*
X148111369Y-57288708D01*
X148092319Y-57365106D01*
X148061759Y-57432377D01*
X148020881Y-57489725D01*
X147970280Y-57536159D01*
X147910550Y-57570688D01*
X147842486Y-57592119D01*
X147766881Y-57599263D01*
X147691277Y-57592119D01*
X147623212Y-57570688D01*
X147563284Y-57536159D01*
X147512087Y-57489725D01*
X147470614Y-57432377D01*
X147439856Y-57365106D01*
X147420806Y-57288708D01*
X147414456Y-57203975D01*
X147421005Y-57120433D01*
X147440650Y-57044431D01*
X147472003Y-56977359D01*
X147513675Y-56920606D01*
X147258881Y-56751537D01*
X147273169Y-56843612D01*
X147264636Y-56909494D01*
X147239037Y-56967437D01*
X147147756Y-57053162D01*
X147231695Y-57096025D01*
X147283487Y-57151588D01*
X147310277Y-57215088D01*
X147319206Y-57281763D01*
X147311666Y-57363320D01*
X147289044Y-57430194D01*
X147207287Y-57525444D01*
X147150931Y-57556003D01*
X147085050Y-57576244D01*
X147011827Y-57587555D01*
X146933444Y-57591325D01*
X146867166Y-57589539D01*
X146798506Y-57584181D01*
X146729053Y-57575252D01*
X146660394Y-57562750D01*
X146660394Y-56608662D01*
X146782631Y-56591994D01*
X146914394Y-56584850D01*
X146660394Y-56061107D01*
X146461956Y-56061107D01*
X146361450Y-56066045D01*
X146261912Y-56080810D01*
X146164300Y-56105260D01*
X146069555Y-56139161D01*
X145978589Y-56182184D01*
X145892279Y-56233917D01*
X145811454Y-56293861D01*
X145736894Y-56361438D01*
X145669317Y-56435998D01*
X145609373Y-56516822D01*
X145557641Y-56603133D01*
X145514617Y-56694099D01*
X145480717Y-56788844D01*
X145456266Y-56886456D01*
X145441501Y-56985994D01*
X145436564Y-57086500D01*
X145441501Y-57187006D01*
X145456266Y-57286544D01*
X145480717Y-57384156D01*
X145514617Y-57478901D01*
X145557641Y-57569867D01*
X145609373Y-57656178D01*
X145669317Y-57737002D01*
X145736894Y-57811562D01*
X145811454Y-57879139D01*
X145892279Y-57939083D01*
X145978589Y-57990816D01*
X146069555Y-58033839D01*
X146164300Y-58067740D01*
X146261912Y-58092190D01*
X146361450Y-58106955D01*
X146461956Y-58111893D01*
X146660394Y-58111893D01*
X151281606Y-58111893D01*
X151480044Y-58111893D01*
X151580550Y-58106955D01*
X151680088Y-58092190D01*
X151777700Y-58067740D01*
X151872445Y-58033839D01*
X151963411Y-57990816D01*
X152049721Y-57939083D01*
X152130546Y-57879139D01*
X152205106Y-57811562D01*
X152272683Y-57737002D01*
X152332627Y-57656178D01*
X152384359Y-57569867D01*
X152427383Y-57478901D01*
X152461283Y-57384156D01*
X152485734Y-57286544D01*
X152500499Y-57187006D01*
X152505436Y-57086500D01*
X152500499Y-56985994D01*
X152485734Y-56886456D01*
X152461283Y-56788844D01*
X152427383Y-56694099D01*
X152384359Y-56603133D01*
X152332627Y-56516822D01*
X152272683Y-56435998D01*
X152205106Y-56361438D01*
X152130546Y-56293861D01*
X152049721Y-56233917D01*
X151963411Y-56182184D01*
X151872445Y-56139161D01*
X151777700Y-56105260D01*
X151680088Y-56080810D01*
X151580550Y-56066045D01*
X151480044Y-56061107D01*
X151281606Y-56061107D01*
X146660394Y-56061107D01*
G37*
D11*
%TO.C,C1*%
X133661543Y-58275510D02*
X134031010Y-57906043D01*
X134700990Y-59314957D02*
X135070457Y-58945490D01*
D10*
%TO.C,kibuzzard-61DE6CA1*%
G36*
X132149189Y-53020913D02*
G01*
X132780881Y-53020913D01*
X132780881Y-52425600D01*
X132942806Y-52425600D01*
X132942806Y-52825650D01*
X133163469Y-52825650D01*
X133163469Y-52477988D01*
X133041231Y-52227163D01*
X133027341Y-52168623D01*
X133014244Y-52097781D01*
X133004719Y-52017414D01*
X133001544Y-51930300D01*
X133007695Y-51848941D01*
X133026150Y-51782663D01*
X133096000Y-51689794D01*
X133188869Y-51366738D01*
X133031706Y-51393725D01*
X133008687Y-51290538D01*
X133000948Y-51222672D01*
X132998369Y-51152425D01*
X133003727Y-51068089D01*
X133019800Y-50999231D01*
X133080125Y-50901600D01*
X133175375Y-50849213D01*
X133301581Y-50833338D01*
X133741319Y-50641250D01*
X132695156Y-50641250D01*
X132661819Y-50445988D01*
X133034881Y-50445988D01*
X133008687Y-50366613D01*
X133001544Y-50290413D01*
X133008489Y-50221753D01*
X133029325Y-50161825D01*
X133108700Y-50068956D01*
X133165255Y-50036214D01*
X133231731Y-50012600D01*
X133307138Y-49998312D01*
X133390481Y-49993550D01*
X133475214Y-49999503D01*
X133551613Y-50017362D01*
X133618486Y-50046731D01*
X133674644Y-50087213D01*
X133719689Y-50138409D01*
X133760964Y-49540319D01*
X133700838Y-49620488D01*
X133602214Y-49666922D01*
X133466681Y-49682400D01*
X132833269Y-49682400D01*
X132833269Y-49888775D01*
X132671344Y-49888775D01*
X132671344Y-49487138D01*
X133480969Y-49487138D01*
X133396831Y-49102963D01*
X133304359Y-49095422D01*
X133223794Y-49072800D01*
X133155333Y-49037875D01*
X133099175Y-48993425D01*
X133055320Y-48940641D01*
X133023769Y-48880713D01*
X133004719Y-48816419D01*
X132998369Y-48750538D01*
X133009217Y-48649290D01*
X133041760Y-48565682D01*
X133096000Y-48499713D01*
X133171053Y-48452088D01*
X133266039Y-48423513D01*
X133380956Y-48413988D01*
X133420644Y-48414781D01*
X133453981Y-48417163D01*
X133453981Y-48901350D01*
X133519267Y-48886269D01*
X133569075Y-48841025D01*
X133600627Y-48771969D01*
X133611144Y-48685450D01*
X133598444Y-48573531D01*
X133573044Y-48483838D01*
X133739731Y-48456850D01*
X133769100Y-48564800D01*
X133781006Y-48693388D01*
X133774855Y-48783677D01*
X133756400Y-48864044D01*
X133725841Y-48933894D01*
X133683375Y-48992631D01*
X133629202Y-49039661D01*
X133563519Y-49074388D01*
X133486128Y-49095819D01*
X133396831Y-49102963D01*
X133480969Y-49487138D01*
X133584156Y-49456975D01*
X133611144Y-49380775D01*
X133595269Y-49282350D01*
X133574631Y-49229963D01*
X133731794Y-49204563D01*
X133742906Y-49225994D01*
X133759575Y-49269650D01*
X133774656Y-49335531D01*
X133781006Y-49423638D01*
X133760964Y-49540319D01*
X133719689Y-50138409D01*
X133753225Y-50199925D01*
X133774061Y-50271363D01*
X133781006Y-50352325D01*
X133778228Y-50429319D01*
X133769894Y-50507900D01*
X133757194Y-50580925D01*
X133741319Y-50641250D01*
X133301581Y-50833338D01*
X133746081Y-50833338D01*
X133768306Y-50960338D01*
X133777831Y-51049634D01*
X133781006Y-51149250D01*
X133768306Y-51278631D01*
X133726238Y-51377850D01*
X133650038Y-51441350D01*
X133534944Y-51463575D01*
X133425406Y-51438175D01*
X133353969Y-51369913D01*
X133315075Y-51271488D01*
X133303169Y-51155600D01*
X133306344Y-51083766D01*
X133315869Y-51020663D01*
X133292056Y-51020663D01*
X133199187Y-51055588D01*
X133171208Y-51103213D01*
X133161881Y-51176238D01*
X133169819Y-51283394D01*
X133188869Y-51366738D01*
X133096000Y-51689794D01*
X133203950Y-51641375D01*
X133270030Y-51630659D01*
X133342856Y-51627088D01*
X133763544Y-51627088D01*
X133763544Y-51822350D01*
X133368256Y-51822350D01*
X133278166Y-51828303D01*
X133217444Y-51846163D01*
X133171406Y-51943000D01*
X133172994Y-51986656D01*
X133177756Y-52031900D01*
X133763544Y-52031900D01*
X133763544Y-52227163D01*
X133041231Y-52227163D01*
X133163469Y-52477988D01*
X133325394Y-52477988D01*
X133325394Y-52825650D01*
X133601619Y-52825650D01*
X133601619Y-52390675D01*
X133763544Y-52390675D01*
X133763544Y-53020913D01*
X132780881Y-53020913D01*
X132149189Y-53020913D01*
X132149189Y-53219350D01*
X132154359Y-53324602D01*
X132169822Y-53428840D01*
X132195427Y-53531061D01*
X132230928Y-53630280D01*
X132275983Y-53725541D01*
X132330158Y-53815928D01*
X132392933Y-53900569D01*
X132463701Y-53978649D01*
X132541781Y-54049417D01*
X132626422Y-54112192D01*
X132716809Y-54166367D01*
X132812070Y-54211422D01*
X132911289Y-54246923D01*
X133013510Y-54272528D01*
X133117748Y-54287991D01*
X133223000Y-54293161D01*
X133328252Y-54287991D01*
X133432490Y-54272528D01*
X133534711Y-54246923D01*
X133633930Y-54211422D01*
X133729191Y-54166367D01*
X133819578Y-54112192D01*
X133904219Y-54049417D01*
X133982299Y-53978649D01*
X134053067Y-53900569D01*
X134115842Y-53815928D01*
X134170017Y-53725541D01*
X134215072Y-53630280D01*
X134250573Y-53531061D01*
X134276178Y-53428840D01*
X134291641Y-53324602D01*
X134296811Y-53219350D01*
X134296811Y-53020913D01*
X134296811Y-38927087D01*
X133739731Y-41259125D01*
X133771481Y-41375806D01*
X133781006Y-41497250D01*
X133769894Y-41617900D01*
X133727031Y-41706800D01*
X133637338Y-41762362D01*
X133570464Y-41776650D01*
X133485731Y-41781412D01*
X133179344Y-41781412D01*
X133179344Y-41951275D01*
X133017419Y-41951275D01*
X133017419Y-41781412D01*
X132830094Y-41781412D01*
X132798344Y-41586150D01*
X133017419Y-41586150D01*
X133017419Y-41273412D01*
X133179344Y-41273412D01*
X133179344Y-41586150D01*
X133480969Y-41586150D01*
X133547644Y-41578212D01*
X133587331Y-41555987D01*
X133606381Y-41521062D01*
X133611144Y-41475025D01*
X133609556Y-41425019D01*
X133604000Y-41380569D01*
X133592094Y-41336119D01*
X133571456Y-41286112D01*
X133739731Y-41259125D01*
X134296811Y-38927087D01*
X134296811Y-38728650D01*
X133731794Y-40473312D01*
X133770688Y-40586819D01*
X133781006Y-40684450D01*
X133775450Y-40754498D01*
X133758781Y-40812244D01*
X133694488Y-40894794D01*
X133592094Y-40938450D01*
X133527403Y-40947975D01*
X133453981Y-40951150D01*
X133179344Y-40951150D01*
X133179344Y-41157525D01*
X133017419Y-41157525D01*
X133017419Y-40755887D01*
X133229350Y-40348694D01*
X133162278Y-40317341D01*
X133105525Y-40275669D01*
X133059884Y-40224273D01*
X133026150Y-40163750D01*
X133005314Y-40095884D01*
X132998369Y-40022462D01*
X133005314Y-39948048D01*
X133026150Y-39880381D01*
X133059884Y-39820453D01*
X133105525Y-39769256D01*
X133162278Y-39727783D01*
X133229350Y-39697025D01*
X133305352Y-39677975D01*
X133388894Y-39671625D01*
X133473627Y-39677975D01*
X133550025Y-39697025D01*
X133617295Y-39727584D01*
X133674644Y-39768462D01*
X133721078Y-39819064D01*
X133755606Y-39878794D01*
X133777038Y-39946858D01*
X133784181Y-40022462D01*
X133777038Y-40098067D01*
X133755606Y-40166131D01*
X133721078Y-40226059D01*
X133674644Y-40277256D01*
X133617295Y-40318730D01*
X133550025Y-40349487D01*
X133473627Y-40368537D01*
X133388894Y-40374887D01*
X133305352Y-40368339D01*
X133229350Y-40348694D01*
X133017419Y-40755887D01*
X133479381Y-40755887D01*
X133578600Y-40731281D01*
X133611144Y-40649525D01*
X133604000Y-40584437D01*
X133574631Y-40498712D01*
X133731794Y-40473312D01*
X134296811Y-38728650D01*
X134291641Y-38623398D01*
X133763544Y-38927087D01*
X133763544Y-39122350D01*
X133368256Y-39122350D01*
X133278166Y-39128303D01*
X133217444Y-39146162D01*
X133171406Y-39243000D01*
X133172994Y-39286656D01*
X133177756Y-39331900D01*
X133763544Y-39331900D01*
X133763544Y-39527162D01*
X133041231Y-39527162D01*
X133027341Y-39468623D01*
X133014244Y-39397781D01*
X133004719Y-39317414D01*
X133001544Y-39230300D01*
X133007695Y-39148941D01*
X133026150Y-39082662D01*
X133096000Y-38989794D01*
X133203950Y-38941375D01*
X133270030Y-38930659D01*
X133342856Y-38927087D01*
X133763544Y-38927087D01*
X134291641Y-38623398D01*
X134276178Y-38519160D01*
X134250573Y-38416939D01*
X134215072Y-38317720D01*
X134170017Y-38222459D01*
X134115842Y-38132072D01*
X134053067Y-38047431D01*
X133982299Y-37969351D01*
X133904219Y-37898583D01*
X133819578Y-37835808D01*
X133729191Y-37781633D01*
X133633930Y-37736578D01*
X133534711Y-37701077D01*
X133432490Y-37675472D01*
X133328252Y-37660009D01*
X133223000Y-37654839D01*
X133117748Y-37660009D01*
X132803106Y-40763825D01*
X132893594Y-40800337D01*
X132926931Y-40887650D01*
X132893594Y-40974169D01*
X132803106Y-41009887D01*
X132711031Y-40974169D01*
X132677694Y-40887650D01*
X132711031Y-40800337D01*
X132803106Y-40763825D01*
X133117748Y-37660009D01*
X133013510Y-37675472D01*
X132911289Y-37701077D01*
X132812070Y-37736578D01*
X132716809Y-37781633D01*
X132626422Y-37835808D01*
X132541781Y-37898583D01*
X132803106Y-43938825D01*
X132893594Y-43975337D01*
X132926931Y-44062650D01*
X132893594Y-44149169D01*
X132803106Y-44184887D01*
X132711031Y-44149169D01*
X132677694Y-44062650D01*
X132711031Y-43975337D01*
X132803106Y-43938825D01*
X132541781Y-37898583D01*
X132463701Y-37969351D01*
X132392933Y-38047431D01*
X132780881Y-46810613D01*
X132942806Y-46810613D01*
X133009481Y-44638912D01*
X133028531Y-44537312D01*
X133085681Y-44474606D01*
X133181725Y-44443650D01*
X133244630Y-44437697D01*
X133317456Y-44435712D01*
X133527403Y-44122975D01*
X133453981Y-44126150D01*
X133179344Y-44126150D01*
X133179344Y-44332525D01*
X133017419Y-44332525D01*
X133017419Y-43930887D01*
X133041231Y-43495912D01*
X133027341Y-43437373D01*
X133014244Y-43366531D01*
X133004719Y-43286164D01*
X133001544Y-43199050D01*
X133007695Y-43117691D01*
X133026150Y-43051412D01*
X133096000Y-42958544D01*
X133188869Y-42635487D01*
X133031706Y-42662475D01*
X133008687Y-42559287D01*
X133000948Y-42491422D01*
X132998369Y-42421175D01*
X133003727Y-42336839D01*
X133019800Y-42267981D01*
X133080125Y-42170350D01*
X133175375Y-42117962D01*
X133301581Y-42102087D01*
X133746081Y-42102087D01*
X133768306Y-42229087D01*
X133777831Y-42318384D01*
X133781006Y-42418000D01*
X133768306Y-42547381D01*
X133726238Y-42646600D01*
X133650038Y-42710100D01*
X133534944Y-42732325D01*
X133425406Y-42706925D01*
X133353969Y-42638662D01*
X133315075Y-42540237D01*
X133303169Y-42424350D01*
X133306344Y-42352516D01*
X133315869Y-42289412D01*
X133292056Y-42289412D01*
X133199187Y-42324337D01*
X133171208Y-42371962D01*
X133161881Y-42444987D01*
X133169819Y-42552144D01*
X133188869Y-42635487D01*
X133096000Y-42958544D01*
X133203950Y-42910125D01*
X133270030Y-42899409D01*
X133342856Y-42895837D01*
X133763544Y-42895837D01*
X133763544Y-43091100D01*
X133368256Y-43091100D01*
X133278166Y-43097053D01*
X133217444Y-43114912D01*
X133171406Y-43211750D01*
X133172994Y-43255406D01*
X133177756Y-43300650D01*
X133763544Y-43300650D01*
X133763544Y-43495912D01*
X133041231Y-43495912D01*
X133017419Y-43930887D01*
X133479381Y-43930887D01*
X133578600Y-43906281D01*
X133611144Y-43824525D01*
X133604000Y-43759437D01*
X133574631Y-43673712D01*
X133731794Y-43648312D01*
X133770688Y-43761819D01*
X133781006Y-43859450D01*
X133775450Y-43929498D01*
X133758781Y-43987244D01*
X133694488Y-44069794D01*
X133592094Y-44113450D01*
X133527403Y-44122975D01*
X133317456Y-44435712D01*
X133763544Y-44435712D01*
X133763544Y-44594462D01*
X133307931Y-44594462D01*
X133236494Y-44600019D01*
X133195219Y-44614306D01*
X133176169Y-44634944D01*
X133171406Y-44659550D01*
X133173787Y-44689712D01*
X133182519Y-44718287D01*
X133249194Y-44710350D01*
X133330156Y-44707175D01*
X133479381Y-44707175D01*
X133479381Y-44865925D01*
X133307931Y-44865925D01*
X133201569Y-44881006D01*
X133171406Y-44929425D01*
X133172994Y-44952444D01*
X133177756Y-44978637D01*
X133763544Y-44978637D01*
X133763544Y-45137387D01*
X133045994Y-45137387D01*
X133019006Y-45015150D01*
X133009481Y-44908787D01*
X133019800Y-44834969D01*
X133053931Y-44778612D01*
X133022975Y-44715112D01*
X133009481Y-44638912D01*
X132942806Y-46810613D01*
X132942806Y-47069375D01*
X133396831Y-46721713D01*
X133304359Y-46714172D01*
X133223794Y-46691550D01*
X133155333Y-46656625D01*
X133099175Y-46612175D01*
X133055320Y-46559391D01*
X133023769Y-46499463D01*
X133004719Y-46435169D01*
X132998369Y-46369288D01*
X133009217Y-46268040D01*
X133041760Y-46184432D01*
X133096000Y-46118463D01*
X133171053Y-46070838D01*
X133266039Y-46042263D01*
X133763544Y-45835887D01*
X133066631Y-45835887D01*
X133040834Y-45757108D01*
X133020594Y-45676344D01*
X133007497Y-45587642D01*
X133003131Y-45485050D01*
X133004719Y-45439806D01*
X133010275Y-45377100D01*
X133019800Y-45309631D01*
X133034881Y-45248512D01*
X133215856Y-45283437D01*
X133206331Y-45328681D01*
X133197600Y-45381862D01*
X133192044Y-45434250D01*
X133190456Y-45477112D01*
X133194425Y-45558075D01*
X133209506Y-45639037D01*
X133763544Y-45639037D01*
X133763544Y-45835887D01*
X133266039Y-46042263D01*
X133380956Y-46032738D01*
X133420644Y-46033531D01*
X133453981Y-46035913D01*
X133453981Y-46520100D01*
X133519267Y-46505019D01*
X133569075Y-46459775D01*
X133600627Y-46390719D01*
X133611144Y-46304200D01*
X133598444Y-46192281D01*
X133573044Y-46102588D01*
X133739731Y-46075600D01*
X133769100Y-46183550D01*
X133781006Y-46312138D01*
X133774855Y-46402427D01*
X133756400Y-46482794D01*
X133725841Y-46552644D01*
X133683375Y-46611381D01*
X133629202Y-46658411D01*
X133563519Y-46693138D01*
X133486128Y-46714569D01*
X133396831Y-46721713D01*
X132942806Y-47069375D01*
X133763544Y-47069375D01*
X133763544Y-47266225D01*
X132942806Y-47266225D01*
X132942806Y-47524988D01*
X132780881Y-47524988D01*
X132780881Y-46810613D01*
X132392933Y-38047431D01*
X132330158Y-38132072D01*
X132275983Y-38222459D01*
X132230928Y-38317720D01*
X132195427Y-38416939D01*
X132169822Y-38519160D01*
X132154359Y-38623398D01*
X132149189Y-38728650D01*
X132149189Y-38927087D01*
X132149189Y-53020913D01*
G37*
G36*
X133390481Y-40176450D02*
G01*
X133480969Y-40167520D01*
X133552406Y-40140731D01*
X133598841Y-40094098D01*
X133614319Y-40025637D01*
X133598841Y-39958764D01*
X133552406Y-39910544D01*
X133480969Y-39881373D01*
X133390481Y-39871650D01*
X133300192Y-39880580D01*
X133229350Y-39907369D01*
X133183511Y-39954002D01*
X133168231Y-40022462D01*
X133183511Y-40089336D01*
X133229350Y-40137556D01*
X133300192Y-40166727D01*
X133390481Y-40176450D01*
G37*
G36*
X133385719Y-50191988D02*
G01*
X133293247Y-50200520D01*
X133225381Y-50226119D01*
X133183709Y-50269180D01*
X133169819Y-50330100D01*
X133178550Y-50392806D01*
X133199981Y-50445988D01*
X133604794Y-50445988D01*
X133611144Y-50399156D01*
X133612731Y-50357088D01*
X133599833Y-50288825D01*
X133561138Y-50236438D01*
X133491486Y-50203100D01*
X133385719Y-50191988D01*
G37*
G36*
X133319044Y-48602900D02*
G01*
X133261100Y-48610838D01*
X133211094Y-48636238D01*
X133175375Y-48680688D01*
X133161881Y-48747363D01*
X133174581Y-48813244D01*
X133209506Y-48859281D01*
X133260306Y-48887856D01*
X133319044Y-48901350D01*
X133319044Y-48602900D01*
G37*
G36*
X133319044Y-46221650D02*
G01*
X133261100Y-46229588D01*
X133211094Y-46254988D01*
X133175375Y-46299438D01*
X133161881Y-46366113D01*
X133174581Y-46431994D01*
X133209506Y-46478031D01*
X133260306Y-46506606D01*
X133319044Y-46520100D01*
X133319044Y-46221650D01*
G37*
G36*
X133623844Y-42403712D02*
G01*
X133623050Y-42341800D01*
X133619081Y-42289412D01*
X133447631Y-42289412D01*
X133442075Y-42335450D01*
X133439694Y-42384662D01*
X133443663Y-42443400D01*
X133457156Y-42493406D01*
X133484144Y-42527537D01*
X133530181Y-42540237D01*
X133602413Y-42502137D01*
X133623844Y-42403712D01*
G37*
G36*
X133623844Y-51134963D02*
G01*
X133623050Y-51073050D01*
X133619081Y-51020663D01*
X133447631Y-51020663D01*
X133442075Y-51066700D01*
X133439694Y-51115913D01*
X133443663Y-51174650D01*
X133457156Y-51224656D01*
X133484144Y-51258788D01*
X133530181Y-51271488D01*
X133602413Y-51233388D01*
X133623844Y-51134963D01*
G37*
%TO.C,kibuzzard-61DE6C26*%
G36*
X167486211Y-20526706D02*
G01*
X167589398Y-21249680D01*
X167700523Y-21188164D01*
X167805695Y-21116727D01*
X167891023Y-21039336D01*
X168057711Y-21039336D01*
X168057711Y-22065258D01*
X168301789Y-22065258D01*
X168301789Y-22267664D01*
X167555664Y-22267664D01*
X167555664Y-22065258D01*
X167813633Y-22065258D01*
X167813633Y-21378664D01*
X167686633Y-21449109D01*
X167565586Y-21497727D01*
X167486211Y-21295320D01*
X167589398Y-21249680D01*
X167486211Y-20526706D01*
X167238164Y-20526706D01*
X167127719Y-20532132D01*
X167018337Y-20548357D01*
X166911073Y-20575225D01*
X166806959Y-20612478D01*
X166706997Y-20659756D01*
X166612151Y-20716605D01*
X166523333Y-20782476D01*
X166441400Y-20856736D01*
X166367140Y-20938669D01*
X166301269Y-21027487D01*
X166244420Y-21122333D01*
X166197142Y-21222295D01*
X166159889Y-21326409D01*
X166133021Y-21433673D01*
X166116796Y-21543055D01*
X166111370Y-21653500D01*
X166116796Y-21763945D01*
X166133021Y-21873327D01*
X166159889Y-21980591D01*
X166197142Y-22084705D01*
X166244420Y-22184667D01*
X166301269Y-22279513D01*
X166367140Y-22368331D01*
X166441400Y-22450264D01*
X166523333Y-22524524D01*
X166612151Y-22590395D01*
X166706997Y-22647244D01*
X166806959Y-22694522D01*
X166911073Y-22731775D01*
X167018337Y-22758643D01*
X167127719Y-22774868D01*
X167238164Y-22780294D01*
X167486211Y-22780294D01*
X168301789Y-22780294D01*
X168549836Y-22780294D01*
X168660281Y-22774868D01*
X168769663Y-22758643D01*
X168876927Y-22731775D01*
X168981041Y-22694522D01*
X169081003Y-22647244D01*
X169175849Y-22590395D01*
X169264667Y-22524524D01*
X169346600Y-22450264D01*
X169420860Y-22368331D01*
X169486731Y-22279513D01*
X169543580Y-22184667D01*
X169590858Y-22084705D01*
X169628111Y-21980591D01*
X169654979Y-21873327D01*
X169671204Y-21763945D01*
X169676630Y-21653500D01*
X169671204Y-21543055D01*
X169654979Y-21433673D01*
X169628111Y-21326409D01*
X169590858Y-21222295D01*
X169543580Y-21122333D01*
X169486731Y-21027487D01*
X169420860Y-20938669D01*
X169346600Y-20856736D01*
X169264667Y-20782476D01*
X169175849Y-20716605D01*
X169081003Y-20659756D01*
X168981041Y-20612478D01*
X168876927Y-20575225D01*
X168769663Y-20548357D01*
X168660281Y-20532132D01*
X168549836Y-20526706D01*
X168301789Y-20526706D01*
X167486211Y-20526706D01*
G37*
D11*
%TO.C,J11*%
X110890000Y-101980000D02*
X110890000Y-89640000D01*
X110890000Y-89640000D02*
X164110000Y-89640000D01*
X164110000Y-89640000D02*
X164110000Y-101980000D01*
X120630000Y-88745662D02*
X121130000Y-88745662D01*
X121130000Y-88745662D02*
X120880000Y-89178675D01*
X120880000Y-89178675D02*
X120630000Y-88745662D01*
%TO.C,R87*%
X120930936Y-68861000D02*
X121385064Y-68861000D01*
X120930936Y-70331000D02*
X121385064Y-70331000D01*
%TO.C,R86*%
X120930936Y-62511000D02*
X121385064Y-62511000D01*
X120930936Y-63981000D02*
X121385064Y-63981000D01*
%TO.C,J4*%
X115884409Y-57377056D02*
X116368253Y-59317647D01*
X114670887Y-58710234D02*
X115884409Y-57377056D01*
X116368253Y-59317647D02*
X114670887Y-58710234D01*
X109941674Y-58343439D02*
X108248220Y-51551369D01*
X109456526Y-58464400D02*
X107763072Y-51672330D01*
X112064084Y-50321702D02*
X107212606Y-51531311D01*
X113878499Y-57598920D02*
X112064084Y-50321702D01*
X109027020Y-58808529D02*
X107212606Y-51531311D01*
X113878499Y-57598920D02*
X109027020Y-58808529D01*
X114185739Y-58831195D02*
X114507495Y-60121689D01*
X114507495Y-60121689D02*
X113052052Y-60484571D01*
X108849113Y-60161766D02*
X107635591Y-61494944D01*
X107635591Y-61494944D02*
X107151747Y-59554353D01*
X107151747Y-59554353D02*
X108849113Y-60161766D01*
%TO.C,X1*%
X135604833Y-67844748D02*
X131538969Y-63778884D01*
X131538969Y-63778884D02*
X128993384Y-66324469D01*
X128993384Y-66324469D02*
X133059248Y-70390333D01*
%TO.C,R85*%
X107545200Y-43381664D02*
X107545200Y-42927536D01*
X109015200Y-43381664D02*
X109015200Y-42927536D01*
%TO.C,R84*%
X110085200Y-43381664D02*
X110085200Y-42927536D01*
X111555200Y-43381664D02*
X111555200Y-42927536D01*
%TO.C,R83*%
X112625200Y-43381664D02*
X112625200Y-42927536D01*
X114095200Y-43381664D02*
X114095200Y-42927536D01*
%TO.C,R82*%
X115165200Y-43381664D02*
X115165200Y-42927536D01*
X116635200Y-43381664D02*
X116635200Y-42927536D01*
%TO.C,R81*%
X117705200Y-43381664D02*
X117705200Y-42927536D01*
X119175200Y-43381664D02*
X119175200Y-42927536D01*
%TO.C,R80*%
X120245200Y-43381664D02*
X120245200Y-42927536D01*
X121715200Y-43381664D02*
X121715200Y-42927536D01*
%TO.C,R79*%
X122785200Y-43381664D02*
X122785200Y-42927536D01*
X124255200Y-43381664D02*
X124255200Y-42927536D01*
%TO.C,R78*%
X125325200Y-43381664D02*
X125325200Y-42927536D01*
X126795200Y-43381664D02*
X126795200Y-42927536D01*
%TO.C,R77*%
X127865200Y-43381664D02*
X127865200Y-42927536D01*
X129335200Y-43381664D02*
X129335200Y-42927536D01*
%TO.C,R76*%
X145645200Y-43381664D02*
X145645200Y-42927536D01*
X147115200Y-43381664D02*
X147115200Y-42927536D01*
%TO.C,R75*%
X148185200Y-43381664D02*
X148185200Y-42927536D01*
X149655200Y-43381664D02*
X149655200Y-42927536D01*
%TO.C,R74*%
X150725200Y-43381664D02*
X150725200Y-42927536D01*
X152195200Y-43381664D02*
X152195200Y-42927536D01*
%TO.C,R73*%
X153265200Y-43381664D02*
X153265200Y-42927536D01*
X154735200Y-43381664D02*
X154735200Y-42927536D01*
%TO.C,R72*%
X155805200Y-43381664D02*
X155805200Y-42927536D01*
X157275200Y-43381664D02*
X157275200Y-42927536D01*
%TO.C,R71*%
X158345200Y-43381664D02*
X158345200Y-42927536D01*
X159815200Y-43381664D02*
X159815200Y-42927536D01*
%TO.C,R70*%
X160885200Y-43381664D02*
X160885200Y-42927536D01*
X162355200Y-43381664D02*
X162355200Y-42927536D01*
%TO.C,R69*%
X163425200Y-43381664D02*
X163425200Y-42927536D01*
X164895200Y-43381664D02*
X164895200Y-42927536D01*
%TO.C,R68*%
X165965200Y-43381664D02*
X165965200Y-42927536D01*
X167435200Y-43381664D02*
X167435200Y-42927536D01*
%TO.C,R47*%
X106275200Y-35126664D02*
X106275200Y-34672536D01*
X107745200Y-35126664D02*
X107745200Y-34672536D01*
%TO.C,R46*%
X108815200Y-35126664D02*
X108815200Y-34672536D01*
X110285200Y-35126664D02*
X110285200Y-34672536D01*
%TO.C,R45*%
X111355200Y-35126664D02*
X111355200Y-34672536D01*
X112825200Y-35126664D02*
X112825200Y-34672536D01*
%TO.C,R44*%
X113895200Y-35126664D02*
X113895200Y-34672536D01*
X115365200Y-35126664D02*
X115365200Y-34672536D01*
%TO.C,R43*%
X116435200Y-35126664D02*
X116435200Y-34672536D01*
X117905200Y-35126664D02*
X117905200Y-34672536D01*
%TO.C,R42*%
X118975200Y-35126664D02*
X118975200Y-34672536D01*
X120445200Y-35126664D02*
X120445200Y-34672536D01*
%TO.C,R41*%
X121515200Y-35126664D02*
X121515200Y-34672536D01*
X122985200Y-35126664D02*
X122985200Y-34672536D01*
%TO.C,R40*%
X124055200Y-35126664D02*
X124055200Y-34672536D01*
X125525200Y-35126664D02*
X125525200Y-34672536D01*
%TO.C,R39*%
X129135200Y-35126664D02*
X129135200Y-34672536D01*
X130605200Y-35126664D02*
X130605200Y-34672536D01*
%TO.C,R38*%
X146915200Y-35126664D02*
X146915200Y-34672536D01*
X148385200Y-35126664D02*
X148385200Y-34672536D01*
%TO.C,R37*%
X149455200Y-35126664D02*
X149455200Y-34672536D01*
X150925200Y-35126664D02*
X150925200Y-34672536D01*
%TO.C,R36*%
X151995200Y-35126664D02*
X151995200Y-34672536D01*
X153465200Y-35126664D02*
X153465200Y-34672536D01*
%TO.C,R35*%
X154535200Y-35126664D02*
X154535200Y-34672536D01*
X156005200Y-35126664D02*
X156005200Y-34672536D01*
%TO.C,R34*%
X157075200Y-35126664D02*
X157075200Y-34672536D01*
X158545200Y-35126664D02*
X158545200Y-34672536D01*
%TO.C,R33*%
X159615200Y-35126664D02*
X159615200Y-34672536D01*
X161085200Y-35126664D02*
X161085200Y-34672536D01*
%TO.C,R32*%
X162155200Y-35126664D02*
X162155200Y-34672536D01*
X163625200Y-35126664D02*
X163625200Y-34672536D01*
%TO.C,R31*%
X164695200Y-35126664D02*
X164695200Y-34672536D01*
X166165200Y-35126664D02*
X166165200Y-34672536D01*
%TO.C,R30*%
X167235200Y-35126664D02*
X167235200Y-34672536D01*
X168705200Y-35126664D02*
X168705200Y-34672536D01*
%TO.C,C7*%
X125298252Y-51329000D02*
X123875748Y-51329000D01*
X125298252Y-49509000D02*
X123875748Y-49509000D01*
%TO.C,C6*%
X121687000Y-56375248D02*
X121687000Y-57797752D01*
X119867000Y-56375248D02*
X119867000Y-57797752D01*
%TO.C,C5*%
X127685748Y-61235000D02*
X129108252Y-61235000D01*
X127685748Y-59415000D02*
X129108252Y-59415000D01*
%TO.C,C4*%
X143047867Y-53552920D02*
X143417334Y-53922387D01*
X142008420Y-54592367D02*
X142377887Y-54961834D01*
%TO.C,C3*%
X148468957Y-64279490D02*
X148099490Y-64648957D01*
X147429510Y-63240043D02*
X147060043Y-63609510D01*
%TO.C,C2*%
X137915257Y-67521110D02*
X137545790Y-67151643D01*
X136875810Y-68560557D02*
X136506343Y-68191090D01*
%TO.C,U1*%
X128275000Y-58909000D02*
X128275000Y-57649000D01*
X128275000Y-52089000D02*
X128275000Y-53349000D01*
X124515000Y-58909000D02*
X128275000Y-58909000D01*
X122265000Y-52089000D02*
X128275000Y-52089000D01*
%TO.C,R67*%
X107545200Y-47191664D02*
X107545200Y-46737536D01*
X109015200Y-47191664D02*
X109015200Y-46737536D01*
%TO.C,R66*%
X110085200Y-47191664D02*
X110085200Y-46737536D01*
X111555200Y-47191664D02*
X111555200Y-46737536D01*
%TO.C,R65*%
X112625200Y-47191664D02*
X112625200Y-46737536D01*
X114095200Y-47191664D02*
X114095200Y-46737536D01*
%TO.C,R64*%
X115165200Y-47191664D02*
X115165200Y-46737536D01*
X116635200Y-47191664D02*
X116635200Y-46737536D01*
%TO.C,R63*%
X117705200Y-47191664D02*
X117705200Y-46737536D01*
X119175200Y-47191664D02*
X119175200Y-46737536D01*
%TO.C,R62*%
X120245200Y-47191664D02*
X120245200Y-46737536D01*
X121715200Y-47191664D02*
X121715200Y-46737536D01*
%TO.C,R61*%
X122785200Y-47191664D02*
X122785200Y-46737536D01*
X124255200Y-47191664D02*
X124255200Y-46737536D01*
%TO.C,R60*%
X125325200Y-47191664D02*
X125325200Y-46737536D01*
X126795200Y-47191664D02*
X126795200Y-46737536D01*
%TO.C,R59*%
X127865200Y-47191664D02*
X127865200Y-46737536D01*
X129335200Y-47191664D02*
X129335200Y-46737536D01*
%TO.C,R58*%
X145645200Y-47191664D02*
X145645200Y-46737536D01*
X147115200Y-47191664D02*
X147115200Y-46737536D01*
%TO.C,R57*%
X148185200Y-47191664D02*
X148185200Y-46737536D01*
X149655200Y-47191664D02*
X149655200Y-46737536D01*
%TO.C,R56*%
X150725200Y-47191664D02*
X150725200Y-46737536D01*
X152195200Y-47191664D02*
X152195200Y-46737536D01*
%TO.C,R55*%
X153265200Y-47191664D02*
X153265200Y-46737536D01*
X154735200Y-47191664D02*
X154735200Y-46737536D01*
%TO.C,R54*%
X155805200Y-47191664D02*
X155805200Y-46737536D01*
X157275200Y-47191664D02*
X157275200Y-46737536D01*
%TO.C,R53*%
X158345200Y-47191664D02*
X158345200Y-46737536D01*
X159815200Y-47191664D02*
X159815200Y-46737536D01*
%TO.C,R52*%
X160885200Y-47191664D02*
X160885200Y-46737536D01*
X162355200Y-47191664D02*
X162355200Y-46737536D01*
%TO.C,R51*%
X163425200Y-47191664D02*
X163425200Y-46737536D01*
X164895200Y-47191664D02*
X164895200Y-46737536D01*
%TO.C,R50*%
X165965200Y-47191664D02*
X165965200Y-46737536D01*
X167435200Y-47191664D02*
X167435200Y-46737536D01*
%TO.C,R49*%
X155474936Y-58256500D02*
X155929064Y-58256500D01*
X155474936Y-59726500D02*
X155929064Y-59726500D01*
%TO.C,R48*%
X153325564Y-69505500D02*
X152871436Y-69505500D01*
X153325564Y-68035500D02*
X152871436Y-68035500D01*
%TO.C,R29*%
X136297936Y-49684000D02*
X136752064Y-49684000D01*
X136297936Y-51154000D02*
X136752064Y-51154000D01*
%TO.C,R28*%
X106275200Y-38936664D02*
X106275200Y-38482536D01*
X107745200Y-38936664D02*
X107745200Y-38482536D01*
%TO.C,R27*%
X108815200Y-38936664D02*
X108815200Y-38482536D01*
X110285200Y-38936664D02*
X110285200Y-38482536D01*
%TO.C,R26*%
X111355200Y-38936664D02*
X111355200Y-38482536D01*
X112825200Y-38936664D02*
X112825200Y-38482536D01*
%TO.C,R25*%
X113895200Y-38936664D02*
X113895200Y-38482536D01*
X115365200Y-38936664D02*
X115365200Y-38482536D01*
%TO.C,R24*%
X116435200Y-38936664D02*
X116435200Y-38482536D01*
X117905200Y-38936664D02*
X117905200Y-38482536D01*
%TO.C,R23*%
X118975200Y-38936664D02*
X118975200Y-38482536D01*
X120445200Y-38936664D02*
X120445200Y-38482536D01*
%TO.C,R22*%
X121515200Y-38936664D02*
X121515200Y-38482536D01*
X122985200Y-38936664D02*
X122985200Y-38482536D01*
%TO.C,R21*%
X124055200Y-38936664D02*
X124055200Y-38482536D01*
X125525200Y-38936664D02*
X125525200Y-38482536D01*
%TO.C,R20*%
X129135200Y-38936664D02*
X129135200Y-38482536D01*
X130605200Y-38936664D02*
X130605200Y-38482536D01*
%TO.C,R19*%
X146915200Y-38936664D02*
X146915200Y-38482536D01*
X148385200Y-38936664D02*
X148385200Y-38482536D01*
%TO.C,R18*%
X149455200Y-38936664D02*
X149455200Y-38482536D01*
X150925200Y-38936664D02*
X150925200Y-38482536D01*
%TO.C,R17*%
X151995200Y-38936664D02*
X151995200Y-38482536D01*
X153465200Y-38936664D02*
X153465200Y-38482536D01*
%TO.C,R16*%
X154535200Y-38936664D02*
X154535200Y-38482536D01*
X156005200Y-38936664D02*
X156005200Y-38482536D01*
%TO.C,R15*%
X157075200Y-38936664D02*
X157075200Y-38482536D01*
X158545200Y-38936664D02*
X158545200Y-38482536D01*
%TO.C,R14*%
X159615200Y-38936664D02*
X159615200Y-38482536D01*
X161085200Y-38936664D02*
X161085200Y-38482536D01*
%TO.C,R13*%
X162155200Y-38936664D02*
X162155200Y-38482536D01*
X163625200Y-38936664D02*
X163625200Y-38482536D01*
%TO.C,R12*%
X164695200Y-38936664D02*
X164695200Y-38482536D01*
X166165200Y-38936664D02*
X166165200Y-38482536D01*
%TO.C,R11*%
X167235200Y-38936664D02*
X167235200Y-38482536D01*
X168705200Y-38936664D02*
X168705200Y-38482536D01*
%TO.C,R10*%
X137272936Y-40794000D02*
X137727064Y-40794000D01*
X137272936Y-42264000D02*
X137727064Y-42264000D01*
%TO.C,R9*%
X151665000Y-73887064D02*
X151665000Y-73432936D01*
X153135000Y-73887064D02*
X153135000Y-73432936D01*
%TO.C,R8*%
X160755000Y-73702936D02*
X160755000Y-74157064D01*
X159285000Y-73702936D02*
X159285000Y-74157064D01*
%TO.C,R7*%
X153135000Y-83862936D02*
X153135000Y-84317064D01*
X151665000Y-83862936D02*
X151665000Y-84317064D01*
%TO.C,R6*%
X160755000Y-84481936D02*
X160755000Y-84936064D01*
X159285000Y-84481936D02*
X159285000Y-84936064D01*
%TO.C,R5*%
X160755000Y-79147936D02*
X160755000Y-79602064D01*
X159285000Y-79147936D02*
X159285000Y-79602064D01*
%TO.C,R4*%
X121385064Y-66013000D02*
X120930936Y-66013000D01*
X121385064Y-64543000D02*
X120930936Y-64543000D01*
%TO.C,R3*%
X121385064Y-68045000D02*
X120930936Y-68045000D01*
X121385064Y-66575000D02*
X120930936Y-66575000D01*
%TO.C,R2*%
X123471000Y-68553064D02*
X123471000Y-68098936D01*
X124941000Y-68553064D02*
X124941000Y-68098936D01*
%TO.C,R1*%
X151728500Y-77887564D02*
X151728500Y-77433436D01*
X153198500Y-77887564D02*
X153198500Y-77433436D01*
%TO.C,J10*%
X161159988Y-66329489D02*
X163779577Y-66791393D01*
X162934673Y-56264754D02*
X161159988Y-66329489D01*
X165554261Y-56726658D02*
X163779577Y-66791393D01*
X162934673Y-56264754D02*
X165554261Y-56726658D01*
X163155206Y-55014048D02*
X163386158Y-53704254D01*
X163386158Y-53704254D02*
X164695952Y-53935206D01*
%TO.C,J9*%
X134900000Y-46676000D02*
X134900000Y-49336000D01*
X137500000Y-46676000D02*
X134900000Y-46676000D01*
X137500000Y-49336000D02*
X134900000Y-49336000D01*
X137500000Y-46676000D02*
X137500000Y-49336000D01*
X138770000Y-46676000D02*
X140100000Y-46676000D01*
X140100000Y-46676000D02*
X140100000Y-48006000D01*
%TO.C,J8*%
X156016000Y-63433000D02*
X156016000Y-60773000D01*
X153416000Y-63433000D02*
X156016000Y-63433000D01*
X153416000Y-60773000D02*
X156016000Y-60773000D01*
X153416000Y-63433000D02*
X153416000Y-60773000D01*
X152146000Y-63433000D02*
X150816000Y-63433000D01*
X150816000Y-63433000D02*
X150816000Y-62103000D01*
%TO.C,J7*%
X156016000Y-67179500D02*
X156016000Y-64519500D01*
X153416000Y-67179500D02*
X156016000Y-67179500D01*
X153416000Y-64519500D02*
X156016000Y-64519500D01*
X153416000Y-67179500D02*
X153416000Y-64519500D01*
X152146000Y-67179500D02*
X150816000Y-67179500D01*
X150816000Y-67179500D02*
X150816000Y-65849500D01*
%TO.C,J6*%
X134900000Y-42993000D02*
X134900000Y-45653000D01*
X137500000Y-42993000D02*
X134900000Y-42993000D01*
X137500000Y-45653000D02*
X134900000Y-45653000D01*
X137500000Y-42993000D02*
X137500000Y-45653000D01*
X138770000Y-42993000D02*
X140100000Y-42993000D01*
X140100000Y-42993000D02*
X140100000Y-44323000D01*
%TO.C,J5*%
X157540000Y-71695000D02*
X154880000Y-71695000D01*
X157540000Y-74295000D02*
X157540000Y-71695000D01*
X154880000Y-74295000D02*
X154880000Y-71695000D01*
X157540000Y-74295000D02*
X154880000Y-74295000D01*
X157540000Y-75565000D02*
X157540000Y-76895000D01*
X157540000Y-76895000D02*
X156210000Y-76895000D01*
%TO.C,J3*%
X157540000Y-81855000D02*
X154880000Y-81855000D01*
X157540000Y-84455000D02*
X157540000Y-81855000D01*
X154880000Y-84455000D02*
X154880000Y-81855000D01*
X157540000Y-84455000D02*
X154880000Y-84455000D01*
X157540000Y-85725000D02*
X157540000Y-87055000D01*
X157540000Y-87055000D02*
X156210000Y-87055000D01*
%TO.C,J1*%
X146815500Y-84324500D02*
X149475500Y-84324500D01*
X146815500Y-71564500D02*
X146815500Y-84324500D01*
X149475500Y-71564500D02*
X149475500Y-84324500D01*
X146815500Y-71564500D02*
X149475500Y-71564500D01*
X146815500Y-70294500D02*
X146815500Y-68964500D01*
X146815500Y-68964500D02*
X148145500Y-68964500D01*
%TO.C,U2*%
X145630111Y-61767360D02*
X145948309Y-61449162D01*
X145948309Y-61449162D02*
X145630111Y-61130964D01*
X141161196Y-66236275D02*
X140842998Y-66554473D01*
X140842998Y-66554473D02*
X140524800Y-66236275D01*
X140524800Y-56662049D02*
X140842998Y-56343851D01*
X140842998Y-56343851D02*
X141161196Y-56662049D01*
X136055885Y-61130964D02*
X135737687Y-61449162D01*
X135737687Y-61449162D02*
X136055885Y-61767360D01*
X136055885Y-61767360D02*
X135143717Y-62679528D01*
%TO.C,D6*%
X141875000Y-38826000D02*
X143875000Y-38826000D01*
X143875000Y-38826000D02*
X143875000Y-34926000D01*
X141875000Y-38826000D02*
X141875000Y-34926000D01*
%TO.C,D5*%
X125714000Y-59726000D02*
X123714000Y-59726000D01*
X123714000Y-59726000D02*
X123714000Y-63626000D01*
X125714000Y-59726000D02*
X125714000Y-63626000D01*
%TO.C,D4*%
X122900000Y-61833000D02*
X122900000Y-59833000D01*
X122900000Y-59833000D02*
X119000000Y-59833000D01*
X122900000Y-61833000D02*
X119000000Y-61833000D01*
%TO.C,D1*%
X163647000Y-74905000D02*
X163647000Y-72045000D01*
X163647000Y-72045000D02*
X161727000Y-72045000D01*
X161727000Y-72045000D02*
X161727000Y-74905000D01*
%TO.C,D3*%
X163647000Y-85709000D02*
X163647000Y-82849000D01*
X163647000Y-82849000D02*
X161727000Y-82849000D01*
X161727000Y-82849000D02*
X161727000Y-85709000D01*
%TO.C,D2*%
X163647000Y-80375000D02*
X163647000Y-77515000D01*
X163647000Y-77515000D02*
X161727000Y-77515000D01*
X161727000Y-77515000D02*
X161727000Y-80375000D01*
%TO.C,C12*%
X130202000Y-78493252D02*
X130202000Y-77970748D01*
X131672000Y-78493252D02*
X131672000Y-77970748D01*
%TO.C,C11*%
X129049490Y-67494543D02*
X129418957Y-67864010D01*
X128010043Y-68533990D02*
X128379510Y-68903457D01*
%TO.C,C10*%
X131173510Y-71697457D02*
X130804043Y-71327990D01*
X132212957Y-70658010D02*
X131843490Y-70288543D01*
%TO.C,J2*%
D10*
X115371750Y-60132723D02*
X115446414Y-60843096D01*
X115413988Y-60990148D01*
X115329227Y-61094820D01*
X115192130Y-61157110D01*
X115097413Y-61167065D01*
X115807929Y-60182642D02*
X115850310Y-60130306D01*
X115940049Y-60072993D01*
X116176840Y-60048105D01*
X116276533Y-60085508D01*
X116328869Y-60127889D01*
X116386183Y-60217627D01*
X116396138Y-60312344D01*
X116363712Y-60459396D01*
X115855144Y-61087425D01*
X116470801Y-61022717D01*
%TO.C,J13*%
X127841476Y-84097880D02*
X127841476Y-84812166D01*
X127793857Y-84955023D01*
X127698619Y-85050261D01*
X127555761Y-85097880D01*
X127460523Y-85097880D01*
X128841476Y-85097880D02*
X128270047Y-85097880D01*
X128555761Y-85097880D02*
X128555761Y-84097880D01*
X128460523Y-84240738D01*
X128365285Y-84335976D01*
X128270047Y-84383595D01*
X129174809Y-84097880D02*
X129793857Y-84097880D01*
X129460523Y-84478833D01*
X129603380Y-84478833D01*
X129698619Y-84526452D01*
X129746238Y-84574071D01*
X129793857Y-84669309D01*
X129793857Y-84907404D01*
X129746238Y-85002642D01*
X129698619Y-85050261D01*
X129603380Y-85097880D01*
X129317666Y-85097880D01*
X129222428Y-85050261D01*
X129174809Y-85002642D01*
%TO.C,J12*%
X132235676Y-32154880D02*
X132235676Y-32869166D01*
X132188057Y-33012023D01*
X132092819Y-33107261D01*
X131949961Y-33154880D01*
X131854723Y-33154880D01*
X133235676Y-33154880D02*
X132664247Y-33154880D01*
X132949961Y-33154880D02*
X132949961Y-32154880D01*
X132854723Y-32297738D01*
X132759485Y-32392976D01*
X132664247Y-32440595D01*
X133616628Y-32250119D02*
X133664247Y-32202500D01*
X133759485Y-32154880D01*
X133997580Y-32154880D01*
X134092819Y-32202500D01*
X134140438Y-32250119D01*
X134188057Y-32345357D01*
X134188057Y-32440595D01*
X134140438Y-32583452D01*
X133569009Y-33154880D01*
X134188057Y-33154880D01*
%TO.C,C1*%
X132697287Y-58447489D02*
X132697287Y-58514832D01*
X132629943Y-58649519D01*
X132562600Y-58716863D01*
X132427912Y-58784206D01*
X132293225Y-58784206D01*
X132192210Y-58750535D01*
X132023851Y-58649519D01*
X131922836Y-58548504D01*
X131821821Y-58380145D01*
X131788149Y-58279130D01*
X131788149Y-58144443D01*
X131855493Y-58009756D01*
X131922836Y-57942412D01*
X132057523Y-57875069D01*
X132124867Y-57875069D01*
X133438065Y-57841397D02*
X133034004Y-58245458D01*
X133236035Y-58043428D02*
X132528928Y-57336321D01*
X132562600Y-57504680D01*
X132562600Y-57639367D01*
X132528928Y-57740382D01*
%TO.C,J11*%
X134420076Y-88085680D02*
X134420076Y-88799966D01*
X134372457Y-88942823D01*
X134277219Y-89038061D01*
X134134361Y-89085680D01*
X134039123Y-89085680D01*
X135420076Y-89085680D02*
X134848647Y-89085680D01*
X135134361Y-89085680D02*
X135134361Y-88085680D01*
X135039123Y-88228538D01*
X134943885Y-88323776D01*
X134848647Y-88371395D01*
X136372457Y-89085680D02*
X135801028Y-89085680D01*
X136086742Y-89085680D02*
X136086742Y-88085680D01*
X135991504Y-88228538D01*
X135896266Y-88323776D01*
X135801028Y-88371395D01*
%TO.C,R87*%
X120362742Y-71940680D02*
X120029409Y-71464490D01*
X119791314Y-71940680D02*
X119791314Y-70940680D01*
X120172266Y-70940680D01*
X120267504Y-70988300D01*
X120315123Y-71035919D01*
X120362742Y-71131157D01*
X120362742Y-71274014D01*
X120315123Y-71369252D01*
X120267504Y-71416871D01*
X120172266Y-71464490D01*
X119791314Y-71464490D01*
X120934171Y-71369252D02*
X120838933Y-71321633D01*
X120791314Y-71274014D01*
X120743695Y-71178776D01*
X120743695Y-71131157D01*
X120791314Y-71035919D01*
X120838933Y-70988300D01*
X120934171Y-70940680D01*
X121124647Y-70940680D01*
X121219885Y-70988300D01*
X121267504Y-71035919D01*
X121315123Y-71131157D01*
X121315123Y-71178776D01*
X121267504Y-71274014D01*
X121219885Y-71321633D01*
X121124647Y-71369252D01*
X120934171Y-71369252D01*
X120838933Y-71416871D01*
X120791314Y-71464490D01*
X120743695Y-71559728D01*
X120743695Y-71750204D01*
X120791314Y-71845442D01*
X120838933Y-71893061D01*
X120934171Y-71940680D01*
X121124647Y-71940680D01*
X121219885Y-71893061D01*
X121267504Y-71845442D01*
X121315123Y-71750204D01*
X121315123Y-71559728D01*
X121267504Y-71464490D01*
X121219885Y-71416871D01*
X121124647Y-71369252D01*
X121648457Y-70940680D02*
X122315123Y-70940680D01*
X121886552Y-71940680D01*
%TO.C,R86*%
X126738142Y-64333380D02*
X126404809Y-63857190D01*
X126166714Y-64333380D02*
X126166714Y-63333380D01*
X126547666Y-63333380D01*
X126642904Y-63381000D01*
X126690523Y-63428619D01*
X126738142Y-63523857D01*
X126738142Y-63666714D01*
X126690523Y-63761952D01*
X126642904Y-63809571D01*
X126547666Y-63857190D01*
X126166714Y-63857190D01*
X127309571Y-63761952D02*
X127214333Y-63714333D01*
X127166714Y-63666714D01*
X127119095Y-63571476D01*
X127119095Y-63523857D01*
X127166714Y-63428619D01*
X127214333Y-63381000D01*
X127309571Y-63333380D01*
X127500047Y-63333380D01*
X127595285Y-63381000D01*
X127642904Y-63428619D01*
X127690523Y-63523857D01*
X127690523Y-63571476D01*
X127642904Y-63666714D01*
X127595285Y-63714333D01*
X127500047Y-63761952D01*
X127309571Y-63761952D01*
X127214333Y-63809571D01*
X127166714Y-63857190D01*
X127119095Y-63952428D01*
X127119095Y-64142904D01*
X127166714Y-64238142D01*
X127214333Y-64285761D01*
X127309571Y-64333380D01*
X127500047Y-64333380D01*
X127595285Y-64285761D01*
X127642904Y-64238142D01*
X127690523Y-64142904D01*
X127690523Y-63952428D01*
X127642904Y-63857190D01*
X127595285Y-63809571D01*
X127500047Y-63761952D01*
X128547666Y-63333380D02*
X128357190Y-63333380D01*
X128261952Y-63381000D01*
X128214333Y-63428619D01*
X128119095Y-63571476D01*
X128071476Y-63761952D01*
X128071476Y-64142904D01*
X128119095Y-64238142D01*
X128166714Y-64285761D01*
X128261952Y-64333380D01*
X128452428Y-64333380D01*
X128547666Y-64285761D01*
X128595285Y-64238142D01*
X128642904Y-64142904D01*
X128642904Y-63904809D01*
X128595285Y-63809571D01*
X128547666Y-63761952D01*
X128452428Y-63714333D01*
X128261952Y-63714333D01*
X128166714Y-63761952D01*
X128119095Y-63809571D01*
X128071476Y-63904809D01*
%TO.C,J4*%
X112828087Y-49714288D02*
X113000888Y-50407356D01*
X112989244Y-50557490D01*
X112919875Y-50672939D01*
X112792781Y-50753704D01*
X112700372Y-50776744D01*
X113786614Y-49818838D02*
X113947895Y-50465702D01*
X113463430Y-49506802D02*
X113405209Y-50257471D01*
X114005868Y-50107710D01*
%TO.C,X1*%
X133444205Y-63645255D02*
X133208503Y-64823766D01*
X133915609Y-64116659D02*
X132737098Y-64352361D01*
X133848266Y-65463529D02*
X133444205Y-65059468D01*
X133646235Y-65261499D02*
X134353342Y-64554392D01*
X134184983Y-64588064D01*
X134050296Y-64588064D01*
X133949281Y-64554392D01*
%TO.C,R39*%
X128672580Y-35542457D02*
X128196390Y-35875790D01*
X128672580Y-36113885D02*
X127672580Y-36113885D01*
X127672580Y-35732933D01*
X127720200Y-35637695D01*
X127767819Y-35590076D01*
X127863057Y-35542457D01*
X128005914Y-35542457D01*
X128101152Y-35590076D01*
X128148771Y-35637695D01*
X128196390Y-35732933D01*
X128196390Y-36113885D01*
X127672580Y-35209123D02*
X127672580Y-34590076D01*
X128053533Y-34923409D01*
X128053533Y-34780552D01*
X128101152Y-34685314D01*
X128148771Y-34637695D01*
X128244009Y-34590076D01*
X128482104Y-34590076D01*
X128577342Y-34637695D01*
X128624961Y-34685314D01*
X128672580Y-34780552D01*
X128672580Y-35066266D01*
X128624961Y-35161504D01*
X128577342Y-35209123D01*
X128672580Y-34113885D02*
X128672580Y-33923409D01*
X128624961Y-33828171D01*
X128577342Y-33780552D01*
X128434485Y-33685314D01*
X128244009Y-33637695D01*
X127863057Y-33637695D01*
X127767819Y-33685314D01*
X127720200Y-33732933D01*
X127672580Y-33828171D01*
X127672580Y-34018647D01*
X127720200Y-34113885D01*
X127767819Y-34161504D01*
X127863057Y-34209123D01*
X128101152Y-34209123D01*
X128196390Y-34161504D01*
X128244009Y-34113885D01*
X128291628Y-34018647D01*
X128291628Y-33828171D01*
X128244009Y-33732933D01*
X128196390Y-33685314D01*
X128101152Y-33637695D01*
%TO.C,C7*%
X120864333Y-51030142D02*
X120816714Y-51077761D01*
X120673857Y-51125380D01*
X120578619Y-51125380D01*
X120435761Y-51077761D01*
X120340523Y-50982523D01*
X120292904Y-50887285D01*
X120245285Y-50696809D01*
X120245285Y-50553952D01*
X120292904Y-50363476D01*
X120340523Y-50268238D01*
X120435761Y-50173000D01*
X120578619Y-50125380D01*
X120673857Y-50125380D01*
X120816714Y-50173000D01*
X120864333Y-50220619D01*
X121197666Y-50125380D02*
X121864333Y-50125380D01*
X121435761Y-51125380D01*
%TO.C,C6*%
X118641833Y-57380142D02*
X118594214Y-57427761D01*
X118451357Y-57475380D01*
X118356119Y-57475380D01*
X118213261Y-57427761D01*
X118118023Y-57332523D01*
X118070404Y-57237285D01*
X118022785Y-57046809D01*
X118022785Y-56903952D01*
X118070404Y-56713476D01*
X118118023Y-56618238D01*
X118213261Y-56523000D01*
X118356119Y-56475380D01*
X118451357Y-56475380D01*
X118594214Y-56523000D01*
X118641833Y-56570619D01*
X119498976Y-56475380D02*
X119308500Y-56475380D01*
X119213261Y-56523000D01*
X119165642Y-56570619D01*
X119070404Y-56713476D01*
X119022785Y-56903952D01*
X119022785Y-57284904D01*
X119070404Y-57380142D01*
X119118023Y-57427761D01*
X119213261Y-57475380D01*
X119403738Y-57475380D01*
X119498976Y-57427761D01*
X119546595Y-57380142D01*
X119594214Y-57284904D01*
X119594214Y-57046809D01*
X119546595Y-56951571D01*
X119498976Y-56903952D01*
X119403738Y-56856333D01*
X119213261Y-56856333D01*
X119118023Y-56903952D01*
X119070404Y-56951571D01*
X119022785Y-57046809D01*
%TO.C,C5*%
X131992642Y-60809166D02*
X132040261Y-60856785D01*
X132087880Y-60999642D01*
X132087880Y-61094880D01*
X132040261Y-61237738D01*
X131945023Y-61332976D01*
X131849785Y-61380595D01*
X131659309Y-61428214D01*
X131516452Y-61428214D01*
X131325976Y-61380595D01*
X131230738Y-61332976D01*
X131135500Y-61237738D01*
X131087880Y-61094880D01*
X131087880Y-60999642D01*
X131135500Y-60856785D01*
X131183119Y-60809166D01*
X131087880Y-59904404D02*
X131087880Y-60380595D01*
X131564071Y-60428214D01*
X131516452Y-60380595D01*
X131468833Y-60285357D01*
X131468833Y-60047261D01*
X131516452Y-59952023D01*
X131564071Y-59904404D01*
X131659309Y-59856785D01*
X131897404Y-59856785D01*
X131992642Y-59904404D01*
X132040261Y-59952023D01*
X132087880Y-60047261D01*
X132087880Y-60285357D01*
X132040261Y-60380595D01*
X131992642Y-60428214D01*
%TO.C,C4*%
X143530426Y-53204125D02*
X143463083Y-53204125D01*
X143328396Y-53136781D01*
X143261052Y-53069438D01*
X143193709Y-52934750D01*
X143193709Y-52800063D01*
X143227380Y-52699048D01*
X143328396Y-52530689D01*
X143429411Y-52429674D01*
X143597770Y-52328659D01*
X143698785Y-52294987D01*
X143833472Y-52294987D01*
X143968159Y-52362331D01*
X144035503Y-52429674D01*
X144102846Y-52564361D01*
X144102846Y-52631705D01*
X144540579Y-53406155D02*
X144069174Y-53877560D01*
X144641594Y-52968422D02*
X143968159Y-53305140D01*
X144405892Y-53742873D01*
%TO.C,C3*%
X145549688Y-66296089D02*
X145549688Y-66363432D01*
X145482344Y-66498119D01*
X145415001Y-66565463D01*
X145280313Y-66632806D01*
X145145626Y-66632806D01*
X145044611Y-66599135D01*
X144876252Y-66498119D01*
X144775237Y-66397104D01*
X144674222Y-66228745D01*
X144640550Y-66127730D01*
X144640550Y-65993043D01*
X144707894Y-65858356D01*
X144775237Y-65791012D01*
X144909924Y-65723669D01*
X144977268Y-65723669D01*
X145145626Y-65420623D02*
X145583359Y-64982890D01*
X145617031Y-65487967D01*
X145718046Y-65386951D01*
X145819062Y-65353280D01*
X145886405Y-65353280D01*
X145987420Y-65386951D01*
X146155779Y-65555310D01*
X146189451Y-65656325D01*
X146189451Y-65723669D01*
X146155779Y-65824684D01*
X145953749Y-66026715D01*
X145852733Y-66060387D01*
X145785390Y-66060387D01*
%TO.C,C2*%
X135859533Y-69867410D02*
X135792190Y-69867410D01*
X135657503Y-69800066D01*
X135590159Y-69732723D01*
X135522816Y-69598035D01*
X135522816Y-69463348D01*
X135556487Y-69362333D01*
X135657503Y-69193974D01*
X135758518Y-69092959D01*
X135926877Y-68991944D01*
X136027892Y-68958272D01*
X136162579Y-68958272D01*
X136297266Y-69025616D01*
X136364610Y-69092959D01*
X136431953Y-69227646D01*
X136431953Y-69294990D01*
X136701327Y-69564364D02*
X136768671Y-69564364D01*
X136869686Y-69598035D01*
X137038045Y-69766394D01*
X137071716Y-69867410D01*
X137071716Y-69934753D01*
X137038045Y-70035768D01*
X136970701Y-70103112D01*
X136836014Y-70170455D01*
X136027892Y-70170455D01*
X136465625Y-70608188D01*
%TO.C,U1*%
X128905095Y-52157380D02*
X128905095Y-52966904D01*
X128952714Y-53062142D01*
X129000333Y-53109761D01*
X129095571Y-53157380D01*
X129286047Y-53157380D01*
X129381285Y-53109761D01*
X129428904Y-53062142D01*
X129476523Y-52966904D01*
X129476523Y-52157380D01*
X130476523Y-53157380D02*
X129905095Y-53157380D01*
X130190809Y-53157380D02*
X130190809Y-52157380D01*
X130095571Y-52300238D01*
X130000333Y-52395476D01*
X129905095Y-52443095D01*
%TO.C,R49*%
X151503142Y-59888380D02*
X151169809Y-59412190D01*
X150931714Y-59888380D02*
X150931714Y-58888380D01*
X151312666Y-58888380D01*
X151407904Y-58936000D01*
X151455523Y-58983619D01*
X151503142Y-59078857D01*
X151503142Y-59221714D01*
X151455523Y-59316952D01*
X151407904Y-59364571D01*
X151312666Y-59412190D01*
X150931714Y-59412190D01*
X152360285Y-59221714D02*
X152360285Y-59888380D01*
X152122190Y-58840761D02*
X151884095Y-59555047D01*
X152503142Y-59555047D01*
X152931714Y-59888380D02*
X153122190Y-59888380D01*
X153217428Y-59840761D01*
X153265047Y-59793142D01*
X153360285Y-59650285D01*
X153407904Y-59459809D01*
X153407904Y-59078857D01*
X153360285Y-58983619D01*
X153312666Y-58936000D01*
X153217428Y-58888380D01*
X153026952Y-58888380D01*
X152931714Y-58936000D01*
X152884095Y-58983619D01*
X152836476Y-59078857D01*
X152836476Y-59316952D01*
X152884095Y-59412190D01*
X152931714Y-59459809D01*
X153026952Y-59507428D01*
X153217428Y-59507428D01*
X153312666Y-59459809D01*
X153360285Y-59412190D01*
X153407904Y-59316952D01*
%TO.C,R48*%
X155884642Y-69286380D02*
X155551309Y-68810190D01*
X155313214Y-69286380D02*
X155313214Y-68286380D01*
X155694166Y-68286380D01*
X155789404Y-68334000D01*
X155837023Y-68381619D01*
X155884642Y-68476857D01*
X155884642Y-68619714D01*
X155837023Y-68714952D01*
X155789404Y-68762571D01*
X155694166Y-68810190D01*
X155313214Y-68810190D01*
X156741785Y-68619714D02*
X156741785Y-69286380D01*
X156503690Y-68238761D02*
X156265595Y-68953047D01*
X156884642Y-68953047D01*
X157408452Y-68714952D02*
X157313214Y-68667333D01*
X157265595Y-68619714D01*
X157217976Y-68524476D01*
X157217976Y-68476857D01*
X157265595Y-68381619D01*
X157313214Y-68334000D01*
X157408452Y-68286380D01*
X157598928Y-68286380D01*
X157694166Y-68334000D01*
X157741785Y-68381619D01*
X157789404Y-68476857D01*
X157789404Y-68524476D01*
X157741785Y-68619714D01*
X157694166Y-68667333D01*
X157598928Y-68714952D01*
X157408452Y-68714952D01*
X157313214Y-68762571D01*
X157265595Y-68810190D01*
X157217976Y-68905428D01*
X157217976Y-69095904D01*
X157265595Y-69191142D01*
X157313214Y-69238761D01*
X157408452Y-69286380D01*
X157598928Y-69286380D01*
X157694166Y-69238761D01*
X157741785Y-69191142D01*
X157789404Y-69095904D01*
X157789404Y-68905428D01*
X157741785Y-68810190D01*
X157694166Y-68762571D01*
X157598928Y-68714952D01*
%TO.C,R29*%
X139184142Y-50744380D02*
X138850809Y-50268190D01*
X138612714Y-50744380D02*
X138612714Y-49744380D01*
X138993666Y-49744380D01*
X139088904Y-49792000D01*
X139136523Y-49839619D01*
X139184142Y-49934857D01*
X139184142Y-50077714D01*
X139136523Y-50172952D01*
X139088904Y-50220571D01*
X138993666Y-50268190D01*
X138612714Y-50268190D01*
X139565095Y-49839619D02*
X139612714Y-49792000D01*
X139707952Y-49744380D01*
X139946047Y-49744380D01*
X140041285Y-49792000D01*
X140088904Y-49839619D01*
X140136523Y-49934857D01*
X140136523Y-50030095D01*
X140088904Y-50172952D01*
X139517476Y-50744380D01*
X140136523Y-50744380D01*
X140612714Y-50744380D02*
X140803190Y-50744380D01*
X140898428Y-50696761D01*
X140946047Y-50649142D01*
X141041285Y-50506285D01*
X141088904Y-50315809D01*
X141088904Y-49934857D01*
X141041285Y-49839619D01*
X140993666Y-49792000D01*
X140898428Y-49744380D01*
X140707952Y-49744380D01*
X140612714Y-49792000D01*
X140565095Y-49839619D01*
X140517476Y-49934857D01*
X140517476Y-50172952D01*
X140565095Y-50268190D01*
X140612714Y-50315809D01*
X140707952Y-50363428D01*
X140898428Y-50363428D01*
X140993666Y-50315809D01*
X141041285Y-50268190D01*
X141088904Y-50172952D01*
%TO.C,R20*%
X128672580Y-39352457D02*
X128196390Y-39685790D01*
X128672580Y-39923885D02*
X127672580Y-39923885D01*
X127672580Y-39542933D01*
X127720200Y-39447695D01*
X127767819Y-39400076D01*
X127863057Y-39352457D01*
X128005914Y-39352457D01*
X128101152Y-39400076D01*
X128148771Y-39447695D01*
X128196390Y-39542933D01*
X128196390Y-39923885D01*
X127767819Y-38971504D02*
X127720200Y-38923885D01*
X127672580Y-38828647D01*
X127672580Y-38590552D01*
X127720200Y-38495314D01*
X127767819Y-38447695D01*
X127863057Y-38400076D01*
X127958295Y-38400076D01*
X128101152Y-38447695D01*
X128672580Y-39019123D01*
X128672580Y-38400076D01*
X127672580Y-37781028D02*
X127672580Y-37685790D01*
X127720200Y-37590552D01*
X127767819Y-37542933D01*
X127863057Y-37495314D01*
X128053533Y-37447695D01*
X128291628Y-37447695D01*
X128482104Y-37495314D01*
X128577342Y-37542933D01*
X128624961Y-37590552D01*
X128672580Y-37685790D01*
X128672580Y-37781028D01*
X128624961Y-37876266D01*
X128577342Y-37923885D01*
X128482104Y-37971504D01*
X128291628Y-38019123D01*
X128053533Y-38019123D01*
X127863057Y-37971504D01*
X127767819Y-37923885D01*
X127720200Y-37876266D01*
X127672580Y-37781028D01*
%TO.C,R10*%
X140327142Y-41981380D02*
X139993809Y-41505190D01*
X139755714Y-41981380D02*
X139755714Y-40981380D01*
X140136666Y-40981380D01*
X140231904Y-41029000D01*
X140279523Y-41076619D01*
X140327142Y-41171857D01*
X140327142Y-41314714D01*
X140279523Y-41409952D01*
X140231904Y-41457571D01*
X140136666Y-41505190D01*
X139755714Y-41505190D01*
X141279523Y-41981380D02*
X140708095Y-41981380D01*
X140993809Y-41981380D02*
X140993809Y-40981380D01*
X140898571Y-41124238D01*
X140803333Y-41219476D01*
X140708095Y-41267095D01*
X141898571Y-40981380D02*
X141993809Y-40981380D01*
X142089047Y-41029000D01*
X142136666Y-41076619D01*
X142184285Y-41171857D01*
X142231904Y-41362333D01*
X142231904Y-41600428D01*
X142184285Y-41790904D01*
X142136666Y-41886142D01*
X142089047Y-41933761D01*
X141993809Y-41981380D01*
X141898571Y-41981380D01*
X141803333Y-41933761D01*
X141755714Y-41886142D01*
X141708095Y-41790904D01*
X141660476Y-41600428D01*
X141660476Y-41362333D01*
X141708095Y-41171857D01*
X141755714Y-41076619D01*
X141803333Y-41029000D01*
X141898571Y-40981380D01*
%TO.C,R9*%
X152233333Y-71445380D02*
X151900000Y-70969190D01*
X151661904Y-71445380D02*
X151661904Y-70445380D01*
X152042857Y-70445380D01*
X152138095Y-70493000D01*
X152185714Y-70540619D01*
X152233333Y-70635857D01*
X152233333Y-70778714D01*
X152185714Y-70873952D01*
X152138095Y-70921571D01*
X152042857Y-70969190D01*
X151661904Y-70969190D01*
X152709523Y-71445380D02*
X152900000Y-71445380D01*
X152995238Y-71397761D01*
X153042857Y-71350142D01*
X153138095Y-71207285D01*
X153185714Y-71016809D01*
X153185714Y-70635857D01*
X153138095Y-70540619D01*
X153090476Y-70493000D01*
X152995238Y-70445380D01*
X152804761Y-70445380D01*
X152709523Y-70493000D01*
X152661904Y-70540619D01*
X152614285Y-70635857D01*
X152614285Y-70873952D01*
X152661904Y-70969190D01*
X152709523Y-71016809D01*
X152804761Y-71064428D01*
X152995238Y-71064428D01*
X153090476Y-71016809D01*
X153138095Y-70969190D01*
X153185714Y-70873952D01*
%TO.C,R8*%
X159853333Y-71826380D02*
X159520000Y-71350190D01*
X159281904Y-71826380D02*
X159281904Y-70826380D01*
X159662857Y-70826380D01*
X159758095Y-70874000D01*
X159805714Y-70921619D01*
X159853333Y-71016857D01*
X159853333Y-71159714D01*
X159805714Y-71254952D01*
X159758095Y-71302571D01*
X159662857Y-71350190D01*
X159281904Y-71350190D01*
X160424761Y-71254952D02*
X160329523Y-71207333D01*
X160281904Y-71159714D01*
X160234285Y-71064476D01*
X160234285Y-71016857D01*
X160281904Y-70921619D01*
X160329523Y-70874000D01*
X160424761Y-70826380D01*
X160615238Y-70826380D01*
X160710476Y-70874000D01*
X160758095Y-70921619D01*
X160805714Y-71016857D01*
X160805714Y-71064476D01*
X160758095Y-71159714D01*
X160710476Y-71207333D01*
X160615238Y-71254952D01*
X160424761Y-71254952D01*
X160329523Y-71302571D01*
X160281904Y-71350190D01*
X160234285Y-71445428D01*
X160234285Y-71635904D01*
X160281904Y-71731142D01*
X160329523Y-71778761D01*
X160424761Y-71826380D01*
X160615238Y-71826380D01*
X160710476Y-71778761D01*
X160758095Y-71731142D01*
X160805714Y-71635904D01*
X160805714Y-71445428D01*
X160758095Y-71350190D01*
X160710476Y-71302571D01*
X160615238Y-71254952D01*
%TO.C,R7*%
X152233333Y-81541880D02*
X151900000Y-81065690D01*
X151661904Y-81541880D02*
X151661904Y-80541880D01*
X152042857Y-80541880D01*
X152138095Y-80589500D01*
X152185714Y-80637119D01*
X152233333Y-80732357D01*
X152233333Y-80875214D01*
X152185714Y-80970452D01*
X152138095Y-81018071D01*
X152042857Y-81065690D01*
X151661904Y-81065690D01*
X152566666Y-80541880D02*
X153233333Y-80541880D01*
X152804761Y-81541880D01*
%TO.C,R6*%
X159853333Y-82621380D02*
X159520000Y-82145190D01*
X159281904Y-82621380D02*
X159281904Y-81621380D01*
X159662857Y-81621380D01*
X159758095Y-81669000D01*
X159805714Y-81716619D01*
X159853333Y-81811857D01*
X159853333Y-81954714D01*
X159805714Y-82049952D01*
X159758095Y-82097571D01*
X159662857Y-82145190D01*
X159281904Y-82145190D01*
X160710476Y-81621380D02*
X160520000Y-81621380D01*
X160424761Y-81669000D01*
X160377142Y-81716619D01*
X160281904Y-81859476D01*
X160234285Y-82049952D01*
X160234285Y-82430904D01*
X160281904Y-82526142D01*
X160329523Y-82573761D01*
X160424761Y-82621380D01*
X160615238Y-82621380D01*
X160710476Y-82573761D01*
X160758095Y-82526142D01*
X160805714Y-82430904D01*
X160805714Y-82192809D01*
X160758095Y-82097571D01*
X160710476Y-82049952D01*
X160615238Y-82002333D01*
X160424761Y-82002333D01*
X160329523Y-82049952D01*
X160281904Y-82097571D01*
X160234285Y-82192809D01*
%TO.C,R5*%
X159853333Y-77160380D02*
X159520000Y-76684190D01*
X159281904Y-77160380D02*
X159281904Y-76160380D01*
X159662857Y-76160380D01*
X159758095Y-76208000D01*
X159805714Y-76255619D01*
X159853333Y-76350857D01*
X159853333Y-76493714D01*
X159805714Y-76588952D01*
X159758095Y-76636571D01*
X159662857Y-76684190D01*
X159281904Y-76684190D01*
X160758095Y-76160380D02*
X160281904Y-76160380D01*
X160234285Y-76636571D01*
X160281904Y-76588952D01*
X160377142Y-76541333D01*
X160615238Y-76541333D01*
X160710476Y-76588952D01*
X160758095Y-76636571D01*
X160805714Y-76731809D01*
X160805714Y-76969904D01*
X160758095Y-77065142D01*
X160710476Y-77112761D01*
X160615238Y-77160380D01*
X160377142Y-77160380D01*
X160281904Y-77112761D01*
X160234285Y-77065142D01*
%TO.C,R4*%
X123975833Y-65730380D02*
X123642500Y-65254190D01*
X123404404Y-65730380D02*
X123404404Y-64730380D01*
X123785357Y-64730380D01*
X123880595Y-64778000D01*
X123928214Y-64825619D01*
X123975833Y-64920857D01*
X123975833Y-65063714D01*
X123928214Y-65158952D01*
X123880595Y-65206571D01*
X123785357Y-65254190D01*
X123404404Y-65254190D01*
X124832976Y-65063714D02*
X124832976Y-65730380D01*
X124594880Y-64682761D02*
X124356785Y-65397047D01*
X124975833Y-65397047D01*
%TO.C,R3*%
X125817333Y-67571880D02*
X125484000Y-67095690D01*
X125245904Y-67571880D02*
X125245904Y-66571880D01*
X125626857Y-66571880D01*
X125722095Y-66619500D01*
X125769714Y-66667119D01*
X125817333Y-66762357D01*
X125817333Y-66905214D01*
X125769714Y-67000452D01*
X125722095Y-67048071D01*
X125626857Y-67095690D01*
X125245904Y-67095690D01*
X126150666Y-66571880D02*
X126769714Y-66571880D01*
X126436380Y-66952833D01*
X126579238Y-66952833D01*
X126674476Y-67000452D01*
X126722095Y-67048071D01*
X126769714Y-67143309D01*
X126769714Y-67381404D01*
X126722095Y-67476642D01*
X126674476Y-67524261D01*
X126579238Y-67571880D01*
X126293523Y-67571880D01*
X126198285Y-67524261D01*
X126150666Y-67476642D01*
%TO.C,R2*%
X123912333Y-71381880D02*
X123579000Y-70905690D01*
X123340904Y-71381880D02*
X123340904Y-70381880D01*
X123721857Y-70381880D01*
X123817095Y-70429500D01*
X123864714Y-70477119D01*
X123912333Y-70572357D01*
X123912333Y-70715214D01*
X123864714Y-70810452D01*
X123817095Y-70858071D01*
X123721857Y-70905690D01*
X123340904Y-70905690D01*
X124293285Y-70477119D02*
X124340904Y-70429500D01*
X124436142Y-70381880D01*
X124674238Y-70381880D01*
X124769476Y-70429500D01*
X124817095Y-70477119D01*
X124864714Y-70572357D01*
X124864714Y-70667595D01*
X124817095Y-70810452D01*
X124245666Y-71381880D01*
X124864714Y-71381880D01*
%TO.C,R1*%
X151265880Y-77827166D02*
X150789690Y-78160500D01*
X151265880Y-78398595D02*
X150265880Y-78398595D01*
X150265880Y-78017642D01*
X150313500Y-77922404D01*
X150361119Y-77874785D01*
X150456357Y-77827166D01*
X150599214Y-77827166D01*
X150694452Y-77874785D01*
X150742071Y-77922404D01*
X150789690Y-78017642D01*
X150789690Y-78398595D01*
X151265880Y-76874785D02*
X151265880Y-77446214D01*
X151265880Y-77160500D02*
X150265880Y-77160500D01*
X150408738Y-77255738D01*
X150503976Y-77350976D01*
X150551595Y-77446214D01*
%TO.C,J10*%
X164207367Y-52215628D02*
X164083333Y-52919062D01*
X164011630Y-53051480D01*
X163901301Y-53128733D01*
X163752345Y-53150822D01*
X163658554Y-53134284D01*
X165018527Y-53374084D02*
X164455780Y-53274856D01*
X164737153Y-53324470D02*
X164910801Y-52339662D01*
X164792203Y-52463811D01*
X164681874Y-52541064D01*
X164579814Y-52571422D01*
X165801818Y-52496772D02*
X165895609Y-52513310D01*
X165981131Y-52576744D01*
X166019758Y-52631908D01*
X166050116Y-52733969D01*
X166063935Y-52929820D01*
X166022591Y-53164298D01*
X165942619Y-53343611D01*
X165879186Y-53429134D01*
X165824021Y-53467760D01*
X165721961Y-53498118D01*
X165628170Y-53481580D01*
X165542647Y-53418147D01*
X165504021Y-53362982D01*
X165473663Y-53260922D01*
X165459843Y-53065070D01*
X165501188Y-52830592D01*
X165581160Y-52651279D01*
X165644593Y-52565757D01*
X165699758Y-52527130D01*
X165801818Y-52496772D01*
%TO.C,J9*%
X141144666Y-47585380D02*
X141144666Y-48299666D01*
X141097047Y-48442523D01*
X141001809Y-48537761D01*
X140858952Y-48585380D01*
X140763714Y-48585380D01*
X141668476Y-48585380D02*
X141858952Y-48585380D01*
X141954190Y-48537761D01*
X142001809Y-48490142D01*
X142097047Y-48347285D01*
X142144666Y-48156809D01*
X142144666Y-47775857D01*
X142097047Y-47680619D01*
X142049428Y-47633000D01*
X141954190Y-47585380D01*
X141763714Y-47585380D01*
X141668476Y-47633000D01*
X141620857Y-47680619D01*
X141573238Y-47775857D01*
X141573238Y-48013952D01*
X141620857Y-48109190D01*
X141668476Y-48156809D01*
X141763714Y-48204428D01*
X141954190Y-48204428D01*
X142049428Y-48156809D01*
X142097047Y-48109190D01*
X142144666Y-48013952D01*
%TO.C,J8*%
X149590166Y-63015880D02*
X149590166Y-63730166D01*
X149542547Y-63873023D01*
X149447309Y-63968261D01*
X149304452Y-64015880D01*
X149209214Y-64015880D01*
X150209214Y-63444452D02*
X150113976Y-63396833D01*
X150066357Y-63349214D01*
X150018738Y-63253976D01*
X150018738Y-63206357D01*
X150066357Y-63111119D01*
X150113976Y-63063500D01*
X150209214Y-63015880D01*
X150399690Y-63015880D01*
X150494928Y-63063500D01*
X150542547Y-63111119D01*
X150590166Y-63206357D01*
X150590166Y-63253976D01*
X150542547Y-63349214D01*
X150494928Y-63396833D01*
X150399690Y-63444452D01*
X150209214Y-63444452D01*
X150113976Y-63492071D01*
X150066357Y-63539690D01*
X150018738Y-63634928D01*
X150018738Y-63825404D01*
X150066357Y-63920642D01*
X150113976Y-63968261D01*
X150209214Y-64015880D01*
X150399690Y-64015880D01*
X150494928Y-63968261D01*
X150542547Y-63920642D01*
X150590166Y-63825404D01*
X150590166Y-63634928D01*
X150542547Y-63539690D01*
X150494928Y-63492071D01*
X150399690Y-63444452D01*
%TO.C,J7*%
X149463166Y-66317880D02*
X149463166Y-67032166D01*
X149415547Y-67175023D01*
X149320309Y-67270261D01*
X149177452Y-67317880D01*
X149082214Y-67317880D01*
X149844119Y-66317880D02*
X150510785Y-66317880D01*
X150082214Y-67317880D01*
%TO.C,J6*%
X141144666Y-43902380D02*
X141144666Y-44616666D01*
X141097047Y-44759523D01*
X141001809Y-44854761D01*
X140858952Y-44902380D01*
X140763714Y-44902380D01*
X142049428Y-43902380D02*
X141858952Y-43902380D01*
X141763714Y-43950000D01*
X141716095Y-43997619D01*
X141620857Y-44140476D01*
X141573238Y-44330952D01*
X141573238Y-44711904D01*
X141620857Y-44807142D01*
X141668476Y-44854761D01*
X141763714Y-44902380D01*
X141954190Y-44902380D01*
X142049428Y-44854761D01*
X142097047Y-44807142D01*
X142144666Y-44711904D01*
X142144666Y-44473809D01*
X142097047Y-44378571D01*
X142049428Y-44330952D01*
X141954190Y-44283333D01*
X141763714Y-44283333D01*
X141668476Y-44330952D01*
X141620857Y-44378571D01*
X141573238Y-44473809D01*
%TO.C,J5*%
X155876666Y-77347380D02*
X155876666Y-78061666D01*
X155829047Y-78204523D01*
X155733809Y-78299761D01*
X155590952Y-78347380D01*
X155495714Y-78347380D01*
X156829047Y-77347380D02*
X156352857Y-77347380D01*
X156305238Y-77823571D01*
X156352857Y-77775952D01*
X156448095Y-77728333D01*
X156686190Y-77728333D01*
X156781428Y-77775952D01*
X156829047Y-77823571D01*
X156876666Y-77918809D01*
X156876666Y-78156904D01*
X156829047Y-78252142D01*
X156781428Y-78299761D01*
X156686190Y-78347380D01*
X156448095Y-78347380D01*
X156352857Y-78299761D01*
X156305238Y-78252142D01*
%TO.C,J3*%
X155876666Y-87507380D02*
X155876666Y-88221666D01*
X155829047Y-88364523D01*
X155733809Y-88459761D01*
X155590952Y-88507380D01*
X155495714Y-88507380D01*
X156257619Y-87507380D02*
X156876666Y-87507380D01*
X156543333Y-87888333D01*
X156686190Y-87888333D01*
X156781428Y-87935952D01*
X156829047Y-87983571D01*
X156876666Y-88078809D01*
X156876666Y-88316904D01*
X156829047Y-88412142D01*
X156781428Y-88459761D01*
X156686190Y-88507380D01*
X156400476Y-88507380D01*
X156305238Y-88459761D01*
X156257619Y-88412142D01*
%TO.C,J1*%
X147621666Y-85050380D02*
X147621666Y-85764666D01*
X147574047Y-85907523D01*
X147478809Y-86002761D01*
X147335952Y-86050380D01*
X147240714Y-86050380D01*
X148621666Y-86050380D02*
X148050238Y-86050380D01*
X148335952Y-86050380D02*
X148335952Y-85050380D01*
X148240714Y-85193238D01*
X148145476Y-85288476D01*
X148050238Y-85336095D01*
%TO.C,U2*%
X136361026Y-56730022D02*
X136933446Y-57302442D01*
X137034461Y-57336114D01*
X137101805Y-57336114D01*
X137202820Y-57302442D01*
X137337507Y-57167755D01*
X137371179Y-57066740D01*
X137371179Y-56999396D01*
X137337507Y-56898381D01*
X136765087Y-56325961D01*
X137135477Y-56090259D02*
X137135477Y-56022916D01*
X137169148Y-55921900D01*
X137337507Y-55753542D01*
X137438522Y-55719870D01*
X137505866Y-55719870D01*
X137606881Y-55753542D01*
X137674225Y-55820885D01*
X137741568Y-55955572D01*
X137741568Y-56763694D01*
X138179301Y-56325961D01*
%TO.C,D6*%
X142136904Y-33726380D02*
X142136904Y-32726380D01*
X142375000Y-32726380D01*
X142517857Y-32774000D01*
X142613095Y-32869238D01*
X142660714Y-32964476D01*
X142708333Y-33154952D01*
X142708333Y-33297809D01*
X142660714Y-33488285D01*
X142613095Y-33583523D01*
X142517857Y-33678761D01*
X142375000Y-33726380D01*
X142136904Y-33726380D01*
X143565476Y-32726380D02*
X143375000Y-32726380D01*
X143279761Y-32774000D01*
X143232142Y-32821619D01*
X143136904Y-32964476D01*
X143089285Y-33154952D01*
X143089285Y-33535904D01*
X143136904Y-33631142D01*
X143184523Y-33678761D01*
X143279761Y-33726380D01*
X143470238Y-33726380D01*
X143565476Y-33678761D01*
X143613095Y-33631142D01*
X143660714Y-33535904D01*
X143660714Y-33297809D01*
X143613095Y-33202571D01*
X143565476Y-33154952D01*
X143470238Y-33107333D01*
X143279761Y-33107333D01*
X143184523Y-33154952D01*
X143136904Y-33202571D01*
X143089285Y-33297809D01*
%TO.C,D5*%
X126198404Y-62555380D02*
X126198404Y-61555380D01*
X126436500Y-61555380D01*
X126579357Y-61603000D01*
X126674595Y-61698238D01*
X126722214Y-61793476D01*
X126769833Y-61983952D01*
X126769833Y-62126809D01*
X126722214Y-62317285D01*
X126674595Y-62412523D01*
X126579357Y-62507761D01*
X126436500Y-62555380D01*
X126198404Y-62555380D01*
X127674595Y-61555380D02*
X127198404Y-61555380D01*
X127150785Y-62031571D01*
X127198404Y-61983952D01*
X127293642Y-61936333D01*
X127531738Y-61936333D01*
X127626976Y-61983952D01*
X127674595Y-62031571D01*
X127722214Y-62126809D01*
X127722214Y-62364904D01*
X127674595Y-62460142D01*
X127626976Y-62507761D01*
X127531738Y-62555380D01*
X127293642Y-62555380D01*
X127198404Y-62507761D01*
X127150785Y-62460142D01*
%TO.C,D4*%
X117054404Y-59824880D02*
X117054404Y-58824880D01*
X117292500Y-58824880D01*
X117435357Y-58872500D01*
X117530595Y-58967738D01*
X117578214Y-59062976D01*
X117625833Y-59253452D01*
X117625833Y-59396309D01*
X117578214Y-59586785D01*
X117530595Y-59682023D01*
X117435357Y-59777261D01*
X117292500Y-59824880D01*
X117054404Y-59824880D01*
X118482976Y-59158214D02*
X118482976Y-59824880D01*
X118244880Y-58777261D02*
X118006785Y-59491547D01*
X118625833Y-59491547D01*
%TO.C,D1*%
X161948904Y-71572380D02*
X161948904Y-70572380D01*
X162187000Y-70572380D01*
X162329857Y-70620000D01*
X162425095Y-70715238D01*
X162472714Y-70810476D01*
X162520333Y-71000952D01*
X162520333Y-71143809D01*
X162472714Y-71334285D01*
X162425095Y-71429523D01*
X162329857Y-71524761D01*
X162187000Y-71572380D01*
X161948904Y-71572380D01*
X163472714Y-71572380D02*
X162901285Y-71572380D01*
X163187000Y-71572380D02*
X163187000Y-70572380D01*
X163091761Y-70715238D01*
X162996523Y-70810476D01*
X162901285Y-70858095D01*
%TO.C,D3*%
X161948904Y-82621380D02*
X161948904Y-81621380D01*
X162187000Y-81621380D01*
X162329857Y-81669000D01*
X162425095Y-81764238D01*
X162472714Y-81859476D01*
X162520333Y-82049952D01*
X162520333Y-82192809D01*
X162472714Y-82383285D01*
X162425095Y-82478523D01*
X162329857Y-82573761D01*
X162187000Y-82621380D01*
X161948904Y-82621380D01*
X162853666Y-81621380D02*
X163472714Y-81621380D01*
X163139380Y-82002333D01*
X163282238Y-82002333D01*
X163377476Y-82049952D01*
X163425095Y-82097571D01*
X163472714Y-82192809D01*
X163472714Y-82430904D01*
X163425095Y-82526142D01*
X163377476Y-82573761D01*
X163282238Y-82621380D01*
X162996523Y-82621380D01*
X162901285Y-82573761D01*
X162853666Y-82526142D01*
%TO.C,D2*%
X161948904Y-77160380D02*
X161948904Y-76160380D01*
X162187000Y-76160380D01*
X162329857Y-76208000D01*
X162425095Y-76303238D01*
X162472714Y-76398476D01*
X162520333Y-76588952D01*
X162520333Y-76731809D01*
X162472714Y-76922285D01*
X162425095Y-77017523D01*
X162329857Y-77112761D01*
X162187000Y-77160380D01*
X161948904Y-77160380D01*
X162901285Y-76255619D02*
X162948904Y-76208000D01*
X163044142Y-76160380D01*
X163282238Y-76160380D01*
X163377476Y-76208000D01*
X163425095Y-76255619D01*
X163472714Y-76350857D01*
X163472714Y-76446095D01*
X163425095Y-76588952D01*
X162853666Y-77160380D01*
X163472714Y-77160380D01*
%TO.C,C12*%
X133072142Y-78874857D02*
X133119761Y-78922476D01*
X133167380Y-79065333D01*
X133167380Y-79160571D01*
X133119761Y-79303428D01*
X133024523Y-79398666D01*
X132929285Y-79446285D01*
X132738809Y-79493904D01*
X132595952Y-79493904D01*
X132405476Y-79446285D01*
X132310238Y-79398666D01*
X132215000Y-79303428D01*
X132167380Y-79160571D01*
X132167380Y-79065333D01*
X132215000Y-78922476D01*
X132262619Y-78874857D01*
X133167380Y-77922476D02*
X133167380Y-78493904D01*
X133167380Y-78208190D02*
X132167380Y-78208190D01*
X132310238Y-78303428D01*
X132405476Y-78398666D01*
X132453095Y-78493904D01*
X132262619Y-77541523D02*
X132215000Y-77493904D01*
X132167380Y-77398666D01*
X132167380Y-77160571D01*
X132215000Y-77065333D01*
X132262619Y-77017714D01*
X132357857Y-76970095D01*
X132453095Y-76970095D01*
X132595952Y-77017714D01*
X133167380Y-77589142D01*
X133167380Y-76970095D01*
%TO.C,C11*%
X126483393Y-69457469D02*
X126416049Y-69457469D01*
X126281362Y-69390125D01*
X126214019Y-69322782D01*
X126146675Y-69188095D01*
X126146675Y-69053408D01*
X126180347Y-68952393D01*
X126281362Y-68784034D01*
X126382377Y-68683019D01*
X126550736Y-68582003D01*
X126651751Y-68548332D01*
X126786438Y-68548332D01*
X126921125Y-68615675D01*
X126988469Y-68683019D01*
X127055812Y-68817706D01*
X127055812Y-68885049D01*
X127089484Y-70198248D02*
X126685423Y-69794187D01*
X126887454Y-69996217D02*
X127594561Y-69289110D01*
X127426202Y-69322782D01*
X127291515Y-69322782D01*
X127190500Y-69289110D01*
X127762919Y-70871683D02*
X127358858Y-70467622D01*
X127560889Y-70669652D02*
X128267996Y-69962545D01*
X128099637Y-69996217D01*
X127964950Y-69996217D01*
X127863935Y-69962545D01*
%TO.C,C10*%
X129467894Y-72505469D02*
X129400550Y-72505469D01*
X129265863Y-72438125D01*
X129198520Y-72370782D01*
X129131176Y-72236095D01*
X129131176Y-72101408D01*
X129164848Y-72000393D01*
X129265863Y-71832034D01*
X129366878Y-71731019D01*
X129535237Y-71630003D01*
X129636252Y-71596332D01*
X129770939Y-71596332D01*
X129905626Y-71663675D01*
X129972970Y-71731019D01*
X130040313Y-71865706D01*
X130040313Y-71933049D01*
X130073985Y-73246248D02*
X129669924Y-72842187D01*
X129871955Y-73044217D02*
X130579062Y-72337110D01*
X130410703Y-72370782D01*
X130276016Y-72370782D01*
X130175001Y-72337110D01*
X131218825Y-72976874D02*
X131286168Y-73044217D01*
X131319840Y-73145232D01*
X131319840Y-73212576D01*
X131286168Y-73313591D01*
X131185153Y-73481950D01*
X131016794Y-73650309D01*
X130848436Y-73751324D01*
X130747420Y-73784996D01*
X130680077Y-73784996D01*
X130579062Y-73751324D01*
X130511718Y-73683980D01*
X130478046Y-73582965D01*
X130478046Y-73515622D01*
X130511718Y-73414606D01*
X130612733Y-73246248D01*
X130781092Y-73077889D01*
X130949451Y-72976874D01*
X131050466Y-72943202D01*
X131117810Y-72943202D01*
X131218825Y-72976874D01*
%TD*%
M02*
