%TF.GenerationSoftware,KiCad,Pcbnew,5.1.12-84ad8e8a86~92~ubuntu20.04.1*%
%TF.CreationDate,2022-03-02T23:51:17-06:00*%
%TF.ProjectId,dietSCSI,64696574-5343-4534-992e-6b696361645f,rev?*%
%TF.SameCoordinates,Original*%
%TF.FileFunction,Soldermask,Bot*%
%TF.FilePolarity,Negative*%
%FSLAX46Y46*%
G04 Gerber Fmt 4.6, Leading zero omitted, Abs format (unit mm)*
G04 Created by KiCad (PCBNEW 5.1.12-84ad8e8a86~92~ubuntu20.04.1) date 2022-03-02 23:51:17*
%MOMM*%
%LPD*%
G01*
G04 APERTURE LIST*
%ADD10C,0.650000*%
%ADD11C,1.000000*%
%ADD12R,1.700000X1.700000*%
%ADD13O,1.700000X1.700000*%
%ADD14C,4.000000*%
%ADD15C,1.600000*%
%ADD16R,1.600000X1.600000*%
%ADD17C,0.150000*%
%ADD18C,6.000000*%
G04 APERTURE END LIST*
%TO.C,J2*%
G36*
G01*
X115575177Y-61741335D02*
X116669151Y-61626353D01*
G75*
G02*
X117218676Y-62071350I52264J-497261D01*
G01*
X117218676Y-62071350D01*
G75*
G02*
X116773679Y-62620875I-497261J-52264D01*
G01*
X115679705Y-62735857D01*
G75*
G02*
X115130180Y-62290860I-52264J497261D01*
G01*
X115130180Y-62290860D01*
G75*
G02*
X115575177Y-61741335I497261J52264D01*
G01*
G37*
G36*
G01*
X116478302Y-70334004D02*
X117572276Y-70219022D01*
G75*
G02*
X118121801Y-70664019I52264J-497261D01*
G01*
X118121801Y-70664019D01*
G75*
G02*
X117676804Y-71213544I-497261J-52264D01*
G01*
X116582830Y-71328526D01*
G75*
G02*
X116033305Y-70883529I-52264J497261D01*
G01*
X116033305Y-70883529D01*
G75*
G02*
X116478302Y-70334004I497261J52264D01*
G01*
G37*
G36*
G01*
X111666705Y-62152132D02*
X112263419Y-62089414D01*
G75*
G02*
X112812944Y-62534411I52264J-497261D01*
G01*
X112812944Y-62534411D01*
G75*
G02*
X112367947Y-63083936I-497261J-52264D01*
G01*
X111771233Y-63146654D01*
G75*
G02*
X111221708Y-62701657I-52264J497261D01*
G01*
X111221708Y-62701657D01*
G75*
G02*
X111666705Y-62152132I497261J52264D01*
G01*
G37*
G36*
G01*
X112569831Y-70744801D02*
X113166545Y-70682083D01*
G75*
G02*
X113716070Y-71127080I52264J-497261D01*
G01*
X113716070Y-71127080D01*
G75*
G02*
X113271073Y-71676605I-497261J-52264D01*
G01*
X112674359Y-71739323D01*
G75*
G02*
X112124834Y-71294326I-52264J497261D01*
G01*
X112124834Y-71294326D01*
G75*
G02*
X112569831Y-70744801I497261J52264D01*
G01*
G37*
D10*
X116430817Y-69403872D03*
X115826642Y-63655535D03*
%TD*%
D11*
%TO.C,J13*%
X116492000Y-75539000D03*
G36*
G01*
X115855605Y-83468289D02*
X116138447Y-83185447D01*
G75*
G02*
X116845553Y-83185447I353553J-353553D01*
G01*
X116845553Y-83185447D01*
G75*
G02*
X116845553Y-83892553I-353553J-353553D01*
G01*
X116562711Y-84175395D01*
G75*
G02*
X115855605Y-84175395I-353553J353553D01*
G01*
X115855605Y-84175395D01*
G75*
G02*
X115855605Y-83468289I353553J353553D01*
G01*
G37*
%TD*%
D12*
%TO.C,J12*%
X167980000Y-25336500D03*
D13*
X167980000Y-27876500D03*
X165440000Y-25336500D03*
X165440000Y-27876500D03*
X162900000Y-25336500D03*
X162900000Y-27876500D03*
X160360000Y-25336500D03*
X160360000Y-27876500D03*
X157820000Y-25336500D03*
X157820000Y-27876500D03*
X155280000Y-25336500D03*
X155280000Y-27876500D03*
X152740000Y-25336500D03*
X152740000Y-27876500D03*
X150200000Y-25336500D03*
X150200000Y-27876500D03*
X147660000Y-25336500D03*
X147660000Y-27876500D03*
X145120000Y-25336500D03*
X145120000Y-27876500D03*
X142580000Y-25336500D03*
X142580000Y-27876500D03*
X140040000Y-25336500D03*
X140040000Y-27876500D03*
X137500000Y-25336500D03*
X137500000Y-27876500D03*
X134960000Y-25336500D03*
X134960000Y-27876500D03*
X132420000Y-25336500D03*
X132420000Y-27876500D03*
X129880000Y-25336500D03*
X129880000Y-27876500D03*
X127340000Y-25336500D03*
X127340000Y-27876500D03*
X124800000Y-25336500D03*
X124800000Y-27876500D03*
X122260000Y-25336500D03*
X122260000Y-27876500D03*
X119720000Y-25336500D03*
X119720000Y-27876500D03*
X117180000Y-25336500D03*
X117180000Y-27876500D03*
X114640000Y-25336500D03*
X114640000Y-27876500D03*
X112100000Y-25336500D03*
X112100000Y-27876500D03*
X109560000Y-25336500D03*
X109560000Y-27876500D03*
X107020000Y-25336500D03*
X107020000Y-27876500D03*
%TD*%
D14*
%TO.C,J11*%
X161050000Y-92920000D03*
X113950000Y-92920000D03*
D15*
X152735000Y-94340000D03*
X149965000Y-94340000D03*
X147195000Y-94340000D03*
X144425000Y-94340000D03*
X141655000Y-94340000D03*
X138885000Y-94340000D03*
X136115000Y-94340000D03*
X133345000Y-94340000D03*
X130575000Y-94340000D03*
X127805000Y-94340000D03*
X125035000Y-94340000D03*
X122265000Y-94340000D03*
X154120000Y-91500000D03*
X151350000Y-91500000D03*
X148580000Y-91500000D03*
X145810000Y-91500000D03*
X143040000Y-91500000D03*
X140270000Y-91500000D03*
X137500000Y-91500000D03*
X134730000Y-91500000D03*
X131960000Y-91500000D03*
X129190000Y-91500000D03*
X126420000Y-91500000D03*
X123650000Y-91500000D03*
D16*
X120880000Y-91500000D03*
%TD*%
D17*
%TO.C,J4*%
G36*
X112379118Y-58405615D02*
G01*
X112790385Y-60055118D01*
X111140882Y-60466385D01*
X110729615Y-58816882D01*
X112379118Y-58405615D01*
G37*
G36*
G01*
X111979946Y-56804627D02*
X111979946Y-56804627D01*
G75*
G02*
X111360829Y-57835012I-824751J-205634D01*
G01*
X111360829Y-57835012D01*
G75*
G02*
X110330444Y-57215895I-205634J824751D01*
G01*
X110330444Y-57215895D01*
G75*
G02*
X110949561Y-56185510I824751J205634D01*
G01*
X110949561Y-56185510D01*
G75*
G02*
X111979946Y-56804627I205634J-824751D01*
G01*
G37*
G36*
G01*
X111375142Y-54378887D02*
X111375142Y-54378887D01*
G75*
G02*
X110756025Y-55409272I-824751J-205634D01*
G01*
X110756025Y-55409272D01*
G75*
G02*
X109725640Y-54790155I-205634J824751D01*
G01*
X109725640Y-54790155D01*
G75*
G02*
X110344757Y-53759770I824751J205634D01*
G01*
X110344757Y-53759770D01*
G75*
G02*
X111375142Y-54378887I205634J-824751D01*
G01*
G37*
G36*
G01*
X110770337Y-51953148D02*
X110770337Y-51953148D01*
G75*
G02*
X110151220Y-52983533I-824751J-205634D01*
G01*
X110151220Y-52983533D01*
G75*
G02*
X109120835Y-52364416I-205634J824751D01*
G01*
X109120835Y-52364416D01*
G75*
G02*
X109739952Y-51334031I824751J205634D01*
G01*
X109739952Y-51334031D01*
G75*
G02*
X110770337Y-51953148I205634J-824751D01*
G01*
G37*
%TD*%
D18*
%TO.C,H8*%
X137500000Y-80000000D03*
%TD*%
%TO.C,H7*%
X117000000Y-53000000D03*
%TD*%
%TO.C,H6*%
X158000000Y-53000000D03*
%TD*%
%TO.C,H5*%
X137500000Y-36000000D03*
%TD*%
%TO.C,J10*%
G36*
G01*
X161863648Y-65103046D02*
X161863648Y-65103046D01*
G75*
G02*
X162848336Y-64413560I837087J-147601D01*
G01*
X162848336Y-64413560D01*
G75*
G02*
X163537822Y-65398248I-147601J-837087D01*
G01*
X163537822Y-65398248D01*
G75*
G02*
X162553134Y-66087734I-837087J147601D01*
G01*
X162553134Y-66087734D01*
G75*
G02*
X161863648Y-65103046I147601J837087D01*
G01*
G37*
G36*
G01*
X162304714Y-62601634D02*
X162304714Y-62601634D01*
G75*
G02*
X163289402Y-61912148I837087J-147601D01*
G01*
X163289402Y-61912148D01*
G75*
G02*
X163978888Y-62896836I-147601J-837087D01*
G01*
X163978888Y-62896836D01*
G75*
G02*
X162994200Y-63586322I-837087J147601D01*
G01*
X162994200Y-63586322D01*
G75*
G02*
X162304714Y-62601634I147601J837087D01*
G01*
G37*
G36*
G01*
X162745780Y-60100222D02*
X162745780Y-60100222D01*
G75*
G02*
X163730468Y-59410736I837087J-147601D01*
G01*
X163730468Y-59410736D01*
G75*
G02*
X164419954Y-60395424I-147601J-837087D01*
G01*
X164419954Y-60395424D01*
G75*
G02*
X163435266Y-61084910I-837087J147601D01*
G01*
X163435266Y-61084910D01*
G75*
G02*
X162745780Y-60100222I147601J837087D01*
G01*
G37*
G36*
G01*
X163186847Y-57598811D02*
X163186847Y-57598811D01*
G75*
G02*
X164171535Y-56909325I837087J-147601D01*
G01*
X164171535Y-56909325D01*
G75*
G02*
X164861021Y-57894013I-147601J-837087D01*
G01*
X164861021Y-57894013D01*
G75*
G02*
X163876333Y-58583499I-837087J147601D01*
G01*
X163876333Y-58583499D01*
G75*
G02*
X163186847Y-57598811I147601J837087D01*
G01*
G37*
D17*
G36*
X163480312Y-55934486D02*
G01*
X163775514Y-54260312D01*
X165449688Y-54555514D01*
X165154486Y-56229688D01*
X163480312Y-55934486D01*
G37*
%TD*%
D13*
%TO.C,J9*%
X136230000Y-48006000D03*
D12*
X138770000Y-48006000D03*
%TD*%
D13*
%TO.C,J8*%
X154686000Y-62103000D03*
D12*
X152146000Y-62103000D03*
%TD*%
D13*
%TO.C,J7*%
X154686000Y-65849500D03*
D12*
X152146000Y-65849500D03*
%TD*%
D13*
%TO.C,J6*%
X136230000Y-44323000D03*
D12*
X138770000Y-44323000D03*
%TD*%
D13*
%TO.C,J5*%
X156210000Y-73025000D03*
D12*
X156210000Y-75565000D03*
%TD*%
D13*
%TO.C,J3*%
X156210000Y-83185000D03*
D12*
X156210000Y-85725000D03*
%TD*%
D13*
%TO.C,J1*%
X148145500Y-82994500D03*
X148145500Y-80454500D03*
X148145500Y-77914500D03*
X148145500Y-75374500D03*
X148145500Y-72834500D03*
D12*
X148145500Y-70294500D03*
%TD*%
M02*
