<?xml version="1.0" encoding="UTF-8" standalone="no"?>
<!-- Created with Inkscape (http://www.inkscape.org/) -->

<svg
   xmlns:i="http://ns.adobe.com/AdobeIllustrator/10.0/"
   xmlns:dc="http://purl.org/dc/elements/1.1/"
   xmlns:cc="http://creativecommons.org/ns#"
   xmlns:rdf="http://www.w3.org/1999/02/22-rdf-syntax-ns#"
   xmlns:svg="http://www.w3.org/2000/svg"
   xmlns="http://www.w3.org/2000/svg"
   xmlns:sodipodi="http://sodipodi.sourceforge.net/DTD/sodipodi-0.dtd"
   xmlns:inkscape="http://www.inkscape.org/namespaces/inkscape"
   width="294.58029mm"
   height="120.21587mm"
   viewBox="0 0 294.58029 120.21587"
   version="1.1"
   id="svg2009"
   inkscape:version="0.92.5 (2060ec1f9f, 2020-04-08)"
   sodipodi:docname="title.svg">
  <defs
     id="defs2003" />
  <sodipodi:namedview
     id="base"
     pagecolor="#ffffff"
     bordercolor="#666666"
     borderopacity="1.0"
     inkscape:pageopacity="0.0"
     inkscape:pageshadow="2"
     inkscape:zoom="0.49497475"
     inkscape:cx="-162.6522"
     inkscape:cy="373.21634"
     inkscape:document-units="mm"
     inkscape:current-layer="layer1"
     showgrid="false"
     fit-margin-top="0"
     fit-margin-left="0"
     fit-margin-right="0"
     fit-margin-bottom="0"
     inkscape:window-width="2560"
     inkscape:window-height="1027"
     inkscape:window-x="1920"
     inkscape:window-y="0"
     inkscape:window-maximized="1" />
  <metadata
     id="metadata2006">
    <rdf:RDF>
      <cc:Work
         rdf:about="">
        <dc:format>image/svg+xml</dc:format>
        <dc:type
           rdf:resource="http://purl.org/dc/dcmitype/StillImage" />
        <dc:title></dc:title>
      </cc:Work>
    </rdf:RDF>
  </metadata>
  <g
     inkscape:label="Layer 1"
     inkscape:groupmode="layer"
     id="layer1"
     transform="translate(100.82504,-33.56123)">
    <g
       id="g1480"
       transform="matrix(2.3928464,0,0,2.3928464,-636.0362,-210.00864)">
      <path
         style="stroke-width:0.26458332"
         inkscape:export-ydpi="2000"
         inkscape:export-xdpi="2000"
         id="path2"
         i:knockout="Off"
         d="m 225.29337,106.87854 c -0.59055,0.762 -1.01917,1.68593 -1.28587,2.80988 -0.28575,1.12395 -0.32385,0.77152 -0.33338,3.90525 -0.0286,3.15277 0.17145,10.46797 0.23813,14.7066 0.019,4.16242 0.01,7.18211 0.0857,10.26821 0.0667,3.08584 -0.3429,6.16268 0.4191,8.16293 0.79058,1.95262 2.2098,2.68605 4.14338,3.56235 1.88595,0.86677 4.4577,1.3335 7.0866,1.58141 2.60032,0.20955 5.84835,0.28549 8.4201,-0.28575 2.5527,-0.61939 5.29616,-2.34315 6.72465,-3.26734 1.36207,-0.94271 1.27635,-1.00938 1.58141,-2.29552 0.25718,-1.31445 0.20003,-2.00025 0.20003,-5.51498 -0.0384,-3.59092 -0.0857,-11.30617 -0.18124,-15.64957 -0.10478,-4.35293 -0.1905,-7.67715 -0.29528,-10.11555 -0.1143,-2.41935 -0.0283,-2.95275 -0.36168,-4.28625 -0.381,-1.36208 -0.93345,-2.58128 -1.77165,-3.76238 0.0381,-0.2667 0.0857,-0.5334 0.14287,-0.9144 0.0283,-0.381 0.0667,-0.8001 0.1143,-1.2954 -0.92392,-0.89535 -2.34288,-1.53352 -4.29551,-1.99072 -2.01004,-0.4662 -4.58179,-0.771 -7.42024,-0.6948 -2.86702,0.0572 -7.239,0.40958 -9.47737,1.05728 -2.22885,0.61912 -3.48615,1.50495 -3.81,2.69557 0.019,0.43815 0.0476,0.8763 0.0762,1.32398 z"
         inkscape:connector-curvature="0" />
      <path
         inkscape:export-ydpi="2000"
         inkscape:export-xdpi="2000"
         id="path4"
         i:knockout="Off"
         d="m 236.95197,104.46872 c -0.80962,-0.5715 -1.6002,-0.97155 -2.33362,-1.31445 -0.77153,-0.35243 -1.55258,-0.56198 -2.12408,-0.66675 -0.59055,-0.0953 -1.00965,-0.0191 -1.3335,0.0857 -0.3048,0.0762 -0.42862,0.16192 -0.55245,0.33337 -0.1524,0.13335 -0.39052,0.3048 -0.31432,0.59055 0.0381,0.28575 0.1143,0.69533 0.59055,1.07633 0.44767,0.3429 1.13347,0.78105 2.1336,1.05727 1.00012,0.25718 2.23837,0.39053 3.79095,0.43815 -0.32385,-0.3429 -0.46673,-0.62865 -0.42863,-0.89535 0.01,-0.2667 0.20003,-0.51435 0.5715,-0.70485 z"
         style="fill:#ffffff;stroke-width:0.26458332"
         inkscape:connector-curvature="0" />
      <path
         style="stroke-width:0.26458332"
         inkscape:export-ydpi="2000"
         inkscape:export-xdpi="2000"
         id="path6"
         i:knockout="Off"
         d="m 236.06615,104.32584 c -1.7907,-0.8382 -3.0099,-1.32397 -3.80048,-1.35255 -0.79057,-0.0572 -0.9525,0.69533 -0.84772,1.04775 0.0857,0.3429 0.60007,0.71438 1.40017,1.00965 0.79058,0.25718 1.83833,0.51435 3.25755,0.66675 -0.43815,-0.39052 -0.65722,-0.66675 -0.65722,-0.90487 -0.019,-0.21908 0.20955,-0.40005 0.6477,-0.46673 z"
         inkscape:connector-curvature="0" />
      <path
         inkscape:export-ydpi="2000"
         inkscape:export-xdpi="2000"
         id="path8"
         i:knockout="Off"
         d="m 237.79017,104.41157 c -0.23812,0.0857 -0.59055,0.27622 -0.65722,0.5715 -0.0857,0.31432 -0.24765,0.94297 0.10477,1.26682 0.33338,0.2667 1.33377,0.61913 1.81928,0.43815 0.44741,-0.21907 0.90487,-1.17157 0.85698,-1.57162 -0.095,-0.40005 -1.00938,-0.70485 -1.35228,-0.80963 -0.35243,-0.14287 -0.56198,-0.01 -0.77153,0.10478 z"
         style="fill:#ffffff;stroke-width:0.26458332"
         inkscape:connector-curvature="0" />
      <path
         style="stroke-width:0.26458332"
         inkscape:export-ydpi="2000"
         inkscape:export-xdpi="2000"
         id="path10"
         i:knockout="Off"
         d="m 238.11402,105.03069 c -0.20002,0.0667 -0.27622,0.54293 -0.1524,0.73343 0.0952,0.17145 0.56198,0.37147 0.78105,0.3048 0.20955,-0.0953 0.44768,-0.6096 0.381,-0.77153 -0.1143,-0.1905 -0.81915,-0.35242 -1.00965,-0.2667 z"
         inkscape:connector-curvature="0" />
      <path
         inkscape:export-ydpi="2000"
         inkscape:export-xdpi="2000"
         id="path12"
         i:knockout="Off"
         d="m 243.96237,107.04047 c 0.58076,-0.0286 0.98108,-0.1905 1.23825,-0.44768 0.23813,-0.29527 0.44768,-0.89535 0.2286,-1.1811 -0.21907,-0.28575 -0.77152,-0.50482 -1.61925,-0.55245 -0.90487,-0.0571 -2.1336,-0.0476 -3.72427,0.13335 -0.01,-0.25717 -0.10478,-0.42862 -0.36195,-0.61912 -0.27623,-0.20003 -0.78105,-0.44768 -1.143,-0.44768 -0.38074,-0.0286 -0.71438,0.0952 -1.03796,0.37148 l -0.73343,-0.381 c 0.32385,-0.2286 1.03823,-0.381 2.14313,-0.4191 1.09537,-0.0762 3.01942,-0.0952 4.44844,0.12382 1.41896,0.1905 3.16203,0.78105 3.98145,1.15253 0.762,0.33337 1.22872,0.6858 0.66675,1.05727 -0.60061,0.381 -1.91506,0.77153 -4.08676,1.20968 z"
         style="fill:#ffffff;stroke-width:0.26458332"
         inkscape:connector-curvature="0" />
      <path
         inkscape:export-ydpi="2000"
         inkscape:export-xdpi="2000"
         id="path14"
         i:knockout="Off"
         d="m 236.55192,106.25942 c -0.0952,0 0.01,0.0762 0.27623,0.1905 0.27622,0.12382 0.82867,0.4191 1.36207,0.48577 0.52388,0.0191 1.05728,-0.0571 1.70498,-0.2667 0.0381,0.0857 0.20002,0.20003 0.52361,0.3048 0.32411,0.10478 0.73342,0.20003 1.34302,0.32385 -0.60007,0.0571 -1.40017,0.0952 -2.4384,0.1524 -1.0668,0.0381 -2.3622,0.14288 -3.7338,0.13335 -1.39065,-0.019 -3.0099,-0.1143 -4.4577,-0.28575 -1.47637,-0.2286 -2.83845,-0.51435 -4.2291,-0.96202 -0.0667,-0.31433 0.20955,-0.62865 0.75248,-0.98108 0.54292,-0.36195 1.38112,-0.69532 2.5527,-1.07632 0.52387,0.5334 1.07632,0.94297 1.77165,1.26682 0.65722,0.29528 1.46685,0.48578 2.2479,0.6096 0.77179,0.13335 1.53379,0.13335 2.32436,0.10478 z"
         style="fill:#ffffff;stroke-width:0.26458332"
         inkscape:connector-curvature="0" />
      <path
         inkscape:export-ydpi="2000"
         inkscape:export-xdpi="2000"
         style="fill:#ffffff;stroke-width:0.00953171"
         inkscape:connector-curvature="0"
         id="path16"
         i:knockout="Off"
         d="m 234.2183,102.56907 c 1.21661,-0.2023 2.32004,-0.289 3.42347,-0.36607 1.07515,-0.0963 1.86709,-0.0771 3.03681,-0.0193 1.13146,0.0674 2.77273,0.2601 3.82874,0.42387 1.03742,0.1445 1.6693,0.21194 2.40519,0.4624 0.72593,0.23121 1.45238,0.59728 1.88595,0.87665 0.39636,0.24083 0.54726,0.42387 0.5284,0.6936 -0.0472,0.24084 -0.26407,0.52021 -0.72619,0.83811 -0.0941,-0.3468 -0.443,-0.68397 -1.08458,-1.01151 -0.64131,-0.36607 -1.53726,-0.73214 -2.7633,-0.98261 -1.27319,-0.27937 -3.27257,-0.41424 -4.72496,-0.44314 -1.46181,-0.0193 -2.78216,0.12524 -3.99877,0.39498 z" />
      <path
         inkscape:export-ydpi="2000"
         inkscape:export-xdpi="2000"
         style="fill:#ffffff;stroke-width:0.00882852"
         inkscape:connector-curvature="0"
         id="path18"
         i:knockout="Off"
         d="m 229.82964,102.92425 c -0.37799,0.0544 -0.84188,0.21775 -1.39168,0.45365 -0.59275,0.25404 -1.5549,0.61696 -1.95865,0.97988 -0.42094,0.33571 -0.48108,0.63512 -0.44672,0.93453 0.0344,0.25404 0.26631,0.47179 0.69584,0.65326 -0.12027,-0.21776 0.0515,-0.46273 0.58416,-0.77121 0.52403,-0.31756 1.34873,-0.63511 2.50846,-1.02525 -0.11168,-0.16332 -0.16322,-0.36293 -0.15463,-0.56253 -0.0172,-0.20868 0.0687,-0.41736 0.16322,-0.66233 z" />
      <path
         inkscape:export-ydpi="2000"
         inkscape:export-xdpi="2000"
         style="fill:#ffffff;stroke-width:0.0090564"
         inkscape:connector-curvature="0"
         id="path20"
         i:knockout="Off"
         d="m 225.68072,105.69641 c -0.0847,0.0262 -0.0847,0.1482 -0.10349,0.36614 0.009,0.20923 0,0.51435 0.0753,0.91537 0.5739,0.36614 1.2701,0.62768 2.12625,0.88921 0.84673,0.20922 1.69347,0.37486 2.93535,0.53178 1.20425,0.16564 2.95418,0.33128 4.33718,0.42717 1.33596,0.061 2.1827,0.0697 3.81032,-0.009 1.62788,-0.0697 4.04552,-0.15692 5.87071,-0.42717 1.78782,-0.32256 3.35899,-0.74973 4.78877,-1.3774 l 0.30106,-1.79586 c -0.3481,0.53178 -0.96904,0.94152 -1.86282,1.3251 -0.93141,0.33999 -2.25823,0.61896 -3.54689,0.8369 -1.30774,0.19179 -2.81305,0.33999 -4.11138,0.44461 -1.28892,0.0872 -2.25796,0.13076 -3.5657,0.13076 -1.34537,-0.0262 -3.08589,-0.0959 -4.34659,-0.17437 -1.2607,-0.0959 -2.24856,-0.22666 -3.17997,-0.3923 -0.96904,-0.20051 -1.87223,-0.47076 -2.45554,-0.74101 -0.59271,-0.2964 -0.95022,-0.60152 -1.07253,-0.95023 z" />
      <path
         inkscape:export-ydpi="2000"
         inkscape:export-xdpi="2000"
         inkscape:connector-curvature="0"
         style="fill:#ffffff;stroke-width:0.00926016"
         id="path22"
         d="m 225.77766,107.72837 c -0.33337,0.65747 -0.58353,1.29621 -0.78725,1.91664 -0.20373,0.61117 -0.33343,0.91678 -0.42604,1.77798 -0.14816,0.83341 -0.24976,1.88925 -0.26828,3.31531 -0.009,1.41681 0.0461,3.12969 0.20347,5.17619 l 0.15776,11.07532 c 0.0185,2.91695 0.0928,5.5372 0.12057,7.93584 0.0556,2.39838 0.0648,4.4637 0.12962,6.34325 1.3242,1.35199 3.05581,2.38919 5.23195,3.14852 2.19466,0.75007 5.38941,1.20357 7.76001,1.36099 2.34282,0.12038 3.91765,0.065 6.22318,-0.6295 2.27774,-0.73155 4.66673,-1.93515 7.31488,-3.68558 0.1762,-2.91695 0.25047,-5.49102 0.32455,-7.89867 0.0283,-2.40507 0.0539,-4.50671 -0.0181,-6.40504 v -0.004 l -0.12157,-8.54678 c -0.0278,-1.36125 -0.065,-2.75034 -0.11154,-4.24123 -0.0556,-1.52793 -0.12034,-3.39855 -0.19442,-4.64867 -0.0924,-1.25012 -0.0554,-1.73143 -0.35168,-2.73152 -0.3241,-1.00936 -0.83327,-2.09299 -1.52779,-3.25051 -0.94453,0.54635 -2.11157,0.99074 -3.61172,1.33336 -1.50941,0.33337 -3.32413,0.54658 -5.3058,0.67623 -2.03724,0.10186 -4.50956,0.18534 -6.56531,0.0372 -2.07427,-0.16669 -4.19482,-0.6578 -5.57458,-0.97264 -1.38877,-0.35189 -2.22224,-0.71276 -2.60191,-1.08317 z" />
      <g
         inkscape:export-ydpi="2000"
         inkscape:export-xdpi="2000"
         style="stroke:#000000"
         transform="matrix(0.4328708,0,0,0.4328708,224.60572,115.78406)"
         id="g857">
        <path
           inkscape:connector-curvature="0"
           id="path885"
           style="fill:none;stroke:#000000;stroke-width:5.19799995;stroke-linecap:round;stroke-linejoin:round"
           d="M 50.177,24.067 50.133,50.584 H 12.215 V 12.921 l 27.386,-0.106"
           sodipodi:nodetypes="ccccc"
           transform="matrix(0.68018,0.68018,-0.68018,0.68018,31.677,-13.052)"
           sodipodi:stroke-cmyk="(0 0 0 0.8)" />
        <path
           inkscape:connector-curvature="0"
           id="path886"
           style="fill:none;stroke:#000000;stroke-width:5.19789982;stroke-linecap:round;stroke-linejoin:round"
           d="M 44.534,24.627 H 60.312"
           sodipodi:nodetypes="cc"
           transform="matrix(0.96192,0,0,0.96192,-1.0115,6.5168)"
           sodipodi:stroke-cmyk="(0 0 0 0.8)" />
      </g>
    </g>
    <g
       aria-label="dietSCSI"
       style="font-style:normal;font-weight:normal;font-size:49.11437607px;line-height:125%;font-family:sans-serif;letter-spacing:-3.51167989px;word-spacing:0px;fill:#000000;fill-opacity:1;stroke:none;stroke-width:1.22785938px;stroke-linecap:butt;stroke-linejoin:miter;stroke-opacity:1"
       id="text1484"
       transform="translate(0,-8.2951159)">
      <path
         d="m 8.73555,107.56332 q 0,3.38889 1.522546,5.45169 1.522545,2.06281 4.518522,2.06281 0.982288,0 1.817232,-0.0491 0.834945,-0.0982 1.375203,-0.19645 v -13.31 q -0.687602,-0.44203 -1.817232,-0.73672 -1.080516,-0.29468 -2.210147,-0.29468 -5.206124,0 -5.206124,7.07247 z m 16.551545,12.27859 q -0.982288,0.29469 -2.259262,0.58938 -1.276973,0.24557 -2.70129,0.44202 -1.375203,0.19646 -2.848634,0.29469 -1.424317,0.14734 -2.750405,0.14734 -3.192435,0 -5.6972677,-0.93317 -2.5048332,-0.93317 -4.2238364,-2.65218 -1.7190031,-1.76811 -2.6521763,-4.22383 -0.8840587,-2.50484 -0.8840587,-5.59904 0,-3.14332 0.78583,-5.64815 0.78583,-2.553952 2.2592613,-4.322069 1.4734313,-1.768118 3.5853494,-2.701291 2.1610324,-0.933173 4.9114374,-0.933173 1.522546,0 2.701291,0.294686 1.227859,0.294687 2.455719,0.834945 V 83.742846 l 7.318042,-1.178745 z"
         style="font-style:normal;font-variant:normal;font-weight:bold;font-stretch:normal;font-family:Ubuntu;-inkscape-font-specification:'Ubuntu Bold';letter-spacing:-0.15345831px;fill:#000000;fill-opacity:1;stroke-width:1.22785938px"
         id="path2612"
         inkscape:connector-curvature="0" />
      <path
         d="M 39.327602,120.67686 H 32.00956 V 94.842695 h 7.318042 z m 0.687601,-33.29955 q 0,2.013689 -1.326088,3.192434 -1.276974,1.129631 -3.045091,1.129631 -1.768118,0 -3.094206,-1.129631 -1.276974,-1.178745 -1.276974,-3.192434 0,-2.013689 1.276974,-3.14332 1.326088,-1.178745 3.094206,-1.178745 1.768117,0 3.045091,1.178745 1.326088,1.129631 1.326088,3.14332 z"
         style="font-style:normal;font-variant:normal;font-weight:bold;font-stretch:normal;font-family:Ubuntu;-inkscape-font-specification:'Ubuntu Bold';letter-spacing:-0.15345831px;fill:#000000;fill-opacity:1;stroke-width:1.22785938px"
         id="path2614"
         inkscape:connector-curvature="0" />
      <path
         d="m 44.822274,107.95623 q 0,-3.438 1.031402,-5.99195 1.080516,-2.603062 2.799519,-4.322065 1.719003,-1.719004 3.92915,-2.603062 2.259261,-0.884059 4.616751,-0.884059 5.500811,0 8.693245,3.388892 3.192434,3.339774 3.192434,9.871994 0,0.63848 -0.04911,1.42431 -0.04911,0.73672 -0.09823,1.32609 H 52.336773 q 0.245572,2.25926 2.111918,3.58535 1.866347,1.32609 5.009667,1.32609 2.013689,0 3.92915,-0.3438 1.964575,-0.39292 3.192434,-0.93318 l 0.982288,5.94284 q -0.589373,0.29469 -1.57166,0.58938 -0.982288,0.29468 -2.210147,0.49114 -1.178745,0.24557 -2.553948,0.39292 -1.375202,0.14734 -2.750405,0.14734 -3.487121,0 -6.090182,-1.0314 -2.553948,-1.03141 -4.272951,-2.79952 -1.669889,-1.81723 -2.504833,-4.27295 -0.78583,-2.45572 -0.78583,-5.30436 z m 17.190031,-2.79952 q -0.04911,-0.93317 -0.3438,-1.81723 -0.245572,-0.88406 -0.834945,-1.57166 -0.540258,-0.6876 -1.424317,-1.12963 -0.834944,-0.44203 -2.111918,-0.44203 -1.227859,0 -2.111918,0.44203 -0.884059,0.39292 -1.473431,1.08052 -0.589373,0.6876 -0.933173,1.62077 -0.294687,0.88406 -0.44203,1.81723 z"
         style="font-style:normal;font-variant:normal;font-weight:bold;font-stretch:normal;font-family:Ubuntu;-inkscape-font-specification:'Ubuntu Bold';letter-spacing:-0.15345831px;fill:#000000;fill-opacity:1;stroke-width:1.22785938px"
         id="path2616"
         inkscape:connector-curvature="0" />
      <path
         d="m 74.333881,88.408712 7.318042,-1.178745 v 7.612728 h 8.791473 v 6.090185 h -8.791473 v 9.08616 q 0,2.30837 0.78583,3.68358 0.834944,1.3752 3.290663,1.3752 1.178745,0 2.406605,-0.19646 1.276973,-0.24557 2.308375,-0.63849 l 1.031402,5.69727 q -1.326088,0.54026 -2.946862,0.93317 -1.620775,0.39292 -3.978265,0.39292 -2.995977,0 -4.960552,-0.78583 -1.964575,-0.83494 -3.14332,-2.25926 -1.178745,-1.47343 -1.669889,-3.53624 -0.442029,-2.0628 -0.442029,-4.56763 z"
         style="font-style:normal;font-variant:normal;font-weight:bold;font-stretch:normal;font-family:Ubuntu;-inkscape-font-specification:'Ubuntu Bold';letter-spacing:-0.15345831px;fill:#000000;fill-opacity:1;stroke-width:1.22785938px"
         id="path2618"
         inkscape:connector-curvature="0" />
      <path
         d="m 106.00646,114.83225 q 1.62077,0 2.65217,-0.24558 1.08052,-0.29468 1.71901,-0.73671 0.63848,-0.49115 0.88406,-1.12963 0.24557,-0.63849 0.24557,-1.42432 0,-1.66989 -1.57166,-2.7504 -1.57166,-1.12963 -5.40258,-2.40661 -1.66989,-0.58937 -3.33978,-1.32609 -1.66989,-0.78583 -2.995978,-1.91546 -1.326088,-1.17874 -2.161033,-2.79952 -0.834944,-1.669885 -0.834944,-4.027375 0,-2.35749 0.884059,-4.223837 0.884058,-1.91546 2.504833,-3.241549 1.620773,-1.326088 3.929153,-2.013689 2.30837,-0.736716 5.20612,-0.736716 3.43801,0 5.94284,0.736716 2.50483,0.736716 4.12561,1.620774 l -2.21015,6.041069 q -1.42432,-0.736716 -3.19243,-1.276974 -1.71901,-0.589373 -4.17473,-0.589373 -2.7504,0 -3.97826,0.78583 -1.17874,0.736716 -1.17874,2.308376 0,0.933173 0.44202,1.57166 0.44203,0.638487 1.22786,1.178745 0.83495,0.491144 1.86635,0.933173 1.08052,0.392915 2.35749,0.834945 2.65218,0.982285 4.61675,1.964575 1.96458,0.93317 3.24155,2.21015 1.32609,1.27697 1.96458,2.99597 0.63848,1.71901 0.63848,4.17473 0,4.76409 -3.33978,7.41627 -3.33977,2.60306 -10.06844,2.60306 -2.25926,0 -4.0765,-0.29469 -1.81723,-0.24557 -3.241544,-0.63848 -1.375203,-0.39292 -2.406605,-0.83495 -0.982287,-0.44203 -1.669889,-0.83494 l 2.161033,-6.09019 q 1.522546,0.83495 3.732695,1.52255 2.25926,0.63849 5.50081,0.63849 z"
         style="font-style:normal;font-variant:normal;font-weight:bold;font-stretch:normal;font-family:Ubuntu;-inkscape-font-specification:'Ubuntu Bold';letter-spacing:-0.15345831px;fill:#000000;fill-opacity:1;stroke-width:1.22785938px"
         id="path2620"
         inkscape:connector-curvature="0" />
      <path
         d="m 140.67504,121.36446 q -8.30033,0 -12.67151,-4.61675 -4.32207,-4.61675 -4.32207,-13.11354 0,-4.223838 1.32609,-7.514501 1.32609,-3.339778 3.63446,-5.599039 2.30838,-2.308376 5.50081,-3.487121 3.19244,-1.178745 6.92513,-1.178745 2.16103,0 3.92915,0.343801 1.76812,0.294686 3.09421,0.736716 1.32609,0.392915 2.21014,0.834944 0.88406,0.442029 1.27698,0.687601 l -2.21015,6.188412 q -1.57166,-0.834945 -3.68358,-1.424317 -2.0628,-0.589373 -4.71498,-0.589373 -1.76811,0 -3.48712,0.589373 -1.66989,0.589372 -2.99597,1.91546 -1.27698,1.276974 -2.06281,3.339778 -0.78583,2.062801 -0.78583,5.009671 0,2.35749 0.49115,4.42029 0.54025,2.01369 1.66988,3.48712 1.17875,1.47343 3.0451,2.35749 1.86634,0.83494 4.51852,0.83494 1.66989,0 2.99597,-0.19645 1.32609,-0.19646 2.35749,-0.44203 1.03141,-0.29469 1.81724,-0.63849 0.78583,-0.3438 1.42431,-0.63849 l 2.11192,6.1393 q -1.62077,0.98229 -4.56764,1.76812 -2.94686,0.78583 -6.82689,0.78583 z"
         style="font-style:normal;font-variant:normal;font-weight:bold;font-stretch:normal;font-family:Ubuntu;-inkscape-font-specification:'Ubuntu Bold';letter-spacing:-0.15345831px;fill:#000000;fill-opacity:1;stroke-width:1.22785938px"
         id="path2622"
         inkscape:connector-curvature="0" />
      <path
         d="m 166.94497,114.83225 q 1.62078,0 2.65218,-0.24558 1.08051,-0.29468 1.719,-0.73671 0.63849,-0.49115 0.88406,-1.12963 0.24557,-0.63849 0.24557,-1.42432 0,-1.66989 -1.57166,-2.7504 -1.57166,-1.12963 -5.40258,-2.40661 -1.66989,-0.58937 -3.33978,-1.32609 -1.66989,-0.78583 -2.99597,-1.91546 -1.32609,-1.17874 -2.16104,-2.79952 -0.83494,-1.669885 -0.83494,-4.027375 0,-2.35749 0.88406,-4.223837 0.88406,-1.91546 2.50483,-3.241549 1.62078,-1.326088 3.92915,-2.013689 2.30838,-0.736716 5.20613,-0.736716 3.438,0 5.94284,0.736716 2.50483,0.736716 4.1256,1.620774 l -2.21014,6.041069 q -1.42432,-0.736716 -3.19244,-1.276974 -1.719,-0.589373 -4.17472,-0.589373 -2.75041,0 -3.97827,0.78583 -1.17874,0.736716 -1.17874,2.308376 0,0.933173 0.44203,1.57166 0.44203,0.638487 1.22786,1.178745 0.83494,0.491144 1.86634,0.933173 1.08052,0.392915 2.35749,0.834945 2.65218,0.982285 4.61676,1.964575 1.96457,0.93317 3.24155,2.21015 1.32608,1.27697 1.96457,2.99597 0.63849,1.71901 0.63849,4.17473 0,4.76409 -3.33978,7.41627 -3.33978,2.60306 -10.06845,2.60306 -2.25926,0 -4.07649,-0.29469 -1.81723,-0.24557 -3.24155,-0.63848 -1.3752,-0.39292 -2.4066,-0.83495 -0.98229,-0.44203 -1.66989,-0.83494 l 2.16103,-6.09019 q 1.52255,0.83495 3.73269,1.52255 2.25926,0.63849 5.50081,0.63849 z"
         style="font-style:normal;font-variant:normal;font-weight:bold;font-stretch:normal;font-family:Ubuntu;-inkscape-font-specification:'Ubuntu Bold';letter-spacing:-0.15345831px;fill:#000000;fill-opacity:1;stroke-width:1.22785938px"
         id="path2624"
         inkscape:connector-curvature="0" />
      <path
         d="m 186.0934,86.640594 h 7.66184 v 34.036266 h -7.66184 z"
         style="font-style:normal;font-variant:normal;font-weight:bold;font-stretch:normal;font-family:Ubuntu;-inkscape-font-specification:'Ubuntu Bold';letter-spacing:-0.15345831px;fill:#000000;fill-opacity:1;stroke-width:1.22785938px"
         id="path2626"
         inkscape:connector-curvature="0" />
    </g>
  </g>
</svg>
