%TF.GenerationSoftware,KiCad,Pcbnew,5.1.12-84ad8e8a86~92~ubuntu20.04.1*%
%TF.CreationDate,2022-08-13T14:28:54-05:00*%
%TF.ProjectId,dietSCSI,64696574-5343-4534-992e-6b696361645f,rev?*%
%TF.SameCoordinates,Original*%
%TF.FileFunction,Legend,Top*%
%TF.FilePolarity,Positive*%
%FSLAX46Y46*%
G04 Gerber Fmt 4.6, Leading zero omitted, Abs format (unit mm)*
G04 Created by KiCad (PCBNEW 5.1.12-84ad8e8a86~92~ubuntu20.04.1) date 2022-08-13 14:28:54*
%MOMM*%
%LPD*%
G01*
G04 APERTURE LIST*
%ADD10C,0.300000*%
%ADD11C,0.150000*%
%ADD12C,0.120000*%
%ADD13C,0.100000*%
G04 APERTURE END LIST*
D10*
X134348000Y-46266500D02*
X134048000Y-46266500D01*
X134448000Y-42566500D02*
X134448000Y-49466500D01*
X134448000Y-49466500D02*
X136248000Y-49466500D01*
X134448000Y-42566500D02*
X136248000Y-42566500D01*
X150348000Y-67666500D02*
X152148000Y-67666500D01*
X150348000Y-60266500D02*
X150348000Y-67666500D01*
X150348000Y-60266500D02*
X152148000Y-60266500D01*
X148048000Y-59366500D02*
X150348000Y-60266500D01*
X148048000Y-58466500D02*
X148048000Y-59366500D01*
D11*
X156206071Y-77435547D02*
X156206071Y-78197452D01*
X155825119Y-77816500D02*
X156587023Y-77816500D01*
X156213928Y-71197452D02*
X156213928Y-70435547D01*
X156213928Y-81347452D02*
X156213928Y-80585547D01*
X156206071Y-87585547D02*
X156206071Y-88347452D01*
X155825119Y-87966500D02*
X156587023Y-87966500D01*
X122540967Y-20391500D02*
X122451681Y-20343880D01*
X122308824Y-20343880D01*
X122160014Y-20391500D01*
X122052872Y-20486738D01*
X121993348Y-20581976D01*
X121921919Y-20772452D01*
X121904062Y-20915309D01*
X121927872Y-21105785D01*
X121963586Y-21201023D01*
X122046919Y-21296261D01*
X122183824Y-21343880D01*
X122279062Y-21343880D01*
X122427872Y-21296261D01*
X122481443Y-21248642D01*
X122523110Y-20915309D01*
X122332633Y-20915309D01*
X124539300Y-31900880D02*
X125110729Y-31900880D01*
X124700014Y-32900880D02*
X124825014Y-31900880D01*
X122469538Y-32900880D02*
X122195729Y-32424690D01*
X121898110Y-32900880D02*
X122023110Y-31900880D01*
X122404062Y-31900880D01*
X122493348Y-31948500D01*
X122535014Y-31996119D01*
X122570729Y-32091357D01*
X122552872Y-32234214D01*
X122493348Y-32329452D01*
X122439776Y-32377071D01*
X122338586Y-32424690D01*
X121957633Y-32424690D01*
X142984261Y-74763380D02*
X143603309Y-74763380D01*
X143269976Y-75144333D01*
X143412833Y-75144333D01*
X143508071Y-75191952D01*
X143555690Y-75239571D01*
X143603309Y-75334809D01*
X143603309Y-75572904D01*
X143555690Y-75668142D01*
X143508071Y-75715761D01*
X143412833Y-75763380D01*
X143127119Y-75763380D01*
X143031880Y-75715761D01*
X142984261Y-75668142D01*
X144031880Y-75668142D02*
X144079500Y-75715761D01*
X144031880Y-75763380D01*
X143984261Y-75715761D01*
X144031880Y-75668142D01*
X144031880Y-75763380D01*
X144412833Y-74763380D02*
X145031880Y-74763380D01*
X144698547Y-75144333D01*
X144841404Y-75144333D01*
X144936642Y-75191952D01*
X144984261Y-75239571D01*
X145031880Y-75334809D01*
X145031880Y-75572904D01*
X144984261Y-75668142D01*
X144936642Y-75715761D01*
X144841404Y-75763380D01*
X144555690Y-75763380D01*
X144460452Y-75715761D01*
X144412833Y-75668142D01*
X145317595Y-74763380D02*
X145650928Y-75763380D01*
X145984261Y-74763380D01*
X143460452Y-80097380D02*
X144031880Y-80097380D01*
X143746166Y-81097380D02*
X143746166Y-80097380D01*
X144269976Y-80097380D02*
X144936642Y-81097380D01*
X144936642Y-80097380D02*
X144269976Y-81097380D01*
X145317595Y-81097380D02*
X145317595Y-80097380D01*
X145555690Y-80097380D01*
X145698547Y-80145000D01*
X145793785Y-80240238D01*
X145841404Y-80335476D01*
X145889023Y-80525952D01*
X145889023Y-80668809D01*
X145841404Y-80859285D01*
X145793785Y-80954523D01*
X145698547Y-81049761D01*
X145555690Y-81097380D01*
X145317595Y-81097380D01*
X143936642Y-78557380D02*
X143603309Y-78081190D01*
X143365214Y-78557380D02*
X143365214Y-77557380D01*
X143746166Y-77557380D01*
X143841404Y-77605000D01*
X143889023Y-77652619D01*
X143936642Y-77747857D01*
X143936642Y-77890714D01*
X143889023Y-77985952D01*
X143841404Y-78033571D01*
X143746166Y-78081190D01*
X143365214Y-78081190D01*
X144269976Y-77557380D02*
X144936642Y-78557380D01*
X144936642Y-77557380D02*
X144269976Y-78557380D01*
X145317595Y-78557380D02*
X145317595Y-77557380D01*
X145555690Y-77557380D01*
X145698547Y-77605000D01*
X145793785Y-77700238D01*
X145841404Y-77795476D01*
X145889023Y-77985952D01*
X145889023Y-78128809D01*
X145841404Y-78319285D01*
X145793785Y-78414523D01*
X145698547Y-78509761D01*
X145555690Y-78557380D01*
X145317595Y-78557380D01*
X143793785Y-69731000D02*
X143698547Y-69683380D01*
X143555690Y-69683380D01*
X143412833Y-69731000D01*
X143317595Y-69826238D01*
X143269976Y-69921476D01*
X143222357Y-70111952D01*
X143222357Y-70254809D01*
X143269976Y-70445285D01*
X143317595Y-70540523D01*
X143412833Y-70635761D01*
X143555690Y-70683380D01*
X143650928Y-70683380D01*
X143793785Y-70635761D01*
X143841404Y-70588142D01*
X143841404Y-70254809D01*
X143650928Y-70254809D01*
X144269976Y-70683380D02*
X144269976Y-69683380D01*
X144841404Y-70683380D01*
X144841404Y-69683380D01*
X145317595Y-70683380D02*
X145317595Y-69683380D01*
X145555690Y-69683380D01*
X145698547Y-69731000D01*
X145793785Y-69826238D01*
X145841404Y-69921476D01*
X145889023Y-70111952D01*
X145889023Y-70254809D01*
X145841404Y-70445285D01*
X145793785Y-70540523D01*
X145698547Y-70635761D01*
X145555690Y-70683380D01*
X145317595Y-70683380D01*
X161813975Y-55971131D02*
X161946278Y-55220801D01*
X162255291Y-55662118D02*
X161504962Y-55529814D01*
X161402787Y-54738140D02*
X161510283Y-54128497D01*
X161827565Y-54522918D01*
X161852372Y-54382231D01*
X161915806Y-54296709D01*
X161970970Y-54258082D01*
X162073031Y-54227724D01*
X162307509Y-54269069D01*
X162393031Y-54332503D01*
X162431658Y-54387667D01*
X162462015Y-54489727D01*
X162412401Y-54771101D01*
X162348968Y-54856623D01*
X162293803Y-54895250D01*
X162475721Y-53863547D02*
X162530885Y-53824920D01*
X162569512Y-53880084D01*
X162514347Y-53918711D01*
X162475721Y-53863547D01*
X162569512Y-53880084D01*
X161650856Y-53331271D02*
X161758352Y-52721629D01*
X162075634Y-53116050D01*
X162100441Y-52975363D01*
X162163875Y-52889840D01*
X162219039Y-52851214D01*
X162321099Y-52820856D01*
X162555578Y-52862201D01*
X162641100Y-52925634D01*
X162679726Y-52980799D01*
X162710084Y-53082859D01*
X162660470Y-53364233D01*
X162597037Y-53449755D01*
X162541872Y-53488382D01*
X161807966Y-52440255D02*
X162850656Y-52285634D01*
X161923731Y-51783716D01*
X156258222Y-57237906D02*
X156390640Y-57309609D01*
X156625118Y-57350953D01*
X156727178Y-57320596D01*
X156782342Y-57281969D01*
X156845776Y-57196447D01*
X156862314Y-57102656D01*
X156831956Y-57000595D01*
X156793329Y-56945431D01*
X156707807Y-56881997D01*
X156528494Y-56802026D01*
X156442971Y-56738592D01*
X156404345Y-56683428D01*
X156373987Y-56581368D01*
X156390525Y-56487576D01*
X156453959Y-56402054D01*
X156509123Y-56363428D01*
X156611183Y-56333070D01*
X156845661Y-56374415D01*
X156978079Y-56446117D01*
X157314617Y-56457104D02*
X157375447Y-57483257D01*
X157687064Y-56812899D01*
X157750612Y-57549409D01*
X158158738Y-56605946D01*
X158360255Y-57656905D02*
X158533903Y-56672097D01*
X158768381Y-56713442D01*
X158900799Y-56785145D01*
X158978052Y-56895474D01*
X159008410Y-56997534D01*
X159022230Y-57193385D01*
X158997423Y-57334072D01*
X158917452Y-57513386D01*
X158854018Y-57598908D01*
X158743689Y-57676161D01*
X158594733Y-57698250D01*
X158360255Y-57656905D01*
X159924348Y-57835990D02*
X159869183Y-57874616D01*
X159720228Y-57896705D01*
X159626436Y-57880167D01*
X159494019Y-57808464D01*
X159416765Y-57698135D01*
X159386408Y-57596075D01*
X159372588Y-57400224D01*
X159397395Y-57259537D01*
X159477366Y-57080223D01*
X159540800Y-56994701D01*
X159651129Y-56917448D01*
X159800085Y-56895359D01*
X159893876Y-56911897D01*
X160026294Y-56983600D01*
X160064920Y-57038764D01*
X160798827Y-58086891D02*
X160329871Y-58004201D01*
X160503519Y-57019394D01*
X161127096Y-58144774D02*
X161300744Y-57159966D01*
X161689843Y-58244001D02*
X161367010Y-57606833D01*
X161863491Y-57259193D02*
X161201517Y-57722713D01*
X159283816Y-59037755D02*
X159198293Y-58974321D01*
X159057607Y-58949514D01*
X158908651Y-58971603D01*
X158798322Y-59048856D01*
X158734888Y-59134379D01*
X158654917Y-59313692D01*
X158630110Y-59454379D01*
X158643930Y-59650230D01*
X158674287Y-59752291D01*
X158751541Y-59862620D01*
X158883958Y-59934322D01*
X158977750Y-59950860D01*
X159126705Y-59928771D01*
X159181870Y-59890145D01*
X159239753Y-59561875D01*
X159052170Y-59528800D01*
X159587393Y-60058357D02*
X159761041Y-59073549D01*
X160150140Y-60157584D01*
X160323788Y-59172776D01*
X160619096Y-60240274D02*
X160792744Y-59255466D01*
X161027222Y-59296811D01*
X161159640Y-59368513D01*
X161236893Y-59478842D01*
X161267251Y-59580903D01*
X161281071Y-59776754D01*
X161256264Y-59917441D01*
X161176292Y-60096754D01*
X161112859Y-60182276D01*
X161002530Y-60259530D01*
X160853574Y-60281619D01*
X160619096Y-60240274D01*
X156508403Y-62096668D02*
X156640821Y-62168371D01*
X156875299Y-62209715D01*
X156977359Y-62179358D01*
X157032524Y-62140731D01*
X157095957Y-62055209D01*
X157112495Y-61961418D01*
X157082138Y-61859357D01*
X157043511Y-61804193D01*
X156957989Y-61740759D01*
X156778675Y-61660788D01*
X156693153Y-61597354D01*
X156654526Y-61542190D01*
X156624169Y-61440130D01*
X156640706Y-61346338D01*
X156704140Y-61260816D01*
X156759305Y-61222189D01*
X156861365Y-61191832D01*
X157095843Y-61233177D01*
X157228261Y-61304879D01*
X157564799Y-61315866D02*
X157625629Y-62342019D01*
X157937246Y-61671661D01*
X158000794Y-62408170D01*
X158408920Y-61464708D01*
X158610436Y-62515667D02*
X158784085Y-61530859D01*
X159018563Y-61572204D01*
X159150981Y-61643906D01*
X159228234Y-61754236D01*
X159258592Y-61856296D01*
X159272411Y-62052147D01*
X159247604Y-62192834D01*
X159167633Y-62372147D01*
X159104199Y-62457670D01*
X158993870Y-62534923D01*
X158844915Y-62557012D01*
X158610436Y-62515667D01*
X159595244Y-62689315D02*
X159768892Y-61704507D01*
X160425431Y-61820273D02*
X160613013Y-61853349D01*
X160698536Y-61916782D01*
X160775789Y-62027111D01*
X160789609Y-62222963D01*
X160731726Y-62551232D01*
X160651754Y-62730545D01*
X160541425Y-62807799D01*
X160439365Y-62838156D01*
X160251783Y-62805081D01*
X160166260Y-62741647D01*
X160089007Y-62631318D01*
X160075187Y-62435467D01*
X160133070Y-62107197D01*
X160213042Y-61927884D01*
X160323371Y-61850631D01*
X160425431Y-61820273D01*
X157663819Y-63634639D02*
X158648627Y-63808287D01*
X158223601Y-65121819D02*
X157978022Y-64594980D01*
X157660854Y-65022591D02*
X157834502Y-64037783D01*
X158209667Y-64103935D01*
X158295189Y-64167369D01*
X158333816Y-64222533D01*
X158364174Y-64324593D01*
X158339367Y-64465280D01*
X158275933Y-64550802D01*
X158220769Y-64589429D01*
X158118709Y-64619787D01*
X157743544Y-64553635D01*
X158648627Y-63808287D02*
X159586539Y-63973666D01*
X158607035Y-65141075D02*
X158739453Y-65212777D01*
X158973931Y-65254122D01*
X159075991Y-65223764D01*
X159131156Y-65185138D01*
X159194589Y-65099615D01*
X159211127Y-65005824D01*
X159180770Y-64903764D01*
X159142143Y-64848599D01*
X159056621Y-64785166D01*
X158877307Y-64705194D01*
X158791785Y-64641761D01*
X158753158Y-64586596D01*
X158722801Y-64484536D01*
X158739339Y-64390745D01*
X158802772Y-64305223D01*
X158857937Y-64266596D01*
X158959997Y-64236238D01*
X159194475Y-64277583D01*
X159326893Y-64349286D01*
X159586539Y-63973666D02*
X160336869Y-64105970D01*
X159616535Y-64352004D02*
X160179283Y-64451231D01*
X159724261Y-65386425D02*
X159897909Y-64401618D01*
X168577768Y-49987471D02*
X168016289Y-50137835D01*
X168382328Y-50524438D02*
X167442636Y-50182418D01*
X167572929Y-49824440D01*
X167650250Y-49751232D01*
X167711283Y-49722771D01*
X167817065Y-49710597D01*
X167951306Y-49759457D01*
X168024514Y-49836778D01*
X168052975Y-49897812D01*
X168065149Y-50003593D01*
X167934855Y-50361571D01*
X167947522Y-48795253D02*
X167784656Y-49242725D01*
X168215842Y-49450339D01*
X168187381Y-49389305D01*
X168175207Y-49283524D01*
X168256641Y-49059788D01*
X168333961Y-48986580D01*
X168394995Y-48958119D01*
X168500776Y-48945945D01*
X168724513Y-49027379D01*
X168797720Y-49104699D01*
X168826181Y-49165733D01*
X168838355Y-49271515D01*
X168756922Y-49495251D01*
X168679601Y-49568459D01*
X168618567Y-49596919D01*
X168561975Y-48360118D02*
X168484654Y-48433326D01*
X168423620Y-48461787D01*
X168317839Y-48473961D01*
X168273092Y-48457674D01*
X168199884Y-48380353D01*
X168171423Y-48319319D01*
X168159249Y-48213538D01*
X168224396Y-48034549D01*
X168301716Y-47961341D01*
X168362750Y-47932881D01*
X168468532Y-47920707D01*
X168513279Y-47936993D01*
X168586487Y-48014314D01*
X168614947Y-48075348D01*
X168627121Y-48181129D01*
X168561975Y-48360118D01*
X168574148Y-48465899D01*
X168602609Y-48526933D01*
X168675817Y-48604254D01*
X168854806Y-48669401D01*
X168960587Y-48657227D01*
X169021621Y-48628766D01*
X169098942Y-48555558D01*
X169164088Y-48376569D01*
X169151915Y-48270788D01*
X169123454Y-48209754D01*
X169050246Y-48132433D01*
X168871257Y-48067287D01*
X168765476Y-48079461D01*
X168704442Y-48107921D01*
X168627121Y-48181129D01*
X169017837Y-47664561D02*
X169278424Y-46948605D01*
X169022443Y-45841933D02*
X168859576Y-46289406D01*
X169290762Y-46497020D01*
X169262302Y-46435986D01*
X169250128Y-46330204D01*
X169331561Y-46106468D01*
X169408882Y-46033260D01*
X169469916Y-46004800D01*
X169575697Y-45992626D01*
X169799433Y-46074059D01*
X169872641Y-46151380D01*
X169901102Y-46212414D01*
X169913275Y-46318195D01*
X169831842Y-46541931D01*
X169754521Y-46615139D01*
X169693488Y-46643600D01*
X169250456Y-45215471D02*
X169283030Y-45125977D01*
X169360350Y-45052769D01*
X169421384Y-45024308D01*
X169527165Y-45012134D01*
X169722441Y-45032534D01*
X169946177Y-45113967D01*
X170108880Y-45223861D01*
X170182088Y-45301182D01*
X170210548Y-45362216D01*
X170222722Y-45467997D01*
X170190149Y-45557491D01*
X170112828Y-45630699D01*
X170051794Y-45659160D01*
X169946013Y-45671334D01*
X169750737Y-45650934D01*
X169527001Y-45569501D01*
X169364299Y-45459607D01*
X169291091Y-45382286D01*
X169262630Y-45321252D01*
X169250456Y-45215471D01*
X169442145Y-43541618D02*
X168869725Y-43440602D01*
X169038084Y-43945679D02*
X168330977Y-43238572D01*
X168600351Y-42969198D01*
X168701366Y-42935526D01*
X168768710Y-42935526D01*
X168869725Y-42969198D01*
X168970740Y-43070213D01*
X169004412Y-43171228D01*
X169004412Y-43238572D01*
X168970740Y-43339587D01*
X168701366Y-43608961D01*
X168970740Y-42598809D02*
X169442145Y-42127404D01*
X169846206Y-43137557D01*
X170014564Y-41554984D02*
X169879877Y-41689671D01*
X169846206Y-41790687D01*
X169846206Y-41858030D01*
X169879877Y-42026389D01*
X169980893Y-42194748D01*
X170250267Y-42464122D01*
X170351282Y-42497793D01*
X170418625Y-42497793D01*
X170519641Y-42464122D01*
X170654328Y-42329435D01*
X170688000Y-42228419D01*
X170688000Y-42161076D01*
X170654328Y-42060061D01*
X170485969Y-41891702D01*
X170384954Y-41858030D01*
X170317610Y-41858030D01*
X170216595Y-41891702D01*
X170081908Y-42026389D01*
X170048236Y-42127404D01*
X170048236Y-42194748D01*
X170081908Y-42295763D01*
X170822687Y-41622328D02*
X171361435Y-41083580D01*
X171563465Y-40006084D02*
X171428778Y-40140771D01*
X171395106Y-40241786D01*
X171395106Y-40309129D01*
X171428778Y-40477488D01*
X171529793Y-40645847D01*
X171799167Y-40915221D01*
X171900183Y-40948893D01*
X171967526Y-40948893D01*
X172068541Y-40915221D01*
X172203228Y-40780534D01*
X172236900Y-40679519D01*
X172236900Y-40612175D01*
X172203228Y-40511160D01*
X172034870Y-40342801D01*
X171933854Y-40309129D01*
X171866511Y-40309129D01*
X171765496Y-40342801D01*
X171630809Y-40477488D01*
X171597137Y-40578503D01*
X171597137Y-40645847D01*
X171630809Y-40746862D01*
X172337915Y-39837725D02*
X172236900Y-39871397D01*
X172169557Y-39871397D01*
X172068541Y-39837725D01*
X172034870Y-39804053D01*
X172001198Y-39703038D01*
X172001198Y-39635694D01*
X172034870Y-39534679D01*
X172169557Y-39399992D01*
X172270572Y-39366320D01*
X172337915Y-39366320D01*
X172438931Y-39399992D01*
X172472602Y-39433664D01*
X172506274Y-39534679D01*
X172506274Y-39602023D01*
X172472602Y-39703038D01*
X172337915Y-39837725D01*
X172304244Y-39938740D01*
X172304244Y-40006084D01*
X172337915Y-40107099D01*
X172472602Y-40241786D01*
X172573618Y-40275458D01*
X172640961Y-40275458D01*
X172741976Y-40241786D01*
X172876663Y-40107099D01*
X172910335Y-40006084D01*
X172910335Y-39938740D01*
X172876663Y-39837725D01*
X172741976Y-39703038D01*
X172640961Y-39669366D01*
X172573618Y-39669366D01*
X172472602Y-39703038D01*
X170712145Y-38906118D02*
X170139725Y-38805102D01*
X170308084Y-39310179D02*
X169600977Y-38603072D01*
X169870351Y-38333698D01*
X169971366Y-38300026D01*
X170038710Y-38300026D01*
X170139725Y-38333698D01*
X170240740Y-38434713D01*
X170274412Y-38535728D01*
X170274412Y-38603072D01*
X170240740Y-38704087D01*
X169971366Y-38973461D01*
X171385580Y-38232683D02*
X170981519Y-38636744D01*
X171183549Y-38434713D02*
X170476442Y-37727606D01*
X170510114Y-37895965D01*
X170510114Y-38030652D01*
X170476442Y-38131667D01*
X171722297Y-37895965D02*
X171856984Y-37761278D01*
X171890656Y-37660263D01*
X171890656Y-37592919D01*
X171856984Y-37424561D01*
X171755969Y-37256202D01*
X171486595Y-36986828D01*
X171385580Y-36953156D01*
X171318236Y-36953156D01*
X171217221Y-36986828D01*
X171082534Y-37121515D01*
X171048862Y-37222530D01*
X171048862Y-37289874D01*
X171082534Y-37390889D01*
X171250893Y-37559248D01*
X171351908Y-37592919D01*
X171419251Y-37592919D01*
X171520267Y-37559248D01*
X171654954Y-37424561D01*
X171688625Y-37323545D01*
X171688625Y-37256202D01*
X171654954Y-37155187D01*
X172092687Y-36986828D02*
X172631435Y-36448080D01*
X173607915Y-36010347D02*
X173203854Y-36414408D01*
X173405885Y-36212377D02*
X172698778Y-35505271D01*
X172732450Y-35673629D01*
X172732450Y-35808316D01*
X172698778Y-35909332D01*
X174281350Y-35336912D02*
X173877289Y-35740973D01*
X174079320Y-35538942D02*
X173372213Y-34831836D01*
X173405885Y-35000194D01*
X173405885Y-35134881D01*
X173372213Y-35235897D01*
X170432745Y-36086718D02*
X169860325Y-35985702D01*
X170028684Y-36490779D02*
X169321577Y-35783672D01*
X169590951Y-35514298D01*
X169691966Y-35480626D01*
X169759310Y-35480626D01*
X169860325Y-35514298D01*
X169961340Y-35615313D01*
X169995012Y-35716328D01*
X169995012Y-35783672D01*
X169961340Y-35884687D01*
X169691966Y-36154061D01*
X169961340Y-35143909D02*
X170399073Y-34706176D01*
X170432745Y-35211252D01*
X170533760Y-35110237D01*
X170634775Y-35076565D01*
X170702119Y-35076565D01*
X170803134Y-35110237D01*
X170971493Y-35278596D01*
X171005164Y-35379611D01*
X171005164Y-35446954D01*
X170971493Y-35547970D01*
X170769462Y-35750000D01*
X170668447Y-35783672D01*
X170601103Y-35783672D01*
X171106180Y-34605161D02*
X171005164Y-34638832D01*
X170937821Y-34638832D01*
X170836806Y-34605161D01*
X170803134Y-34571489D01*
X170769462Y-34470474D01*
X170769462Y-34403130D01*
X170803134Y-34302115D01*
X170937821Y-34167428D01*
X171038836Y-34133756D01*
X171106180Y-34133756D01*
X171207195Y-34167428D01*
X171240867Y-34201100D01*
X171274538Y-34302115D01*
X171274538Y-34369458D01*
X171240867Y-34470474D01*
X171106180Y-34605161D01*
X171072508Y-34706176D01*
X171072508Y-34773519D01*
X171106180Y-34874535D01*
X171240867Y-35009222D01*
X171341882Y-35042893D01*
X171409225Y-35042893D01*
X171510241Y-35009222D01*
X171644928Y-34874535D01*
X171678600Y-34773519D01*
X171678600Y-34706176D01*
X171644928Y-34605161D01*
X171510241Y-34470474D01*
X171409225Y-34436802D01*
X171341882Y-34436802D01*
X171240867Y-34470474D01*
X171813287Y-34167428D02*
X172352035Y-33628680D01*
X172183676Y-32921573D02*
X172621409Y-32483840D01*
X172655080Y-32988916D01*
X172756096Y-32887901D01*
X172857111Y-32854229D01*
X172924454Y-32854229D01*
X173025470Y-32887901D01*
X173193828Y-33056260D01*
X173227500Y-33157275D01*
X173227500Y-33224619D01*
X173193828Y-33325634D01*
X172991798Y-33527664D01*
X172890783Y-33561336D01*
X172823439Y-33561336D01*
X173059141Y-32046107D02*
X173126485Y-31978764D01*
X173227500Y-31945092D01*
X173294844Y-31945092D01*
X173395859Y-31978764D01*
X173564218Y-32079779D01*
X173732576Y-32248138D01*
X173833592Y-32416497D01*
X173867263Y-32517512D01*
X173867263Y-32584855D01*
X173833592Y-32685871D01*
X173766248Y-32753214D01*
X173665233Y-32786886D01*
X173597889Y-32786886D01*
X173496874Y-32753214D01*
X173328515Y-32652199D01*
X173160157Y-32483840D01*
X173059141Y-32315481D01*
X173025470Y-32214466D01*
X173025470Y-32147123D01*
X173059141Y-32046107D01*
X104481570Y-45317975D02*
X104815036Y-44841877D01*
X104286130Y-44781008D02*
X105225823Y-44438988D01*
X105356116Y-44796966D01*
X105343942Y-44902747D01*
X105315482Y-44963781D01*
X105242274Y-45041102D01*
X105108032Y-45089962D01*
X105002251Y-45077788D01*
X104941217Y-45049327D01*
X104863896Y-44976119D01*
X104733603Y-44618141D01*
X105714423Y-45781406D02*
X105649276Y-45602417D01*
X105571956Y-45529209D01*
X105510922Y-45500748D01*
X105344106Y-45460114D01*
X105148831Y-45480513D01*
X104790853Y-45610806D01*
X104717645Y-45688127D01*
X104689184Y-45749161D01*
X104677010Y-45854942D01*
X104742157Y-46033931D01*
X104819478Y-46107139D01*
X104880511Y-46135600D01*
X104986293Y-46147774D01*
X105210029Y-46066340D01*
X105283237Y-45989020D01*
X105311697Y-45927986D01*
X105323871Y-45822204D01*
X105258725Y-45643215D01*
X105181404Y-45570008D01*
X105120370Y-45541547D01*
X105014589Y-45529373D01*
X105861003Y-46184131D02*
X106089016Y-46810593D01*
X105002744Y-46749888D01*
X105637595Y-47380298D02*
X105898182Y-48096254D01*
X106805630Y-48779473D02*
X106642763Y-48332000D01*
X106179004Y-48450119D01*
X106240038Y-48478580D01*
X106317358Y-48551788D01*
X106398792Y-48775524D01*
X106386618Y-48881305D01*
X106358157Y-48942339D01*
X106284949Y-49019660D01*
X106061213Y-49101093D01*
X105955432Y-49088919D01*
X105894398Y-49060459D01*
X105817077Y-48987251D01*
X105735644Y-48763515D01*
X105747818Y-48657733D01*
X105776279Y-48596699D01*
X106045091Y-49613713D02*
X106110237Y-49792702D01*
X106187558Y-49865910D01*
X106248592Y-49894370D01*
X106415407Y-49935005D01*
X106610683Y-49914605D01*
X106968661Y-49784312D01*
X107041869Y-49706991D01*
X107070330Y-49645957D01*
X107082503Y-49540176D01*
X107017357Y-49361187D01*
X106940036Y-49287979D01*
X106879002Y-49259519D01*
X106773221Y-49247345D01*
X106549485Y-49328778D01*
X106476277Y-49406099D01*
X106447816Y-49467133D01*
X106435642Y-49572914D01*
X106500789Y-49751903D01*
X106578110Y-49825111D01*
X106639144Y-49853571D01*
X106744925Y-49865745D01*
X102508381Y-40638745D02*
X102609397Y-40066325D01*
X102104320Y-40234684D02*
X102811427Y-39527577D01*
X103080801Y-39796951D01*
X103114473Y-39897966D01*
X103114473Y-39965310D01*
X103080801Y-40066325D01*
X102979786Y-40167340D01*
X102878771Y-40201012D01*
X102811427Y-40201012D01*
X102710412Y-40167340D01*
X102441038Y-39897966D01*
X103316503Y-40638745D02*
X103282832Y-40537729D01*
X103282832Y-40470386D01*
X103316503Y-40369371D01*
X103350175Y-40335699D01*
X103451190Y-40302027D01*
X103518534Y-40302027D01*
X103619549Y-40335699D01*
X103754236Y-40470386D01*
X103787908Y-40571401D01*
X103787908Y-40638745D01*
X103754236Y-40739760D01*
X103720564Y-40773432D01*
X103619549Y-40807103D01*
X103552206Y-40807103D01*
X103451190Y-40773432D01*
X103316503Y-40638745D01*
X103215488Y-40605073D01*
X103148145Y-40605073D01*
X103047129Y-40638745D01*
X102912442Y-40773432D01*
X102878771Y-40874447D01*
X102878771Y-40941790D01*
X102912442Y-41042806D01*
X103047129Y-41177493D01*
X103148145Y-41211164D01*
X103215488Y-41211164D01*
X103316503Y-41177493D01*
X103451190Y-41042806D01*
X103484862Y-40941790D01*
X103484862Y-40874447D01*
X103451190Y-40773432D01*
X104528687Y-41244836D02*
X104191969Y-40908119D01*
X103821580Y-41211164D01*
X103888923Y-41211164D01*
X103989938Y-41244836D01*
X104158297Y-41413195D01*
X104191969Y-41514210D01*
X104191969Y-41581554D01*
X104158297Y-41682569D01*
X103989938Y-41850928D01*
X103888923Y-41884600D01*
X103821580Y-41884599D01*
X103720564Y-41850928D01*
X103552206Y-41682569D01*
X103518534Y-41581554D01*
X103518534Y-41514210D01*
X104427671Y-42019287D02*
X104966419Y-42558035D01*
X105673526Y-42389676D02*
X106144931Y-42861080D01*
X105134778Y-43265141D01*
X106346961Y-43063111D02*
X106818366Y-43534515D01*
X105808213Y-43938576D01*
X101314581Y-36384245D02*
X101415597Y-35811825D01*
X100910520Y-35980184D02*
X101617627Y-35273077D01*
X101887001Y-35542451D01*
X101920673Y-35643466D01*
X101920673Y-35710810D01*
X101887001Y-35811825D01*
X101785986Y-35912840D01*
X101684971Y-35946512D01*
X101617627Y-35946512D01*
X101516612Y-35912840D01*
X101247238Y-35643466D01*
X102223719Y-36013855D02*
X102291062Y-36013855D01*
X102392077Y-36047527D01*
X102560436Y-36215886D01*
X102594108Y-36316901D01*
X102594108Y-36384245D01*
X102560436Y-36485260D01*
X102493093Y-36552603D01*
X102358406Y-36619947D01*
X101550284Y-36619947D01*
X101988016Y-37057680D01*
X102796138Y-37057680D02*
X102762467Y-36956664D01*
X102762467Y-36889321D01*
X102796138Y-36788306D01*
X102829810Y-36754634D01*
X102930825Y-36720962D01*
X102998169Y-36720962D01*
X103099184Y-36754634D01*
X103233871Y-36889321D01*
X103267543Y-36990336D01*
X103267543Y-37057680D01*
X103233871Y-37158695D01*
X103200200Y-37192367D01*
X103099184Y-37226038D01*
X103031841Y-37226038D01*
X102930825Y-37192367D01*
X102796138Y-37057680D01*
X102695123Y-37024008D01*
X102627780Y-37024008D01*
X102526764Y-37057680D01*
X102392077Y-37192367D01*
X102358406Y-37293382D01*
X102358406Y-37360725D01*
X102392077Y-37461741D01*
X102526764Y-37596428D01*
X102627780Y-37630099D01*
X102695123Y-37630100D01*
X102796138Y-37596428D01*
X102930825Y-37461741D01*
X102964497Y-37360725D01*
X102964497Y-37293382D01*
X102930825Y-37192367D01*
X103233871Y-37764787D02*
X103772619Y-38303535D01*
X104446054Y-38236191D02*
X104513398Y-38236191D01*
X104614413Y-38269863D01*
X104782772Y-38438222D01*
X104816444Y-38539237D01*
X104816444Y-38606580D01*
X104782772Y-38707596D01*
X104715428Y-38774939D01*
X104580741Y-38842283D01*
X103772619Y-38842283D01*
X104210352Y-39280015D01*
X104883787Y-39953450D02*
X104479726Y-39549389D01*
X104681757Y-39751420D02*
X105388863Y-39044313D01*
X105220505Y-39077985D01*
X105085818Y-39077985D01*
X104984802Y-39044313D01*
X101390781Y-33107645D02*
X101491797Y-32535225D01*
X100986720Y-32703584D02*
X101693827Y-31996477D01*
X101963201Y-32265851D01*
X101996873Y-32366866D01*
X101996873Y-32434210D01*
X101963201Y-32535225D01*
X101862186Y-32636240D01*
X101761171Y-32669912D01*
X101693827Y-32669912D01*
X101592812Y-32636240D01*
X101323438Y-32366866D01*
X102468277Y-33242332D02*
X101996873Y-33713736D01*
X102569293Y-32804599D02*
X101895858Y-33141316D01*
X102333590Y-33579049D01*
X103007025Y-33309675D02*
X103478430Y-33781080D01*
X102468277Y-34185141D01*
X103310071Y-34488187D02*
X103848819Y-35026935D01*
X104690613Y-35464667D02*
X104219209Y-35936072D01*
X104791628Y-35026935D02*
X104118193Y-35363652D01*
X104555926Y-35801385D01*
X105431392Y-35734041D02*
X105498735Y-35801385D01*
X105532407Y-35902400D01*
X105532407Y-35969744D01*
X105498735Y-36070759D01*
X105397720Y-36239118D01*
X105229361Y-36407476D01*
X105061002Y-36508492D01*
X104959987Y-36542163D01*
X104892644Y-36542163D01*
X104791628Y-36508492D01*
X104724285Y-36441148D01*
X104690613Y-36340133D01*
X104690613Y-36272789D01*
X104724285Y-36171774D01*
X104825300Y-36003415D01*
X104993659Y-35835057D01*
X105162018Y-35734041D01*
X105263033Y-35700370D01*
X105330376Y-35700370D01*
X105431392Y-35734041D01*
%TO.C,kibuzzard-62F7F5F5*%
G36*
X131093598Y-55336869D02*
G01*
X131784822Y-55336869D01*
X131784822Y-54443900D01*
X132027709Y-54443900D01*
X132027709Y-55043975D01*
X132358703Y-55043975D01*
X132358703Y-54522481D01*
X132175347Y-54146244D01*
X132154511Y-54058435D01*
X132134866Y-53952172D01*
X132120578Y-53831621D01*
X132115816Y-53700950D01*
X132125043Y-53578911D01*
X132152725Y-53479494D01*
X132257500Y-53340190D01*
X132396803Y-52855606D01*
X132161059Y-52896087D01*
X132126531Y-52741306D01*
X132114923Y-52639508D01*
X132111053Y-52534137D01*
X132119090Y-52407633D01*
X132143200Y-52304347D01*
X132233687Y-52157900D01*
X132376562Y-52079319D01*
X132565872Y-52055506D01*
X133225478Y-51767375D01*
X131656234Y-51767375D01*
X131606228Y-51474481D01*
X132165822Y-51474481D01*
X132126531Y-51355419D01*
X132115816Y-51241119D01*
X132126234Y-51138129D01*
X132157487Y-51048237D01*
X132276550Y-50908934D01*
X132361382Y-50859821D01*
X132461097Y-50824400D01*
X132574206Y-50802969D01*
X132699222Y-50795825D01*
X132826321Y-50804754D01*
X132940919Y-50831544D01*
X133041229Y-50875597D01*
X133125466Y-50936319D01*
X133193034Y-51013114D01*
X133254946Y-50115978D01*
X133164756Y-50236231D01*
X133016821Y-50305883D01*
X132813522Y-50329100D01*
X131863403Y-50329100D01*
X131863403Y-50638662D01*
X131620516Y-50638662D01*
X131620516Y-50036206D01*
X132708747Y-49459944D01*
X132570039Y-49448633D01*
X132449191Y-49414700D01*
X132346499Y-49362312D01*
X132262262Y-49295637D01*
X132196480Y-49216461D01*
X132149153Y-49126569D01*
X132120578Y-49030128D01*
X132111053Y-48931306D01*
X132127325Y-48779435D01*
X132176141Y-48654023D01*
X132257500Y-48555069D01*
X132370080Y-48483631D01*
X132512558Y-48440769D01*
X132684934Y-48426481D01*
X132744466Y-48427672D01*
X132794472Y-48431244D01*
X132794472Y-49157525D01*
X132892401Y-49134903D01*
X132967113Y-49067037D01*
X133014440Y-48963453D01*
X133030216Y-48833675D01*
X133011166Y-48665797D01*
X132973066Y-48531256D01*
X133223097Y-48490775D01*
X133267150Y-48652700D01*
X133285009Y-48845581D01*
X133275782Y-48981015D01*
X133248100Y-49101565D01*
X133202261Y-49206340D01*
X133138563Y-49294447D01*
X133057302Y-49364991D01*
X132958778Y-49417081D01*
X132842692Y-49449228D01*
X132708747Y-49459944D01*
X131620516Y-50036206D01*
X132834953Y-50036206D01*
X132989734Y-49990962D01*
X133030216Y-49876662D01*
X133006403Y-49729025D01*
X132975447Y-49650444D01*
X133211191Y-49612344D01*
X133227859Y-49644490D01*
X133252863Y-49709975D01*
X133275484Y-49808797D01*
X133285009Y-49940956D01*
X133254946Y-50115978D01*
X133193034Y-51013114D01*
X133243338Y-51105387D01*
X133274591Y-51212544D01*
X133285009Y-51333987D01*
X133280842Y-51449478D01*
X133268341Y-51567350D01*
X133249291Y-51676887D01*
X133225478Y-51767375D01*
X132565872Y-52055506D01*
X133232622Y-52055506D01*
X133265959Y-52246006D01*
X133280247Y-52379951D01*
X133285009Y-52529375D01*
X133265959Y-52723447D01*
X133202856Y-52872275D01*
X133088556Y-52967525D01*
X132915916Y-53000862D01*
X132751609Y-52962762D01*
X132644453Y-52860369D01*
X132586113Y-52712731D01*
X132568253Y-52538900D01*
X132573016Y-52431148D01*
X132587303Y-52336494D01*
X132551584Y-52336494D01*
X132412281Y-52388881D01*
X132370312Y-52460319D01*
X132356322Y-52569856D01*
X132368228Y-52730590D01*
X132396803Y-52855606D01*
X132257500Y-53340190D01*
X132419425Y-53267562D01*
X132518545Y-53251489D01*
X132627784Y-53246131D01*
X133258816Y-53246131D01*
X133258816Y-53539025D01*
X132665884Y-53539025D01*
X132530748Y-53547954D01*
X132439666Y-53574744D01*
X132370609Y-53720000D01*
X132372991Y-53785484D01*
X132380134Y-53853350D01*
X133258816Y-53853350D01*
X133258816Y-54146244D01*
X132175347Y-54146244D01*
X132358703Y-54522481D01*
X132601591Y-54522481D01*
X132601591Y-55043975D01*
X133015928Y-55043975D01*
X133015928Y-54391512D01*
X133258816Y-54391512D01*
X133258816Y-55336869D01*
X131784822Y-55336869D01*
X131093598Y-55336869D01*
X131093598Y-55337067D01*
X131100120Y-55469822D01*
X131119622Y-55601298D01*
X131151918Y-55730229D01*
X131196696Y-55855374D01*
X131253524Y-55975528D01*
X131321856Y-56089532D01*
X131401033Y-56196291D01*
X131490293Y-56294774D01*
X131588776Y-56384034D01*
X131695535Y-56463211D01*
X131809539Y-56531543D01*
X131929693Y-56588371D01*
X132054838Y-56633149D01*
X132183769Y-56665445D01*
X132315245Y-56684947D01*
X132448000Y-56691469D01*
X132580755Y-56684947D01*
X132712231Y-56665445D01*
X132841162Y-56633149D01*
X132966307Y-56588371D01*
X133086461Y-56531543D01*
X133200465Y-56463211D01*
X133307224Y-56384034D01*
X133405707Y-56294774D01*
X133494967Y-56196291D01*
X133574144Y-56089532D01*
X133642476Y-55975528D01*
X133699304Y-55855374D01*
X133744082Y-55730229D01*
X133776378Y-55601298D01*
X133795880Y-55469822D01*
X133802402Y-55337067D01*
X133802402Y-55336869D01*
X133802402Y-34196131D01*
X133258816Y-34196131D01*
X133258816Y-34489025D01*
X132665884Y-34489025D01*
X132530748Y-34497954D01*
X132439666Y-34524744D01*
X132370609Y-34670000D01*
X132372991Y-34735484D01*
X132380134Y-34803350D01*
X133258816Y-34803350D01*
X133258816Y-35096244D01*
X132175347Y-35096244D01*
X132154511Y-35008435D01*
X132134866Y-34902172D01*
X132120578Y-34781621D01*
X132115816Y-34650950D01*
X132125043Y-34528911D01*
X132152725Y-34429494D01*
X132257500Y-34290190D01*
X132419425Y-34217562D01*
X132518545Y-34201489D01*
X132627784Y-34196131D01*
X133258816Y-34196131D01*
X133802402Y-34196131D01*
X133802402Y-34195933D01*
X133795880Y-34063178D01*
X133776378Y-33931702D01*
X133744082Y-33802771D01*
X133699304Y-33677625D01*
X133642476Y-33557472D01*
X133574144Y-33443467D01*
X133494967Y-33336709D01*
X133405707Y-33238226D01*
X133307223Y-33148966D01*
X133200465Y-33069789D01*
X133086461Y-33001457D01*
X132966307Y-32944629D01*
X132841162Y-32899851D01*
X132712231Y-32867555D01*
X132580755Y-32848053D01*
X132448000Y-32841531D01*
X132315245Y-32848053D01*
X132183769Y-32867555D01*
X132054838Y-32899851D01*
X132139628Y-37715619D01*
X132382516Y-37715619D01*
X132382516Y-38184725D01*
X132904605Y-37227462D01*
X132794472Y-37232225D01*
X132382516Y-37232225D01*
X132382516Y-37541787D01*
X132139628Y-37541787D01*
X132139628Y-36939331D01*
X132832572Y-36939331D01*
X132823940Y-36358306D01*
X132696841Y-36367831D01*
X132571527Y-36358008D01*
X132457525Y-36328540D01*
X132356917Y-36281511D01*
X132271787Y-36219003D01*
X132203327Y-36141910D01*
X132152725Y-36051125D01*
X132121471Y-35949326D01*
X132111053Y-35839194D01*
X132121471Y-35727572D01*
X132152725Y-35626072D01*
X132203327Y-35536179D01*
X132271787Y-35459384D01*
X132356917Y-35397174D01*
X132457525Y-35351037D01*
X132571527Y-35322462D01*
X132696841Y-35312937D01*
X132823940Y-35322462D01*
X132938538Y-35351037D01*
X133039443Y-35396876D01*
X133125466Y-35458194D01*
X133195117Y-35534096D01*
X133246909Y-35623690D01*
X133279056Y-35725786D01*
X133289772Y-35839194D01*
X133279056Y-35952601D01*
X133246909Y-36054697D01*
X133195117Y-36144589D01*
X133125466Y-36221384D01*
X133039443Y-36283594D01*
X132938538Y-36329731D01*
X132823940Y-36358306D01*
X132832572Y-36939331D01*
X132981400Y-36902422D01*
X133030216Y-36779787D01*
X133019500Y-36682156D01*
X132975447Y-36553569D01*
X133211191Y-36515469D01*
X133269531Y-36685728D01*
X133285009Y-36832175D01*
X133276675Y-36937247D01*
X133251672Y-37023865D01*
X133155231Y-37147690D01*
X133001641Y-37213175D01*
X132904605Y-37227462D01*
X132382516Y-38184725D01*
X132834953Y-38184725D01*
X132934966Y-38172819D01*
X132994497Y-38139481D01*
X133023072Y-38087094D01*
X133030216Y-38018037D01*
X133027834Y-37943028D01*
X133019500Y-37876353D01*
X133001641Y-37809678D01*
X132970684Y-37734669D01*
X133223097Y-37694187D01*
X133270722Y-37869209D01*
X133285009Y-38051375D01*
X133268341Y-38232350D01*
X133204047Y-38365700D01*
X133069506Y-38449044D01*
X132969196Y-38470475D01*
X132842097Y-38477619D01*
X132382516Y-38477619D01*
X132382516Y-38732412D01*
X132139628Y-38732412D01*
X132139628Y-38477619D01*
X131858641Y-38477619D01*
X131811016Y-38184725D01*
X132139628Y-38184725D01*
X132139628Y-37715619D01*
X132054838Y-32899851D01*
X131929693Y-32944629D01*
X131818159Y-36951237D01*
X131953891Y-37006006D01*
X132003897Y-37136975D01*
X131953891Y-37266753D01*
X131818159Y-37320331D01*
X131680047Y-37266753D01*
X131630041Y-37136975D01*
X131680047Y-37006006D01*
X131818159Y-36951237D01*
X131929693Y-32944629D01*
X131809539Y-33001457D01*
X131695535Y-33069789D01*
X131588777Y-33148966D01*
X131490293Y-33238226D01*
X131401033Y-33336709D01*
X131818159Y-41713737D01*
X131953891Y-41768506D01*
X132003897Y-41899475D01*
X131953891Y-42029253D01*
X131818159Y-42082831D01*
X131680047Y-42029253D01*
X131630041Y-41899475D01*
X131680047Y-41768506D01*
X131818159Y-41713737D01*
X131401033Y-33336709D01*
X131321856Y-33443467D01*
X131253524Y-33557472D01*
X131784822Y-46021419D01*
X132027709Y-46021419D01*
X132127722Y-42763869D01*
X132156297Y-42611469D01*
X132242022Y-42517409D01*
X132386087Y-42470975D01*
X132480445Y-42462045D01*
X132589684Y-42459069D01*
X132904605Y-41989962D01*
X132794472Y-41994725D01*
X132382516Y-41994725D01*
X132382516Y-42304287D01*
X132139628Y-42304287D01*
X132139628Y-41701831D01*
X132175347Y-41049369D01*
X132154511Y-40961560D01*
X132134866Y-40855297D01*
X132120578Y-40734746D01*
X132115816Y-40604075D01*
X132125043Y-40482036D01*
X132152725Y-40382619D01*
X132257500Y-40243315D01*
X132396803Y-39758731D01*
X132161059Y-39799212D01*
X132126531Y-39644431D01*
X132114923Y-39542633D01*
X132111053Y-39437262D01*
X132119090Y-39310758D01*
X132143200Y-39207472D01*
X132233687Y-39061025D01*
X132376562Y-38982444D01*
X132565872Y-38958631D01*
X133232622Y-38958631D01*
X133265959Y-39149131D01*
X133280247Y-39283076D01*
X133285009Y-39432500D01*
X133265959Y-39626572D01*
X133202856Y-39775400D01*
X133088556Y-39870650D01*
X132915916Y-39903987D01*
X132751609Y-39865887D01*
X132644453Y-39763494D01*
X132586113Y-39615856D01*
X132568253Y-39442025D01*
X132573016Y-39334273D01*
X132587303Y-39239619D01*
X132551584Y-39239619D01*
X132412281Y-39292006D01*
X132370312Y-39363444D01*
X132356322Y-39472981D01*
X132368228Y-39633715D01*
X132396803Y-39758731D01*
X132257500Y-40243315D01*
X132419425Y-40170687D01*
X132518545Y-40154614D01*
X132627784Y-40149256D01*
X133258816Y-40149256D01*
X133258816Y-40442150D01*
X132665884Y-40442150D01*
X132530748Y-40451079D01*
X132439666Y-40477869D01*
X132370609Y-40623125D01*
X132372991Y-40688609D01*
X132380134Y-40756475D01*
X133258816Y-40756475D01*
X133258816Y-41049369D01*
X132175347Y-41049369D01*
X132139628Y-41701831D01*
X132832572Y-41701831D01*
X132981400Y-41664922D01*
X133030216Y-41542287D01*
X133019500Y-41444656D01*
X132975447Y-41316069D01*
X133211191Y-41277969D01*
X133269531Y-41448228D01*
X133285009Y-41594675D01*
X133276675Y-41699747D01*
X133251672Y-41786365D01*
X133155231Y-41910190D01*
X133001641Y-41975675D01*
X132904605Y-41989962D01*
X132589684Y-42459069D01*
X133258816Y-42459069D01*
X133258816Y-42697194D01*
X132575397Y-42697194D01*
X132468241Y-42705528D01*
X132406328Y-42726959D01*
X132377753Y-42757915D01*
X132370609Y-42794825D01*
X132374181Y-42840069D01*
X132387278Y-42882931D01*
X132487291Y-42871025D01*
X132608734Y-42866262D01*
X132832572Y-42866262D01*
X132832572Y-43104387D01*
X132575397Y-43104387D01*
X132415853Y-43127009D01*
X132370609Y-43199637D01*
X132372991Y-43234165D01*
X132380134Y-43273456D01*
X133258816Y-43273456D01*
X133258816Y-43511581D01*
X132182491Y-43511581D01*
X132142009Y-43328225D01*
X132127722Y-43168681D01*
X132143200Y-43057953D01*
X132194397Y-42973419D01*
X132147962Y-42878169D01*
X132127722Y-42763869D01*
X132027709Y-46021419D01*
X132027709Y-46409562D01*
X132708747Y-45888069D01*
X132570039Y-45876758D01*
X132449191Y-45842825D01*
X132346499Y-45790437D01*
X132262262Y-45723762D01*
X132196480Y-45644586D01*
X132149153Y-45554694D01*
X132120578Y-45458253D01*
X132111053Y-45359431D01*
X132127325Y-45207560D01*
X132176141Y-45082148D01*
X132257500Y-44983194D01*
X132370080Y-44911756D01*
X132512558Y-44868894D01*
X133258816Y-44559331D01*
X132213447Y-44559331D01*
X132174752Y-44441161D01*
X132144391Y-44320015D01*
X132124745Y-44186963D01*
X132118197Y-44033075D01*
X132120578Y-43965209D01*
X132128912Y-43871150D01*
X132143200Y-43769947D01*
X132165822Y-43678269D01*
X132437284Y-43730656D01*
X132422997Y-43798522D01*
X132409900Y-43878294D01*
X132401566Y-43956875D01*
X132399184Y-44021169D01*
X132405137Y-44142612D01*
X132427759Y-44264056D01*
X133258816Y-44264056D01*
X133258816Y-44559331D01*
X132512558Y-44868894D01*
X132684934Y-44854606D01*
X132744466Y-44855797D01*
X132794472Y-44859369D01*
X132794472Y-45585650D01*
X132892401Y-45563028D01*
X132967113Y-45495162D01*
X133014440Y-45391578D01*
X133030216Y-45261800D01*
X133011166Y-45093922D01*
X132973066Y-44959381D01*
X133223097Y-44918900D01*
X133267150Y-45080825D01*
X133285009Y-45273706D01*
X133275782Y-45409140D01*
X133248100Y-45529690D01*
X133202261Y-45634465D01*
X133138563Y-45722572D01*
X133057302Y-45793116D01*
X132958778Y-45845206D01*
X132842692Y-45877353D01*
X132708747Y-45888069D01*
X132027709Y-46409562D01*
X133258816Y-46409562D01*
X133258816Y-46704837D01*
X132027709Y-46704837D01*
X132027709Y-47092981D01*
X131784822Y-47092981D01*
X131784822Y-46021419D01*
X131253524Y-33557472D01*
X131196696Y-33677625D01*
X131151918Y-33802771D01*
X131119622Y-33931702D01*
X131100120Y-34063178D01*
X131093598Y-34195933D01*
X131093598Y-34196131D01*
X131093598Y-55336869D01*
G37*
G36*
X132699222Y-36070175D02*
G01*
X132834953Y-36056780D01*
X132942109Y-36016597D01*
X133011761Y-35946647D01*
X133034978Y-35843956D01*
X133011761Y-35743646D01*
X132942109Y-35671315D01*
X132834953Y-35627560D01*
X132699222Y-35612975D01*
X132563788Y-35626369D01*
X132457525Y-35666553D01*
X132388766Y-35736502D01*
X132365847Y-35839194D01*
X132388766Y-35939504D01*
X132457525Y-36011834D01*
X132563788Y-36055590D01*
X132699222Y-36070175D01*
G37*
G36*
X132692078Y-51093481D02*
G01*
X132553370Y-51106280D01*
X132451572Y-51144678D01*
X132389064Y-51209269D01*
X132368228Y-51300650D01*
X132381325Y-51394709D01*
X132413472Y-51474481D01*
X133020691Y-51474481D01*
X133030216Y-51404234D01*
X133032597Y-51341131D01*
X133013249Y-51238737D01*
X132955206Y-51160156D01*
X132850729Y-51110150D01*
X132692078Y-51093481D01*
G37*
G36*
X132592066Y-48709850D02*
G01*
X132505150Y-48721756D01*
X132430141Y-48759856D01*
X132376562Y-48826531D01*
X132356322Y-48926544D01*
X132375372Y-49025365D01*
X132427759Y-49094422D01*
X132503959Y-49137284D01*
X132592066Y-49157525D01*
X132592066Y-48709850D01*
G37*
G36*
X132592066Y-45137975D02*
G01*
X132505150Y-45149881D01*
X132430141Y-45187981D01*
X132376562Y-45254656D01*
X132356322Y-45354669D01*
X132375372Y-45453490D01*
X132427759Y-45522547D01*
X132503959Y-45565409D01*
X132592066Y-45585650D01*
X132592066Y-45137975D01*
G37*
G36*
X133049266Y-39411069D02*
G01*
X133048075Y-39318200D01*
X133042122Y-39239619D01*
X132784947Y-39239619D01*
X132776613Y-39308675D01*
X132773041Y-39382494D01*
X132778994Y-39470600D01*
X132799234Y-39545609D01*
X132839716Y-39596806D01*
X132908772Y-39615856D01*
X133017119Y-39558706D01*
X133049266Y-39411069D01*
G37*
G36*
X133049266Y-52507944D02*
G01*
X133048075Y-52415075D01*
X133042122Y-52336494D01*
X132784947Y-52336494D01*
X132776613Y-52405550D01*
X132773041Y-52479369D01*
X132778994Y-52567475D01*
X132799234Y-52642484D01*
X132839716Y-52693681D01*
X132908772Y-52712731D01*
X133017119Y-52655581D01*
X133049266Y-52507944D01*
G37*
%TO.C,kibuzzard-62F7F576*%
G36*
X146389235Y-52493060D02*
G01*
X146572591Y-53016406D01*
X146770235Y-53005691D01*
X146921444Y-53014323D01*
X147041697Y-53040219D01*
X147206003Y-53130706D01*
X147286966Y-53255722D01*
X147308397Y-53393834D01*
X147606649Y-53594455D01*
X147669156Y-53509325D01*
X147746249Y-53440864D01*
X147837035Y-53390262D01*
X147938833Y-53359009D01*
X148048966Y-53348591D01*
X148160587Y-53359009D01*
X148262088Y-53390262D01*
X148351980Y-53440864D01*
X148428775Y-53509325D01*
X148490985Y-53594455D01*
X148750244Y-53695062D01*
X148797274Y-53594455D01*
X148859781Y-53509325D01*
X148936874Y-53440864D01*
X149027660Y-53390262D01*
X149129458Y-53359009D01*
X149239591Y-53348591D01*
X149351212Y-53359009D01*
X149452713Y-53390262D01*
X149542605Y-53440864D01*
X149619400Y-53509325D01*
X149918247Y-53620053D01*
X149918247Y-53377166D01*
X150173041Y-53377166D01*
X150173041Y-53096178D01*
X150465935Y-53048553D01*
X150465935Y-53377166D01*
X150935041Y-53377166D01*
X150935041Y-53620053D01*
X150465935Y-53620053D01*
X152720978Y-54253466D01*
X152720978Y-53429553D01*
X152568578Y-53514088D01*
X152423322Y-53572428D01*
X152328072Y-53329541D01*
X152451897Y-53274772D01*
X152585247Y-53200953D01*
X152711453Y-53115228D01*
X152813847Y-53022359D01*
X153013872Y-53022359D01*
X153013872Y-54253466D01*
X153306766Y-54253466D01*
X153306766Y-54496353D01*
X152411416Y-54496353D01*
X152411416Y-54253466D01*
X152720978Y-54253466D01*
X150465935Y-53620053D01*
X150465935Y-54072491D01*
X150477841Y-54172503D01*
X150511178Y-54232034D01*
X150563566Y-54260609D01*
X150632622Y-54267753D01*
X150707631Y-54265372D01*
X150774306Y-54257038D01*
X150840981Y-54239178D01*
X150915991Y-54208222D01*
X150956472Y-54460634D01*
X150781450Y-54508259D01*
X150599285Y-54522547D01*
X150418310Y-54505878D01*
X150284960Y-54441584D01*
X150201616Y-54307044D01*
X150180185Y-54206734D01*
X150173041Y-54079634D01*
X150173041Y-53620053D01*
X149918247Y-53620053D01*
X149619400Y-53509325D01*
X149681610Y-53594455D01*
X149727747Y-53695062D01*
X149756322Y-53809065D01*
X149765847Y-53934378D01*
X149756322Y-54061477D01*
X149727747Y-54176075D01*
X149681908Y-54276980D01*
X149620591Y-54363003D01*
X149544688Y-54432655D01*
X149455094Y-54484447D01*
X149352998Y-54516594D01*
X149239591Y-54527309D01*
X149126184Y-54516594D01*
X149024088Y-54484447D01*
X148934196Y-54432655D01*
X148857400Y-54363003D01*
X148795190Y-54276980D01*
X148749053Y-54176075D01*
X148720478Y-54061477D01*
X148710953Y-53934378D01*
X148720776Y-53809065D01*
X148750244Y-53695062D01*
X148490985Y-53594455D01*
X148537122Y-53695062D01*
X148565697Y-53809065D01*
X148575222Y-53934378D01*
X148565697Y-54061477D01*
X148537122Y-54176075D01*
X148491283Y-54276980D01*
X148429966Y-54363003D01*
X148354063Y-54432655D01*
X148264469Y-54484447D01*
X148162373Y-54516594D01*
X148048966Y-54527309D01*
X147935559Y-54516594D01*
X147833463Y-54484447D01*
X147743571Y-54432655D01*
X147666775Y-54363003D01*
X147604565Y-54276980D01*
X147558428Y-54176075D01*
X147529853Y-54061477D01*
X147520328Y-53934378D01*
X147530151Y-53809065D01*
X147559619Y-53695062D01*
X147606649Y-53594455D01*
X147308397Y-53393834D01*
X147295598Y-53492656D01*
X147257200Y-53579572D01*
X147120278Y-53708159D01*
X147246187Y-53772453D01*
X147323875Y-53855797D01*
X147364059Y-53951047D01*
X147377453Y-54051059D01*
X147366142Y-54173396D01*
X147332210Y-54273706D01*
X147209575Y-54416581D01*
X147125041Y-54462420D01*
X147026219Y-54492781D01*
X146916384Y-54509748D01*
X146798810Y-54515403D01*
X146699392Y-54512724D01*
X146596403Y-54504688D01*
X146492224Y-54491293D01*
X146389235Y-54472541D01*
X146389235Y-53041409D01*
X146572591Y-53016406D01*
X146389235Y-52493060D01*
X146389036Y-52493060D01*
X146264217Y-52499192D01*
X146140600Y-52517529D01*
X146019376Y-52547894D01*
X145901712Y-52589995D01*
X145788741Y-52643427D01*
X145681551Y-52707674D01*
X145581175Y-52782118D01*
X145488578Y-52866042D01*
X145404654Y-52958638D01*
X145330210Y-53059015D01*
X145265963Y-53166205D01*
X145212531Y-53279176D01*
X145170430Y-53396840D01*
X145140065Y-53518064D01*
X145121729Y-53641681D01*
X145115597Y-53766500D01*
X145121729Y-53891319D01*
X145140065Y-54014936D01*
X145170430Y-54136160D01*
X145212531Y-54253824D01*
X145265963Y-54366795D01*
X145330210Y-54473985D01*
X145404654Y-54574362D01*
X145488578Y-54666958D01*
X145581175Y-54750882D01*
X145681551Y-54825326D01*
X145788741Y-54889573D01*
X145901712Y-54943005D01*
X146019376Y-54985106D01*
X146140600Y-55015471D01*
X146264217Y-55033808D01*
X146389036Y-55039940D01*
X146389235Y-55039940D01*
X153306766Y-55039940D01*
X153306964Y-55039940D01*
X153431783Y-55033808D01*
X153555400Y-55015471D01*
X153676624Y-54985106D01*
X153794288Y-54943005D01*
X153907259Y-54889573D01*
X154014449Y-54825326D01*
X154114826Y-54750882D01*
X154207422Y-54666958D01*
X154291346Y-54574361D01*
X154365790Y-54473985D01*
X154430037Y-54366795D01*
X154483469Y-54253824D01*
X154525570Y-54136160D01*
X154555935Y-54014936D01*
X154574271Y-53891319D01*
X154580403Y-53766500D01*
X154574271Y-53641681D01*
X154555935Y-53518064D01*
X154525570Y-53396840D01*
X154483469Y-53279176D01*
X154430037Y-53166205D01*
X154365790Y-53059015D01*
X154291346Y-52958639D01*
X154207422Y-52866042D01*
X154114826Y-52782118D01*
X154014449Y-52707674D01*
X153907259Y-52643427D01*
X153794288Y-52589995D01*
X153676624Y-52547894D01*
X153555400Y-52517529D01*
X153431783Y-52499192D01*
X153306964Y-52493060D01*
X153306766Y-52493060D01*
X146389235Y-52493060D01*
G37*
G36*
X147817985Y-53936759D02*
G01*
X147831379Y-54072491D01*
X147871563Y-54179647D01*
X147941512Y-54249298D01*
X148044203Y-54272516D01*
X148144513Y-54249298D01*
X148216844Y-54179647D01*
X148260599Y-54072491D01*
X148275185Y-53936759D01*
X148261790Y-53801326D01*
X148221606Y-53695062D01*
X148151657Y-53626304D01*
X148048966Y-53603384D01*
X147948656Y-53626304D01*
X147876325Y-53695062D01*
X147832570Y-53801326D01*
X147817985Y-53936759D01*
G37*
G36*
X149008610Y-53936759D02*
G01*
X149022004Y-54072491D01*
X149062188Y-54179647D01*
X149132137Y-54249298D01*
X149234828Y-54272516D01*
X149335138Y-54249298D01*
X149407469Y-54179647D01*
X149451224Y-54072491D01*
X149465810Y-53936759D01*
X149452415Y-53801326D01*
X149412231Y-53695062D01*
X149342282Y-53626304D01*
X149239591Y-53603384D01*
X149139281Y-53626304D01*
X149066950Y-53695062D01*
X149023195Y-53801326D01*
X149008610Y-53936759D01*
G37*
G36*
X146682128Y-53851034D02*
G01*
X146682128Y-54251084D01*
X146749994Y-54258228D01*
X146822622Y-54260609D01*
X146920253Y-54252275D01*
X147004788Y-54221319D01*
X147065510Y-54157025D01*
X147089322Y-54051059D01*
X147021456Y-53897469D01*
X146839291Y-53851034D01*
X146682128Y-53851034D01*
G37*
G36*
X146796428Y-53608147D02*
G01*
X146965497Y-53559331D01*
X147022647Y-53424791D01*
X147005978Y-53340256D01*
X146960735Y-53290250D01*
X146894060Y-53266438D01*
X146815478Y-53260484D01*
X146746422Y-53262866D01*
X146682128Y-53270009D01*
X146682128Y-53608147D01*
X146796428Y-53608147D01*
G37*
%TO.C,kibuzzard-62F7F550*%
G36*
X146382091Y-55384726D02*
G01*
X146565447Y-55924741D01*
X146763091Y-55914025D01*
X146914300Y-55922657D01*
X147034553Y-55948553D01*
X147198860Y-56039041D01*
X147279822Y-56164056D01*
X147301253Y-56302169D01*
X147599505Y-56502789D01*
X147662013Y-56417659D01*
X147739106Y-56349198D01*
X147829891Y-56298597D01*
X147931689Y-56267343D01*
X148041822Y-56256925D01*
X148153443Y-56267343D01*
X148254944Y-56298597D01*
X148344836Y-56349198D01*
X148421631Y-56417659D01*
X148483842Y-56502789D01*
X148743100Y-56603397D01*
X148790130Y-56502789D01*
X148852638Y-56417659D01*
X148929731Y-56349198D01*
X149020516Y-56298597D01*
X149122314Y-56267343D01*
X149232447Y-56256925D01*
X149344068Y-56267343D01*
X149445569Y-56298597D01*
X149535461Y-56349198D01*
X149612256Y-56417659D01*
X149911103Y-56528387D01*
X149911103Y-56285500D01*
X150165897Y-56285500D01*
X150165897Y-56004512D01*
X150458791Y-55956887D01*
X150458791Y-56285500D01*
X150927897Y-56285500D01*
X150927897Y-56528387D01*
X150458791Y-56528387D01*
X152289972Y-56664119D01*
X152298306Y-56483441D01*
X152323310Y-56327172D01*
X152364981Y-56195310D01*
X152423322Y-56087856D01*
X152524658Y-55982023D01*
X152650864Y-55918523D01*
X152801941Y-55897356D01*
X152955399Y-55918391D01*
X153082399Y-55981494D01*
X153182941Y-56086666D01*
X153240240Y-56193747D01*
X153281167Y-56325684D01*
X153305724Y-56482474D01*
X153313910Y-56664119D01*
X153305724Y-56846880D01*
X153281167Y-57004638D01*
X153240240Y-57137392D01*
X153182941Y-57245144D01*
X153082399Y-57350977D01*
X152955399Y-57414477D01*
X152801941Y-57435644D01*
X152648483Y-57414477D01*
X152521483Y-57350977D01*
X152420941Y-57245144D01*
X152363642Y-57137392D01*
X152322714Y-57004638D01*
X152298158Y-56846880D01*
X152289972Y-56664119D01*
X150458791Y-56528387D01*
X150458791Y-56980825D01*
X150470697Y-57080838D01*
X150504035Y-57140369D01*
X150556422Y-57168944D01*
X150625478Y-57176088D01*
X150700488Y-57173706D01*
X150767163Y-57165372D01*
X150833838Y-57147513D01*
X150908847Y-57116556D01*
X150949328Y-57368969D01*
X150774306Y-57416594D01*
X150592141Y-57430881D01*
X150411166Y-57414213D01*
X150277816Y-57349919D01*
X150194472Y-57215378D01*
X150173041Y-57115068D01*
X150165897Y-56987969D01*
X150165897Y-56528387D01*
X149911103Y-56528387D01*
X149612256Y-56417659D01*
X149674467Y-56502789D01*
X149720603Y-56603397D01*
X149749178Y-56717399D01*
X149758703Y-56842713D01*
X149749178Y-56969812D01*
X149720603Y-57084409D01*
X149674764Y-57185315D01*
X149613447Y-57271338D01*
X149537545Y-57340989D01*
X149447950Y-57392781D01*
X149345854Y-57424928D01*
X149232447Y-57435644D01*
X149119040Y-57424928D01*
X149016944Y-57392781D01*
X148927052Y-57340989D01*
X148850256Y-57271338D01*
X148788046Y-57185315D01*
X148741910Y-57084409D01*
X148713335Y-56969812D01*
X148703810Y-56842713D01*
X148713632Y-56717399D01*
X148743100Y-56603397D01*
X148483842Y-56502789D01*
X148529978Y-56603397D01*
X148558553Y-56717399D01*
X148568078Y-56842713D01*
X148558553Y-56969812D01*
X148529978Y-57084409D01*
X148484139Y-57185315D01*
X148422822Y-57271338D01*
X148346920Y-57340989D01*
X148257325Y-57392781D01*
X148155229Y-57424928D01*
X148041822Y-57435644D01*
X147928415Y-57424928D01*
X147826319Y-57392781D01*
X147736427Y-57340989D01*
X147659631Y-57271338D01*
X147597421Y-57185315D01*
X147551285Y-57084409D01*
X147522710Y-56969812D01*
X147513185Y-56842713D01*
X147523007Y-56717399D01*
X147552475Y-56603397D01*
X147599505Y-56502789D01*
X147301253Y-56302169D01*
X147288454Y-56400991D01*
X147250056Y-56487906D01*
X147113135Y-56616494D01*
X147239043Y-56680788D01*
X147316731Y-56764131D01*
X147356915Y-56859381D01*
X147370310Y-56959394D01*
X147358999Y-57081730D01*
X147325066Y-57182041D01*
X147202431Y-57324916D01*
X147117897Y-57370755D01*
X147019075Y-57401116D01*
X146909240Y-57418082D01*
X146791666Y-57423738D01*
X146692249Y-57421059D01*
X146589260Y-57413022D01*
X146485080Y-57399627D01*
X146382091Y-57380875D01*
X146382091Y-55949744D01*
X146565447Y-55924741D01*
X146382091Y-55384726D01*
X146381892Y-55384726D01*
X146256257Y-55390898D01*
X146131831Y-55409355D01*
X146009813Y-55439919D01*
X145891379Y-55482295D01*
X145777668Y-55536076D01*
X145669777Y-55600744D01*
X145568744Y-55675675D01*
X145475541Y-55760149D01*
X145391068Y-55853351D01*
X145316136Y-55954385D01*
X145251469Y-56062276D01*
X145197688Y-56175986D01*
X145155311Y-56294421D01*
X145124747Y-56416438D01*
X145106291Y-56540864D01*
X145100118Y-56666500D01*
X145106291Y-56792136D01*
X145124747Y-56916562D01*
X145155311Y-57038579D01*
X145197688Y-57157014D01*
X145251469Y-57270724D01*
X145316136Y-57378615D01*
X145391068Y-57479649D01*
X145475541Y-57572851D01*
X145568744Y-57657325D01*
X145669777Y-57732256D01*
X145777668Y-57796924D01*
X145891379Y-57850705D01*
X146009813Y-57893081D01*
X146131831Y-57923645D01*
X146256257Y-57942102D01*
X146381892Y-57948274D01*
X146382091Y-57948274D01*
X153313910Y-57948274D01*
X153314108Y-57948274D01*
X153439744Y-57942102D01*
X153564170Y-57923645D01*
X153686187Y-57893081D01*
X153804622Y-57850705D01*
X153918332Y-57796924D01*
X154026223Y-57732256D01*
X154127257Y-57657325D01*
X154220459Y-57572851D01*
X154304932Y-57479649D01*
X154379864Y-57378615D01*
X154444531Y-57270724D01*
X154498312Y-57157014D01*
X154540689Y-57038579D01*
X154571253Y-56916562D01*
X154589709Y-56792136D01*
X154595882Y-56666500D01*
X154589709Y-56540864D01*
X154571253Y-56416438D01*
X154540689Y-56294421D01*
X154498312Y-56175986D01*
X154444531Y-56062276D01*
X154379864Y-55954385D01*
X154304932Y-55853351D01*
X154220459Y-55760149D01*
X154127257Y-55675675D01*
X154026223Y-55600744D01*
X153918332Y-55536076D01*
X153804622Y-55482295D01*
X153686187Y-55439919D01*
X153564170Y-55409355D01*
X153439744Y-55390898D01*
X153314108Y-55384726D01*
X153313910Y-55384726D01*
X146382091Y-55384726D01*
G37*
G36*
X153049591Y-56664119D02*
G01*
X152935291Y-56640306D01*
X152898381Y-56751034D01*
X152804322Y-56797469D01*
X152706691Y-56751034D01*
X152670972Y-56640306D01*
X152706691Y-56528387D01*
X152804322Y-56480762D01*
X152898381Y-56528387D01*
X152935291Y-56640306D01*
X153049591Y-56664119D01*
X153042579Y-56509205D01*
X153021545Y-56381015D01*
X152986488Y-56279547D01*
X152908799Y-56180427D01*
X152801941Y-56147387D01*
X152696571Y-56180427D01*
X152618585Y-56279547D01*
X152582866Y-56381015D01*
X152561435Y-56509205D01*
X152554291Y-56664119D01*
X152561435Y-56820355D01*
X152582866Y-56949340D01*
X152618585Y-57051072D01*
X152696571Y-57150191D01*
X152801941Y-57183231D01*
X152908799Y-57150191D01*
X152986488Y-57051072D01*
X153021545Y-56949340D01*
X153042579Y-56820355D01*
X153049591Y-56664119D01*
G37*
G36*
X147810841Y-56845094D02*
G01*
X147824235Y-56980825D01*
X147864419Y-57087981D01*
X147934368Y-57157633D01*
X148037060Y-57180850D01*
X148137370Y-57157633D01*
X148209700Y-57087981D01*
X148253456Y-56980825D01*
X148268041Y-56845094D01*
X148254646Y-56709660D01*
X148214463Y-56603397D01*
X148144513Y-56534638D01*
X148041822Y-56511719D01*
X147941512Y-56534638D01*
X147869181Y-56603397D01*
X147825426Y-56709660D01*
X147810841Y-56845094D01*
G37*
G36*
X149001466Y-56845094D02*
G01*
X149014860Y-56980825D01*
X149055044Y-57087981D01*
X149124993Y-57157633D01*
X149227685Y-57180850D01*
X149327995Y-57157633D01*
X149400325Y-57087981D01*
X149444081Y-56980825D01*
X149458666Y-56845094D01*
X149445271Y-56709660D01*
X149405088Y-56603397D01*
X149335138Y-56534638D01*
X149232447Y-56511719D01*
X149132137Y-56534638D01*
X149059806Y-56603397D01*
X149016051Y-56709660D01*
X149001466Y-56845094D01*
G37*
G36*
X146674985Y-56759369D02*
G01*
X146674985Y-57159419D01*
X146742850Y-57166562D01*
X146815478Y-57168944D01*
X146913110Y-57160609D01*
X146997644Y-57129653D01*
X147058366Y-57065359D01*
X147082178Y-56959394D01*
X147014313Y-56805803D01*
X146832147Y-56759369D01*
X146674985Y-56759369D01*
G37*
G36*
X146789285Y-56516481D02*
G01*
X146958353Y-56467666D01*
X147015503Y-56333125D01*
X146998835Y-56248591D01*
X146953591Y-56198584D01*
X146886916Y-56174772D01*
X146808335Y-56168819D01*
X146739278Y-56171200D01*
X146674985Y-56178344D01*
X146674985Y-56516481D01*
X146789285Y-56516481D01*
G37*
D12*
%TO.C,R88*%
X137675660Y-71967241D02*
X137892941Y-71749960D01*
X137138259Y-71429840D02*
X137355540Y-71212559D01*
%TO.C,J2*%
X114899125Y-62053712D02*
X112989643Y-62254407D01*
X113947124Y-71364227D02*
X115856606Y-71163533D01*
X111948135Y-71574329D02*
X110252475Y-71752551D01*
X109294994Y-62642730D02*
X110990654Y-62464509D01*
X110252475Y-71752551D02*
X109294994Y-62642730D01*
%TO.C,J13*%
X129546000Y-83103840D02*
X128846000Y-82703840D01*
X129546000Y-82303840D02*
X129546000Y-83103840D01*
X128846000Y-82703840D02*
X129546000Y-82303840D01*
D13*
X125492000Y-73114000D02*
X118292000Y-73114000D01*
X115270280Y-73111360D02*
X112486440Y-73111360D01*
X112492000Y-73114000D02*
X112492000Y-87864000D01*
X112496600Y-87863680D02*
X115224560Y-87863680D01*
X118292000Y-87864000D02*
X125492000Y-87864000D01*
X126992000Y-86364000D02*
X126992000Y-83364000D01*
D12*
X106992000Y-73764000D02*
X106992000Y-85564000D01*
X110042000Y-73764000D02*
X110042000Y-85564000D01*
X110542000Y-86064000D02*
G75*
G02*
X110042000Y-85564000I0J500000D01*
G01*
X107492000Y-86064000D02*
G75*
G02*
X106992000Y-85564000I0J500000D01*
G01*
X106992000Y-73764000D02*
G75*
G02*
X107492000Y-73264000I500000J0D01*
G01*
X110042000Y-73764000D02*
G75*
G02*
X110542000Y-73264000I500000J0D01*
G01*
%TO.C,J12*%
X101940000Y-21606500D02*
X135980000Y-21606500D01*
X101940000Y-31606500D02*
X101940000Y-21606500D01*
X173060000Y-31606500D02*
X101940000Y-31606500D01*
X173060000Y-21606500D02*
X173060000Y-31606500D01*
X138980000Y-21606500D02*
X173060000Y-21606500D01*
X169310000Y-24006500D02*
X169310000Y-25336500D01*
X167980000Y-24006500D02*
X169310000Y-24006500D01*
X169310000Y-26606500D02*
X169310000Y-29206500D01*
X166710000Y-26606500D02*
X169310000Y-26606500D01*
X166710000Y-24006500D02*
X166710000Y-26606500D01*
X169310000Y-29206500D02*
X105690000Y-29206500D01*
X166710000Y-24006500D02*
X105690000Y-24006500D01*
X105690000Y-24006500D02*
X105690000Y-29206500D01*
%TO.C,C1*%
X134700990Y-59314957D02*
X135070457Y-58945490D01*
X133661543Y-58275510D02*
X134031010Y-57906043D01*
D11*
%TO.C,kibuzzard-61DE6C26*%
G36*
X167486211Y-20526706D02*
G01*
X167589398Y-21249680D01*
X167700523Y-21188164D01*
X167805695Y-21116727D01*
X167891023Y-21039336D01*
X168057711Y-21039336D01*
X168057711Y-22065258D01*
X168301789Y-22065258D01*
X168301789Y-22267664D01*
X167555664Y-22267664D01*
X167555664Y-22065258D01*
X167813633Y-22065258D01*
X167813633Y-21378664D01*
X167686633Y-21449109D01*
X167565586Y-21497727D01*
X167486211Y-21295320D01*
X167589398Y-21249680D01*
X167486211Y-20526706D01*
X167238164Y-20526706D01*
X167127719Y-20532132D01*
X167018337Y-20548357D01*
X166911073Y-20575225D01*
X166806959Y-20612478D01*
X166706997Y-20659756D01*
X166612151Y-20716605D01*
X166523333Y-20782476D01*
X166441400Y-20856736D01*
X166367140Y-20938669D01*
X166301269Y-21027487D01*
X166244420Y-21122333D01*
X166197142Y-21222295D01*
X166159889Y-21326409D01*
X166133021Y-21433673D01*
X166116796Y-21543055D01*
X166111370Y-21653500D01*
X166116796Y-21763945D01*
X166133021Y-21873327D01*
X166159889Y-21980591D01*
X166197142Y-22084705D01*
X166244420Y-22184667D01*
X166301269Y-22279513D01*
X166367140Y-22368331D01*
X166441400Y-22450264D01*
X166523333Y-22524524D01*
X166612151Y-22590395D01*
X166706997Y-22647244D01*
X166806959Y-22694522D01*
X166911073Y-22731775D01*
X167018337Y-22758643D01*
X167127719Y-22774868D01*
X167238164Y-22780294D01*
X167486211Y-22780294D01*
X168301789Y-22780294D01*
X168549836Y-22780294D01*
X168660281Y-22774868D01*
X168769663Y-22758643D01*
X168876927Y-22731775D01*
X168981041Y-22694522D01*
X169081003Y-22647244D01*
X169175849Y-22590395D01*
X169264667Y-22524524D01*
X169346600Y-22450264D01*
X169420860Y-22368331D01*
X169486731Y-22279513D01*
X169543580Y-22184667D01*
X169590858Y-22084705D01*
X169628111Y-21980591D01*
X169654979Y-21873327D01*
X169671204Y-21763945D01*
X169676630Y-21653500D01*
X169671204Y-21543055D01*
X169654979Y-21433673D01*
X169628111Y-21326409D01*
X169590858Y-21222295D01*
X169543580Y-21122333D01*
X169486731Y-21027487D01*
X169420860Y-20938669D01*
X169346600Y-20856736D01*
X169264667Y-20782476D01*
X169175849Y-20716605D01*
X169081003Y-20659756D01*
X168981041Y-20612478D01*
X168876927Y-20575225D01*
X168769663Y-20548357D01*
X168660281Y-20532132D01*
X168549836Y-20526706D01*
X168301789Y-20526706D01*
X167486211Y-20526706D01*
G37*
D12*
%TO.C,J11*%
X120880000Y-89178675D02*
X120630000Y-88745662D01*
X121130000Y-88745662D02*
X120880000Y-89178675D01*
X120630000Y-88745662D02*
X121130000Y-88745662D01*
X164110000Y-89640000D02*
X164110000Y-101980000D01*
X110890000Y-89640000D02*
X164110000Y-89640000D01*
X110890000Y-101980000D02*
X110890000Y-89640000D01*
%TO.C,R87*%
X120930936Y-70331000D02*
X121385064Y-70331000D01*
X120930936Y-68861000D02*
X121385064Y-68861000D01*
%TO.C,R86*%
X120930936Y-63981000D02*
X121385064Y-63981000D01*
X120930936Y-62511000D02*
X121385064Y-62511000D01*
%TO.C,J4*%
X107151747Y-59554353D02*
X108849113Y-60161766D01*
X107635591Y-61494944D02*
X107151747Y-59554353D01*
X108849113Y-60161766D02*
X107635591Y-61494944D01*
X114507495Y-60121689D02*
X113052052Y-60484571D01*
X114185739Y-58831195D02*
X114507495Y-60121689D01*
X113878499Y-57598920D02*
X109027020Y-58808529D01*
X109027020Y-58808529D02*
X107212606Y-51531311D01*
X113878499Y-57598920D02*
X112064084Y-50321702D01*
X112064084Y-50321702D02*
X107212606Y-51531311D01*
X109456526Y-58464400D02*
X107763072Y-51672330D01*
X109941674Y-58343439D02*
X108248220Y-51551369D01*
X116368253Y-59317647D02*
X114670887Y-58710234D01*
X114670887Y-58710234D02*
X115884409Y-57377056D01*
X115884409Y-57377056D02*
X116368253Y-59317647D01*
%TO.C,X1*%
X128993384Y-66324469D02*
X133059248Y-70390333D01*
X131538969Y-63778884D02*
X128993384Y-66324469D01*
X135604833Y-67844748D02*
X131538969Y-63778884D01*
%TO.C,R85*%
X109015200Y-43381664D02*
X109015200Y-42927536D01*
X107545200Y-43381664D02*
X107545200Y-42927536D01*
%TO.C,R84*%
X111555200Y-43381664D02*
X111555200Y-42927536D01*
X110085200Y-43381664D02*
X110085200Y-42927536D01*
%TO.C,R83*%
X114095200Y-43381664D02*
X114095200Y-42927536D01*
X112625200Y-43381664D02*
X112625200Y-42927536D01*
%TO.C,R82*%
X116635200Y-43381664D02*
X116635200Y-42927536D01*
X115165200Y-43381664D02*
X115165200Y-42927536D01*
%TO.C,R81*%
X119175200Y-43381664D02*
X119175200Y-42927536D01*
X117705200Y-43381664D02*
X117705200Y-42927536D01*
%TO.C,R80*%
X121715200Y-43381664D02*
X121715200Y-42927536D01*
X120245200Y-43381664D02*
X120245200Y-42927536D01*
%TO.C,R79*%
X124255200Y-43381664D02*
X124255200Y-42927536D01*
X122785200Y-43381664D02*
X122785200Y-42927536D01*
%TO.C,R78*%
X126795200Y-43381664D02*
X126795200Y-42927536D01*
X125325200Y-43381664D02*
X125325200Y-42927536D01*
%TO.C,R77*%
X129335200Y-43381664D02*
X129335200Y-42927536D01*
X127865200Y-43381664D02*
X127865200Y-42927536D01*
%TO.C,R76*%
X147115200Y-43381664D02*
X147115200Y-42927536D01*
X145645200Y-43381664D02*
X145645200Y-42927536D01*
%TO.C,R75*%
X149655200Y-43381664D02*
X149655200Y-42927536D01*
X148185200Y-43381664D02*
X148185200Y-42927536D01*
%TO.C,R74*%
X152195200Y-43381664D02*
X152195200Y-42927536D01*
X150725200Y-43381664D02*
X150725200Y-42927536D01*
%TO.C,R73*%
X154735200Y-43381664D02*
X154735200Y-42927536D01*
X153265200Y-43381664D02*
X153265200Y-42927536D01*
%TO.C,R72*%
X157275200Y-43381664D02*
X157275200Y-42927536D01*
X155805200Y-43381664D02*
X155805200Y-42927536D01*
%TO.C,R71*%
X159815200Y-43381664D02*
X159815200Y-42927536D01*
X158345200Y-43381664D02*
X158345200Y-42927536D01*
%TO.C,R70*%
X162355200Y-43381664D02*
X162355200Y-42927536D01*
X160885200Y-43381664D02*
X160885200Y-42927536D01*
%TO.C,R69*%
X164895200Y-43381664D02*
X164895200Y-42927536D01*
X163425200Y-43381664D02*
X163425200Y-42927536D01*
%TO.C,R68*%
X167435200Y-43381664D02*
X167435200Y-42927536D01*
X165965200Y-43381664D02*
X165965200Y-42927536D01*
%TO.C,R47*%
X107745200Y-35126664D02*
X107745200Y-34672536D01*
X106275200Y-35126664D02*
X106275200Y-34672536D01*
%TO.C,R46*%
X110285200Y-35126664D02*
X110285200Y-34672536D01*
X108815200Y-35126664D02*
X108815200Y-34672536D01*
%TO.C,R45*%
X112825200Y-35126664D02*
X112825200Y-34672536D01*
X111355200Y-35126664D02*
X111355200Y-34672536D01*
%TO.C,R44*%
X115365200Y-35126664D02*
X115365200Y-34672536D01*
X113895200Y-35126664D02*
X113895200Y-34672536D01*
%TO.C,R43*%
X117905200Y-35126664D02*
X117905200Y-34672536D01*
X116435200Y-35126664D02*
X116435200Y-34672536D01*
%TO.C,R42*%
X120445200Y-35126664D02*
X120445200Y-34672536D01*
X118975200Y-35126664D02*
X118975200Y-34672536D01*
%TO.C,R41*%
X122985200Y-35126664D02*
X122985200Y-34672536D01*
X121515200Y-35126664D02*
X121515200Y-34672536D01*
%TO.C,R40*%
X125525200Y-35126664D02*
X125525200Y-34672536D01*
X124055200Y-35126664D02*
X124055200Y-34672536D01*
%TO.C,R39*%
X130605200Y-35126664D02*
X130605200Y-34672536D01*
X129135200Y-35126664D02*
X129135200Y-34672536D01*
%TO.C,R38*%
X148385200Y-35126664D02*
X148385200Y-34672536D01*
X146915200Y-35126664D02*
X146915200Y-34672536D01*
%TO.C,R37*%
X150925200Y-35126664D02*
X150925200Y-34672536D01*
X149455200Y-35126664D02*
X149455200Y-34672536D01*
%TO.C,R36*%
X153465200Y-35126664D02*
X153465200Y-34672536D01*
X151995200Y-35126664D02*
X151995200Y-34672536D01*
%TO.C,R35*%
X156005200Y-35126664D02*
X156005200Y-34672536D01*
X154535200Y-35126664D02*
X154535200Y-34672536D01*
%TO.C,R34*%
X158545200Y-35126664D02*
X158545200Y-34672536D01*
X157075200Y-35126664D02*
X157075200Y-34672536D01*
%TO.C,R33*%
X161085200Y-35126664D02*
X161085200Y-34672536D01*
X159615200Y-35126664D02*
X159615200Y-34672536D01*
%TO.C,R32*%
X163625200Y-35126664D02*
X163625200Y-34672536D01*
X162155200Y-35126664D02*
X162155200Y-34672536D01*
%TO.C,R31*%
X166165200Y-35126664D02*
X166165200Y-34672536D01*
X164695200Y-35126664D02*
X164695200Y-34672536D01*
%TO.C,R30*%
X168705200Y-35126664D02*
X168705200Y-34672536D01*
X167235200Y-35126664D02*
X167235200Y-34672536D01*
%TO.C,C7*%
X125298252Y-49509000D02*
X123875748Y-49509000D01*
X125298252Y-51329000D02*
X123875748Y-51329000D01*
%TO.C,C6*%
X119867000Y-56375248D02*
X119867000Y-57797752D01*
X121687000Y-56375248D02*
X121687000Y-57797752D01*
%TO.C,C5*%
X127685748Y-59415000D02*
X129108252Y-59415000D01*
X127685748Y-61235000D02*
X129108252Y-61235000D01*
%TO.C,C4*%
X142008420Y-54592367D02*
X142377887Y-54961834D01*
X143047867Y-53552920D02*
X143417334Y-53922387D01*
%TO.C,C3*%
X147429510Y-63240043D02*
X147060043Y-63609510D01*
X148468957Y-64279490D02*
X148099490Y-64648957D01*
%TO.C,C2*%
X136875810Y-68560557D02*
X136506343Y-68191090D01*
X137915257Y-67521110D02*
X137545790Y-67151643D01*
%TO.C,U1*%
X122265000Y-52089000D02*
X128275000Y-52089000D01*
X124515000Y-58909000D02*
X128275000Y-58909000D01*
X128275000Y-52089000D02*
X128275000Y-53349000D01*
X128275000Y-58909000D02*
X128275000Y-57649000D01*
%TO.C,R67*%
X109015200Y-47191664D02*
X109015200Y-46737536D01*
X107545200Y-47191664D02*
X107545200Y-46737536D01*
%TO.C,R66*%
X111555200Y-47191664D02*
X111555200Y-46737536D01*
X110085200Y-47191664D02*
X110085200Y-46737536D01*
%TO.C,R65*%
X114095200Y-47191664D02*
X114095200Y-46737536D01*
X112625200Y-47191664D02*
X112625200Y-46737536D01*
%TO.C,R64*%
X116635200Y-47191664D02*
X116635200Y-46737536D01*
X115165200Y-47191664D02*
X115165200Y-46737536D01*
%TO.C,R63*%
X119175200Y-47191664D02*
X119175200Y-46737536D01*
X117705200Y-47191664D02*
X117705200Y-46737536D01*
%TO.C,R62*%
X121715200Y-47191664D02*
X121715200Y-46737536D01*
X120245200Y-47191664D02*
X120245200Y-46737536D01*
%TO.C,R61*%
X124255200Y-47191664D02*
X124255200Y-46737536D01*
X122785200Y-47191664D02*
X122785200Y-46737536D01*
%TO.C,R60*%
X126795200Y-47191664D02*
X126795200Y-46737536D01*
X125325200Y-47191664D02*
X125325200Y-46737536D01*
%TO.C,R59*%
X129335200Y-47191664D02*
X129335200Y-46737536D01*
X127865200Y-47191664D02*
X127865200Y-46737536D01*
%TO.C,R58*%
X147115200Y-47191664D02*
X147115200Y-46737536D01*
X145645200Y-47191664D02*
X145645200Y-46737536D01*
%TO.C,R57*%
X149655200Y-47191664D02*
X149655200Y-46737536D01*
X148185200Y-47191664D02*
X148185200Y-46737536D01*
%TO.C,R56*%
X152195200Y-47191664D02*
X152195200Y-46737536D01*
X150725200Y-47191664D02*
X150725200Y-46737536D01*
%TO.C,R55*%
X154735200Y-47191664D02*
X154735200Y-46737536D01*
X153265200Y-47191664D02*
X153265200Y-46737536D01*
%TO.C,R54*%
X157275200Y-47191664D02*
X157275200Y-46737536D01*
X155805200Y-47191664D02*
X155805200Y-46737536D01*
%TO.C,R53*%
X159815200Y-47191664D02*
X159815200Y-46737536D01*
X158345200Y-47191664D02*
X158345200Y-46737536D01*
%TO.C,R52*%
X162355200Y-47191664D02*
X162355200Y-46737536D01*
X160885200Y-47191664D02*
X160885200Y-46737536D01*
%TO.C,R51*%
X164895200Y-47191664D02*
X164895200Y-46737536D01*
X163425200Y-47191664D02*
X163425200Y-46737536D01*
%TO.C,R50*%
X167435200Y-47191664D02*
X167435200Y-46737536D01*
X165965200Y-47191664D02*
X165965200Y-46737536D01*
%TO.C,R49*%
X155474936Y-59726500D02*
X155929064Y-59726500D01*
X155474936Y-58256500D02*
X155929064Y-58256500D01*
%TO.C,R48*%
X153325564Y-68035500D02*
X152871436Y-68035500D01*
X153325564Y-69505500D02*
X152871436Y-69505500D01*
%TO.C,R29*%
X136297936Y-51154000D02*
X136752064Y-51154000D01*
X136297936Y-49684000D02*
X136752064Y-49684000D01*
%TO.C,R28*%
X107745200Y-38936664D02*
X107745200Y-38482536D01*
X106275200Y-38936664D02*
X106275200Y-38482536D01*
%TO.C,R27*%
X110285200Y-38936664D02*
X110285200Y-38482536D01*
X108815200Y-38936664D02*
X108815200Y-38482536D01*
%TO.C,R26*%
X112825200Y-38936664D02*
X112825200Y-38482536D01*
X111355200Y-38936664D02*
X111355200Y-38482536D01*
%TO.C,R25*%
X115365200Y-38936664D02*
X115365200Y-38482536D01*
X113895200Y-38936664D02*
X113895200Y-38482536D01*
%TO.C,R24*%
X117905200Y-38936664D02*
X117905200Y-38482536D01*
X116435200Y-38936664D02*
X116435200Y-38482536D01*
%TO.C,R23*%
X120445200Y-38936664D02*
X120445200Y-38482536D01*
X118975200Y-38936664D02*
X118975200Y-38482536D01*
%TO.C,R22*%
X122985200Y-38936664D02*
X122985200Y-38482536D01*
X121515200Y-38936664D02*
X121515200Y-38482536D01*
%TO.C,R21*%
X125525200Y-38936664D02*
X125525200Y-38482536D01*
X124055200Y-38936664D02*
X124055200Y-38482536D01*
%TO.C,R20*%
X130605200Y-38936664D02*
X130605200Y-38482536D01*
X129135200Y-38936664D02*
X129135200Y-38482536D01*
%TO.C,R19*%
X148385200Y-38936664D02*
X148385200Y-38482536D01*
X146915200Y-38936664D02*
X146915200Y-38482536D01*
%TO.C,R18*%
X150925200Y-38936664D02*
X150925200Y-38482536D01*
X149455200Y-38936664D02*
X149455200Y-38482536D01*
%TO.C,R17*%
X153465200Y-38936664D02*
X153465200Y-38482536D01*
X151995200Y-38936664D02*
X151995200Y-38482536D01*
%TO.C,R16*%
X156005200Y-38936664D02*
X156005200Y-38482536D01*
X154535200Y-38936664D02*
X154535200Y-38482536D01*
%TO.C,R15*%
X158545200Y-38936664D02*
X158545200Y-38482536D01*
X157075200Y-38936664D02*
X157075200Y-38482536D01*
%TO.C,R14*%
X161085200Y-38936664D02*
X161085200Y-38482536D01*
X159615200Y-38936664D02*
X159615200Y-38482536D01*
%TO.C,R13*%
X163625200Y-38936664D02*
X163625200Y-38482536D01*
X162155200Y-38936664D02*
X162155200Y-38482536D01*
%TO.C,R12*%
X166165200Y-38936664D02*
X166165200Y-38482536D01*
X164695200Y-38936664D02*
X164695200Y-38482536D01*
%TO.C,R11*%
X168705200Y-38936664D02*
X168705200Y-38482536D01*
X167235200Y-38936664D02*
X167235200Y-38482536D01*
%TO.C,R10*%
X137272936Y-42264000D02*
X137727064Y-42264000D01*
X137272936Y-40794000D02*
X137727064Y-40794000D01*
%TO.C,R9*%
X153135000Y-73887064D02*
X153135000Y-73432936D01*
X151665000Y-73887064D02*
X151665000Y-73432936D01*
%TO.C,R8*%
X159285000Y-73702936D02*
X159285000Y-74157064D01*
X160755000Y-73702936D02*
X160755000Y-74157064D01*
%TO.C,R7*%
X151665000Y-83862936D02*
X151665000Y-84317064D01*
X153135000Y-83862936D02*
X153135000Y-84317064D01*
%TO.C,R6*%
X159285000Y-84481936D02*
X159285000Y-84936064D01*
X160755000Y-84481936D02*
X160755000Y-84936064D01*
%TO.C,R5*%
X159285000Y-79147936D02*
X159285000Y-79602064D01*
X160755000Y-79147936D02*
X160755000Y-79602064D01*
%TO.C,R4*%
X121385064Y-64543000D02*
X120930936Y-64543000D01*
X121385064Y-66013000D02*
X120930936Y-66013000D01*
%TO.C,R3*%
X121385064Y-66575000D02*
X120930936Y-66575000D01*
X121385064Y-68045000D02*
X120930936Y-68045000D01*
%TO.C,R2*%
X124941000Y-68553064D02*
X124941000Y-68098936D01*
X123471000Y-68553064D02*
X123471000Y-68098936D01*
%TO.C,R1*%
X153198500Y-77887564D02*
X153198500Y-77433436D01*
X151728500Y-77887564D02*
X151728500Y-77433436D01*
%TO.C,J10*%
X163386158Y-53704254D02*
X164695952Y-53935206D01*
X163155206Y-55014048D02*
X163386158Y-53704254D01*
X162934673Y-56264754D02*
X165554261Y-56726658D01*
X165554261Y-56726658D02*
X163779577Y-66791393D01*
X162934673Y-56264754D02*
X161159988Y-66329489D01*
X161159988Y-66329489D02*
X163779577Y-66791393D01*
%TO.C,J9*%
X140100000Y-46676000D02*
X140100000Y-48006000D01*
X138770000Y-46676000D02*
X140100000Y-46676000D01*
X137500000Y-46676000D02*
X137500000Y-49336000D01*
X137500000Y-49336000D02*
X134900000Y-49336000D01*
X137500000Y-46676000D02*
X134900000Y-46676000D01*
X134900000Y-46676000D02*
X134900000Y-49336000D01*
%TO.C,J8*%
X150816000Y-63433000D02*
X150816000Y-62103000D01*
X152146000Y-63433000D02*
X150816000Y-63433000D01*
X153416000Y-63433000D02*
X153416000Y-60773000D01*
X153416000Y-60773000D02*
X156016000Y-60773000D01*
X153416000Y-63433000D02*
X156016000Y-63433000D01*
X156016000Y-63433000D02*
X156016000Y-60773000D01*
%TO.C,J7*%
X150816000Y-67179500D02*
X150816000Y-65849500D01*
X152146000Y-67179500D02*
X150816000Y-67179500D01*
X153416000Y-67179500D02*
X153416000Y-64519500D01*
X153416000Y-64519500D02*
X156016000Y-64519500D01*
X153416000Y-67179500D02*
X156016000Y-67179500D01*
X156016000Y-67179500D02*
X156016000Y-64519500D01*
%TO.C,J6*%
X140100000Y-42993000D02*
X140100000Y-44323000D01*
X138770000Y-42993000D02*
X140100000Y-42993000D01*
X137500000Y-42993000D02*
X137500000Y-45653000D01*
X137500000Y-45653000D02*
X134900000Y-45653000D01*
X137500000Y-42993000D02*
X134900000Y-42993000D01*
X134900000Y-42993000D02*
X134900000Y-45653000D01*
%TO.C,J5*%
X157540000Y-76895000D02*
X156210000Y-76895000D01*
X157540000Y-75565000D02*
X157540000Y-76895000D01*
X157540000Y-74295000D02*
X154880000Y-74295000D01*
X154880000Y-74295000D02*
X154880000Y-71695000D01*
X157540000Y-74295000D02*
X157540000Y-71695000D01*
X157540000Y-71695000D02*
X154880000Y-71695000D01*
%TO.C,J3*%
X157540000Y-87055000D02*
X156210000Y-87055000D01*
X157540000Y-85725000D02*
X157540000Y-87055000D01*
X157540000Y-84455000D02*
X154880000Y-84455000D01*
X154880000Y-84455000D02*
X154880000Y-81855000D01*
X157540000Y-84455000D02*
X157540000Y-81855000D01*
X157540000Y-81855000D02*
X154880000Y-81855000D01*
%TO.C,J1*%
X146815500Y-68964500D02*
X148145500Y-68964500D01*
X146815500Y-70294500D02*
X146815500Y-68964500D01*
X146815500Y-71564500D02*
X149475500Y-71564500D01*
X149475500Y-71564500D02*
X149475500Y-84324500D01*
X146815500Y-71564500D02*
X146815500Y-84324500D01*
X146815500Y-84324500D02*
X149475500Y-84324500D01*
%TO.C,U2*%
X136055885Y-61767360D02*
X135143717Y-62679528D01*
X135737687Y-61449162D02*
X136055885Y-61767360D01*
X136055885Y-61130964D02*
X135737687Y-61449162D01*
X140842998Y-56343851D02*
X141161196Y-56662049D01*
X140524800Y-56662049D02*
X140842998Y-56343851D01*
X140842998Y-66554473D02*
X140524800Y-66236275D01*
X141161196Y-66236275D02*
X140842998Y-66554473D01*
X145948309Y-61449162D02*
X145630111Y-61130964D01*
X145630111Y-61767360D02*
X145948309Y-61449162D01*
%TO.C,D6*%
X141875000Y-38826000D02*
X141875000Y-34926000D01*
X143875000Y-38826000D02*
X143875000Y-34926000D01*
X141875000Y-38826000D02*
X143875000Y-38826000D01*
%TO.C,D5*%
X125714000Y-59726000D02*
X125714000Y-63626000D01*
X123714000Y-59726000D02*
X123714000Y-63626000D01*
X125714000Y-59726000D02*
X123714000Y-59726000D01*
%TO.C,D4*%
X122900000Y-61833000D02*
X119000000Y-61833000D01*
X122900000Y-59833000D02*
X119000000Y-59833000D01*
X122900000Y-61833000D02*
X122900000Y-59833000D01*
%TO.C,D1*%
X161727000Y-72045000D02*
X161727000Y-74905000D01*
X163647000Y-72045000D02*
X161727000Y-72045000D01*
X163647000Y-74905000D02*
X163647000Y-72045000D01*
%TO.C,D3*%
X161727000Y-82849000D02*
X161727000Y-85709000D01*
X163647000Y-82849000D02*
X161727000Y-82849000D01*
X163647000Y-85709000D02*
X163647000Y-82849000D01*
%TO.C,D2*%
X161727000Y-77515000D02*
X161727000Y-80375000D01*
X163647000Y-77515000D02*
X161727000Y-77515000D01*
X163647000Y-80375000D02*
X163647000Y-77515000D01*
%TO.C,C12*%
X131672000Y-78493252D02*
X131672000Y-77970748D01*
X130202000Y-78493252D02*
X130202000Y-77970748D01*
%TO.C,C11*%
X128010043Y-68533990D02*
X128379510Y-68903457D01*
X129049490Y-67494543D02*
X129418957Y-67864010D01*
%TO.C,C10*%
X132212957Y-70658010D02*
X131843490Y-70288543D01*
X131173510Y-71697457D02*
X130804043Y-71327990D01*
%TO.C,R88*%
D11*
X138447712Y-73304149D02*
X137875293Y-73203134D01*
X138043651Y-73708210D02*
X137336545Y-73001103D01*
X137605919Y-72731729D01*
X137706934Y-72698057D01*
X137774277Y-72698057D01*
X137875293Y-72731729D01*
X137976308Y-72832744D01*
X138009980Y-72933760D01*
X138009980Y-73001103D01*
X137976308Y-73102118D01*
X137706934Y-73371492D01*
X138447712Y-72496027D02*
X138346697Y-72529698D01*
X138279354Y-72529699D01*
X138178338Y-72496027D01*
X138144667Y-72462355D01*
X138110995Y-72361340D01*
X138110995Y-72293996D01*
X138144667Y-72192981D01*
X138279354Y-72058294D01*
X138380369Y-72024622D01*
X138447712Y-72024622D01*
X138548728Y-72058294D01*
X138582400Y-72091966D01*
X138616071Y-72192981D01*
X138616071Y-72260324D01*
X138582400Y-72361340D01*
X138447712Y-72496027D01*
X138414041Y-72597042D01*
X138414041Y-72664386D01*
X138447712Y-72765401D01*
X138582400Y-72900088D01*
X138683415Y-72933760D01*
X138750758Y-72933760D01*
X138851774Y-72900088D01*
X138986461Y-72765401D01*
X139020132Y-72664386D01*
X139020132Y-72597042D01*
X138986461Y-72496027D01*
X138851774Y-72361340D01*
X138750758Y-72327668D01*
X138683415Y-72327668D01*
X138582400Y-72361340D01*
X139121148Y-71822592D02*
X139020132Y-71856263D01*
X138952789Y-71856263D01*
X138851774Y-71822592D01*
X138818102Y-71788920D01*
X138784430Y-71687905D01*
X138784430Y-71620561D01*
X138818102Y-71519546D01*
X138952789Y-71384859D01*
X139053804Y-71351187D01*
X139121148Y-71351187D01*
X139222163Y-71384859D01*
X139255835Y-71418531D01*
X139289506Y-71519546D01*
X139289506Y-71586889D01*
X139255835Y-71687905D01*
X139121148Y-71822592D01*
X139087476Y-71923607D01*
X139087476Y-71990950D01*
X139121148Y-72091966D01*
X139255835Y-72226653D01*
X139356850Y-72260324D01*
X139424193Y-72260324D01*
X139525209Y-72226653D01*
X139659896Y-72091966D01*
X139693567Y-71990950D01*
X139693567Y-71923607D01*
X139659896Y-71822592D01*
X139525209Y-71687905D01*
X139424193Y-71654233D01*
X139356850Y-71654233D01*
X139255835Y-71687905D01*
%TO.C,J2*%
X115371750Y-60132723D02*
X115446414Y-60843096D01*
X115413988Y-60990148D01*
X115329227Y-61094820D01*
X115192130Y-61157110D01*
X115097413Y-61167065D01*
X115807929Y-60182642D02*
X115850310Y-60130306D01*
X115940049Y-60072993D01*
X116176840Y-60048105D01*
X116276533Y-60085508D01*
X116328869Y-60127889D01*
X116386183Y-60217627D01*
X116396138Y-60312344D01*
X116363712Y-60459396D01*
X115855144Y-61087425D01*
X116470801Y-61022717D01*
%TO.C,J13*%
X127841476Y-84097880D02*
X127841476Y-84812166D01*
X127793857Y-84955023D01*
X127698619Y-85050261D01*
X127555761Y-85097880D01*
X127460523Y-85097880D01*
X128841476Y-85097880D02*
X128270047Y-85097880D01*
X128555761Y-85097880D02*
X128555761Y-84097880D01*
X128460523Y-84240738D01*
X128365285Y-84335976D01*
X128270047Y-84383595D01*
X129174809Y-84097880D02*
X129793857Y-84097880D01*
X129460523Y-84478833D01*
X129603380Y-84478833D01*
X129698619Y-84526452D01*
X129746238Y-84574071D01*
X129793857Y-84669309D01*
X129793857Y-84907404D01*
X129746238Y-85002642D01*
X129698619Y-85050261D01*
X129603380Y-85097880D01*
X129317666Y-85097880D01*
X129222428Y-85050261D01*
X129174809Y-85002642D01*
%TO.C,J12*%
X133838476Y-31918880D02*
X133838476Y-32633166D01*
X133790857Y-32776023D01*
X133695619Y-32871261D01*
X133552761Y-32918880D01*
X133457523Y-32918880D01*
X134838476Y-32918880D02*
X134267047Y-32918880D01*
X134552761Y-32918880D02*
X134552761Y-31918880D01*
X134457523Y-32061738D01*
X134362285Y-32156976D01*
X134267047Y-32204595D01*
X135219428Y-32014119D02*
X135267047Y-31966500D01*
X135362285Y-31918880D01*
X135600380Y-31918880D01*
X135695619Y-31966500D01*
X135743238Y-32014119D01*
X135790857Y-32109357D01*
X135790857Y-32204595D01*
X135743238Y-32347452D01*
X135171809Y-32918880D01*
X135790857Y-32918880D01*
%TO.C,C1*%
X132697287Y-58447489D02*
X132697287Y-58514832D01*
X132629943Y-58649519D01*
X132562600Y-58716863D01*
X132427912Y-58784206D01*
X132293225Y-58784206D01*
X132192210Y-58750535D01*
X132023851Y-58649519D01*
X131922836Y-58548504D01*
X131821821Y-58380145D01*
X131788149Y-58279130D01*
X131788149Y-58144443D01*
X131855493Y-58009756D01*
X131922836Y-57942412D01*
X132057523Y-57875069D01*
X132124867Y-57875069D01*
X133438065Y-57841397D02*
X133034004Y-58245458D01*
X133236035Y-58043428D02*
X132528928Y-57336321D01*
X132562600Y-57504680D01*
X132562600Y-57639367D01*
X132528928Y-57740382D01*
%TO.C,J11*%
X134420076Y-88085680D02*
X134420076Y-88799966D01*
X134372457Y-88942823D01*
X134277219Y-89038061D01*
X134134361Y-89085680D01*
X134039123Y-89085680D01*
X135420076Y-89085680D02*
X134848647Y-89085680D01*
X135134361Y-89085680D02*
X135134361Y-88085680D01*
X135039123Y-88228538D01*
X134943885Y-88323776D01*
X134848647Y-88371395D01*
X136372457Y-89085680D02*
X135801028Y-89085680D01*
X136086742Y-89085680D02*
X136086742Y-88085680D01*
X135991504Y-88228538D01*
X135896266Y-88323776D01*
X135801028Y-88371395D01*
%TO.C,R87*%
X120362742Y-71940680D02*
X120029409Y-71464490D01*
X119791314Y-71940680D02*
X119791314Y-70940680D01*
X120172266Y-70940680D01*
X120267504Y-70988300D01*
X120315123Y-71035919D01*
X120362742Y-71131157D01*
X120362742Y-71274014D01*
X120315123Y-71369252D01*
X120267504Y-71416871D01*
X120172266Y-71464490D01*
X119791314Y-71464490D01*
X120934171Y-71369252D02*
X120838933Y-71321633D01*
X120791314Y-71274014D01*
X120743695Y-71178776D01*
X120743695Y-71131157D01*
X120791314Y-71035919D01*
X120838933Y-70988300D01*
X120934171Y-70940680D01*
X121124647Y-70940680D01*
X121219885Y-70988300D01*
X121267504Y-71035919D01*
X121315123Y-71131157D01*
X121315123Y-71178776D01*
X121267504Y-71274014D01*
X121219885Y-71321633D01*
X121124647Y-71369252D01*
X120934171Y-71369252D01*
X120838933Y-71416871D01*
X120791314Y-71464490D01*
X120743695Y-71559728D01*
X120743695Y-71750204D01*
X120791314Y-71845442D01*
X120838933Y-71893061D01*
X120934171Y-71940680D01*
X121124647Y-71940680D01*
X121219885Y-71893061D01*
X121267504Y-71845442D01*
X121315123Y-71750204D01*
X121315123Y-71559728D01*
X121267504Y-71464490D01*
X121219885Y-71416871D01*
X121124647Y-71369252D01*
X121648457Y-70940680D02*
X122315123Y-70940680D01*
X121886552Y-71940680D01*
%TO.C,R86*%
X126738142Y-64333380D02*
X126404809Y-63857190D01*
X126166714Y-64333380D02*
X126166714Y-63333380D01*
X126547666Y-63333380D01*
X126642904Y-63381000D01*
X126690523Y-63428619D01*
X126738142Y-63523857D01*
X126738142Y-63666714D01*
X126690523Y-63761952D01*
X126642904Y-63809571D01*
X126547666Y-63857190D01*
X126166714Y-63857190D01*
X127309571Y-63761952D02*
X127214333Y-63714333D01*
X127166714Y-63666714D01*
X127119095Y-63571476D01*
X127119095Y-63523857D01*
X127166714Y-63428619D01*
X127214333Y-63381000D01*
X127309571Y-63333380D01*
X127500047Y-63333380D01*
X127595285Y-63381000D01*
X127642904Y-63428619D01*
X127690523Y-63523857D01*
X127690523Y-63571476D01*
X127642904Y-63666714D01*
X127595285Y-63714333D01*
X127500047Y-63761952D01*
X127309571Y-63761952D01*
X127214333Y-63809571D01*
X127166714Y-63857190D01*
X127119095Y-63952428D01*
X127119095Y-64142904D01*
X127166714Y-64238142D01*
X127214333Y-64285761D01*
X127309571Y-64333380D01*
X127500047Y-64333380D01*
X127595285Y-64285761D01*
X127642904Y-64238142D01*
X127690523Y-64142904D01*
X127690523Y-63952428D01*
X127642904Y-63857190D01*
X127595285Y-63809571D01*
X127500047Y-63761952D01*
X128547666Y-63333380D02*
X128357190Y-63333380D01*
X128261952Y-63381000D01*
X128214333Y-63428619D01*
X128119095Y-63571476D01*
X128071476Y-63761952D01*
X128071476Y-64142904D01*
X128119095Y-64238142D01*
X128166714Y-64285761D01*
X128261952Y-64333380D01*
X128452428Y-64333380D01*
X128547666Y-64285761D01*
X128595285Y-64238142D01*
X128642904Y-64142904D01*
X128642904Y-63904809D01*
X128595285Y-63809571D01*
X128547666Y-63761952D01*
X128452428Y-63714333D01*
X128261952Y-63714333D01*
X128166714Y-63761952D01*
X128119095Y-63809571D01*
X128071476Y-63904809D01*
%TO.C,J4*%
X112828087Y-49714288D02*
X113000888Y-50407356D01*
X112989244Y-50557490D01*
X112919875Y-50672939D01*
X112792781Y-50753704D01*
X112700372Y-50776744D01*
X113786614Y-49818838D02*
X113947895Y-50465702D01*
X113463430Y-49506802D02*
X113405209Y-50257471D01*
X114005868Y-50107710D01*
%TO.C,X1*%
X133444205Y-63645255D02*
X133208503Y-64823766D01*
X133915609Y-64116659D02*
X132737098Y-64352361D01*
X133848266Y-65463529D02*
X133444205Y-65059468D01*
X133646235Y-65261499D02*
X134353342Y-64554392D01*
X134184983Y-64588064D01*
X134050296Y-64588064D01*
X133949281Y-64554392D01*
%TO.C,R39*%
X128672580Y-35542457D02*
X128196390Y-35875790D01*
X128672580Y-36113885D02*
X127672580Y-36113885D01*
X127672580Y-35732933D01*
X127720200Y-35637695D01*
X127767819Y-35590076D01*
X127863057Y-35542457D01*
X128005914Y-35542457D01*
X128101152Y-35590076D01*
X128148771Y-35637695D01*
X128196390Y-35732933D01*
X128196390Y-36113885D01*
X127672580Y-35209123D02*
X127672580Y-34590076D01*
X128053533Y-34923409D01*
X128053533Y-34780552D01*
X128101152Y-34685314D01*
X128148771Y-34637695D01*
X128244009Y-34590076D01*
X128482104Y-34590076D01*
X128577342Y-34637695D01*
X128624961Y-34685314D01*
X128672580Y-34780552D01*
X128672580Y-35066266D01*
X128624961Y-35161504D01*
X128577342Y-35209123D01*
X128672580Y-34113885D02*
X128672580Y-33923409D01*
X128624961Y-33828171D01*
X128577342Y-33780552D01*
X128434485Y-33685314D01*
X128244009Y-33637695D01*
X127863057Y-33637695D01*
X127767819Y-33685314D01*
X127720200Y-33732933D01*
X127672580Y-33828171D01*
X127672580Y-34018647D01*
X127720200Y-34113885D01*
X127767819Y-34161504D01*
X127863057Y-34209123D01*
X128101152Y-34209123D01*
X128196390Y-34161504D01*
X128244009Y-34113885D01*
X128291628Y-34018647D01*
X128291628Y-33828171D01*
X128244009Y-33732933D01*
X128196390Y-33685314D01*
X128101152Y-33637695D01*
%TO.C,C7*%
X120864333Y-51030142D02*
X120816714Y-51077761D01*
X120673857Y-51125380D01*
X120578619Y-51125380D01*
X120435761Y-51077761D01*
X120340523Y-50982523D01*
X120292904Y-50887285D01*
X120245285Y-50696809D01*
X120245285Y-50553952D01*
X120292904Y-50363476D01*
X120340523Y-50268238D01*
X120435761Y-50173000D01*
X120578619Y-50125380D01*
X120673857Y-50125380D01*
X120816714Y-50173000D01*
X120864333Y-50220619D01*
X121197666Y-50125380D02*
X121864333Y-50125380D01*
X121435761Y-51125380D01*
%TO.C,C6*%
X118641833Y-57380142D02*
X118594214Y-57427761D01*
X118451357Y-57475380D01*
X118356119Y-57475380D01*
X118213261Y-57427761D01*
X118118023Y-57332523D01*
X118070404Y-57237285D01*
X118022785Y-57046809D01*
X118022785Y-56903952D01*
X118070404Y-56713476D01*
X118118023Y-56618238D01*
X118213261Y-56523000D01*
X118356119Y-56475380D01*
X118451357Y-56475380D01*
X118594214Y-56523000D01*
X118641833Y-56570619D01*
X119498976Y-56475380D02*
X119308500Y-56475380D01*
X119213261Y-56523000D01*
X119165642Y-56570619D01*
X119070404Y-56713476D01*
X119022785Y-56903952D01*
X119022785Y-57284904D01*
X119070404Y-57380142D01*
X119118023Y-57427761D01*
X119213261Y-57475380D01*
X119403738Y-57475380D01*
X119498976Y-57427761D01*
X119546595Y-57380142D01*
X119594214Y-57284904D01*
X119594214Y-57046809D01*
X119546595Y-56951571D01*
X119498976Y-56903952D01*
X119403738Y-56856333D01*
X119213261Y-56856333D01*
X119118023Y-56903952D01*
X119070404Y-56951571D01*
X119022785Y-57046809D01*
%TO.C,C5*%
X131992642Y-60809166D02*
X132040261Y-60856785D01*
X132087880Y-60999642D01*
X132087880Y-61094880D01*
X132040261Y-61237738D01*
X131945023Y-61332976D01*
X131849785Y-61380595D01*
X131659309Y-61428214D01*
X131516452Y-61428214D01*
X131325976Y-61380595D01*
X131230738Y-61332976D01*
X131135500Y-61237738D01*
X131087880Y-61094880D01*
X131087880Y-60999642D01*
X131135500Y-60856785D01*
X131183119Y-60809166D01*
X131087880Y-59904404D02*
X131087880Y-60380595D01*
X131564071Y-60428214D01*
X131516452Y-60380595D01*
X131468833Y-60285357D01*
X131468833Y-60047261D01*
X131516452Y-59952023D01*
X131564071Y-59904404D01*
X131659309Y-59856785D01*
X131897404Y-59856785D01*
X131992642Y-59904404D01*
X132040261Y-59952023D01*
X132087880Y-60047261D01*
X132087880Y-60285357D01*
X132040261Y-60380595D01*
X131992642Y-60428214D01*
%TO.C,C4*%
X143530426Y-53204125D02*
X143463083Y-53204125D01*
X143328396Y-53136781D01*
X143261052Y-53069438D01*
X143193709Y-52934750D01*
X143193709Y-52800063D01*
X143227380Y-52699048D01*
X143328396Y-52530689D01*
X143429411Y-52429674D01*
X143597770Y-52328659D01*
X143698785Y-52294987D01*
X143833472Y-52294987D01*
X143968159Y-52362331D01*
X144035503Y-52429674D01*
X144102846Y-52564361D01*
X144102846Y-52631705D01*
X144540579Y-53406155D02*
X144069174Y-53877560D01*
X144641594Y-52968422D02*
X143968159Y-53305140D01*
X144405892Y-53742873D01*
%TO.C,C3*%
X145549688Y-66296089D02*
X145549688Y-66363432D01*
X145482344Y-66498119D01*
X145415001Y-66565463D01*
X145280313Y-66632806D01*
X145145626Y-66632806D01*
X145044611Y-66599135D01*
X144876252Y-66498119D01*
X144775237Y-66397104D01*
X144674222Y-66228745D01*
X144640550Y-66127730D01*
X144640550Y-65993043D01*
X144707894Y-65858356D01*
X144775237Y-65791012D01*
X144909924Y-65723669D01*
X144977268Y-65723669D01*
X145145626Y-65420623D02*
X145583359Y-64982890D01*
X145617031Y-65487967D01*
X145718046Y-65386951D01*
X145819062Y-65353280D01*
X145886405Y-65353280D01*
X145987420Y-65386951D01*
X146155779Y-65555310D01*
X146189451Y-65656325D01*
X146189451Y-65723669D01*
X146155779Y-65824684D01*
X145953749Y-66026715D01*
X145852733Y-66060387D01*
X145785390Y-66060387D01*
%TO.C,C2*%
X135859533Y-69867410D02*
X135792190Y-69867410D01*
X135657503Y-69800066D01*
X135590159Y-69732723D01*
X135522816Y-69598035D01*
X135522816Y-69463348D01*
X135556487Y-69362333D01*
X135657503Y-69193974D01*
X135758518Y-69092959D01*
X135926877Y-68991944D01*
X136027892Y-68958272D01*
X136162579Y-68958272D01*
X136297266Y-69025616D01*
X136364610Y-69092959D01*
X136431953Y-69227646D01*
X136431953Y-69294990D01*
X136701327Y-69564364D02*
X136768671Y-69564364D01*
X136869686Y-69598035D01*
X137038045Y-69766394D01*
X137071716Y-69867410D01*
X137071716Y-69934753D01*
X137038045Y-70035768D01*
X136970701Y-70103112D01*
X136836014Y-70170455D01*
X136027892Y-70170455D01*
X136465625Y-70608188D01*
%TO.C,U1*%
X128905095Y-52157380D02*
X128905095Y-52966904D01*
X128952714Y-53062142D01*
X129000333Y-53109761D01*
X129095571Y-53157380D01*
X129286047Y-53157380D01*
X129381285Y-53109761D01*
X129428904Y-53062142D01*
X129476523Y-52966904D01*
X129476523Y-52157380D01*
X130476523Y-53157380D02*
X129905095Y-53157380D01*
X130190809Y-53157380D02*
X130190809Y-52157380D01*
X130095571Y-52300238D01*
X130000333Y-52395476D01*
X129905095Y-52443095D01*
%TO.C,R49*%
X151505142Y-59718880D02*
X151171809Y-59242690D01*
X150933714Y-59718880D02*
X150933714Y-58718880D01*
X151314666Y-58718880D01*
X151409904Y-58766500D01*
X151457523Y-58814119D01*
X151505142Y-58909357D01*
X151505142Y-59052214D01*
X151457523Y-59147452D01*
X151409904Y-59195071D01*
X151314666Y-59242690D01*
X150933714Y-59242690D01*
X152362285Y-59052214D02*
X152362285Y-59718880D01*
X152124190Y-58671261D02*
X151886095Y-59385547D01*
X152505142Y-59385547D01*
X152933714Y-59718880D02*
X153124190Y-59718880D01*
X153219428Y-59671261D01*
X153267047Y-59623642D01*
X153362285Y-59480785D01*
X153409904Y-59290309D01*
X153409904Y-58909357D01*
X153362285Y-58814119D01*
X153314666Y-58766500D01*
X153219428Y-58718880D01*
X153028952Y-58718880D01*
X152933714Y-58766500D01*
X152886095Y-58814119D01*
X152838476Y-58909357D01*
X152838476Y-59147452D01*
X152886095Y-59242690D01*
X152933714Y-59290309D01*
X153028952Y-59337928D01*
X153219428Y-59337928D01*
X153314666Y-59290309D01*
X153362285Y-59242690D01*
X153409904Y-59147452D01*
%TO.C,R48*%
X155884642Y-69286380D02*
X155551309Y-68810190D01*
X155313214Y-69286380D02*
X155313214Y-68286380D01*
X155694166Y-68286380D01*
X155789404Y-68334000D01*
X155837023Y-68381619D01*
X155884642Y-68476857D01*
X155884642Y-68619714D01*
X155837023Y-68714952D01*
X155789404Y-68762571D01*
X155694166Y-68810190D01*
X155313214Y-68810190D01*
X156741785Y-68619714D02*
X156741785Y-69286380D01*
X156503690Y-68238761D02*
X156265595Y-68953047D01*
X156884642Y-68953047D01*
X157408452Y-68714952D02*
X157313214Y-68667333D01*
X157265595Y-68619714D01*
X157217976Y-68524476D01*
X157217976Y-68476857D01*
X157265595Y-68381619D01*
X157313214Y-68334000D01*
X157408452Y-68286380D01*
X157598928Y-68286380D01*
X157694166Y-68334000D01*
X157741785Y-68381619D01*
X157789404Y-68476857D01*
X157789404Y-68524476D01*
X157741785Y-68619714D01*
X157694166Y-68667333D01*
X157598928Y-68714952D01*
X157408452Y-68714952D01*
X157313214Y-68762571D01*
X157265595Y-68810190D01*
X157217976Y-68905428D01*
X157217976Y-69095904D01*
X157265595Y-69191142D01*
X157313214Y-69238761D01*
X157408452Y-69286380D01*
X157598928Y-69286380D01*
X157694166Y-69238761D01*
X157741785Y-69191142D01*
X157789404Y-69095904D01*
X157789404Y-68905428D01*
X157741785Y-68810190D01*
X157694166Y-68762571D01*
X157598928Y-68714952D01*
%TO.C,R29*%
X139184142Y-50744380D02*
X138850809Y-50268190D01*
X138612714Y-50744380D02*
X138612714Y-49744380D01*
X138993666Y-49744380D01*
X139088904Y-49792000D01*
X139136523Y-49839619D01*
X139184142Y-49934857D01*
X139184142Y-50077714D01*
X139136523Y-50172952D01*
X139088904Y-50220571D01*
X138993666Y-50268190D01*
X138612714Y-50268190D01*
X139565095Y-49839619D02*
X139612714Y-49792000D01*
X139707952Y-49744380D01*
X139946047Y-49744380D01*
X140041285Y-49792000D01*
X140088904Y-49839619D01*
X140136523Y-49934857D01*
X140136523Y-50030095D01*
X140088904Y-50172952D01*
X139517476Y-50744380D01*
X140136523Y-50744380D01*
X140612714Y-50744380D02*
X140803190Y-50744380D01*
X140898428Y-50696761D01*
X140946047Y-50649142D01*
X141041285Y-50506285D01*
X141088904Y-50315809D01*
X141088904Y-49934857D01*
X141041285Y-49839619D01*
X140993666Y-49792000D01*
X140898428Y-49744380D01*
X140707952Y-49744380D01*
X140612714Y-49792000D01*
X140565095Y-49839619D01*
X140517476Y-49934857D01*
X140517476Y-50172952D01*
X140565095Y-50268190D01*
X140612714Y-50315809D01*
X140707952Y-50363428D01*
X140898428Y-50363428D01*
X140993666Y-50315809D01*
X141041285Y-50268190D01*
X141088904Y-50172952D01*
%TO.C,R20*%
X128672580Y-39352457D02*
X128196390Y-39685790D01*
X128672580Y-39923885D02*
X127672580Y-39923885D01*
X127672580Y-39542933D01*
X127720200Y-39447695D01*
X127767819Y-39400076D01*
X127863057Y-39352457D01*
X128005914Y-39352457D01*
X128101152Y-39400076D01*
X128148771Y-39447695D01*
X128196390Y-39542933D01*
X128196390Y-39923885D01*
X127767819Y-38971504D02*
X127720200Y-38923885D01*
X127672580Y-38828647D01*
X127672580Y-38590552D01*
X127720200Y-38495314D01*
X127767819Y-38447695D01*
X127863057Y-38400076D01*
X127958295Y-38400076D01*
X128101152Y-38447695D01*
X128672580Y-39019123D01*
X128672580Y-38400076D01*
X127672580Y-37781028D02*
X127672580Y-37685790D01*
X127720200Y-37590552D01*
X127767819Y-37542933D01*
X127863057Y-37495314D01*
X128053533Y-37447695D01*
X128291628Y-37447695D01*
X128482104Y-37495314D01*
X128577342Y-37542933D01*
X128624961Y-37590552D01*
X128672580Y-37685790D01*
X128672580Y-37781028D01*
X128624961Y-37876266D01*
X128577342Y-37923885D01*
X128482104Y-37971504D01*
X128291628Y-38019123D01*
X128053533Y-38019123D01*
X127863057Y-37971504D01*
X127767819Y-37923885D01*
X127720200Y-37876266D01*
X127672580Y-37781028D01*
%TO.C,R10*%
X140327142Y-41981380D02*
X139993809Y-41505190D01*
X139755714Y-41981380D02*
X139755714Y-40981380D01*
X140136666Y-40981380D01*
X140231904Y-41029000D01*
X140279523Y-41076619D01*
X140327142Y-41171857D01*
X140327142Y-41314714D01*
X140279523Y-41409952D01*
X140231904Y-41457571D01*
X140136666Y-41505190D01*
X139755714Y-41505190D01*
X141279523Y-41981380D02*
X140708095Y-41981380D01*
X140993809Y-41981380D02*
X140993809Y-40981380D01*
X140898571Y-41124238D01*
X140803333Y-41219476D01*
X140708095Y-41267095D01*
X141898571Y-40981380D02*
X141993809Y-40981380D01*
X142089047Y-41029000D01*
X142136666Y-41076619D01*
X142184285Y-41171857D01*
X142231904Y-41362333D01*
X142231904Y-41600428D01*
X142184285Y-41790904D01*
X142136666Y-41886142D01*
X142089047Y-41933761D01*
X141993809Y-41981380D01*
X141898571Y-41981380D01*
X141803333Y-41933761D01*
X141755714Y-41886142D01*
X141708095Y-41790904D01*
X141660476Y-41600428D01*
X141660476Y-41362333D01*
X141708095Y-41171857D01*
X141755714Y-41076619D01*
X141803333Y-41029000D01*
X141898571Y-40981380D01*
%TO.C,R9*%
X151050380Y-73883166D02*
X150574190Y-74216500D01*
X151050380Y-74454595D02*
X150050380Y-74454595D01*
X150050380Y-74073642D01*
X150098000Y-73978404D01*
X150145619Y-73930785D01*
X150240857Y-73883166D01*
X150383714Y-73883166D01*
X150478952Y-73930785D01*
X150526571Y-73978404D01*
X150574190Y-74073642D01*
X150574190Y-74454595D01*
X151050380Y-73406976D02*
X151050380Y-73216500D01*
X151002761Y-73121261D01*
X150955142Y-73073642D01*
X150812285Y-72978404D01*
X150621809Y-72930785D01*
X150240857Y-72930785D01*
X150145619Y-72978404D01*
X150098000Y-73026023D01*
X150050380Y-73121261D01*
X150050380Y-73311738D01*
X150098000Y-73406976D01*
X150145619Y-73454595D01*
X150240857Y-73502214D01*
X150478952Y-73502214D01*
X150574190Y-73454595D01*
X150621809Y-73406976D01*
X150669428Y-73311738D01*
X150669428Y-73121261D01*
X150621809Y-73026023D01*
X150574190Y-72978404D01*
X150478952Y-72930785D01*
%TO.C,R8*%
X159853333Y-71826380D02*
X159520000Y-71350190D01*
X159281904Y-71826380D02*
X159281904Y-70826380D01*
X159662857Y-70826380D01*
X159758095Y-70874000D01*
X159805714Y-70921619D01*
X159853333Y-71016857D01*
X159853333Y-71159714D01*
X159805714Y-71254952D01*
X159758095Y-71302571D01*
X159662857Y-71350190D01*
X159281904Y-71350190D01*
X160424761Y-71254952D02*
X160329523Y-71207333D01*
X160281904Y-71159714D01*
X160234285Y-71064476D01*
X160234285Y-71016857D01*
X160281904Y-70921619D01*
X160329523Y-70874000D01*
X160424761Y-70826380D01*
X160615238Y-70826380D01*
X160710476Y-70874000D01*
X160758095Y-70921619D01*
X160805714Y-71016857D01*
X160805714Y-71064476D01*
X160758095Y-71159714D01*
X160710476Y-71207333D01*
X160615238Y-71254952D01*
X160424761Y-71254952D01*
X160329523Y-71302571D01*
X160281904Y-71350190D01*
X160234285Y-71445428D01*
X160234285Y-71635904D01*
X160281904Y-71731142D01*
X160329523Y-71778761D01*
X160424761Y-71826380D01*
X160615238Y-71826380D01*
X160710476Y-71778761D01*
X160758095Y-71731142D01*
X160805714Y-71635904D01*
X160805714Y-71445428D01*
X160758095Y-71350190D01*
X160710476Y-71302571D01*
X160615238Y-71254952D01*
%TO.C,R7*%
X151200380Y-84233166D02*
X150724190Y-84566500D01*
X151200380Y-84804595D02*
X150200380Y-84804595D01*
X150200380Y-84423642D01*
X150248000Y-84328404D01*
X150295619Y-84280785D01*
X150390857Y-84233166D01*
X150533714Y-84233166D01*
X150628952Y-84280785D01*
X150676571Y-84328404D01*
X150724190Y-84423642D01*
X150724190Y-84804595D01*
X150200380Y-83899833D02*
X150200380Y-83233166D01*
X151200380Y-83661738D01*
%TO.C,R6*%
X159853333Y-82621380D02*
X159520000Y-82145190D01*
X159281904Y-82621380D02*
X159281904Y-81621380D01*
X159662857Y-81621380D01*
X159758095Y-81669000D01*
X159805714Y-81716619D01*
X159853333Y-81811857D01*
X159853333Y-81954714D01*
X159805714Y-82049952D01*
X159758095Y-82097571D01*
X159662857Y-82145190D01*
X159281904Y-82145190D01*
X160710476Y-81621380D02*
X160520000Y-81621380D01*
X160424761Y-81669000D01*
X160377142Y-81716619D01*
X160281904Y-81859476D01*
X160234285Y-82049952D01*
X160234285Y-82430904D01*
X160281904Y-82526142D01*
X160329523Y-82573761D01*
X160424761Y-82621380D01*
X160615238Y-82621380D01*
X160710476Y-82573761D01*
X160758095Y-82526142D01*
X160805714Y-82430904D01*
X160805714Y-82192809D01*
X160758095Y-82097571D01*
X160710476Y-82049952D01*
X160615238Y-82002333D01*
X160424761Y-82002333D01*
X160329523Y-82049952D01*
X160281904Y-82097571D01*
X160234285Y-82192809D01*
%TO.C,R5*%
X159853333Y-77160380D02*
X159520000Y-76684190D01*
X159281904Y-77160380D02*
X159281904Y-76160380D01*
X159662857Y-76160380D01*
X159758095Y-76208000D01*
X159805714Y-76255619D01*
X159853333Y-76350857D01*
X159853333Y-76493714D01*
X159805714Y-76588952D01*
X159758095Y-76636571D01*
X159662857Y-76684190D01*
X159281904Y-76684190D01*
X160758095Y-76160380D02*
X160281904Y-76160380D01*
X160234285Y-76636571D01*
X160281904Y-76588952D01*
X160377142Y-76541333D01*
X160615238Y-76541333D01*
X160710476Y-76588952D01*
X160758095Y-76636571D01*
X160805714Y-76731809D01*
X160805714Y-76969904D01*
X160758095Y-77065142D01*
X160710476Y-77112761D01*
X160615238Y-77160380D01*
X160377142Y-77160380D01*
X160281904Y-77112761D01*
X160234285Y-77065142D01*
%TO.C,R4*%
X123975833Y-65730380D02*
X123642500Y-65254190D01*
X123404404Y-65730380D02*
X123404404Y-64730380D01*
X123785357Y-64730380D01*
X123880595Y-64778000D01*
X123928214Y-64825619D01*
X123975833Y-64920857D01*
X123975833Y-65063714D01*
X123928214Y-65158952D01*
X123880595Y-65206571D01*
X123785357Y-65254190D01*
X123404404Y-65254190D01*
X124832976Y-65063714D02*
X124832976Y-65730380D01*
X124594880Y-64682761D02*
X124356785Y-65397047D01*
X124975833Y-65397047D01*
%TO.C,R3*%
X125817333Y-67571880D02*
X125484000Y-67095690D01*
X125245904Y-67571880D02*
X125245904Y-66571880D01*
X125626857Y-66571880D01*
X125722095Y-66619500D01*
X125769714Y-66667119D01*
X125817333Y-66762357D01*
X125817333Y-66905214D01*
X125769714Y-67000452D01*
X125722095Y-67048071D01*
X125626857Y-67095690D01*
X125245904Y-67095690D01*
X126150666Y-66571880D02*
X126769714Y-66571880D01*
X126436380Y-66952833D01*
X126579238Y-66952833D01*
X126674476Y-67000452D01*
X126722095Y-67048071D01*
X126769714Y-67143309D01*
X126769714Y-67381404D01*
X126722095Y-67476642D01*
X126674476Y-67524261D01*
X126579238Y-67571880D01*
X126293523Y-67571880D01*
X126198285Y-67524261D01*
X126150666Y-67476642D01*
%TO.C,R2*%
X123912333Y-71381880D02*
X123579000Y-70905690D01*
X123340904Y-71381880D02*
X123340904Y-70381880D01*
X123721857Y-70381880D01*
X123817095Y-70429500D01*
X123864714Y-70477119D01*
X123912333Y-70572357D01*
X123912333Y-70715214D01*
X123864714Y-70810452D01*
X123817095Y-70858071D01*
X123721857Y-70905690D01*
X123340904Y-70905690D01*
X124293285Y-70477119D02*
X124340904Y-70429500D01*
X124436142Y-70381880D01*
X124674238Y-70381880D01*
X124769476Y-70429500D01*
X124817095Y-70477119D01*
X124864714Y-70572357D01*
X124864714Y-70667595D01*
X124817095Y-70810452D01*
X124245666Y-71381880D01*
X124864714Y-71381880D01*
%TO.C,R1*%
X151265880Y-77827166D02*
X150789690Y-78160500D01*
X151265880Y-78398595D02*
X150265880Y-78398595D01*
X150265880Y-78017642D01*
X150313500Y-77922404D01*
X150361119Y-77874785D01*
X150456357Y-77827166D01*
X150599214Y-77827166D01*
X150694452Y-77874785D01*
X150742071Y-77922404D01*
X150789690Y-78017642D01*
X150789690Y-78398595D01*
X151265880Y-76874785D02*
X151265880Y-77446214D01*
X151265880Y-77160500D02*
X150265880Y-77160500D01*
X150408738Y-77255738D01*
X150503976Y-77350976D01*
X150551595Y-77446214D01*
%TO.C,J10*%
X164207367Y-52215628D02*
X164083333Y-52919062D01*
X164011630Y-53051480D01*
X163901301Y-53128733D01*
X163752345Y-53150822D01*
X163658554Y-53134284D01*
X165018527Y-53374084D02*
X164455780Y-53274856D01*
X164737153Y-53324470D02*
X164910801Y-52339662D01*
X164792203Y-52463811D01*
X164681874Y-52541064D01*
X164579814Y-52571422D01*
X165801818Y-52496772D02*
X165895609Y-52513310D01*
X165981131Y-52576744D01*
X166019758Y-52631908D01*
X166050116Y-52733969D01*
X166063935Y-52929820D01*
X166022591Y-53164298D01*
X165942619Y-53343611D01*
X165879186Y-53429134D01*
X165824021Y-53467760D01*
X165721961Y-53498118D01*
X165628170Y-53481580D01*
X165542647Y-53418147D01*
X165504021Y-53362982D01*
X165473663Y-53260922D01*
X165459843Y-53065070D01*
X165501188Y-52830592D01*
X165581160Y-52651279D01*
X165644593Y-52565757D01*
X165699758Y-52527130D01*
X165801818Y-52496772D01*
%TO.C,J9*%
X141144666Y-47585380D02*
X141144666Y-48299666D01*
X141097047Y-48442523D01*
X141001809Y-48537761D01*
X140858952Y-48585380D01*
X140763714Y-48585380D01*
X141668476Y-48585380D02*
X141858952Y-48585380D01*
X141954190Y-48537761D01*
X142001809Y-48490142D01*
X142097047Y-48347285D01*
X142144666Y-48156809D01*
X142144666Y-47775857D01*
X142097047Y-47680619D01*
X142049428Y-47633000D01*
X141954190Y-47585380D01*
X141763714Y-47585380D01*
X141668476Y-47633000D01*
X141620857Y-47680619D01*
X141573238Y-47775857D01*
X141573238Y-48013952D01*
X141620857Y-48109190D01*
X141668476Y-48156809D01*
X141763714Y-48204428D01*
X141954190Y-48204428D01*
X142049428Y-48156809D01*
X142097047Y-48109190D01*
X142144666Y-48013952D01*
%TO.C,J8*%
X148914666Y-60818880D02*
X148914666Y-61533166D01*
X148867047Y-61676023D01*
X148771809Y-61771261D01*
X148628952Y-61818880D01*
X148533714Y-61818880D01*
X149533714Y-61247452D02*
X149438476Y-61199833D01*
X149390857Y-61152214D01*
X149343238Y-61056976D01*
X149343238Y-61009357D01*
X149390857Y-60914119D01*
X149438476Y-60866500D01*
X149533714Y-60818880D01*
X149724190Y-60818880D01*
X149819428Y-60866500D01*
X149867047Y-60914119D01*
X149914666Y-61009357D01*
X149914666Y-61056976D01*
X149867047Y-61152214D01*
X149819428Y-61199833D01*
X149724190Y-61247452D01*
X149533714Y-61247452D01*
X149438476Y-61295071D01*
X149390857Y-61342690D01*
X149343238Y-61437928D01*
X149343238Y-61628404D01*
X149390857Y-61723642D01*
X149438476Y-61771261D01*
X149533714Y-61818880D01*
X149724190Y-61818880D01*
X149819428Y-61771261D01*
X149867047Y-61723642D01*
X149914666Y-61628404D01*
X149914666Y-61437928D01*
X149867047Y-61342690D01*
X149819428Y-61295071D01*
X149724190Y-61247452D01*
%TO.C,J7*%
X148814666Y-65318880D02*
X148814666Y-66033166D01*
X148767047Y-66176023D01*
X148671809Y-66271261D01*
X148528952Y-66318880D01*
X148433714Y-66318880D01*
X149195619Y-65318880D02*
X149862285Y-65318880D01*
X149433714Y-66318880D01*
%TO.C,J6*%
X141144666Y-43902380D02*
X141144666Y-44616666D01*
X141097047Y-44759523D01*
X141001809Y-44854761D01*
X140858952Y-44902380D01*
X140763714Y-44902380D01*
X142049428Y-43902380D02*
X141858952Y-43902380D01*
X141763714Y-43950000D01*
X141716095Y-43997619D01*
X141620857Y-44140476D01*
X141573238Y-44330952D01*
X141573238Y-44711904D01*
X141620857Y-44807142D01*
X141668476Y-44854761D01*
X141763714Y-44902380D01*
X141954190Y-44902380D01*
X142049428Y-44854761D01*
X142097047Y-44807142D01*
X142144666Y-44711904D01*
X142144666Y-44473809D01*
X142097047Y-44378571D01*
X142049428Y-44330952D01*
X141954190Y-44283333D01*
X141763714Y-44283333D01*
X141668476Y-44330952D01*
X141620857Y-44378571D01*
X141573238Y-44473809D01*
%TO.C,J5*%
X153414666Y-70218880D02*
X153414666Y-70933166D01*
X153367047Y-71076023D01*
X153271809Y-71171261D01*
X153128952Y-71218880D01*
X153033714Y-71218880D01*
X154367047Y-70218880D02*
X153890857Y-70218880D01*
X153843238Y-70695071D01*
X153890857Y-70647452D01*
X153986095Y-70599833D01*
X154224190Y-70599833D01*
X154319428Y-70647452D01*
X154367047Y-70695071D01*
X154414666Y-70790309D01*
X154414666Y-71028404D01*
X154367047Y-71123642D01*
X154319428Y-71171261D01*
X154224190Y-71218880D01*
X153986095Y-71218880D01*
X153890857Y-71171261D01*
X153843238Y-71123642D01*
%TO.C,J3*%
X153214666Y-86918880D02*
X153214666Y-87633166D01*
X153167047Y-87776023D01*
X153071809Y-87871261D01*
X152928952Y-87918880D01*
X152833714Y-87918880D01*
X153595619Y-86918880D02*
X154214666Y-86918880D01*
X153881333Y-87299833D01*
X154024190Y-87299833D01*
X154119428Y-87347452D01*
X154167047Y-87395071D01*
X154214666Y-87490309D01*
X154214666Y-87728404D01*
X154167047Y-87823642D01*
X154119428Y-87871261D01*
X154024190Y-87918880D01*
X153738476Y-87918880D01*
X153643238Y-87871261D01*
X153595619Y-87823642D01*
%TO.C,J1*%
X147621666Y-85050380D02*
X147621666Y-85764666D01*
X147574047Y-85907523D01*
X147478809Y-86002761D01*
X147335952Y-86050380D01*
X147240714Y-86050380D01*
X148621666Y-86050380D02*
X148050238Y-86050380D01*
X148335952Y-86050380D02*
X148335952Y-85050380D01*
X148240714Y-85193238D01*
X148145476Y-85288476D01*
X148050238Y-85336095D01*
%TO.C,U2*%
X136361026Y-56730022D02*
X136933446Y-57302442D01*
X137034461Y-57336114D01*
X137101805Y-57336114D01*
X137202820Y-57302442D01*
X137337507Y-57167755D01*
X137371179Y-57066740D01*
X137371179Y-56999396D01*
X137337507Y-56898381D01*
X136765087Y-56325961D01*
X137135477Y-56090259D02*
X137135477Y-56022916D01*
X137169148Y-55921900D01*
X137337507Y-55753542D01*
X137438522Y-55719870D01*
X137505866Y-55719870D01*
X137606881Y-55753542D01*
X137674225Y-55820885D01*
X137741568Y-55955572D01*
X137741568Y-56763694D01*
X138179301Y-56325961D01*
%TO.C,D6*%
X142136904Y-33726380D02*
X142136904Y-32726380D01*
X142375000Y-32726380D01*
X142517857Y-32774000D01*
X142613095Y-32869238D01*
X142660714Y-32964476D01*
X142708333Y-33154952D01*
X142708333Y-33297809D01*
X142660714Y-33488285D01*
X142613095Y-33583523D01*
X142517857Y-33678761D01*
X142375000Y-33726380D01*
X142136904Y-33726380D01*
X143565476Y-32726380D02*
X143375000Y-32726380D01*
X143279761Y-32774000D01*
X143232142Y-32821619D01*
X143136904Y-32964476D01*
X143089285Y-33154952D01*
X143089285Y-33535904D01*
X143136904Y-33631142D01*
X143184523Y-33678761D01*
X143279761Y-33726380D01*
X143470238Y-33726380D01*
X143565476Y-33678761D01*
X143613095Y-33631142D01*
X143660714Y-33535904D01*
X143660714Y-33297809D01*
X143613095Y-33202571D01*
X143565476Y-33154952D01*
X143470238Y-33107333D01*
X143279761Y-33107333D01*
X143184523Y-33154952D01*
X143136904Y-33202571D01*
X143089285Y-33297809D01*
%TO.C,D5*%
X126198404Y-62555380D02*
X126198404Y-61555380D01*
X126436500Y-61555380D01*
X126579357Y-61603000D01*
X126674595Y-61698238D01*
X126722214Y-61793476D01*
X126769833Y-61983952D01*
X126769833Y-62126809D01*
X126722214Y-62317285D01*
X126674595Y-62412523D01*
X126579357Y-62507761D01*
X126436500Y-62555380D01*
X126198404Y-62555380D01*
X127674595Y-61555380D02*
X127198404Y-61555380D01*
X127150785Y-62031571D01*
X127198404Y-61983952D01*
X127293642Y-61936333D01*
X127531738Y-61936333D01*
X127626976Y-61983952D01*
X127674595Y-62031571D01*
X127722214Y-62126809D01*
X127722214Y-62364904D01*
X127674595Y-62460142D01*
X127626976Y-62507761D01*
X127531738Y-62555380D01*
X127293642Y-62555380D01*
X127198404Y-62507761D01*
X127150785Y-62460142D01*
%TO.C,D4*%
X117054404Y-59824880D02*
X117054404Y-58824880D01*
X117292500Y-58824880D01*
X117435357Y-58872500D01*
X117530595Y-58967738D01*
X117578214Y-59062976D01*
X117625833Y-59253452D01*
X117625833Y-59396309D01*
X117578214Y-59586785D01*
X117530595Y-59682023D01*
X117435357Y-59777261D01*
X117292500Y-59824880D01*
X117054404Y-59824880D01*
X118482976Y-59158214D02*
X118482976Y-59824880D01*
X118244880Y-58777261D02*
X118006785Y-59491547D01*
X118625833Y-59491547D01*
%TO.C,D1*%
X161948904Y-71572380D02*
X161948904Y-70572380D01*
X162187000Y-70572380D01*
X162329857Y-70620000D01*
X162425095Y-70715238D01*
X162472714Y-70810476D01*
X162520333Y-71000952D01*
X162520333Y-71143809D01*
X162472714Y-71334285D01*
X162425095Y-71429523D01*
X162329857Y-71524761D01*
X162187000Y-71572380D01*
X161948904Y-71572380D01*
X163472714Y-71572380D02*
X162901285Y-71572380D01*
X163187000Y-71572380D02*
X163187000Y-70572380D01*
X163091761Y-70715238D01*
X162996523Y-70810476D01*
X162901285Y-70858095D01*
%TO.C,D3*%
X161948904Y-82621380D02*
X161948904Y-81621380D01*
X162187000Y-81621380D01*
X162329857Y-81669000D01*
X162425095Y-81764238D01*
X162472714Y-81859476D01*
X162520333Y-82049952D01*
X162520333Y-82192809D01*
X162472714Y-82383285D01*
X162425095Y-82478523D01*
X162329857Y-82573761D01*
X162187000Y-82621380D01*
X161948904Y-82621380D01*
X162853666Y-81621380D02*
X163472714Y-81621380D01*
X163139380Y-82002333D01*
X163282238Y-82002333D01*
X163377476Y-82049952D01*
X163425095Y-82097571D01*
X163472714Y-82192809D01*
X163472714Y-82430904D01*
X163425095Y-82526142D01*
X163377476Y-82573761D01*
X163282238Y-82621380D01*
X162996523Y-82621380D01*
X162901285Y-82573761D01*
X162853666Y-82526142D01*
%TO.C,D2*%
X161948904Y-77160380D02*
X161948904Y-76160380D01*
X162187000Y-76160380D01*
X162329857Y-76208000D01*
X162425095Y-76303238D01*
X162472714Y-76398476D01*
X162520333Y-76588952D01*
X162520333Y-76731809D01*
X162472714Y-76922285D01*
X162425095Y-77017523D01*
X162329857Y-77112761D01*
X162187000Y-77160380D01*
X161948904Y-77160380D01*
X162901285Y-76255619D02*
X162948904Y-76208000D01*
X163044142Y-76160380D01*
X163282238Y-76160380D01*
X163377476Y-76208000D01*
X163425095Y-76255619D01*
X163472714Y-76350857D01*
X163472714Y-76446095D01*
X163425095Y-76588952D01*
X162853666Y-77160380D01*
X163472714Y-77160380D01*
%TO.C,C12*%
X133072142Y-78874857D02*
X133119761Y-78922476D01*
X133167380Y-79065333D01*
X133167380Y-79160571D01*
X133119761Y-79303428D01*
X133024523Y-79398666D01*
X132929285Y-79446285D01*
X132738809Y-79493904D01*
X132595952Y-79493904D01*
X132405476Y-79446285D01*
X132310238Y-79398666D01*
X132215000Y-79303428D01*
X132167380Y-79160571D01*
X132167380Y-79065333D01*
X132215000Y-78922476D01*
X132262619Y-78874857D01*
X133167380Y-77922476D02*
X133167380Y-78493904D01*
X133167380Y-78208190D02*
X132167380Y-78208190D01*
X132310238Y-78303428D01*
X132405476Y-78398666D01*
X132453095Y-78493904D01*
X132262619Y-77541523D02*
X132215000Y-77493904D01*
X132167380Y-77398666D01*
X132167380Y-77160571D01*
X132215000Y-77065333D01*
X132262619Y-77017714D01*
X132357857Y-76970095D01*
X132453095Y-76970095D01*
X132595952Y-77017714D01*
X133167380Y-77589142D01*
X133167380Y-76970095D01*
%TO.C,C11*%
X126483393Y-69457469D02*
X126416049Y-69457469D01*
X126281362Y-69390125D01*
X126214019Y-69322782D01*
X126146675Y-69188095D01*
X126146675Y-69053408D01*
X126180347Y-68952393D01*
X126281362Y-68784034D01*
X126382377Y-68683019D01*
X126550736Y-68582003D01*
X126651751Y-68548332D01*
X126786438Y-68548332D01*
X126921125Y-68615675D01*
X126988469Y-68683019D01*
X127055812Y-68817706D01*
X127055812Y-68885049D01*
X127089484Y-70198248D02*
X126685423Y-69794187D01*
X126887454Y-69996217D02*
X127594561Y-69289110D01*
X127426202Y-69322782D01*
X127291515Y-69322782D01*
X127190500Y-69289110D01*
X127762919Y-70871683D02*
X127358858Y-70467622D01*
X127560889Y-70669652D02*
X128267996Y-69962545D01*
X128099637Y-69996217D01*
X127964950Y-69996217D01*
X127863935Y-69962545D01*
%TO.C,C10*%
X129467894Y-72505469D02*
X129400550Y-72505469D01*
X129265863Y-72438125D01*
X129198520Y-72370782D01*
X129131176Y-72236095D01*
X129131176Y-72101408D01*
X129164848Y-72000393D01*
X129265863Y-71832034D01*
X129366878Y-71731019D01*
X129535237Y-71630003D01*
X129636252Y-71596332D01*
X129770939Y-71596332D01*
X129905626Y-71663675D01*
X129972970Y-71731019D01*
X130040313Y-71865706D01*
X130040313Y-71933049D01*
X130073985Y-73246248D02*
X129669924Y-72842187D01*
X129871955Y-73044217D02*
X130579062Y-72337110D01*
X130410703Y-72370782D01*
X130276016Y-72370782D01*
X130175001Y-72337110D01*
X131218825Y-72976874D02*
X131286168Y-73044217D01*
X131319840Y-73145232D01*
X131319840Y-73212576D01*
X131286168Y-73313591D01*
X131185153Y-73481950D01*
X131016794Y-73650309D01*
X130848436Y-73751324D01*
X130747420Y-73784996D01*
X130680077Y-73784996D01*
X130579062Y-73751324D01*
X130511718Y-73683980D01*
X130478046Y-73582965D01*
X130478046Y-73515622D01*
X130511718Y-73414606D01*
X130612733Y-73246248D01*
X130781092Y-73077889D01*
X130949451Y-72976874D01*
X131050466Y-72943202D01*
X131117810Y-72943202D01*
X131218825Y-72976874D01*
%TD*%
M02*
