M48
; DRILL file {KiCad 5.1.12-84ad8e8a86~92~ubuntu20.04.1} date Sat 13 Aug 2022 02:28:57 PM CDT
; FORMAT={-:-/ absolute / metric / decimal}
; #@! TF.CreationDate,2022-08-13T14:28:57-05:00
; #@! TF.GenerationSoftware,Kicad,Pcbnew,5.1.12-84ad8e8a86~92~ubuntu20.04.1
FMAT,2
METRIC
T1C0.400
T2C0.600
T3C0.900
T4C1.000
T5C3.000
T6C3.200
T7C0.650
T8C0.950
T9C1.000
%
G90
G05
T1
X102.679Y-31.305
X102.87Y-38.735
X104.838Y-43.942
X105.41Y-40.005
X107.01Y-40.894
X107.442Y-50.863
X108.28Y-40.894
X109.55Y-40.894
X110.82Y-40.894
X111.316Y-49.847
X112.09Y-40.894
X112.928Y-76.111
X112.928Y-82.182
X113.36Y-40.894
X114.63Y-40.894
X114.808Y-57.213
X115.9Y-40.894
X116.459Y-80.581
X117.094Y-57.721
X117.17Y-40.894
X118.237Y-63.881
X118.44Y-40.894
X118.681Y-68.644
X118.872Y-49.466
X119.71Y-40.894
X119.761Y-86.423
X120.04Y-72.352
X120.65Y-60.973
X120.675Y-57.112
X120.98Y-40.894
X121.158Y-53.467
X121.92Y-55.435
X122.25Y-40.894
X122.758Y-72.174
X122.809Y-85.357
X123.419Y-64.275
X123.52Y-40.894
X124.206Y-70.802
X124.65Y-62.421
X124.79Y-40.894
X125.222Y-64.732
X125.476Y-57.785
X126.06Y-40.894
X126.263Y-85.077
X126.555Y-56.896
X126.936Y-57.912
X127.381Y-30.226
X127.381Y-32.258
X127.381Y-37.529
X127.444Y-62.928
X127.444Y-69.977
X128.207Y-71.882
X128.397Y-61.976
X128.6Y-40.894
X128.969Y-84.328
X129.222Y-86.106
X129.49Y-78.437
X129.87Y-40.894
X129.921Y-75.374
X130.28Y-81.639
X130.708Y-58.364
X130.874Y-68.453
X130.874Y-72.581
X131.064Y-43.243
X131.076Y-74.853
X131.508Y-40.195
X131.547Y-81.826
X131.572Y-50.038
X131.591Y-63.392
X131.731Y-83.17
X131.826Y-45.085
X132.564Y-58.11
X132.842Y-89.344
X132.905Y-35.179
X133.362Y-56.956
X133.794Y-37.91
X134.336Y-56.73
X134.468Y-66.129
X134.468Y-70.803
X134.493Y-77.051
X134.731Y-55.812
X134.747Y-87.058
X134.874Y-62.039
X135.128Y-45.974
X135.255Y-72.072
X135.703Y-55.578
X136.514Y-54.992
X137.096Y-84.772
X137.514Y-55.01
X137.922Y-88.328
X138.176Y-76.073
X138.34Y-70.172
X138.767Y-54.879
X139.014Y-63.487
X139.408Y-68.989
X139.954Y-54.61
X140.513Y-52.413
X140.692Y-61.367
X140.818Y-66.561
X140.886Y-65.399
X140.906Y-38.291
X141.279Y-87.368
X141.385Y-67.408
X141.415Y-73.401
X141.58Y-51.981
X141.605Y-58.483
X141.708Y-61.605
X141.935Y-79.464
X141.935Y-80.505
X142.049Y-49.931
X142.122Y-72.694
X142.265Y-75.578
X142.621Y-60.008
X142.748Y-39.878
X142.931Y-71.885
X142.988Y-49.583
X143.004Y-61.022
X143.573Y-87.058
X143.739Y-73.368
X143.768Y-71.048
X143.98Y-49.459
X144.208Y-44.514
X144.272Y-48.45
X144.749Y-85.464
X144.78Y-39.116
X144.932Y-89.903
X144.97Y-33.591
X145.58Y-66.996
X146.311Y-50.606
X146.368Y-49.403
X146.736Y-81.75
X146.812Y-74.105
X147.493Y-50.86
X147.65Y-40.894
X148.184Y-65.824
X148.526Y-49.149
X148.907Y-55.562
X149.288Y-60.452
X149.596Y-62.166
X149.733Y-86.36
X150.19Y-40.894
X150.423Y-53.238
X150.749Y-58.356
X151.591Y-53.166
X151.765Y-50.546
X152.019Y-55.181
X152.603Y-53.49
X152.603Y-80.899
X152.73Y-40.894
X154.0Y-49.289
X155.27Y-40.894
X155.702Y-70.548
X156.083Y-48.895
X156.235Y-91.148
X156.909Y-89.344
X157.81Y-40.894
X158.15Y-88.393
X158.178Y-58.991
X158.178Y-66.167
X158.242Y-62.801
X158.394Y-69.685
X159.067Y-40.894
X159.766Y-87.566
X160.338Y-49.403
X160.35Y-40.894
X161.226Y-76.517
X161.239Y-67.145
X161.607Y-40.894
X162.89Y-40.894
X163.449Y-89.344
X163.576Y-68.313
X164.147Y-40.894
X165.1Y-51.371
X165.43Y-40.894
X166.56Y-52.514
X166.7Y-40.894
X167.97Y-40.894
X169.672Y-37.782
X169.672Y-39.814
X170.434Y-43.37
X172.022Y-29.781
X172.974Y-37.02
T3
X109.946Y-52.159
X110.55Y-54.585
X111.155Y-57.01
X111.76Y-59.436
T4
X107.02Y-25.336
X107.02Y-27.877
X109.56Y-25.336
X109.56Y-27.877
X112.1Y-25.336
X112.1Y-27.877
X114.64Y-25.336
X114.64Y-27.877
X117.18Y-25.336
X117.18Y-27.877
X119.72Y-25.336
X119.72Y-27.877
X120.88Y-91.5
X122.26Y-25.336
X122.26Y-27.877
X122.265Y-94.34
X123.65Y-91.5
X124.8Y-25.336
X124.8Y-27.877
X125.035Y-94.34
X126.42Y-91.5
X127.34Y-25.336
X127.34Y-27.877
X127.805Y-94.34
X129.19Y-91.5
X129.88Y-25.336
X129.88Y-27.877
X130.575Y-94.34
X131.96Y-91.5
X132.42Y-25.336
X132.42Y-27.877
X133.345Y-94.34
X134.73Y-91.5
X134.96Y-25.336
X134.96Y-27.877
X136.115Y-94.34
X136.23Y-44.323
X136.23Y-48.006
X137.5Y-25.336
X137.5Y-27.877
X137.5Y-91.5
X138.77Y-44.323
X138.77Y-48.006
X138.885Y-94.34
X140.04Y-25.336
X140.04Y-27.877
X140.27Y-91.5
X141.655Y-94.34
X142.58Y-25.336
X142.58Y-27.877
X143.04Y-91.5
X144.425Y-94.34
X145.12Y-25.336
X145.12Y-27.877
X145.81Y-91.5
X147.195Y-94.34
X147.66Y-25.336
X147.66Y-27.877
X148.145Y-70.294
X148.145Y-72.834
X148.145Y-75.374
X148.145Y-77.914
X148.145Y-80.454
X148.145Y-82.995
X148.58Y-91.5
X149.965Y-94.34
X150.2Y-25.336
X150.2Y-27.877
X151.35Y-91.5
X152.146Y-62.103
X152.146Y-65.849
X152.735Y-94.34
X152.74Y-25.336
X152.74Y-27.877
X154.12Y-91.5
X154.686Y-62.103
X154.686Y-65.849
X155.28Y-25.336
X155.28Y-27.877
X156.21Y-73.025
X156.21Y-75.565
X156.21Y-83.185
X156.21Y-85.725
X157.82Y-25.336
X157.82Y-27.877
X160.36Y-25.336
X160.36Y-27.877
X162.701Y-65.251
X162.9Y-25.336
X162.9Y-27.877
X163.142Y-62.749
X163.583Y-60.248
X164.024Y-57.746
X164.465Y-55.245
X165.44Y-25.336
X165.44Y-27.877
X167.98Y-25.336
X167.98Y-27.877
T5
X117.0Y-53.0
X137.5Y-36.0
X137.5Y-80.0
X158.0Y-53.0
T6
X113.95Y-92.92
X161.05Y-92.92
T7
X115.827Y-63.656
X116.431Y-69.404
T8
X116.213Y-77.23
T9
X116.492Y-75.539
T2
G00X112.316Y-62.587
M15
G01X111.719Y-62.649
M16
G05
G00X113.219Y-71.179
M15
G01X112.622Y-71.242
M16
G05
G00X116.721Y-62.124
M15
G01X115.627Y-62.239
M16
G05
G00X117.625Y-70.716
M15
G01X116.531Y-70.831
M16
G05
T9
G00X116.492Y-83.539
M15
G01X116.209Y-83.822
M16
G05
T0
M30
